<svg xmlns="http://www.w3.org/2000/svg" width="189" height="56" fill="none"><path fill="url(#a)" d="m39.455 54.094-1.93-40.464c-.035-.743.442-1.37 1.045-1.37h3.858c.603 0 1.08.627 1.045 1.37l-1.93 40.464c-.075 1.624-2.011 1.624-2.088 0"/><path fill="url(#b)" d="M40.5 10.005c2.655 0 4.807-2.167 4.807-4.839S43.155.328 40.499.328s-4.807 2.166-4.807 4.838 2.152 4.839 4.807 4.839"/><path fill="#00868A" d="M43.584 13.81h-6.169a1.15 1.15 0 0 1-1.145-1.153 1.15 1.15 0 0 1 1.145-1.153h6.169a1.15 1.15 0 0 1 1.145 1.153 1.15 1.15 0 0 1-1.145 1.153"/><path fill="url(#c)" d="M80.53 24.61 51.98 13.376a.73.73 0 0 0-.78.15c-2.787 2.686-6.946 3.505-10.074 3.705q-.314.02-.626.02v8.767c2.005 0 4.011.608 5.732 1.822 1.332.94 2.622 1.904 3.758 2.78a10.65 10.65 0 0 0 9.358 1.83.747.747 0 0 0 .217-1.337l-8.472-5.48c-.771-.522-.079-1.707.75-1.283l10.972 6.63c.163.083.351.104.527.056l5.776-1.55c.658-.177.751-1.078.143-1.386L54.96 21.853c-.838-.425-.28-1.698.597-1.362l17.904 7.494a.74.74 0 0 0 .536-.003l6.534-1.984c.625-.25.625-1.14 0-1.389"/><path fill="url(#d)" d="M39.873 17.232c-3.128-.2-7.287-1.019-10.074-3.704a.73.73 0 0 0-.779-.15L.47 24.608c-.626.248-.626 1.14-.002 1.387l6.534 1.984c.172.069.363.07.536.004l17.904-7.495c.876-.336 1.434.938.597 1.363l-14.3 6.247c-.609.309-.516 1.21.142 1.386l5.776 1.55a.74.74 0 0 0 .527-.056l10.973-6.63c.828-.424 1.521.761.75 1.284l-8.473 5.48a.747.747 0 0 0 .217 1.337c3.233.897 6.697.221 9.359-1.83a112 112 0 0 1 3.757-2.78 9.93 9.93 0 0 1 5.732-1.822V17.25q-.312 0-.626-.019"/><path fill="url(#e)" d="M38.442 32.866c-1.274-.134-2.483-.267-3.665-.52-2.162-.463-3.796-1.322-4.483-2.357-1.003-1.512.124-3.46 1.756-4.603.46-.322.573-.956.253-1.42a1.01 1.01 0 0 0-1.41-.254c-2.85 1.995-3.81 5.11-2.285 7.41 1.272 1.917 3.827 2.809 5.747 3.22q.155.032.308.062c1.138-.574 2.469-.823 3.803-1.02z"/><path fill="url(#f)" d="M42.042 43.684c.956.286 1.587.682 1.79 1.148.144.33-.03.743-.43 1.028-.376.268-.932.417-1.485.423l-.097 2.042h.074c.976 0 1.947-.279 2.679-.8 1.189-.845 1.648-2.29 1.115-3.511a3.3 3.3 0 0 0-1.034-1.298 16 16 0 0 1-2.589.476z"/><path fill="url(#g)" d="M47.47 35.151a5.6 5.6 0 0 0-1.135-.747c-1.24.245-2.507.38-3.734.509l-.142.015-.024.504c1.49.226 2.845.519 3.72 1.271.52.448.822 1.046.825 1.641.002.502-.208.951-.607 1.302-.84.738-2.254 1.236-4.209 1.481q-.42.053-.87.09-.41.033-.794.082a14 14 0 0 0-1.641.297q-1.582.394-2.512 1.12-.711.552-1.035 1.298c-.531 1.222-.072 2.666 1.116 3.512.731.52 1.703.8 2.678.8l.075-.001-.097-2.042c-.553-.005-1.109-.155-1.485-.423-.401-.285-.573-.699-.43-1.029.203-.465.835-.86 1.791-1.147.447-.134.964-.244 1.542-.327q.456-.066.959-.108.31-.025.606-.058a16 16 0 0 0 2.589-.476c1.278-.356 2.29-.863 3.052-1.533.844-.741 1.307-1.753 1.3-2.849-.008-1.19-.568-2.35-1.538-3.182"/><path fill="url(#h)" d="M50.107 23.712a1.01 1.01 0 0 0-1.411.255 1.024 1.024 0 0 0 .253 1.42c1.632 1.142 2.759 3.09 1.756 4.602-.686 1.035-2.321 1.894-4.483 2.357-1.181.253-2.39.385-3.665.52l-.166.017a79 79 0 0 0-1.892.214q-.326.043-.65.09-.342.05-.686.097l-.696.1c-1.334.197-2.666.446-3.803 1.019a5.6 5.6 0 0 0-1.135.747c-.97.834-1.53 1.993-1.536 3.182-.006 1.096.456 2.108 1.3 2.85.763.669 1.773 1.176 3.053 1.532q.93-.725 2.512-1.12l-.022-.468c-1.955-.246-3.369-.744-4.21-1.481-.398-.352-.608-.801-.605-1.302.003-.596.303-1.194.824-1.642.876-.752 2.23-1.044 3.72-1.27q.434-.066.878-.127l.7-.1q.178-.026.356-.05c.649-.087 1.31-.16 1.96-.228l.141-.015c1.228-.129 2.495-.264 3.734-.51l.308-.061c1.92-.41 4.475-1.304 5.747-3.22 1.526-2.297.566-5.413-2.282-7.408"/><path fill="#333" d="m123.289 14.156.168.153v.934l-.15.133q-2.046.06-2.539.21-.493.152-.697.504-.205.352-.233 1.38-.028 1.03-.103 5.81v8.784q0 1.905.056 4.305.055 2.401.233 2.791.177.39.641.571.466.18 2.642.239l.15.134v.933l-.168.153a95 95 0 0 0-5.284-.172q-1.527 0-5.191.172l-.168-.153v-.914l.15-.153q2.046-.056 2.539-.21.493-.152.697-.504.204-.351.243-1.4.037-1.048.093-5.79V18.082l-6.419 13.754a174 174 0 0 0-4.223 9.717H105a177 177 0 0 0-1.711-3.926L94.395 18.71v13.317q0 1.867.047 4.296t.233 2.81q.186.383.65.572.466.19 2.643.229l.149.153V41l-.168.172-1.191-.057a63 63 0 0 0-3.163-.096q-.596 0-4.446.153l-.15-.153v-.914l.15-.172q2.046-.037 2.53-.191.484-.152.697-.514.214-.36.242-1.352.03-.99.084-5.848v-8.725q.001-1.733-.046-4.22-.048-2.485-.224-2.877-.177-.391-.641-.58-.466-.19-2.642-.23l-.15-.152v-.917l.168-.172q1.284.095 3.46.096 2.048.002 3.573-.096a157 157 0 0 0 2.996 6.688l7.052 14.822 6.363-13.584q2.587-5.505 3.479-7.926 1.786.095 3.516.096 1.561.002 3.683-.096M125.688 14.233l.149-.133q6.382.114 8.169.114 6.102 0 10.864-.114l.093.133q-.464 1.83-.688 5.736l-.112.152h-.912l-.167-.152q.019-.172.018-.306 0-1.618-.242-3.087-1.173-.534-3.246-.695-2.075-.161-3.116-.162-1.469 0-3.758.21l-.075 3.047-.056 3.486-.056 3.869q2.008.114 3.703.114 1.711 0 2.866-.114 1.153-.114 1.348-.24.195-.122.298-.475.101-.351.177-1.248l.075-1.182.149-.153h.856l.149.153a456 456 0 0 1-.093 4.172l.093 4.286-.149.153h-.856l-.149-.153-.131-1.143q-.168-1.335-.242-1.59a.83.83 0 0 0-.345-.448q-.27-.19-1.385-.305-1.117-.115-3.069-.115-1.08 0-3.293.096-.092 1.6-.093 5.334 0 4.002.093 5.887h3.423q4.522 0 5.655-.115a7.3 7.3 0 0 0 2.159-.552q.168-.437.548-2.03.382-1.589.438-1.99l.187-.134h.893l.149.133q-.168.82-.326 2.859a46 46 0 0 0-.159 3.486l-.13.153q-3.555-.115-9.302-.115l-5.06-.038q-1.768 0-3.684.153l-.149-.153v-.628l.149-.191q1.097-.572 1.256-.714.158-.144.261-3.334t.103-4.867v-6.99l-.019-4.324q0-1.41-.037-2.295-.037-.884-.13-1.268-.094-.38-.215-.533-.12-.151-.391-.257-.27-.105-.921-.182l-1.414-.114-.149-.134v-.953zM148.162 14.232l.15-.133q3.219.151 4.39.152l8.707-.19q3.72 0 6.103.714 2.381.714 4.232 2.476a11.8 11.8 0 0 1 2.81 4.095q.957 2.335.958 4.982 0 2.572-.874 5.086a14.9 14.9 0 0 1-2.484 4.506q-1.609 1.991-3.665 3.21t-4.121 1.628a21.6 21.6 0 0 1-4.223.409q-1.451 0-5.47-.115a81 81 0 0 0-1.749-.038q-1.284 0-3.106.153l-.149-.153v-.628l.149-.19q1.096-.573 1.257-.715.157-.144.261-3.334.101-3.191.102-4.866v-6.988l-.019-4.325q0-1.41-.037-2.295-.037-.884-.13-1.268-.094-.38-.215-.533-.12-.151-.391-.257-.27-.104-.921-.182l-1.414-.114-.149-.134v-.953zm6.884 24.863q1.898.381 4.372.382 4.335 0 6.93-1.485t3.878-4.401q1.285-2.915 1.285-6.572 0-5.392-2.81-8.365t-8.856-2.972q-2.493 0-4.799.381a150 150 0 0 0-.149 7.05v5.981l.037 5.602q0 1.637.112 4.4M178.189 14.1l2.325.076q2.289.076 2.997.076.632 0 5.339-.152l.15.133v.953l-.15.134q-1.282.037-1.982.114-.698.078-1.014.287-.315.208-.419.981-.103.772-.103 2.144l-.037 4.382v8.82l.019 3.716q.018 2.153.111 2.782.092.63.271.839.177.209.678.353.503.142 2.475.22l.149.114v.953l-.149.152q-.094 0-3.274-.114a79 79 0 0 0-2.066-.038q-.577 0-5.321.152l-.15-.152v-.953l.15-.115q1.73-.075 2.306-.19.576-.114.772-.297.195-.18.317-.771.12-.59.14-2.63l.018-4.018V23.23l-.037-3.716q-.02-2.17-.103-2.8-.084-.63-.261-.839-.177-.21-.678-.343-.504-.133-2.474-.21l-.15-.134v-.955z"/><defs><linearGradient id="a" x1="40.5" x2="40.5" y1="55.312" y2="12.261" gradientUnits="userSpaceOnUse"><stop stop-color="#4FBFA5"/><stop offset="1" stop-color="#006A65"/></linearGradient><linearGradient id="c" x1="40.5" x2="81" y1="23.082" y2="23.082" gradientUnits="userSpaceOnUse"><stop stop-color="#4FBFA5"/><stop offset="1" stop-color="#00868A"/></linearGradient><linearGradient id="d" x1="0" x2="40.5" y1="23.082" y2="23.082" gradientUnits="userSpaceOnUse"><stop stop-color="#4FBFA5"/><stop offset="1" stop-color="#00868A"/></linearGradient><linearGradient id="e" x1="27.889" x2="38.467" y1="28.966" y2="28.966" gradientUnits="userSpaceOnUse"><stop stop-color="#4FBFA5"/><stop offset="1" stop-color="#00868A"/></linearGradient><linearGradient id="f" x1="41.82" x2="45.907" y1="45.52" y2="45.52" gradientUnits="userSpaceOnUse"><stop stop-color="#00868A"/><stop offset="1" stop-color="#4FBFA5"/></linearGradient><linearGradient id="g" x1="35.092" x2="49.006" y1="41.364" y2="41.364" gradientUnits="userSpaceOnUse"><stop stop-color="#00868A"/><stop offset="1" stop-color="#4FBFA5"/></linearGradient><linearGradient id="h" x1="31.994" x2="53.11" y1="33.122" y2="33.122" gradientUnits="userSpaceOnUse"><stop stop-color="#4FBFA5"/><stop offset="1" stop-color="#00868A"/></linearGradient><radialGradient id="b" cx="0" cy="0" r="1" gradientTransform="matrix(4.80728 0 0 4.8382 39.31 4.501)" gradientUnits="userSpaceOnUse"><stop stop-color="#4FBFA5"/><stop offset="1" stop-color="#00868A"/></radialGradient></defs></svg>