<svg xmlns="http://www.w3.org/2000/svg" width="26" height="22" fill="none"><path fill="#fff" d="M13.074 6.31q-.96 0-1.834.38a4.8 4.8 0 0 0-1.502 1.008 4.8 4.8 0 0 0-1.01 1.497 4.6 4.6 0 0 0 0 3.67q.382.885 1.01 1.511.627.626 1.502.995a4.7 4.7 0 0 0 1.834.368 4.69 4.69 0 0 0 4.1-2.333q.627-1.08.627-2.381 0-1.941-1.379-3.327-1.378-1.388-3.348-1.388m0 7.857a3.1 3.1 0 0 1-1.576-.43 3.2 3.2 0 0 1-1.17-1.153A3.04 3.04 0 0 1 9.899 11q0-.638.246-1.215t.677-1.007a3.17 3.17 0 0 1 2.228-.92q1.305 0 2.229.92.923.92.923 2.222 0 1.301-.911 2.234a2.98 2.98 0 0 1-2.216.933m12.532-3.339a.2.2 0 0 0-.012-.061.2.2 0 0 1-.013-.062q0-.024-.012-.037l-.012-.012v-.024l-.025-.05Q23.858 6.728 20.46 4.53t-7.41-2.197q-2.635 0-5.073.957-2.437.958-4.42 2.836a13.6 13.6 0 0 0-3.114 4.457v.061l-.024.037v.074l-.025.049a1.5 1.5 0 0 0-.025.22q0 .05.013.099a.4.4 0 0 1 .012.098q0 .023.025.074v.049l.012.037.012.012v.073q1.7 3.856 5.11 6.028A13.6 13.6 0 0 0 13 19.667a13.8 13.8 0 0 0 5.06-.945q2.425-.945 4.395-2.811a13.3 13.3 0 0 0 3.077-4.444q.025 0 .025-.025v-.037l.012-.024.012-.013v-.073l.025-.05q.024-.147.025-.22a.4.4 0 0 0-.013-.099.4.4 0 0 1-.012-.098M13 18.096q-3.496 0-6.475-1.83-2.98-1.828-4.53-5.241 1.55-3.413 4.554-5.267t6.5-1.854q2.265 0 4.346.786t3.829 2.418 2.782 3.917q-1.551 3.412-4.53 5.242A12.15 12.15 0 0 1 13 18.096"/></svg>