<svg xmlns="http://www.w3.org/2000/svg" width="45" height="45" viewBox="0 0 45 45">
  <defs>
    <style>
      .a {
        fill: #b7000e;
      }
    </style>
  </defs>
  <title>Pochta-red</title>
  <path class="a" d="M88.81,141.73a23.49,23.49,0,0,1-12.34-2.57c-9.69-4.7-14.59-14.75-12.07-25.73,2.24-9.77,12.23-16.34,21.42-16.62,12.44-.38,23.85,11.32,22.86,25.07-0.5,6.92-7,10.35-12.81,6.51-1.81-1.2-2.62-.8-4.19.09a10.84,10.84,0,0,1-13.62-1.72,11.14,11.14,0,0,1,10.56-18.63c4.89,1.13,8.21,5.38,8.45,10.87,0,1,0,2,0,3,0.14,2.09,1.3,3.6,3.33,3.65s3.11-1.37,3.44-3.49c1.55-10-5.86-19.85-15.91-20.95a17.88,17.88,0,1,0-2.59,35.65c2.8,0.13,5.62,0,8.43,0,1.65,0,3.31-.28,3.32,2.35s-1.48,2.53-3.24,2.49C92.4,141.71,90.92,141.73,88.81,141.73Zm3.95-22.53a6.76,6.76,0,1,0-6.83,6.56A7.15,7.15,0,0,0,92.75,119.2Z" transform="translate(-63.75 -96.82)"/>
</svg>
