<svg xmlns="http://www.w3.org/2000/svg" width="33" height="45" viewBox="0 0 33 45">
  <defs>
    <style>
      .a {
        fill: #b7000e;
      }
    </style>
  </defs>
  <title>Marker-red</title>
  <g>
    <path class="a" d="M86.52,162.81c11.82,0,19.36,10.44,15.42,21.32-3,8.32-8.15,15.38-13.55,22.31-1.47,1.89-2.39,1.78-3.81,0-5.4-6.93-10.54-14-13.54-22.31C67.11,173.22,74.68,162.8,86.52,162.81Zm0,38.42c4.68-6.16,8.88-12,11.09-19a11.16,11.16,0,0,0-4.2-12.94,11.59,11.59,0,0,0-13.84.08,11.12,11.12,0,0,0-4.06,13C77.7,189.28,81.9,195.13,86.47,201.22Z" transform="translate(-69.99 -162.81)"/>
    <path class="a" d="M92.33,178.31c-0.27,3.52-2,5.75-5.64,5.84s-5.79-1.88-5.91-5.42,2-5.68,5.53-5.82S91.81,174.94,92.33,178.31Z" transform="translate(-69.99 -162.81)"/>
  </g>
</svg>
