<svg xmlns="http://www.w3.org/2000/svg" width="29" height="45" viewBox="0 0 29 45">
  <defs>
    <style>
      .a {
        fill: #b7000e;
      }
    </style>
  </defs>
  <title>Telefon-red</title>
  <path class="a" d="M101,55.47c0,5.34,0,10.68,0,16,0,4.29-2,6.53-6.4,6.5-5.38,0-10.75,0-16.13,0-4.08,0-6.4-1.83-6.42-6Q72,55.53,72,39c0-3.8,2-5.94,5.87-6Q86.47,33,95,33c3.91,0,5.88,2.12,5.92,5.93C101,44.46,101,50,101,55.47ZM96.87,54c0-4-.09-8,0-12,0.06-2.12-.64-3-2.85-3-5,.1-10,0.09-15.06,0-2.13,0-2.95.71-2.92,2.9q0.15,11.46,0,22.93c0,2.11.64,3,2.85,3q7.53-.14,15.06,0c2.13,0,3-.72,2.92-2.91C96.77,61.31,96.87,57.65,96.87,54ZM88.82,71.78a2.27,2.27,0,0,0-2.45-2A2,2,0,0,0,84.24,72a2.11,2.11,0,0,0,2.38,2A2.29,2.29,0,0,0,88.82,71.78Z" transform="translate(-72 -33)"/>
</svg>
