<?xml version="1.0" encoding="utf-8"?>
<!-- Generator: Adobe Illustrator 24.0.1, SVG Export Plug-In . SVG Version: 6.00 Build 0)  -->
<svg version="1.1" xmlns="http://www.w3.org/2000/svg" xmlns:xlink="http://www.w3.org/1999/xlink" x="0px" y="0px"
	 viewBox="0 0 1001 1242.7" style="enable-background:new 0 0 1001 1242.7;" xml:space="preserve">
<style type="text/css">
	.st0{display:none;fill:#FFFFFF;stroke:#000000;stroke-miterlimit:10;}
	.st1{display:none;}
	.st2{display:inline;fill:#E9EBEE;stroke:#000000;stroke-miterlimit:10;}
	.st3{display:inline;fill:#5580A3;stroke:#000000;stroke-miterlimit:10;}
	.st4{fill:#212121;}
	.st5{fill:#9C0315;}
	.st6{fill:#730315;}
	.st7{fill:none;}
	.st8{display:none;fill:#141414;}
	.st9{font-family:'MagistralC';}
	.st10{font-size:265.5px;}
	.st11{fill:#FFFFFF;}
	.st12{font-family:'Verdana';}
	.st13{font-size:123.4955px;}
</style>
<g id="white">
	<rect x="0.5" y="0.5" class="st0" width="1000" height="1000"/>
</g>
<g id="facebook" class="st1">
	<rect x="0.5" y="0.5" class="st2" width="1000" height="1000"/>
</g>
<g id="telegram" class="st1">
	<rect x="0.5" y="0.5" class="st3" width="1000" height="1000"/>
</g>
<g id="Слой_3">
	<rect x="290.8" y="156.1" class="st4" width="420.3" height="430.7"/>
</g>
<g id="Слой_1">
	<polygon class="st5" points="709.6,163.2 709.6,580.3 292.4,580.3 206.3,666.5 795.8,666.5 795.8,77 	"/>
	<polygon class="st6" points="205.8,76.5 205.8,666.5 206.3,666.5 292.4,580.3 291.9,580.3 291.9,162.7 709.6,162.7 709.6,163.2 
		795.8,77 795.8,76.5 	"/>
	<rect x="500.8" y="482" class="st7" width="227.4" height="233.6"/>
	<text transform="matrix(1 0 0 1 500.7603 667.8174)" class="st8 st9 st10">K</text>
	<rect x="501" y="353" class="st7" width="227.4" height="233.6"/>
	<text transform="matrix(1 0 0 1 501.0203 538.8174)" class="st11 st9 st10">K</text>
	<rect x="364.7" y="1104.8" class="st7" width="271.7" height="137.9"/>
	<text transform="matrix(1 0 0 1 422.0681 1198.6482)" class="st11 st12 st13">39</text>
</g>
<g id="Слой_6">
	<polygon class="st5" points="500.8,934.5 317.7,756.3 206.3,756.3 500.8,1045.9 	"/>
	<polygon class="st6" points="683.9,756.3 501.4,935.1 500.8,934.5 500.8,1045.9 501.4,1046.5 795.4,756.3 	"/>
</g>
</svg>
