<?xml version="1.0" encoding="utf-8"?>
<!-- Generator: Adobe Illustrator 24.0.1, SVG Export Plug-In . SVG Version: 6.00 Build 0)  -->
<svg version="1.1" id="Слой_1" xmlns="http://www.w3.org/2000/svg" xmlns:xlink="http://www.w3.org/1999/xlink" x="0px" y="0px"
	 viewBox="0 0 1000 1000" style="enable-background:new 0 0 1000 1000;" xml:space="preserve">
<style type="text/css">
	.st0{fill:#141414;}
	.st1{fill:#9C0315;}
	.st2{fill:#730315;}
	.st3{fill:none;}
	.st4{enable-background:new    ;}
	.st5{fill:#FFFFFF;}
</style>
<path id="Слой_3" class="st0" d="M146,146h708v708H146V146z"/>
<g id="Слой_1_1_">
	<path class="st1" d="M854,146.9V854H146.9l-146,146H1000V0.9L854,146.9z"/>
	<path class="st2" d="M0,0v1000h0.9l146-146H146V146h708v0.9l146-146V0H0z"/>
	<path class="st3" d="M500.4,468.6h385.5v396H500.4V468.6z"/>
	<path class="st3" d="M500.4,470h385.5v396H500.4V470z"/>
	<g class="st4">
		<path class="st5" d="M531.9,785V470h24.3v315H531.9z M795.6,785h-36.5l-158-122c-18.3-14.1-27.5-27.5-27.5-40
			c0-11.1,7.5-22.5,22.5-34.2L743.9,470H779L617.9,600.5c-0.3,0.3-1.4,1.2-3.4,2.7c-2,1.5-3.5,2.6-4.5,3.4c-1.1,0.8-2.5,2-4.3,3.6
			c-1.8,1.7-3.2,3.1-4,4.3c-0.9,1.2-1.7,2.6-2.5,4.3c-0.8,1.7-1.1,3.2-1.1,4.7c0,6.3,7.8,15.5,23.4,27.5L795.6,785z"/>
	</g>
</g>
</svg>
