<?xml version="1.0" encoding="utf-8"?>
<!-- Generator: Adobe Illustrator 23.0.1, SVG Export Plug-In . SVG Version: 6.00 Build 0)  -->
<svg version="1.1" xmlns="http://www.w3.org/2000/svg" xmlns:xlink="http://www.w3.org/1999/xlink" x="0px" y="0px"
	 viewBox="0 0 1000 1000" style="enable-background:new 0 0 1000 1000;" xml:space="preserve">
<style type="text/css">
	.st0{display:none;}
	.st1{display:inline;}
	.st2{fill:#7B297D;}
	.st3{fill:#FFFFFF;}
	.st4{fill:#141414;}
	.st5{fill:none;}
	.st6{font-family:'MagistralC';}
	.st7{font-size:195.021px;}
	.st8{font-size:87.375px;}
	.st9{font-size:279px;}
	.st10{letter-spacing:1.2;}
	.st11{font-size:125px;}
</style>
<g id="Social" class="st0">
	<g id="Main__x28_копия_x29_" class="st1">
		<g id="Слой_1__x28_копия_x29_">
			<polygon class="st2" points="745,254.9 850,150 150,150 150,849 255,744.2 255,254.9 			"/>
		</g>
		<g id="Слой_2__x28_копия_x29_">
			<g>
				<polygon class="st3" points="150.6,848.8 255.1,744.4 745.3,744.4 745.3,255 849.8,150.6 849.8,848.8 				"/>
				<path d="M849.5,151.2v697.3H151.2l104-103.8H745h0.5v-0.5V255.1L849.5,151.2 M850,150L745,254.9v489.3H255L150,849h700V150
					L850,150z"/>
			</g>
		</g>
		<g id="Слой_3__x28_копия_x29_">
			<rect x="255" y="254.9" class="st4" width="490" height="489.3"/>
		</g>
		<g id="Слой_5__x28_копия_x29_">
			<rect x="502.1" y="464.5" class="st5" width="210.7" height="245.3"/>
			<text transform="matrix(0.861 0 0 1 490.2539 601.0645)"><tspan x="0" y="0" class="st3 st6 st7">PC</tspan><tspan x="8.4" y="104.8" class="st3 st6 st8">BUILD</tspan></text>
		</g>
	</g>
</g>
<g id="Main">
	<g id="Слой_1">
		<polygon class="st2" points="850,150 1000,0 0,0 0,1000 150,850 150,150 		"/>
	</g>
	<g id="Слой_2">
		<g>
			<polygon class="st3" points="0.6,999.8 150.1,850.3 850.3,850.3 850.3,150.1 999.8,0.6 999.8,999.8 			"/>
			<path d="M999.5,1.2v998.3H1.2l149-149H850h0.5V850V150.2L999.5,1.2 M1000,0L850,150v700H150L0,1000h1000V0L1000,0z"/>
		</g>
	</g>
	<g id="Слой_3">
		<rect x="150" y="150" class="st4" width="700" height="700"/>
	</g>
	<g id="Слой_5">
		<rect x="503" y="450" class="st5" width="301" height="351"/>
		<text transform="matrix(0.8598 0 0 1 486.0778 645.2988)"><tspan x="0" y="0" class="st3 st6 st9 st10">PC</tspan><tspan x="11.9" y="150" class="st3 st6 st11">BUILD</tspan></text>
	</g>
</g>
<g id="Направляющие">
</g>
</svg>
