<?xml version="1.0" encoding="utf-8"?>
<!-- Generator: Adobe Illustrator 24.0.1, SVG Export Plug-In . SVG Version: 6.00 Build 0)  -->
<svg version="1.1" id="Слой_1" xmlns="http://www.w3.org/2000/svg" xmlns:xlink="http://www.w3.org/1999/xlink" x="0px" y="0px"
	 viewBox="0 0 1000 1000" style="enable-background:new 0 0 1000 1000;" xml:space="preserve">
<style type="text/css">
	.st0{display:none;}
	.st1{display:inline;}
	.st2{fill:#7B297D;}
	.st3{fill:#FFFFFF;}
	.st4{fill:#141414;}
	.st5{fill:none;}
	.st6{font-family:'MagistralC';}
	.st7{font-size:195.021px;}
	.st8{font-size:87.375px;}
	.st9{enable-background:new    ;}
</style>
<g id="Social">
	<g id="Main__x28_копия_x29_" class="st0">
		<g id="Слой_1__x28_копия_x29_" class="st1">
			<polygon class="st2" points="745,254.9 850,150 150,150 150,849 255,744.2 255,254.9 			"/>
		</g>
		<g id="Слой_2__x28_копия_x29_" class="st1">
			<g>
				<polygon class="st3" points="150.6,848.8 255.1,744.4 745.3,744.4 745.3,255 849.8,150.6 849.8,848.8 				"/>
				<path d="M849.5,151.2v697.3H151.2l104-103.8H745h0.5v-0.5V255.1L849.5,151.2 M850,150L745,254.9v489.3H255L150,849h700V150
					L850,150z"/>
			</g>
		</g>
		<g id="Слой_3__x28_копия_x29_" class="st1">
			<rect x="255" y="254.9" class="st4" width="490" height="489.3"/>
		</g>
		<g id="Слой_5__x28_копия_x29_" class="st1">
			<rect x="502.1" y="464.5" class="st5" width="210.7" height="245.3"/>
			<text transform="matrix(0.861 0 0 1 490.2539 601.0645)" class="st3 st6 st7">PC</text>
			<text transform="matrix(0.861 0 0 1 497.4863 705.8643)" class="st3 st6 st8">BUILD</text>
		</g>
	</g>
</g>
<g id="Main">
	<g id="Слой_1_1_">
		<polygon class="st2" points="850,150 1000,0 0,0 0,1000 150,850 150,150 		"/>
	</g>
	<g id="Слой_2_1_">
		<g>
			<polygon class="st3" points="0.6,999.8 150.1,850.3 850.3,850.3 850.3,150.1 999.8,0.6 999.8,999.8 			"/>
			<path d="M999.5,1.2v998.3H1.2l149-149H850h0.5V850V150.2L999.5,1.2 M1000,0L850,150v700H150L0,1000h1000V0L1000,0z"/>
		</g>
	</g>
	<g id="Слой_3">
		<rect x="150" y="150" class="st4" width="700" height="700"/>
	</g>
	<g id="Слой_5">
		<rect x="503" y="450" class="st5" width="301" height="351"/>
		<g class="st9">
			<path class="st3" d="M515.8,645.3h-13V473.2c0-8.6,1.5-14.5,4.6-17.9c3.2-3.5,8.6-5.3,16.1-5.3h69.3c14.6,0,25.2,3.4,31.9,10.3
				c4.6,4.7,7.9,10.8,9.8,18.6c1.9,7.7,2.9,18.1,2.9,31.1c0,23.3-4.6,39-13.9,47.2c-6.1,5.6-13.6,8.4-22.5,8.4h-85.2V645.3z
				 M515.8,552.1h77.7c11.4,0,19.2-3,23.5-8.9c4.3-6,6.5-18.3,6.5-37.1c0-16.6-2.3-27.8-7-33.8c-4.5-6-12-8.9-22.5-8.9h-68.6
				c-4.3,0-7,0.9-8,2.8c-1,1.9-1.6,4.9-1.6,9.2V552.1z"/>
			<path class="st3" d="M798.9,645.3h-67.6c-20.8,0-37.5-7.3-50.1-22c-6.9-8-11.7-17.8-14.5-29.4c-2.8-11.6-4.2-26.1-4.2-43.4
				c0-16.7,1.2-31.4,3.5-44.1c2.3-12.6,7.2-23.5,14.5-32.6C692.9,457.9,710,450,732,450h64.3v13.4h-58.8c-22.4,0-38.6,7.5-48.7,22.6
				c-8.3,12.5-12.5,34-12.5,64.7c0,26.4,3.7,45.6,11,57.5c9.8,15.8,25.3,23.7,46.5,23.7h65V645.3z"/>
		</g>
		<g class="st9">
			<path class="st3" d="M503.8,784v-64.8c0-3.6,0.7-6.4,2.1-8.5c1.5-2,3.7-3,6.7-3h34.7c4.9,0,8.6,1.6,11.3,4.9
				c3.2,3.8,4.7,10,4.7,18.8c0,6.6-1.1,11.5-3.2,14.8c-1.8,2.7-4.1,4.2-6.9,4.6v0.5c3.2,0.4,5.8,2,7.7,4.8c1,1.4,1.8,3.1,2.3,5.1
				c0.5,2,0.8,3.6,0.8,4.8c0,1.3,0.1,3.2,0.1,5.8c0,2.9,0,5.1-0.1,6.6c-0.1,1.5-0.5,3.4-1.2,5.7c-0.7,2.3-1.8,4.4-3.2,6.3
				c-1.6,2.1-3.3,3.5-4.9,4.1c-1.6,0.7-3.6,1-5.9,1h-33.2c-0.1,0-0.5,0-1.2,0c-0.6,0-1.1,0-1.4,0c-0.3,0-0.8,0-1.4-0.1
				c-0.6,0-1.2-0.1-1.6-0.3c-0.4-0.1-0.8-0.3-1.3-0.5c-0.5-0.2-1-0.5-1.5-0.8c-0.5-0.3-0.9-0.8-1.2-1.3
				C504.6,790.6,503.8,787.8,503.8,784z M509.6,718.8v29.5h35.3c4.9,0,8.2-1.3,9.9-3.9c1.6-2.3,2.4-7,2.4-13.9
				c0-6.8-1.1-11.5-3.4-14.1c-1.6-1.8-4-2.6-7.2-2.6h-32.6c-1.6,0-2.7,0.3-3.2,1C510,715.6,509.6,717,509.6,718.8z M509.6,754.3
				v28.3c0,2.8,0.3,4.6,0.8,5.4c0.6,0.9,2.3,1.4,4.9,1.4h30c5.1,0,8.5-1.4,10.2-4.1c1.6-2.4,2.4-6.9,2.4-13.4
				c0-6.3-0.6-10.6-1.9-12.9c-0.7-1.3-1.8-2.3-3.3-3.3c-1.5-0.9-3-1.4-4.5-1.4H509.6z"/>
			<path class="st3" d="M577,707.8h5.8v57.9c0,8.3,1.3,14.3,3.9,17.8c3.3,4.6,9.7,6.9,19.1,6.9c9.5,0,15.8-2.3,19.1-6.9
				c2.6-3.5,3.9-9.4,3.9-17.8v-57.9h5.8V768c0,8.3-1.8,14.7-5.4,19.4c-4.7,5.9-12.5,8.9-23.4,8.9c-11,0-18.8-3-23.4-8.9
				c-3.6-4.7-5.4-11.1-5.4-19.4V707.8z"/>
			<path class="st3" d="M655.5,795.3h-5.8v-87.5h5.8V795.3z"/>
			<path class="st3" d="M723.5,795.3h-44.8c-2.8,0-4.8-0.6-6.1-1.9c-1.4-1.3-2-3.4-2-6.1v-79.5h5.8V785c0,1.5,0.3,2.6,0.9,3.3
				c0.6,0.7,1.7,1,3.2,1h43.1V795.3z"/>
			<path class="st3" d="M766.1,795.3h-26.7c-3.7,0-6.3-0.7-7.8-2.1c-1.8-1.6-2.7-4.1-2.7-7.5v-65.4c0-4.1,0.9-7.2,2.6-9.3
				c1.8-2.2,4.2-3.3,7.1-3.3h25.6c8.7,0,15.9,3.4,21.6,10.1c2.5,3,4.4,6.6,5.8,10.7c1.4,4.1,2.1,7.6,2.4,10.6
				c0.2,2.9,0.3,6.5,0.3,10.9c0,15.8-2.5,27.3-7.5,34.8C782,791.8,775.1,795.3,766.1,795.3z M734.7,718.5v65.3
				c0,2.4,0.3,3.9,0.8,4.5c0.6,0.7,1.7,1,3.4,1h27c8.5,0,14.5-3.9,18.1-11.6c2.7-6,4.1-15.4,4.1-28.1c0-5.8-0.4-10.7-1.1-14.9
				c-0.8-4.2-2.3-8-4.7-11.4c-4.3-6.3-10.2-9.4-17.7-9.4h-25.4c-1.4,0-2.4,0.3-3,0.9C735.2,715.6,734.7,716.9,734.7,718.5z"/>
		</g>
	</g>
</g>
<g id="Направляющие">
</g>
</svg>
