<?xml version="1.0" encoding="utf-8"?>
<!-- Generator: Adobe Illustrator 23.0.1, SVG Export Plug-In . SVG Version: 6.00 Build 0)  -->
<svg version="1.1" xmlns="http://www.w3.org/2000/svg" xmlns:xlink="http://www.w3.org/1999/xlink" x="0px" y="0px"
	 viewBox="0 0 1000 1000" style="enable-background:new 0 0 1000 1000;" xml:space="preserve">
<style type="text/css">
	.st0{display:none;}
	.st1{display:inline;}
	.st2{fill:#E5BB0F;}
	.st3{fill:#FFFFFF;stroke:#000000;stroke-width:0.5;stroke-miterlimit:10;}
	.st4{fill:#141414;}
	.st5{fill:none;}
	.st6{fill:#FFFFFF;}
	.st7{font-family:'MagistralC';}
	.st8{font-size:349.5px;}
	.st9{font-size:500px;}
</style>
<g id="Слой_7" class="st0">
	<g id="Слой_6__x28_копия_x29_" class="st1">
	</g>
	<g id="Слой_1__x28_копия_x29_" class="st1">
		<polygon class="st2" points="745,254.9 850,150 150,150 150,849 255,744.2 255,254.9 		"/>
	</g>
	<g id="Слой_2__x28_копия_x29_" class="st1">
		<polygon class="st3" points="745,254.9 850,150 850,849 150,849 255,744.2 745,744.2 		"/>
	</g>
	<g id="Слой_3__x28_копия_x29_" class="st1">
		<rect x="255" y="254.9" class="st4" width="490" height="489.3"/>
	</g>
	<g id="Слой_5__x28_копия_x29_" class="st1">
		<rect x="500" y="464.5" class="st5" width="210.7" height="245.3"/>
		<text transform="matrix(0.861 0 0 1 505.3506 709.1992)" class="st6 st7 st8">S</text>
	</g>
</g>
<g id="Слой_6">
	<g id="Слой_1">
		<polygon class="st2" points="850,150 1000,0 0,0 0,1000 150,850 150,150 		"/>
	</g>
	<g id="Слой_2">
		<g>
			<polygon class="st6" points="0.6,999.8 150.1,850.3 850.3,850.3 850.3,150.1 999.8,0.6 999.8,999.8 			"/>
			<path d="M999.5,1.2v998.3H1.2l149-149H850h0.5V850V150.2L999.5,1.2 M1000,0L850,150v700H150L0,1000h1000V0L1000,0z"/>
		</g>
	</g>
	<g id="Слой_3">
		<rect x="150" y="150" class="st4" width="700" height="700"/>
	</g>
	<g id="Слой_5">
		<rect x="500" y="450" class="st5" width="301" height="351"/>
		<text transform="matrix(0.8598 0 0 1 507.6432 799.998)" class="st6 st7 st9">S</text>
	</g>
</g>
<g id="Слой_4">
</g>
</svg>
