<?xml version="1.0" encoding="utf-8"?>
<!-- Generator: Adobe Illustrator 24.0.1, SVG Export Plug-In . SVG Version: 6.00 Build 0)  -->
<svg version="1.1" id="Слой_1" xmlns="http://www.w3.org/2000/svg" xmlns:xlink="http://www.w3.org/1999/xlink" x="0px" y="0px"
	 viewBox="0 0 1000 1000" style="enable-background:new 0 0 1000 1000;" xml:space="preserve">
<style type="text/css">
	.st0{display:none;}
	.st1{display:inline;}
	.st2{fill:#E5BB0F;}
	.st3{fill:#FFFFFF;stroke:#000000;stroke-width:0.5;stroke-miterlimit:10;}
	.st4{fill:#141414;}
	.st5{fill:none;}
	.st6{fill:#FFFFFF;}
	.st7{font-family:'MagistralC';}
	.st8{font-size:349.5px;}
	.st9{enable-background:new    ;}
</style>
<g id="Слой_7" class="st0">
	<g id="Слой_6__x28_копия_x29_" class="st1">
	</g>
	<g id="Слой_1__x28_копия_x29_" class="st1">
		<polygon class="st2" points="745,254.9 850,150 150,150 150,849 255,744.2 255,254.9 		"/>
	</g>
	<g id="Слой_2__x28_копия_x29_" class="st1">
		<polygon class="st3" points="745,254.9 850,150 850,849 150,849 255,744.2 745,744.2 		"/>
	</g>
	<g id="Слой_3__x28_копия_x29_" class="st1">
		<rect x="255" y="254.9" class="st4" width="490" height="489.3"/>
	</g>
	<g id="Слой_5__x28_копия_x29_" class="st1">
		<rect x="500" y="464.5" class="st5" width="210.7" height="245.3"/>
		<text transform="matrix(0.861 0 0 1 505.3506 709.1992)" class="st6 st7 st8">S</text>
	</g>
</g>
<g id="Слой_6">
	<g id="Слой_1_1_">
		<polygon class="st2" points="850,150 1000,0 0,0 0,1000 150,850 150,150 		"/>
	</g>
	<g id="Слой_2_1_">
		<g>
			<polygon class="st6" points="0.6,999.8 150.1,850.3 850.3,850.3 850.3,150.1 999.8,0.6 999.8,999.8 			"/>
			<path d="M999.5,1.2v998.3H1.2l149-149H850h0.5V850V150.2L999.5,1.2 M1000,0L850,150v700H150L0,1000h1000V0L1000,0z"/>
		</g>
	</g>
	<g id="Слой_3">
		<rect x="150" y="150" class="st4" width="700" height="700"/>
	</g>
	<g id="Слой_5">
		<rect x="500" y="450" class="st5" width="301" height="351"/>
		<g class="st9">
			<path class="st6" d="M533.9,800v-24h169.8c23.5,0,35.3-20,35.3-60c0-13.7-2.5-25.2-7.5-34.5c-5-9.3-15.1-17-30.3-23l-119.9-48
				c-16.6-6.7-29-15.3-37-26c-10-13.3-15-32.2-15-56.5c0-27.3,6.7-47.5,20.2-60.5c11.7-11.7,27.7-17.5,47.7-17.5h152.6v24H594.5
				c-13.8,0-24.2,4.5-31.4,13.5c-6,7.7-9,21.5-9,41.5c0,6.7,0.3,12.2,0.9,16.5c0.6,4.3,1.8,9.2,3.7,14.5c1.9,5.3,4.9,10,9.2,14
				c4.3,4,9.9,7.5,16.8,10.5l116.9,48c21.8,9,36.4,17.7,43.8,26c12.3,13.7,18.5,32.5,18.5,56.5c0,26.7-4.9,47.3-14.6,62
				c-10,15.3-26.1,23-48.1,23H533.9z"/>
		</g>
	</g>
</g>
<g id="Слой_4">
</g>
</svg>
