<svg xmlns="http://www.w3.org/2000/svg" width="41" height="45" viewBox="0 0 41 45">
  <defs>
    <style>
      .a {
        fill: #b7000e;
      }
    </style>
  </defs>
  <title>Economychnost-red</title>
  <path class="a" d="M79.52,143c-5.31-5.33-4.88-11.53-2.81-17.87,1.67-5.12,5.1-9,9.52-12a4.72,4.72,0,0,1,2.85-.85c4.51,0,9,0,13.54,0a4.17,4.17,0,0,1,2,.34c7.55,3.72,13,14.81,11.4,23.1A11.87,11.87,0,0,1,111.9,143H79.52Zm14.29-14.32a33.72,33.72,0,0,0,3.56,0,5.13,5.13,0,0,0,4.55-5,5,5,0,0,0-4.19-5c-2.65-.25-5.35-0.06-8.12-0.06v7.8c-0.6.63-1.46,0-2,.73,0.21,0.43-.3,1.06.3,1.54,0.51,0.28,1.19-.17,1.75.49-0.2.43,0.29,1-.27,1.53-0.5.33-1.19-.16-1.76,0.5,0.17,0.42-.27,1,0.36,1.64,0.42,0.24,1.26-.33,1.78.7v3.31h4V133c0.74-.43,1.56.12,1.94-0.48V131c-0.58-.61-1.47.1-1.89-0.62v-1.75Z" transform="translate(-75.27 -97.97)"/>
  <path class="a" d="M85.56,100.07H91c3.85-2.8,5.7-2.79,9.64,0H106l-2,8H87.63Z" transform="translate(-75.27 -97.97)"/>
  <path class="a" d="M98,123.6c-1.15,1.61-2.61.71-3.81,1-0.64-.58-0.4-1.21-0.25-2.06C95.23,122.84,96.78,121.78,98,123.6Z" transform="translate(-75.27 -97.97)"/>
</svg>
