<svg xmlns="http://www.w3.org/2000/svg" width="45" height="45" viewBox="0 0 45 45">
  <defs>
    <style>
      .a {
        fill: #b7000e;
      }
    </style>
  </defs>
  <title>Kompetentnost-red</title>
  <path class="a" d="M64,122.86c0.12-2-.15-4.78.48-7.59,1.67-7.37,6.41-11.49,13.54-13.26,3.66-.91,7.36-0.39,11-0.49,1.93-.05,3.3,1.82,5,2.08s3.35-.68,5.11-0.1c2.65,0.87,8.43,6.5,9.35,9.17a7.86,7.86,0,0,1-1.73,8.13,16.78,16.78,0,0,1-1.74,1.55c-1.86,1.64-3.35,3.35-3,6.17a6.83,6.83,0,0,1-3.16,6.79c-1,.65-1.22,1.72-1.77,2.61-3.1,5-7.41,8.28-13.45,8.53-6.69.27-11.5-3-14.77-8.67a9.33,9.33,0,0,0-2.47-3.12,6.11,6.11,0,0,1-2.4-5.1C64,127.61,64,125.66,64,122.86ZM82.18,143a12.86,12.86,0,0,0,11.49-6.12c1.19-1.8,1.59-4.23,4-5.08a1.54,1.54,0,0,0,.48-0.71,3.26,3.26,0,0,0,.21-3.34c-0.75-1-1.91-.15-2.84.33a7.8,7.8,0,0,1-7.8-.07,3.45,3.45,0,0,0-1.31-.61c-3.32-.15-5.44-2-7.48-4.46-0.91-1.1-2-3-3.88-2.61a6.88,6.88,0,0,0-4.83,3,5.65,5.65,0,0,0-.91,2.74,1.43,1.43,0,0,1-.54,1.22c-1.74,1.4-1.83,3.78.08,4.79,1.58,0.84,2.09,2.13,2.81,3.49C74.05,140.16,77.72,142.85,82.18,143Zm23.39-27.71c0.22-3.7-3.63-4.51-5.05-7.07a3.76,3.76,0,0,0-3.6-1.55,3.49,3.49,0,0,0-2,.41c-1.26.87-2.09,0.42-3.13-.59-2.83-2.72-6.94-1.92-8.32,1.69a3.78,3.78,0,0,1-2.51,2.4c-2.38,1-3.36,3.17-3,5.71,0.45,3.06,3.78,3.71,5,6.16a2.92,2.92,0,0,0,2.78,1.34A5.89,5.89,0,0,1,89.26,125a4.47,4.47,0,0,0,5-.06,6.77,6.77,0,0,1,3.5-1.12c3.13-.18,3.81-3.63,6.21-4.88,1-.54,1.37-1.84,1.59-3A4.42,4.42,0,0,0,105.57,115.31Z" transform="translate(-64.04 -101.46)"/>
  <path class="a" d="M86.4,115.36a1.65,1.65,0,1,1-1.55-1.7A1.52,1.52,0,0,1,86.4,115.36Z" transform="translate(-64.04 -101.46)"/>
  <path class="a" d="M91.71,113.65a1.51,1.51,0,0,1,1.65,1.53A1.68,1.68,0,1,1,91.71,113.65Z" transform="translate(-64.04 -101.46)"/>
  <path class="a" d="M100.35,115.13a1.68,1.68,0,0,1-1.52,1.79,1.71,1.71,0,0,1-1.91-1.65,1.6,1.6,0,0,1,1.65-1.61A1.64,1.64,0,0,1,100.35,115.13Z" transform="translate(-64.04 -101.46)"/>
</svg>
