<svg xmlns="http://www.w3.org/2000/svg" width="45" height="50" viewBox="0 0 45 50">
  <defs>
    <style>
      .a {
        fill: #b7000e;
      }
    </style>
  </defs>
  <title>Uchastie-red</title>
  <path class="a" d="M42.57,121.88V77.06h15c5-6.89,10.26-6.9,15,0H87.57v44.86h-45Zm22.33-25V92.15H50.18V96.9H64.89ZM65,107.18H50.18v4.65H65v-4.65ZM75.79,96.88l6.85-6.35L78.82,86.6l-4.43,5.49H70.25v4.8h5.54Zm3.25,5-4.55,5.25H70.27v4.82h5.19l7.05-6.31ZM65.29,82c1.31-.34,2.37-1.09,2.28-2.68a2.48,2.48,0,0,0-5,.1C62.57,81,63.62,81.78,65.29,82Z" transform="translate(-42.57 -71.88)"/>
</svg>
