<svg xmlns="http://www.w3.org/2000/svg" width="41" height="45" viewBox="0 0 41 45">
  <defs>
    <style>
      .a {
        fill: #b7000e;
      }
    </style>
  </defs>
  <title>Unikalnost-red</title>
  <path class="a" d="M139.59,75.1c0,10.16.52,11.18-9,11.28v6.5H110.32a3.13,3.13,0,0,1-.18-0.92c0.55-6.49-1.1-12.14-4.69-17.78-3.9-6.13-2.83-12.9,1.38-18.78a17,17,0,0,1,17.22-7.28c7.54,1.15,12.68,5.64,14.7,13a30,30,0,0,0,3.95,8c2,3.29,1.92,3.72-1.73,5.31C140.55,74.6,140.14,74.83,139.59,75.1ZM123.8,72.39c3.59-2.22,5-4.93,4.24-8a6.93,6.93,0,0,0-6.55-5.21A6.79,6.79,0,0,0,115,64c-1,3.21.28,5.87,4.13,8.52,0.35,1.45-.35,3,0.51,4.44a4.94,4.94,0,0,0,3.77-.11C124,75.47,123.5,74,123.8,72.39Zm-12.62-11a1.22,1.22,0,0,0-1,1,1.09,1.09,0,1,0,2.17.15A1.14,1.14,0,0,0,111.18,61.43Zm21.53,1.21a1.09,1.09,0,0,0-1-1.15,1.08,1.08,0,1,0-.15,2.16A1.07,1.07,0,0,0,132.71,62.64Zm-21.33,7.84a1.26,1.26,0,0,0,1-1,1.09,1.09,0,1,0-2.17-.12A1.16,1.16,0,0,0,111.38,70.48Zm20.21,0a1.09,1.09,0,0,0,1.1-1,1.08,1.08,0,1,0-2.16,0A1.07,1.07,0,0,0,131.59,70.45Z" transform="translate(-103.04 -47.88)"/>
</svg>
