<svg xmlns="http://www.w3.org/2000/svg" width="45" height="45" viewBox="0 0 45 45">
  <defs>
    <style>
      .a {
        fill: #b7000e;
      }
    </style>
  </defs>
  <title>Effectivnost-red</title>
  <path class="a" d="M267.81,249.42h7.45v32.75h-7.45V249.42Z" transform="translate(-230.26 -237.21)"/>
  <path class="a" d="M249,282.16V257.85h7.49v24.28C256.19,282.22,249.65,282.25,249,282.16Z" transform="translate(-230.26 -237.21)"/>
  <path class="a" d="M265.88,282.18h-7.46V262.56h7.46v19.62Z" transform="translate(-230.26 -237.21)"/>
  <path class="a" d="M239.63,265.35h7.45v16.83h-7.45V265.35Z" transform="translate(-230.26 -237.21)"/>
  <path class="a" d="M254.67,247.43l6.44,3.2a1.88,1.88,0,0,1,1-.27,0.41,0.41,0,0,0,.37-0.25l1.56-2.19,5.49-7.67a0.8,0.8,0,0,0,.17-0.76,1.83,1.83,0,0,1,1.35-2.21,1.87,1.87,0,0,1,1.09,3.58,1.41,1.41,0,0,1-.46.09,0.67,0.67,0,0,0-.58.33L264,251.21l-0.16.24a1.92,1.92,0,0,1,.07,1.33,1.85,1.85,0,0,1-1.87,1.29,1.8,1.8,0,0,1-1.72-1.41,0.67,0.67,0,0,0-.42-0.51q-2.91-1.44-5.81-2.89a0.64,0.64,0,0,0-.61,0,1.6,1.6,0,0,1-1.15.11,0.47,0.47,0,0,0-.48.1l-6.62,5.26a1.9,1.9,0,0,1-.93,1.92,1.82,1.82,0,0,1-2.1-.14L235.85,259a2.23,2.23,0,0,1-.53,1.05,1.87,1.87,0,0,1-3.19-1.54A1.88,1.88,0,0,1,233.5,257a1.66,1.66,0,0,1,1.36.18,0.61,0.61,0,0,0,.61,0l5.76-2.32a0.56,0.56,0,0,0,.36-0.38,1.79,1.79,0,0,1,2.09-1.28,0.83,0.83,0,0,0,.72-0.2q3.1-2.48,6.21-4.93a0.62,0.62,0,0,0,.27-0.55,1.87,1.87,0,0,1,3.69-.44C254.6,247.18,254.63,247.29,254.67,247.43Z" transform="translate(-230.26 -237.21)"/>
  <path class="a" d="M237.7,282.18h-7.45V269.1h7.45v13.09Z" transform="translate(-230.26 -237.21)"/>
</svg>
