<svg xmlns="http://www.w3.org/2000/svg" width="45" height="45" viewBox="0 0 45 45">
  <defs>
    <style>
      .a {
        fill: #b7000e;
      }
    </style>
  </defs>
  <title>Innovacionnost-red</title>
  <path class="a" d="M4.33,49.28V24.4H21.76V44.24H44.4V24.4h4.93V49.28h-45Z" transform="translate(-4.33 -4.28)"/>
  <path class="a" d="M49.33,19H4.47V4.28H49.33V19ZM27.07,9.18V14H44.3V9.22H27.07v0Zm-12.72,2.4c-0.27-1.5-1.07-2.52-2.66-2.44a2.52,2.52,0,0,0,.08,5c1.58,0,2.34-1,2.58-2.53h0Zm5,2.59c1.53-.23,2.52-1,2.52-2.61a2.52,2.52,0,0,0-5,0c-0.14,1.6.9,2.36,2.41,2.61h0Z" transform="translate(-4.33 -4.28)"/>
  <path class="a" d="M27.08,24.3H39.27v4.78H27.08V24.3Z" transform="translate(-4.33 -4.28)"/>
  <path class="a" d="M39.37,34.53v4.59H27V34.53H39.37Z" transform="translate(-4.33 -4.28)"/>
</svg>
