<svg xmlns="http://www.w3.org/2000/svg" width="45" height="44" viewBox="0 0 45 44">
  <defs>
    <style>
      .a {
        fill: #b7000e;
      }
    </style>
  </defs>
  <title>Bonus-red</title>
  <path class="a" d="M72.75,100.06V79.23H88.66v19h9.42v-19h16v20.81H72.75Z" transform="translate(-70.96 -56.06)"/>
  <path class="a" d="M98.18,77.15v-9H88.83v8.92H71V67.22h9.88c-1-.81-1.64-1.29-2.22-1.83-2.44-2.27-2.89-5.94-1-7.91s5.72-1.85,8.2.3A11.11,11.11,0,0,1,88,60.49c0.48,0.8,1,1.58,1.48,2.37,2.81,4.47,5.11,4.47,7.91,0,0.7-1.12,1.38-2.25,2.12-3.34a8,8,0,0,1,3.32-2.9c2.34-1.05,5.19-.59,6.59,1s1.31,4.28,0,6.31A9.94,9.94,0,0,1,106,67.06h10V77.15H98.18Zm-0.75-11c3.17,0.11,6,.2,8.46-1.29a4.66,4.66,0,0,0,2.59-4.8A2.25,2.25,0,0,0,106.56,58a4.63,4.63,0,0,0-5,1.95C100.18,61.9,98.93,63.93,97.44,66.18Zm-8,0c-1.77-2.36-2.76-4.76-4.56-6.63S80.3,57.37,79,58.76s-0.66,4.17,1.34,5.68a8.45,8.45,0,0,0,3,1.39A19.88,19.88,0,0,0,89.48,66.15Z" transform="translate(-70.96 -56.06)"/>
</svg>
