<svg xmlns="http://www.w3.org/2000/svg" viewBox="0 0 31.27 31.27"><path d="M24.3 19.04c.06-.22.11-.46.11-.74a3.09 3.09 0 011.6-2.77c1.06-.63 1.28-1.48.69-2.54a3.08 3.08 0 010-3.2c.6-1.08.37-1.92-.69-2.55a3.09 3.09 0 01-1.6-2.77c-.02-1.23-.63-1.85-1.86-1.86A3.09 3.09 0 0119.78 1C19.15-.05 18.3-.27 17.24.33a3.1 3.1 0 01-3.2 0c-1.07-.6-1.92-.38-2.55.68a3.08 3.08 0 01-2.77 1.6c-1.23.01-1.85.63-1.86 1.86a3.08 3.08 0 01-1.6 2.77c-1.05.63-1.28 1.47-.69 2.54.6 1.07.6 2.14 0 3.2-.6 1.07-.37 1.92.69 2.55a3.08 3.08 0 011.6 2.77c0 .23.05.4.09.59l-4.83 9.48 4.04-.45 2.23 3.35 4.12-8.58c.45.15.95.07 1.52-.25 1.07-.6 2.14-.6 3.2 0 .61.34 1.14.4 1.6.22l4.96 8.52 1.39-3.62 3.97.52-4.85-9.04zm-8.67-.35a7.5 7.5 0 110-15.01 7.5 7.5 0 010 15z"/><circle cx="15.64" cy="11.25" r="5.9"/></svg>