<svg xmlns="http://www.w3.org/2000/svg" viewBox="0 0 32 32"><path d="M12 17c-.1.2-.3.9-.6 1l-.9.3-1 .1V20H12v6h2V16h-1.6c0 .4-.2.7-.4 1zm11-9h2c.6 0 1-.4 1-1V1c0-.6-.4-1-1-1h-2a1 1 0 00-1 1v6c0 .6.4 1 1 1zM7 8h2c.6 0 1-.4 1-1V1c0-.6-.4-1-1-1H7a1 1 0 00-1 1v6c0 .6.4 1 1 1zm23-4h-2v5c0 .6-.4 1-1 1h-6a1 1 0 01-1-1V4h-8v5c0 .6-.4 1-1 1H5a1 1 0 01-1-1V4H2a2 2 0 00-2 2v24c0 1.1.9 2 2 2h28a2 2 0 002-2V6a2 2 0 00-2-2zm0 25c0 .6-.4 1-1 1H3a1 1 0 01-1-1V13c0-.6.4-1 1-1h26c.6 0 1 .4 1 1v16zM16 18h5c-1 1.1-1.7 2.3-2.3 3.7-.6 1.4-.7 2.8-.8 4.3h2.2c0-.7-.2-1.4 0-2.2a15.6 15.6 0 011.5-4.4 7 7 0 011.4-1.7V16h-7v2z"/></svg>