<svg xmlns="http://www.w3.org/2000/svg" viewBox="0 0 480 480"><path d="M155.2 241.7a120.8 120.8 0 100-241.6 120.8 120.8 0 000 241.6zM113 168.6l3.4-11.9c1.4-4.6 2.7-5.1 6.9-2.9a67.5 67.5 0 0022.8 6.8c5.1.6 10.2.1 14.9-2 8.9-3.9 10.3-14.2 2.8-20.4a36.5 36.5 0 00-8.5-5c-7.8-3.4-15.9-6-23.3-10.4-11.9-7.1-19.5-17-18.6-31.5 1-16.4 10.3-26.7 25.3-32.1 6.2-2.3 6.2-2.2 6.3-8.7v-6.6c.1-4.9 1-5.7 5.8-5.9h4.5c10.4 0 10.4 0 10.4 10.4 0 7.3 0 7.4 7.3 8.5 5.6.9 10.9 2.5 16.1 4.8C192 63 193 65 192.2 68c-1.3 4.5-2.5 9-4 13.4-1.4 4.2-2.7 4.8-6.7 2.9a51.4 51.4 0 00-25.6-5.1c-2.4.1-4.6.4-6.8 1.4-7.7 3.4-9 11.9-2.4 17.2 3.3 2.7 7.1 4.6 11.1 6.2 6.8 2.8 13.7 5.6 20.3 9.2 20.7 11.5 26.3 37.5 11.7 55.2a38.9 38.9 0 01-20.2 12.9c-3.5 1-5.1 2.8-4.9 6.4.2 3.6 0 7.1 0 10.7 0 3.2-1.6 4.9-4.8 5h-11.5c-3.4-.1-5-2-5-5.3l-.1-7.8c-.1-5.7-.2-6-5.8-6.9-7.1-1.1-14-2.7-20.5-5.9-4.9-2.3-5.4-3.6-4-8.9z"/><path d="M426.2 251.8h-14.1a158 158 0 00-51.8-73.4c0-.9-.2-1.9-.4-2.8a56.8 56.8 0 018.5-45.9 11.5 11.5 0 00-11.1-17.5 84.8 84.8 0 00-46.5 19.5c-7 6.1-12 14.3-14.2 23.4a145.6 145.6 0 01-229.8 81.3 141.4 141.4 0 00-9.1 92.8l.1.5c2.7 11.1 6.8 21.8 12 31.9a167.4 167.4 0 0030.7 46.4 88.5 88.5 0 0123.8 56.9V470.3c.4 5.4 4.9 9.7 10.4 9.7h63.2c5.7 0 10.4-4.6 10.4-10.4V454a217.4 217.4 0 0050.2.7v14.9c0 5.7 4.6 10.4 10.4 10.4h63.4c5.7 0 10.4-4.6 10.4-10.4V454c.1-5.2 1.9-25.9 21.5-43.6l2.1-1.8.6-.5a156.4 156.4 0 0046.2-70.6h13.3c10.6 0 19.2-8.6 19.2-19.2V271a19.5 19.5 0 00-19.4-19.2zm-79.1 3.4a15.7 15.7 0 110-31.4 15.7 15.7 0 110 31.4z"/></svg>