<svg xmlns="http://www.w3.org/2000/svg" width="43" height="34"><defs><linearGradient id="a" x1="0%" x2="42.26%" y1="90.63%" y2="0%"><stop offset="0%" stop-color="#FFA3BD"/><stop offset="0%" stop-color="#E12462"/><stop offset="100%" stop-color="#FF4D87"/></linearGradient></defs><path d="M40.5 18L29 29.8s-2.8 4-7 4.2c-4.4.3-7.2-3.7-7.2-3.7s2.2 1.4 4.8.6c2.6-.8 5.2-3.7 5.2-3.7s12.6-11 13.3-14.6C39 7.8 36 5.8 33 5c-3.4-1-5.9 2-5.9 2l-6 6s-2.1 3-4.5 3.7c-2.6.6-3.5-.3-3.5-.3l-3.7-3.6S8 10.4 9.3 9.5c2.1-1.6 3.5 0 3.5 0s1.7 2 2.7 1.8c1 0 1.4-.7 1.4-.7l7-7.5S27-.3 32.6 0c5 .2 9.2 3.9 10.3 9.8 1 5-2.3 8.2-2.3 8.2zM15 6.4s-4.3-3.5-8.3.1C3 9.8 5.3 13.7 5.3 13.7L11 20s1.4 1.8 4.2 2c2.7.3 4.1-1.7 4.1-1.7L29.7 9.8s1.7-2 3.7-.5c2 1.4-.3 4.2-.3 4.2l-9.4 9.3s-4.1 4.6-8.7 4.5c-4.6 0-6.3-2.8-6.3-2.8s-1.9-1.7-.3-.2c1.7 1.6-5.8-6-5.8-6S-.2 15 0 10.6C.2 6 3.8 1.3 8.7.3c7-1.5 10.6 3.4 10.6 3.4L16 7l-.9-.6z" fill="url(#a)"/></svg>