<svg xmlns="http://www.w3.org/2000/svg" width="42" height="45" viewBox="0 0 42 45">
  <defs>
    <style>
      .a {
        fill: #b7000e;
      }
    </style>
  </defs>
  <title>Peregovori-red</title>
  <path class="a" d="M198.86,136.74h-4.65V114.85l-6.74,7.07-6.87-7-0.52.32v21.4h-4.67v-13.2h-4.7v13.19h-4.65V105.33c3.29,0,6.68-.08,10.06,0a5.06,5.06,0,0,1,3.19,1.86c2.46,2.42,4.93,4.83,7.68,7.51,2.45-2.35,4.87-4.5,7.08-6.82a7.83,7.83,0,0,1,6.72-2.69c2.33,0.19,4.7,0,7.26,0v31.46h-4.5V123.42h-4.7v13.32Z" transform="translate(-166.06 -91.74)"/>
  <path class="a" d="M173.06,91.74a4.51,4.51,0,1,1-4.81,4.33A4.67,4.67,0,0,1,173.06,91.74Z" transform="translate(-166.06 -91.74)"/>
  <path class="a" d="M201.17,100.76a4.51,4.51,0,1,1,4.74-4.41A4.68,4.68,0,0,1,201.17,100.76Z" transform="translate(-166.06 -91.74)"/>
</svg>
