<svg xmlns="http://www.w3.org/2000/svg" width="35" height="45" viewBox="0 0 35 45">
  <defs>
    <style>
      .a {
        fill: #b7000e;
      }
    </style>
  </defs>
  <title>Dogovor-red</title>
  <path class="a" d="M79.07,71.06v31.32h-35v-45H65.76Zm-6.6,20.86c-0.85-1.38-1.56-2.44-2.19-3.55-1-1.81-2.42-2.26-4.08-1-0.95.7-1.63,1.78-2.53,2.56a17,17,0,0,1-2.27,1.44c0.5-2,1.43-3.49,2-5.13A6.73,6.73,0,0,0,61.43,79a4.38,4.38,0,0,0-5.33-.9,6.49,6.49,0,0,0-3.33,6.59,42.8,42.8,0,0,0,1.38,5.6L50.7,91.44v4.61L57.53,94c3.41,3,6.78,2.16,9.52-.95l5.42,3.24V91.92Zm2.21-19L63.9,61.69V72.92H74.68Z" transform="translate(-44.07 -57.38)"/>
  <path class="a" d="M57.54,82.2c2.42,1.7,1.86,3.24,0,4.73V82.2Z" transform="translate(-44.07 -57.38)"/>
</svg>
