<svg xmlns="http://www.w3.org/2000/svg" width="45" height="39" viewBox="0 0 45 39">
  <defs>
    <style>
      .a {
        fill: #b7000e;
      }
    </style>
  </defs>
  <title>Ispolnenie-red</title>
  <path class="a" d="M63.12,89.57H38.9c-0.84-7.83-.47-10.55,9.55-12.13a20.67,20.67,0,0,1,8.09.52C62.32,79.37,63.48,81.39,63.12,89.57Z" transform="translate(-18.18 -50.61)"/>
  <path class="a" d="M34.55,89.61h-16c-1.35-8,1.09-11.23,9.36-12.16a21,21,0,0,1,8.83.76C33.83,81.58,34.78,85.63,34.55,89.61Z" transform="translate(-18.18 -50.61)"/>
  <path class="a" d="M30.57,60.87A6.17,6.17,0,1,1,24.38,67,6.16,6.16,0,0,1,30.57,60.87Z" transform="translate(-18.18 -50.61)"/>
  <path class="a" d="M51,73.21a6.17,6.17,0,1,1,6.09-6.27A6.16,6.16,0,0,1,51,73.21Z" transform="translate(-18.18 -50.61)"/>
  <path class="a" d="M42.79,64.89H38.7c0.08-2.42,0-4.61-1.62-6.66-1.23-1.57-.36-3.48,1.2-4.7a3.7,3.7,0,0,1,5.1.17c1.48,1.31,2.18,3.25.89,4.78C42.65,60.41,42.75,62.46,42.79,64.89Z" transform="translate(-18.18 -50.61)"/>
  <path class="a" d="M33.54,50.61a1,1,0,0,1,1,.91,0.93,0.93,0,0,1-1.06,1.08,0.92,0.92,0,0,1-.89-1A1,1,0,0,1,33.54,50.61Z" transform="translate(-18.18 -50.61)"/>
  <path class="a" d="M48.11,52.61a1,1,0,0,1-1.21-.82,1,1,0,1,1,2-.24A1,1,0,0,1,48.11,52.61Z" transform="translate(-18.18 -50.61)"/>
  <path class="a" d="M32.53,55.78a1,1,0,0,1-1,.93,0.94,0.94,0,0,1-1-1.18,0.93,0.93,0,0,1,1.1-.8A1,1,0,0,1,32.53,55.78Z" transform="translate(-18.18 -50.61)"/>
  <path class="a" d="M49.92,54.72a1,1,0,0,1,1,.94,1,1,0,1,1-2,0A1,1,0,0,1,49.92,54.72Z" transform="translate(-18.18 -50.61)"/>
</svg>
