<svg xmlns="http://www.w3.org/2000/svg" width="14" height="10" viewBox="0 0 14 10">
  <defs>
    <style>
      .a {
        fill: #f9f5f7;
      }

      .b {
        fill: #e43a36;
      }

      .c {
        fill: #3f51b4;
      }
    </style>
  </defs>
  <title>FlagUK</title>
  <path class="a" d="M112,126.48l0.16-.16,2.4-1.6,2.4-1.68-0.64.08h-0.64l-2.16,1.44-2.16,1.6V125.6l-0.08-.4,0.08-.24,0.08-.24,1.2-.8,1.12-.72-1.2-.08-1.28-.08V122.4h6.4v4.24H117v-3.2l-2.32,1.6-2.4,1.6h-0.56Zm7-2V122.4h6.32V123l-1.12.08-1,.08,1,0.64,1.12,0.72V125L125,125l-0.16-.16-1.28-.88-1.2-.88-0.56.08-0.56.08,2,1.28,2,1.36v0.8h-0.72L122,125l-2.48-1.68V125l-0.08,1.68h-0.56v-2.16Zm-7.68-3.92v-0.32l1.44-.08h1.44l-1.44-1-1.44-1v-0.4l1.84,1.2,1.76,1.28h1.28l-2.4-1.68-2.48-1.6v-0.32h1.52l2.08,1.44,2.08,1.44v-2.88h0.72V121h-6.4v-0.4Zm7.68-1.76v-2.16h0.56v3h0.16l2.24-1.52,2.24-1.52h0.72l-2.72,1.84-2.48,1.68h0.48l0.56,0.08,2.24-1.52,2.32-1.6v1.28l-0.16.16-0.24.16-1.12.72-1.12.8h2.64V121h-6.32V118.8Z" transform="translate(-111.23 -116.64)"/>
  <path class="b" d="M111.23,126.4v-0.24l2.24-1.6,2.16-1.44h1.17l-2.53,1.76-2.56,1.76h-0.48V126.4Zm6.4-1.92V122.4h-6.4V121h6.4v-4.32h1.28V121h6.32v1.44h-6.32v4.24h-1.28v-2.16Zm5.52,0-2-1.34,0.65,0,0.64,0,1.36,1,1.44,1v0.88l-0.24-.16ZM113.07,119l-1.84-1.28V117h0.16l2.4,1.6,2.32,1.6h-1.28Zm6.8,0.88,2.4-1.6,2.4-1.68h0.56v0.48l-2.24,1.6-2.32,1.52h-1.2" transform="translate(-111.23 -116.64)"/>
  <path class="c" d="M117,123.44v3.2h-4.72l0.32-.24m6.88-1.44V123.2l0.56,0.4,0.48,0.32,2,1.36,2,1.36h-5V125Zm-8.24-1v-1h2.64l-0.24.16-1.2.88-1.2.8V124Zm12-.72-0.27-.18,2.27-.06v1.6m-14-5.36v-1.12l0.16,0.08,1.12,0.8,1,0.72,0.32,0.24,0.32,0.24h-3v-1Zm11.92,0.56,2.08-1.44v1.84h-2.64Zm-3.68,0v-3.2h4.64c-0.08.08-.16,0.08-0.24,0.16l-2.08,1.44m-4.88-.08v1.36l-2-1.36-2.24-1.52h4.24" transform="translate(-111.23 -116.64)"/>
</svg>
