<svg xmlns="http://www.w3.org/2000/svg" width="1920" height="516" fill="none"><g clip-path="url(#a)"><path fill="#151515" d="M0 0h1920v516H0z"/><path fill="#1B1B1B" d="M1920 0H0v516h1920z"/><path stroke="#CEA561" d="M1509.16 305.531v-.001c1.51-8.525 6.51-14.687 13.44-18.298 6.93-3.603 15.77-4.657 25.01-3.034 9.24 1.636 17.19 5.65 22.47 11.406 5.28 5.765 7.87 13.264 6.36 21.791-3 17.051-20.53 28.139-39.07 24.867-9.19-1.623-17.32-4.769-22.61-10.561-5.32-5.818-7.7-14.219-5.6-26.17Zm-20.95 163.582c-6.64 5.567-14.43 7.082-22.07 5.39-7.62-1.69-15.07-6.569-21.1-13.754-6.03-7.189-9.54-15.376-9.88-23.177-.34-7.815 2.5-15.222 9.13-20.785 9.3-7.799 17.77-9.933 25.46-8.238 7.66 1.688 14.45 7.152 20.45 14.306 12.1 14.422 11.27 35.133-1.99 46.258Zm-206.55-127.945c31.39 1.335 62.54.857 93.64.38 16.94-.26 33.86-.52 50.8-.486h.31l.14.278 15.22 30.729c.01.016.03.034.04.053.01.032.03.064.04.095l7.61 15.348v.001l2.53 5.103-.45.223.45-.223a10.8 10.8 0 0 1-5.28 14.722l-.01.005-.06.028-.25.137c-.24.132-.6.351-1.12.692-1.03.683-2.64 1.854-4.95 3.797-15.74 13.22-14.38 35.544-.01 52.662 14.36 17.123 36.12 22.344 51.87 9.13 15.57-13.067 17-37.223 3.28-54.265-20.28-24.846-37.48-50.974-53.43-77.627l-.46-.771.9.014c31.66.489 63.4 2.313 95.36 7.418 8.77 1.227 17.11-.837 24.59-4.006a341 341 0 0 1 6.18-2.514c7.79-3.118 17.6-7.049 26.53-12.308 11.52-6.784 21.39-15.692 23.51-27.742v-.001c.05-.268.06-.466.06-.606-.03.017-.06.038-.1.064-.32.195-.74.558-1.28 1.076-.53.512-1.15 1.151-1.83 1.877q-.435.455-.9.951c-2.65 2.812-6.09 6.469-9.51 8.865v.001c-7.68 5.373-12.88 6.039-16.41 4.333-3.49-1.689-5.07-5.594-5.81-8.748l-.01-.036v-.037a28 28 0 0 0-.55-3.643l-.01-.029v-.03c-.03-.308-.05-.577-.06-.796h-.13c-3.45-13.813-16.46-24.167-33.42-27.159l.09-.492-.09.492c-22-3.888-42.03 6.096-45.59 26.336-.53 2.986-.74 4.992-.82 6.245-.04.626-.04 1.064-.04 1.341.01.138.01.237.01.298 0 .014 0 .026.01.036v.056c.02.268.01.559 0 .81v.29q.015.133 0 .306c-.13 5.549-4.38 10.159-10.1 10.522l-57.99 3.685-.3.019-.16-.268c-8.59-14.828-16.88-29.772-25.17-44.714-15.12-27.254-30.23-54.502-47.17-81.031l-.06-.023c-.15-.051-.35-.123-.59-.206a37 37 0 0 0-1.8-.567c-.67-.188-1.32-.342-1.8-.401-.09-.009-.16-.016-.22-.02l52.4 105.701-.45.222.45-.222 10.75 21.696.33.673-.75.048-23.45 1.497-117.8 7.459c.04.054.08.113.13.178.29.394.75.877 1.25 1.357.49.476 1 .934 1.39 1.273.19.169.36.309.47.405.02.016.04.03.05.044Zm-3.45-3.562v-.01zm78.32-136.75.01-.003zm70.7 131.874a3.25 3.25 0 0 1 4.45-1.192 3.24 3.24 0 0 1 1.2 4.452 3.25 3.25 0 0 1-4.45 1.189 3.25 3.25 0 0 1-1.2-4.449Z" opacity=".32"/><path stroke="#CEA561" d="m450.643 476.591-.002-.002c-34.527-27.405-65.372-56.598-96.088-92.19l-.356-.412.441-.32q1.134-.82 2.206-1.6c1.705-1.24 3.286-2.39 4.715-3.392l.002-.001c2.509-1.746 7.965-5.357 12.786-8.527a2914 2914 0 0 1 6.321-4.144c.826-.541 1.502-.982 1.971-1.288l.542-.353.141-.093.036-.023.01-.006.002-.002.274.419-.273-.419.227-.148.247.109 9.873 4.357 71.845-44.677c-.567-5.064-1.672-9.272-3.481-12.38-1.801-3.096-4.294-5.097-7.678-5.785l-72.034 44.794a6 6 0 0 1-.197.364 11 11 0 0 1-.861 1.273c-.806 1.045-2.109 2.421-4.109 3.784h-.001c-.831.563-3.29 2.142-6.627 4.284-1.527.98-3.237 2.078-5.059 3.251-5.815 3.742-12.782 8.253-18.61 12.148l-.254.17-.267-.149c-2.903-1.614-6.608-1.339-9.207.989l-.001.001c-2.583 2.308-3.281 5.894-2.047 8.933l.045.11-.01.118c-.133 1.631-1.213 3.254-3.126 4.73-1.921 1.482-4.737 2.862-8.479 4.004-3.314 1.014-7.471 1.399-10.66 1.694l-1.079.102c-.826.079-1.557.156-2.16.241q-.862.122-1.283.261.114.075.294.171c9.588 5.092 20.577 1.943 30.698-3.48l.41-.219.249.393c23.721 37.445 51.947 70.966 85.7 108.602l.007.007.006.007c.161.195.459.502.73.773.133.133.255.252.344.338l.105.102.028.028.006.005c6.722 6.177 17.165 6.352 24.097.134 7.382-6.608 8.007-17.962 1.384-25.334l-.003-.003c-.274-.311-.72-.747-1.109-1.116-.192-.182-.366-.343-.492-.46l-.149-.137zm-104.932-95.885c2.108 1.217 2.821 3.925 1.601 6.038a4.417 4.417 0 0 1-6.021 1.618 4.42 4.42 0 0 1 4.42-7.656Z" opacity=".3"/><path stroke="#CEA561" d="m954.118 394.755.13-.483.482.129 53.11 14.23.48.129-.13.483-.28 1.051-.12.439-.45-.076c-18.217-3.092-35.956-7.815-53.195-14.254l-.426-.159.118-.439zm46.202 40.01.09-.336.34-.032 3.85-.36 4.31-16.068 4.27-15.926-5.79-1.55-1.38 5.172-.13.483-.49-.129-2.25-.603-.48-.13.13-.483 1.39-5.172-1.28-.342-1.39 5.172-.13.483-.48-.13-2.252-.603-.483-.129.129-.483 1.386-5.172-1.284-.345-1.386 5.172-.13.483-.483-.129-2.25-.603-.483-.129.13-.483 1.385-5.172-1.286-.345-1.385 5.172-.13.483-.483-.129-2.247-.602-.483-.13.13-.483 1.386-5.172-1.286-.344-1.386 5.172-.13.483-.483-.13-2.25-.603-.483-.129.13-.483 1.386-5.172-1.279-.343-1.386 5.172-.13.483-.483-.129-2.25-.603-.483-.13.13-.482 1.386-5.173-1.287-.344-1.385 5.172-.13.483-.483-.13-2.25-.603-.483-.129.129-.483 1.386-5.172-1.282-.344-1.386 5.172-.13.483-.483-.129-2.25-.603-.483-.129.13-.483 1.386-5.172-1.281-.344-1.386 5.172-.13.483-.483-.129-2.255-.604-.483-.13.129-.483 1.386-5.172-1.277-.342-1.386 5.172-.129.483-.483-.129-2.252-.604-.483-.129.129-.483 1.386-5.172-1.284-.344-1.386 5.172-.129.483-.483-.13-2.249-.602-.483-.13.13-.483 1.386-5.172-5.787-1.55-4.267 15.926-4.306 16.068 3.155 2.237.284.201-.09.337-.006.022-.006.023-.006.023-.006.023-.007.023-.006.022-.006.023-.006.023-.006.023-.006.023-.006.023-.006.022-.007.023-.006.023-.006.023-.006.023-.006.023-.006.023-.006.023-.006.022-.007.023-.006.023-.006.023-.006.023-.006.023-.006.023-.006.023-.007.023-.006.023-.006.023-.006.023-.006.023-.006.022-.006.023-.007.023-.006.023-.006.023-.006.023-.006.023-.006.023-.007.023-.006.023-.006.023-.006.023-.006.023-.006.023-.007.023-.006.023-.006.023-.006.023-.006.023-.006.024-.007.023-.006.023-.006.023-.006.023-.006.023-.006.023-.007.023-.006.023-.006.023-.006.023-.006.023-.007.023-.006.024-.006.023-.006.023-.006.023-.007.023-.006.023-.006.023-.006.023-.006.024-.007.023-.006.023-.006.023-.006.023-.006.023-.007.023-.006.024-.006.023-.006.023-.006.023-.007.023-.006.024-.006.023-.006.023-.006.023-.007.023-.006.024-.006.023-.006.023-.007.023-.006.023-.006.024-.006.023-.006.023-.007.023-.006.024-.006.023-.006.023-.007.023-.006.024-.006.023-.006.023-.007.023-.006.024-.006.023-.006.023-.007.024-.006.023-.006.023-.006.023-.006.024-.007.023-.006.023-.006.024-.006.023-.007.023-.006.024-.006.023-.006.023-.007.024-.006.023-.006.023-.007.024-.006.023-.006.023-.006.024-.007.023-.006.024-.006.023-.006.023-.007.024-.006.023-.006.023-.006.024-.007.023-.006.024-.006.023-.006.023-.007.024-.006.023-.006.024-.007.023-.006.023-.006.024-.006.023-.007.024-.006.023-.006.024-.007.023-.006.024-.006.023-.006.023-.007.024-.006.023-.006.024-.007.023-.006.024-.006.023-.006.024-.007.023-.006.024-.006.023-.007.024-.006.023-.006.024-.006.023-.007.024-.006.023-.006.024-.007.023-.006.024-.006.023-.007.024-.006.023-.006.024-.006.023-.007.024-.006.023-.006.024-.007.023-.006.024-.006.023-.007.024-.006.024-.006.023-.007.024-.006.023-.006.024-.006.023-.007.024-.006.023-.006.024-.007.024-.006.023-.006.024-.007.023-.006.024-.006.024-.007.023-.006.024-.006.023-.007.024-.006.024-.006.023-.007.024-.006.023-.006.024-.007.024-.006.023-.006.024-.007.023-.006.024-.006.024-.007.023-.006.024-.006.024-.007.023-.006.024-.006.024-.007.023-.006.024-.006.024-.007.023-.006.024-.006.023-.007.024-.006.024-.006.023-.007.024-.006.024-.006.023-.007.024-.006.024-.006.024-.007.023-.006.024-.006.024-.007.023-.006.024-.006.024-.007.023-.006.024-.006.024-.007.023-.006.024-.007.024-.006.024-.006.023-.007.024-.006.024-.006.023-.007.024-.006.024-.006.024-.007.023-.006.024-.006.024-.007.024-.006.023-.007.024-.006.024-.006.023-.007.024-.006.024-.006.024-.007.023-.006.024-.006.024-.007.024-.006.023-.007.024-.006.024-.006.024-.007.023-.006.024-.006.024-.007.024-.006.024-.006.023-.007.024-.006.024-.007.024-.006.023-.006.024-.007.024-.006.024-.006.024-.007.023-.006.024-.007.024-.006.024-.006.023-.007.024-.006.024-.006.024-.007.024-.006.023-.007.024-.006.024-.006.024-.007.024-.006.023-.006.024-.007.024-.006.024-.007.024-.006.023-.006.024-.007.024-.006.024-.006.024-.007.024-.006.023-.007.024-.006.024-.006.024-.007.024-.006.024-.007.023-.006.024-.006.024-.007.024-.006.024-.006.024-.007.023-.006.024-.007.024-.006.024-.006.024-.007.024-.006.023-.007.024-.006.024-.006.024-.007.024-.006.024-.007.023-.006.024-.006.024-.007.024-.006.024-.006.024-.007.024-.006.023-.007.024-.006.024-.006.024-.007.024-.006.024-.007.024-.006.023-.006.024-.007.024-.006.024-.007.024-.006.024-.006.024-.007.023-.006.024-.007.024-.006.024-.006.024-.007.024-.006.024-.007.024-.006.023-.006.024-.007.024-.006.024-.007.024-.006.024-.006.024-.007.024-.006.023-.007.024-.006.024-.006.024-.007.024-.006.024-.007.024-.006.024-.006.023-.007.024-.006.024-.007.024-.006.024-.006.024-.007.024-.006.024-.006.023-.007.024-.006.024-.007.024-.006.024-.006.024-.007.024-.006.024-.007.024-.006.023-.006.024-.007.024-.006.024-.007.024-.006.024-.006.024-.007.024-.006.024-.007.023-.006.024-.006.024-.007.024-.006.024-.007.024-.006.024-.006.024-.007.024-.006.023-.007.024-.006.024-.007.024-.006.024-.006.024-.007.024-.006.024-.007.023-.006.024-.006.024-.007.024-.006.024-.007.024-.006.024-.006.024-.007.024-.006.023-.007.024-.006.024-.006.024-.007.024-.006.024-.007.024-.006.024-.006.024-.007.023-.006.024-.006.024-.007.024-.006.024-.007.024-.006.024-.006.024-.007.023-.006.024-.007.024-.006.024-.006.024-.007.024-.006.024-.007.024-.006.023-.006.024-.007.024-.006.024-.007.024-.006.024-.006.024-.007.024-.006.023-.007.024-.006.024-.006.024-.007.024-.006.024-.007.024-.006.024-.006.023-.007.024-.006.024-.007.024-.006.024-.006.024-.007.024-.006.023-.007.024-.006.024-.006.024-.007.024-.006.024-.007.024-.006.023-.006.024-.007.024-.006.024-.006.024-.007.024-.006.024-.007.023-.006.024-.006.024-.007.024-.006.024-.007.024-.006.023-.006.024-.007.024-.006.024-.007.024-.006.024-.006.023-.007.024-.129.483-.483-.129-2.414-.647-6.828-1.83-7.58 28.29 6.344 1.7 4.955-18.49.129-.483.483.13 2.415.646.483.13-.13.483-.007.028-.008.029-.008.028-.007.028-.008.029-.007.028-.008.028-.008.029-.007.028-.008.028-.007.029-.008.028-.008.028-.007.028-.008.029-.007.028-.008.028-.007.028-.008.028-.007.028-.008.029-.008.028-.007.028-.008.028-.007.028-.008.028-.007.028-.008.028-.007.028-.008.028-.007.029-.008.028-.007.028-.008.028-.007.028-.008.028-.007.027-.008.028-.007.028-.008.028-.007.028-.008.028-.007.028-.008.028-.007.028-.008.028-.007.027-.007.028-.008.028-.007.028-.008.028-.007.027-.008.028-.007.028-.008.027-.007.028-.007.028-.008.028-.007.027-.008.028-.007.028-.007.027-.008.028-.007.027-.008.028-.007.028-.007.027-.008.028-.007.027-.008.028-.007.027-.007.028-.008.027-.007.028-.007.027-.008.028-.007.027-.007.027-.008.028-.007.027-.007.028-.008.027-.007.027-.007.028-.008.027-.007.027-.007.028-.008.027-.007.027-.007.027-.008.028-.007.027-.007.027-.007.027-.008.027-.007.028-.007.027-.008.027-.007.027-.007.027-.007.027-.008.027-.007.027-.007.027-.007.027-.008.027-.007.027-.007.027-.007.027-.007.027-.008.027-.007.027-.007.027-.007.027-.008.027-.007.027-.007.027-.007.026-.007.027-.007.027-.008.027-.007.027-.007.026-.007.027-.007.027-.007.027-.008.026-.007.027-.007.027-.007.026-.007.027-.007.027-.007.026-.008.027-.007.026-.007.027-.007.027-.007.026-.007.027-.007.026-.007.027-.007.026-.008.027-.007.026-.007.026-.007.027-.007.026-.007.027-.007.026-.007.026-.007.027-.007.026-.007.026-.007.027-.007.026-.007.026-.007.026-.007.027-.007.026-.007.026-.007.026-.007.026-.007.026-.007.027-.007.026-.007.026-.007.026-.007.026-.007.026-.007.026-.007.026-.007.026-.007.026-.007.026-.007.026-.007.026-.007.026-.007.026-.007.025-.007.026-.007.026-.007.026-.007.026-.007.026-.006.025-.007.026-.007.026-.007.026-.007.025-.007.026-.007.026-.007.025-.007.026-.006.026-.007.025-.007.026-.007.025-.007.026-.007.025-.007.026-.006.026-.007.025-.007.025-.007.026-.007.025-.006.026-.007.025-.007.026-.007.025-.007.025-.006.026-.007.025-.007.025-.007.026-.007.025-.006.025-.007.025-.007.025-.007.026-.006.025-.007.025-.007.025-.007.025-.006.025-.007.025-.007.026-.006.025-.007.025-.007.025-.007.025-.006.025-.007.025-.007.025-.006.024-.007.025-.007.025-.006.025-.007.025-.007.025-.006.025-.007.024-.007.025-.006.025-.007.025-.006.024-.007.025-.007.025-.006.024-.007.025-.006.025-.007.024-.007.025-.006.024-.007.025-.006.025-.007.024-.007.025-.006.024-.007.025-.006.024-.007.024-.006.025-.007.024-.006.025-.007.024-.006.024-.007.025-.006.024-.007.024-.006.024-.007.025-.006.024-.007.024-.006.024-.007.024-.006.025-.007.024-.006.024-.007.024-.006.024-.007.024-.006.024-.006.024-.007.024-.006.024-.007.024-.006.024-.006.024-.007.024-.006.023-.007.024-.006.024-.006.024-.007.024-.006.023-.007.024-.006.024-.006.024-.007.023-.006.024-.006.024-.007.023-.006.024-.006.023-.007.024-.006.024-.006.023-.006.024-.007.023-.006.024-.006.023-.007.023-.006.024-.006.023-.006.024-.007.023-.006.023-.006.024-.006.023-.007.023-.006.023-.006.024-.006.023-.007.023-.006.023-.006.023-.006.023-.006.023-.006.023-.007.024-.006.023-.006.023-.006.023-.006.023-.006.022-.007.023-.006.023-.006.023-.006.023-.006.023-.006.023-.006.023-.006.022-.007.023-.006.023-.006.023-.006.022-.006.023-.006.023-.006.022-.006.023-.006.022-.006.023-.006.023-.006.022-.006.023-.006.022-.006.023-.006.022-.006.022-.006.023-.006.022-.006.023-.006.022-.006.022-.006.022-.006.023-.006.022-.006.022-.006.022-.006.023-.006.022-.006.022-.006.022-.006.022-.006.022-.006.022-.005.022-.006.022-.006.022-.006.022-.006.022-.006.022-.006.022-.006.022-.005.022-.006.021-.006.022-.006.022-.006.022-.006.021-.005.022-.006.022-.006.022-.006.021-.006.022-.005.021-.006.022-.006.022-.006.021-.006.022-.005.021-.006.022-.006.021-.006.021-.005.022-.006.021-.006.022-.005.021-.006.021-.006.021-.006.022-.005.021-.006.021-.006.021-.005.021-.006.022-.006.021-.005.021-.006.021-.006.021-.005.021-.006.021-.005.021-.006.021-.006.021-.005.021-.006.021-.005.02-.006.021-.006.021-.005.021-.006.021-.005.02-.006.021-.005.021-.006.021-.005.02-.006.021-.006.02-.005.021-.006.021-.005.02-.006.021-.005.02-.005.02-.006.021-.005.02-.006.021-.005.02-.006.02-.005.021-.006.02-.005.02-.006.021-.005.02-.005.02-.006.02-.005.02-.006.02-.005.02-.005.02-.006.021-.005.02-.005.02-.006.02-.005.019-.005.02-.006.02-.005.02-.005.02-.006.02-.005.02-.005.019-.006.02-.005.02-.005.02-.005.019-.006.02-.005.019-.005.02-.005.02-.006.019-.005.02-.005.019-.005.02-.006.019-.005.02-.005.019-.005.019-.005.02-.006.019-.005.019-.005.02-.005.019-.005.019-.005.019-.005.019-.006.02-.005.019-.005.019-.005.019-.005.019-.005.019-.005.019-.005.019-.005.019-.005.019-.006.019-.005.018-.005.019-.005.019c-2.773 10.352-6.079 31.67-8.693 50.433a1950 1950 0 0 0-4.442 34.172l-.066.545-.007.063.037.082c.061.128.167.326.341.582.349.511.973 1.255 2.058 2.131 2.171 1.752 6.188 4.028 13.528 5.995 7.337 1.966 11.955 2.003 14.713 1.572 1.378-.216 2.292-.548 2.851-.816a4.5 4.5 0 0 0 .66-.385l.025-.059.216-.504c.189-.443.468-1.095.824-1.933a1955.028 1955.028 0 0 0 12.411-29.883c7.115-17.557 14.91-37.672 17.684-48.024l.012-.046.012-.046.013-.046.012-.047.013-.046.012-.047.013-.047.012-.047.013-.047.013-.047.012-.048.013-.047.013-.048.013-.048.013-.048.012-.048.013-.048.013-.049.013-.049.013-.048.014-.049.013-.049.013-.049.013-.05.013-.049.014-.05.013-.05.013-.05.014-.05.013-.05.014-.05.013-.051.014-.051.014-.05.013-.051.014-.051.014-.052.013-.051.014-.052.014-.051.014-.052.014-.052.014-.052.014-.052.014-.052.014-.053.014-.053.014-.052.014-.053.014-.053.015-.053.014-.054.014-.053.015-.054.014-.053.014-.054.015-.054.014-.054.015-.054.014-.055.015-.054.015-.055.014-.054.015-.055.015-.055.015-.055.014-.056.015-.055.015-.056.015-.055.015-.056.015-.056.015-.056.015-.056.015-.056.015-.057.015-.056.015-.057.016-.056.015-.057.015-.057.015-.058.016-.057.015-.057.016-.058.015-.057.015-.058.016-.058.015-.058.016-.058.016-.058.015-.058.016-.059.016-.058.015-.059.016-.059.016-.059.016-.059.016-.059.015-.059.016-.06.016-.059.016-.06.016-.059.016-.06.016-.06.016-.06.017-.06.016-.061.016-.06.016-.061.016-.06.017-.061.016-.061.016-.061.017-.061.016-.061.016-.061.017-.062.016-.061.017-.062.016-.061.017-.062.017-.062.016-.062.017-.062.016-.062.017-.063.017-.062.017-.063.016-.062.017-.063.017-.063.017-.063.017-.063.017-.063.017-.063.017-.063.017-.064.017-.063.017-.064.017-.064.017-.064.017-.064.017-.064.017-.064.018-.064.017-.064.017-.065.017-.064.018-.065.017-.064.017-.065.018-.065.017-.065.018-.065.017-.065.017-.065.018-.066.018-.065.017-.066.018-.065.017-.066.018-.066.018-.066.017-.066.018-.066.018-.066.017-.066.018-.066.018-.067.018-.066.018-.067.017-.066.018-.067.018-.067.018-.067.018-.067.018-.067.018-.067.018-.067.018-.068.018-.067.018-.068.018-.067.018-.068.019-.068.018-.067.018-.068.018-.068.018-.068.019-.068.018-.069.018-.068.019-.068.018-.069.018-.068.019-.069.018-.068.018-.069.019-.069.018-.069.019-.069.018-.069.019-.069.018-.069.019-.069.018-.069.019-.07.019-.069.018-.07.019-.069.019-.07.018-.07.019-.07.019-.069.018-.07.019-.07.019-.07.019-.071.019-.07.018-.07.019-.07.019-.071.019-.07.019-.071.019-.07.019-.071.019-.071.019-.071.019-.07.019-.071.019-.071.019-.071.019-.071.019-.071.019-.072.019-.071.019-.071.019-.072.019-.071.02-.072.019-.071.019-.072.019-.071.019-.072.02-.072.019-.072.019-.072.019-.072.02-.072.019-.072.019-.072.02-.072.019-.072.019-.072.02-.073.019-.072.019-.072.02-.073.019-.072.02-.073.019-.073.02-.072.019-.073.02-.073.019-.073.02-.072.019-.073.02-.073.019-.073.02-.073.019-.073.02-.074.02-.073.019-.073.02-.073.02-.074.019-.073.02-.073.02-.074.019-.073.02-.074.02-.073.019-.074.02-.073.02-.074.02-.074.019-.074.02-.073.02-.074.02-.074.02-.074.019-.074.02-.074.02-.074.02-.074.02-.074.02-.074.019-.074.02-.075.02-.074.02-.074.02-.074.02-.075.02-.074.02-.074.02-.075.02-.074.02-.075.02-.074.019-.075.02-.074.02-.075.02-.074.02-.075.02-.075.02-.074.021-.075.02-.075.02-.075.02-.074.02-.075.02-.075.02-.075.02-.075.02-.075.02-.075.02-.075.02-.075.02-.075.02-.075.021-.075.02-.075.02-.075.02-.075.02-.075.02-.075.02-.076.02-.075.021-.075.02-.075.02-.075.02-.076.02-.075.02-.075.021-.076.02-.075.02-.075.02-.076.02-.075.021-.075.02-.076.02-.075.02-.076.02-.075.021-.075.02-.076.02-.075.02-.076.02-.075.021-.076.02-.075.02-.076.02-.075.021-.076.02-.075.02-.076.02-.075.021-.076.02-.075.02-.076.02-.076.021-.075.02-.076.02-.075.02-.076.021-.075.02-.076.02-.076.02-.075.021-.076.02-.075.02-.076.02-.076.021-.075.02-.076.02-.075.02-.076.021-.075.02-.076.02-.076.02-.075.021-.076.02-.075.02-.076.02-.075.021-.076.02-.075.02-.076.02-.076.02-.075.021-.076.02-.075.02-.076.02-.075.021-.076.02-.075.02-.075.02-.076.021-.075.02-.076.02-.075.02-.076.02-.075.021-.075.02-.076.02-.075.02-.075.02-.076.02-.075.021-.075.02-.076.02-.075.02-.075.02-.075.02-.076.021-.075.02-.075.02-.075.02-.075.02-.075.02-.076.02-.075.021-.075.02-.075.02-.075.02-.075.02-.075.02-.075.02-.075.02-.075.02-.074.02-.075.02-.075.02-.075.02-.075.02-.075.02-.074.021-.075.02-.075.02-.074.02-.075.02-.075.019-.074.02-.075.02-.074.02-.075.02-.074.02-.075.02-.074.02-.074.02-.075.02-.074.02-.074.02-.074.02-.075.02-.074.019-.074.02-.074.02-.074.02-.074.02-.074.02-.074.019-.074.02-.074.02-.074.02-.074.019-.073.02-.074.02-.074.02-.073.019-.074.02-.074.02-.073.02-.074.019-.073.02-.073.02-.074.019-.073.02-.073.019-.074.02-.073.02-.073.019-.073.016-.073.02-.073.02-.073.02-.073.02-.073.02-.073.02-.073.02-.072.02-.073.02-.073.02-.072.02-.073.02-.072.02-.073.02-.072.02-.072zm-40.405 115.098v.001l.002-.002z" opacity=".4"/><path stroke="#CEA561" d="m553.666 169.299-.004.004-.03.029q-.044.04-.15.132c-.143.122-.375.311-.722.567-.694.512-1.847 1.291-3.662 2.344-12.23 7.051-26.334.971-34.024-12.348-5.924-10.259-6.188-21.683-.436-29.593l.301-.414.018-.017.023-.024.021-.026a20 20 0 0 1 1.673-1.906l.024-.024.021-.027c1.349-1.795 2.756-4.421 2.085-7.089-.68-2.706-3.419-5.187-9.701-6.868-2.805-.748-6.296-.944-8.964-1.094l-.9-.052a42 42 0 0 1-1.806-.136 8 8 0 0 1-.882-.13l.077-.045c7.281-4.204 16.338-2.959 25.043.114 6.732 2.377 13.154 5.809 18.266 8.541 1.491.797 2.872 1.534 4.115 2.169 4.996 2.548 9.761 6.006 12.98 11.159 8.621 14.366 18.173 27.846 28.219 40.842l.858-.496c-6.161-14.993-13.003-29.83-21.142-44.387-7.252-13.166-3.372-29.345 8.752-36.344 12.225-7.058 26.327-.976 34.019 12.347 7.691 13.32 5.914 28.577-6.319 35.631-1.807 1.043-3.041 1.646-3.815 1.986-.388.169-.66.273-.831.334q-.128.044-.183.061l-.038.011-.004.001h-.002c-4.256 1.077-6.729 5.399-5.494 9.595zm0 0c.161-.168.355-.315.507-.43l.095-.073a1 1 0 0 1 .164-.14c3.062-2.442 7.488-2.24 10.264.669l32.175 33.71.073.076.036.099c3.677 10.164 7.188 20.359 10.697 30.551 7.014 20.366 14.024 40.723 22.357 60.814a30 30 0 0 0 1.518.805c.374.18.736.339 1.031.438l-22.847-77.941.841-.485 56.1 58.785c.061-.305.104-.697.135-1.109.035-.468.051-.94.059-1.296.004-.174.005-.319.006-.422-13.216-17.152-27.277-33.383-41.321-49.595-7.163-8.269-14.322-16.533-21.362-24.911l-.068-.08-.029-.101-8.59-29.307-.039-.135.003-.012-3.312-11.28v-.001l-1.107-3.781zm.463-31.821c-6.531-11.329-20.289-15.709-30.758-9.665-5.237 3.024-8.095 7.77-8.813 13.175-.715 5.392.7 11.418 3.954 17.054 3.252 5.634 7.764 9.873 12.791 11.95 5.041 2.083 10.581 1.982 15.818-1.041 7.308-4.219 10.742-9.256 11.474-14.715.727-5.427-1.234-11.16-4.466-16.758Zm0 0-.433.25zm47.606 65.7-.003.001a2.43 2.43 0 0 1-3.292-.881l-.002-.003a2.423 2.423 0 0 1 .884-3.297 2.417 2.417 0 0 1 3.3.881 2.417 2.417 0 0 1-.887 3.299Zm-33.059-74.098-.001-.001c-6.531-11.328-3.449-25.431 7.013-31.471 5.24-3.025 10.782-3.132 15.825-1.053 5.029 2.074 9.542 6.312 12.798 11.951 3.252 5.634 4.668 11.66 3.952 17.054-.718 5.407-3.577 10.155-8.817 13.181-7.308 4.219-13.389 4.677-18.485 2.582-5.066-2.082-9.053-6.645-12.285-12.243Zm-72.435-16.219.002-.003z" opacity=".2"/></g><defs><clipPath id="a"><path fill="#fff" d="M0 0h1920v516H0z"/></clipPath></defs></svg>