<svg xmlns="http://www.w3.org/2000/svg" width="22" height="22" fill="none"><path fill="#151515" d="M14.61 16.33a1.778 1.778 0 1 1 0 3.556 1.778 1.778 0 0 1 0-3.555m0 .89a.889.889 0 1 0 .001 1.778.889.889 0 0 0 0-1.778m-8-.89a1.778 1.778 0 1 1 0 3.556 1.778 1.778 0 0 1 0-3.555m0 .89a.889.889 0 1 0 .001 1.778.889.889 0 0 0 0-1.778M16.39 5.664H4.184l2.267 5.334h7.271a.89.89 0 0 0 .711-.356L17.1 7.086a.889.889 0 0 0-.711-1.422m-2.667 6.222H6.495l-.684 1.387-.089.391a.89.89 0 0 0 .889.89h9.778v.888H6.61a1.778 1.778 0 0 1-1.556-2.64l.64-1.307L2.47 3.886H1.278v-.889h1.777l.756 1.778h12.578a1.778 1.778 0 0 1 1.378 2.898l-2.587 3.458c-.32.453-.854.755-1.458.755"/></svg>