<svg width="204" height="40" viewBox="0 0 204 40" fill="none" xmlns="http://www.w3.org/2000/svg">
<path d="M13.0116 28.455C11.3999 28.455 9.89732 28.1469 8.50374 27.5307C7.11015 26.9145 5.89194 26.0566 4.84912 24.9569C3.8063 23.8477 2.991 22.5536 2.40323 21.0747C1.81546 19.5958 1.52157 17.9937 1.52157 16.2683C1.52157 14.6187 1.7965 13.064 2.34635 11.604C2.8962 10.1346 3.6878 8.84052 4.72114 7.72186C5.75448 6.59372 7.00112 5.71206 8.46107 5.07689C9.92102 4.43223 11.5564 4.10991 13.3671 4.10991C14.3909 4.10991 15.4195 4.22367 16.4529 4.45119C17.4957 4.67872 18.4959 5.01527 19.4534 5.46083C20.4109 5.89692 21.2736 6.43255 22.0415 7.06773L19.88 10.637C19.0552 9.86913 18.055 9.27661 16.8795 8.85948C15.7134 8.43288 14.5616 8.21957 13.424 8.21957C12.3053 8.21957 11.3146 8.41866 10.4519 8.81682C9.5987 9.20551 8.8782 9.75536 8.29043 10.4664C7.70266 11.1774 7.25709 12.0116 6.95372 12.9691C6.65036 13.9172 6.49867 14.9505 6.49867 16.0692C6.49867 17.2921 6.66932 18.4013 7.0106 19.3967C7.35189 20.3921 7.8259 21.2501 8.43263 21.9706C9.04885 22.6911 9.7646 23.2457 10.5799 23.6344C11.4047 24.0231 12.2911 24.2174 13.2391 24.2174C13.9975 24.2174 14.7275 24.0942 15.429 23.8477C16.14 23.5917 16.7705 23.2362 17.3203 22.7812C17.8702 22.3261 18.3063 21.7905 18.6286 21.1743C18.9509 20.558 19.1121 19.885 19.1121 19.155V18.7995H12.9547V15.2302H23.8048V18.7853C23.8048 20.2168 23.5061 21.525 22.9089 22.7101C22.3211 23.8856 21.5153 24.9047 20.4914 25.7674C19.4676 26.6206 18.311 27.2842 17.0217 27.7583C15.7324 28.2228 14.3957 28.455 13.0116 28.455ZM27.6782 28V3.5411H32.0439V28H27.6782ZM44.2871 28.455C42.685 28.455 41.2392 28.128 39.9499 27.4738C38.6606 26.8102 37.6367 25.9001 36.8783 24.7436C36.1199 23.5775 35.7407 22.236 35.7407 20.7192C35.7407 19.2024 36.1152 17.8657 36.8641 16.7091C37.6225 15.543 38.6464 14.6329 39.9357 13.9788C41.2345 13.3152 42.685 12.9834 44.2871 12.9834C45.8987 12.9834 47.3492 13.3152 48.6385 13.9788C49.9278 14.6329 50.9469 15.543 51.6959 16.7091C52.4543 17.8657 52.8335 19.2024 52.8335 20.7192C52.8335 22.236 52.4543 23.5775 51.6959 24.7436C50.9469 25.9001 49.9278 26.8102 48.6385 27.4738C47.3492 28.128 45.8987 28.455 44.2871 28.455ZM44.3013 24.7293C45.0408 24.7293 45.7139 24.5587 46.3206 24.2174C46.9273 23.8761 47.4061 23.4068 47.7569 22.8096C48.1076 22.2029 48.283 21.5061 48.283 20.7192C48.283 19.9324 48.1076 19.2403 47.7569 18.643C47.4061 18.0363 46.9273 17.5623 46.3206 17.221C45.7139 16.8797 45.0408 16.7091 44.3013 16.7091C43.5524 16.7091 42.8746 16.8797 42.2678 17.221C41.6706 17.5623 41.1966 18.0363 40.8458 18.643C40.495 19.2403 40.3196 19.9324 40.3196 20.7192C40.3196 21.5061 40.495 22.2029 40.8458 22.8096C41.1966 23.4068 41.6706 23.8761 42.2678 24.2174C42.8746 24.5587 43.5524 24.7293 44.3013 24.7293ZM60.5693 28.455C59.3369 28.455 58.2325 28.2607 57.256 27.872C56.289 27.4833 55.4832 26.9145 54.8386 26.1656L56.673 23.2362C57.2797 23.8809 57.9149 24.3738 58.5785 24.7151C59.2421 25.0564 59.9057 25.227 60.5693 25.227C60.9391 25.227 61.2567 25.1654 61.5221 25.0422C61.797 24.9189 62.0103 24.7436 62.162 24.516C62.3232 24.279 62.4038 23.9946 62.4038 23.6628C62.4038 23.2836 62.2947 22.985 62.0767 22.7669C61.8681 22.5489 61.5458 22.3498 61.1097 22.1697C60.6736 21.9801 60.1095 21.7431 59.4175 21.4587C58.8297 21.2122 58.2656 20.9325 57.7253 20.6197C57.1849 20.3068 56.7441 19.9087 56.4028 19.4252C56.071 18.9417 55.9051 18.3302 55.9051 17.5907C55.9051 16.6901 56.1563 15.8985 56.6588 15.216C57.1612 14.5239 57.8533 13.9835 58.7349 13.5948C59.6261 13.2062 60.6499 13.0118 61.8065 13.0118C62.527 13.0118 63.2807 13.1208 64.0675 13.3389C64.8639 13.5569 65.7123 13.8887 66.613 14.3343L65.1198 17.1357C63.8969 16.3488 62.8019 15.9554 61.8349 15.9554C61.2946 15.9554 60.8632 16.0739 60.5409 16.3109C60.2186 16.5479 60.0574 16.8465 60.0574 17.2068C60.0574 17.5481 60.2233 17.8467 60.5551 18.1027C60.8964 18.3492 61.3088 18.5719 61.7923 18.771C62.2853 18.9606 62.7545 19.136 63.2001 19.2972C63.9301 19.5626 64.5747 19.8565 65.1341 20.1788C65.7029 20.5012 66.1484 20.923 66.4708 21.4444C66.7931 21.9564 66.9542 22.6437 66.9542 23.5064C66.9542 24.5587 66.6983 25.4546 66.1864 26.194C65.6839 26.924 64.9539 27.4833 63.9964 27.872C63.0484 28.2607 61.906 28.455 60.5693 28.455ZM74.9807 28.455C73.7483 28.455 72.6438 28.2607 71.6674 27.872C70.7004 27.4833 69.8946 26.9145 69.2499 26.1656L71.0844 23.2362C71.6911 23.8809 72.3263 24.3738 72.9899 24.7151C73.6535 25.0564 74.3171 25.227 74.9807 25.227C75.3504 25.227 75.668 25.1654 75.9335 25.0422C76.2084 24.9189 76.4217 24.7436 76.5734 24.516C76.7346 24.279 76.8151 23.9946 76.8151 23.6628C76.8151 23.2836 76.7061 22.985 76.4881 22.7669C76.2795 22.5489 75.9572 22.3498 75.5211 22.1697C75.085 21.9801 74.5209 21.7431 73.8289 21.4587C73.2411 21.2122 72.677 20.9325 72.1367 20.6197C71.5963 20.3068 71.1555 19.9087 70.8142 19.4252C70.4824 18.9417 70.3165 18.3302 70.3165 17.5907C70.3165 16.6901 70.5677 15.8985 71.0701 15.216C71.5726 14.5239 72.2646 13.9835 73.1463 13.5948C74.0374 13.2062 75.0613 13.0118 76.2179 13.0118C76.9384 13.0118 77.6921 13.1208 78.4789 13.3389C79.2752 13.5569 80.1237 13.8887 81.0243 14.3343L79.5312 17.1357C78.3083 16.3488 77.2133 15.9554 76.2463 15.9554C75.706 15.9554 75.2746 16.0739 74.9523 16.3109C74.63 16.5479 74.4688 16.8465 74.4688 17.2068C74.4688 17.5481 74.6347 17.8467 74.9665 18.1027C75.3078 18.3492 75.7202 18.5719 76.2037 18.771C76.6966 18.9606 77.1659 19.136 77.6115 19.2972C78.3414 19.5626 78.9861 19.8565 79.5454 20.1788C80.1142 20.5012 80.5598 20.923 80.8821 21.4444C81.2045 21.9564 81.3656 22.6437 81.3656 23.5064C81.3656 24.5587 81.1097 25.4546 80.5977 26.194C80.0953 26.924 79.3653 27.4833 78.4078 27.872C77.4598 28.2607 76.3174 28.455 74.9807 28.455Z" fill="white"/>
<mask id="path-2-outside-1_2033_232" maskUnits="userSpaceOnUse" x="89.6283" y="3" width="26" height="27" fill="black">
<rect fill="white" x="89.6283" y="3" width="26" height="27"/>
<path d="M97.9994 28.455C96.5774 28.455 95.307 28.1991 94.1884 27.6872C93.0792 27.1657 92.2023 26.431 91.5576 25.483C90.9225 24.5255 90.6049 23.3974 90.6049 22.0986C90.6049 20.5628 91.0741 19.2213 92.0127 18.0742C92.9607 16.9271 94.378 15.9459 96.2645 15.1306C95.582 14.3627 95.0369 13.6802 94.6292 13.0829C94.2216 12.4762 93.9277 11.9026 93.7476 11.3623C93.5769 10.8124 93.4916 10.2531 93.4916 9.68426C93.4916 8.5182 93.776 7.51804 94.3448 6.68378C94.9231 5.84952 95.6957 5.20961 96.6627 4.76404C97.6392 4.31847 98.7247 4.09569 99.9192 4.09569C100.953 4.09569 101.863 4.25211 102.649 4.56496C103.446 4.86832 104.109 5.29019 104.64 5.83056C105.181 6.36145 105.588 6.96345 105.863 7.63654C106.138 8.30015 106.276 8.98747 106.276 9.69848C106.276 10.9214 105.868 12.0069 105.053 12.9549C104.237 13.8935 103.052 14.7656 101.498 15.5715L106.276 20.6908C106.513 20.4917 106.773 20.2405 107.058 19.9371C107.352 19.6337 107.646 19.3209 107.939 18.9986C108.243 18.6667 108.518 18.3539 108.764 18.06C109.02 17.7566 109.224 17.5149 109.376 17.3348L111.694 19.482C111.21 20.0983 110.689 20.7382 110.129 21.4018C109.57 22.0559 109.063 22.6105 108.608 23.0656L113.229 28H108.565L105.863 25.0991C104.735 26.1703 103.507 26.9998 102.18 27.5876C100.862 28.1659 99.4689 28.455 97.9994 28.455ZM98.4829 24.9284C99.3361 24.9284 100.185 24.7293 101.028 24.3312C101.882 23.9235 102.687 23.3405 103.446 22.5821L98.1985 17.1357C97.1083 17.6002 96.2598 18.2212 95.6531 18.9986C95.0463 19.7759 94.743 20.6339 94.743 21.5724C94.743 22.2834 94.9089 22.8902 95.2407 23.3926C95.582 23.8951 96.037 24.279 96.6058 24.5445C97.1746 24.8004 97.8003 24.9284 98.4829 24.9284ZM99.5779 13.5095C100.317 13.1208 100.943 12.7369 101.455 12.3577C101.976 11.9785 102.365 11.5708 102.621 11.1347C102.886 10.6986 103.019 10.2057 103.019 9.65582C103.019 9.08701 102.886 8.58456 102.621 8.14847C102.365 7.71238 102.014 7.37583 101.569 7.13883C101.133 6.89234 100.64 6.7691 100.09 6.7691C99.5305 6.7691 99.0375 6.89234 98.6109 7.13883C98.1843 7.37583 97.8477 7.70764 97.6013 8.13425C97.3548 8.56086 97.2315 9.04435 97.2315 9.58472C97.2315 10.0018 97.3074 10.4048 97.4591 10.7934C97.6202 11.1821 97.8714 11.5945 98.2127 12.0306C98.554 12.4667 99.0091 12.9597 99.5779 13.5095Z"/>
</mask>
<path d="M94.1884 27.6872L93.8253 28.4595L93.8333 28.4631L94.1884 27.6872ZM91.5576 25.483L90.8465 25.9548L90.852 25.9628L91.5576 25.483ZM92.0127 18.0742L91.3549 17.5306L91.3522 17.5339L92.0127 18.0742ZM96.2645 15.1306L96.6031 15.9139L97.6864 15.4458L96.9023 14.5637L96.2645 15.1306ZM94.6292 13.0829L93.9209 13.5588L93.9244 13.564L94.6292 13.0829ZM93.7476 11.3623L92.9326 11.6152L92.9352 11.6237L92.938 11.6321L93.7476 11.3623ZM94.3448 6.68378L93.6435 6.19763L93.6398 6.20307L94.3448 6.68378ZM96.6627 4.76404L96.3085 3.98771L96.3056 3.98903L96.6627 4.76404ZM102.649 4.56496L102.334 5.358L102.346 5.36238L102.649 4.56496ZM104.64 5.83056L104.032 6.4286L104.037 6.43398L104.042 6.43928L104.64 5.83056ZM105.863 7.63654L105.073 7.95921L105.075 7.96315L105.863 7.63654ZM105.053 12.9549L105.697 13.5146L105.7 13.5113L105.053 12.9549ZM101.498 15.5715L101.105 14.8138L100.106 15.3314L100.874 16.1537L101.498 15.5715ZM106.276 20.6908L105.652 21.273L106.204 21.8651L106.824 21.3442L106.276 20.6908ZM107.058 19.9371L106.445 19.3433L106.435 19.3535L107.058 19.9371ZM107.939 18.9986L107.31 18.4228L107.309 18.4236L107.939 18.9986ZM108.764 18.06L108.112 17.5097L108.11 17.5117L108.764 18.06ZM109.376 17.3348L109.956 16.7088L109.299 16.1008L108.723 16.7851L109.376 17.3348ZM111.694 19.482L112.365 20.0088L112.85 19.3903L112.273 18.856L111.694 19.482ZM110.129 21.4018L110.778 21.9564L110.782 21.9517L110.129 21.4018ZM108.608 23.0656L108.004 22.4622L107.42 23.0461L107.985 23.6489L108.608 23.0656ZM113.229 28V28.8533H115.198L113.852 27.4167L113.229 28ZM108.565 28L107.941 28.5816L108.194 28.8533H108.565V28ZM105.863 25.0991L106.488 24.5175L105.9 23.887L105.276 24.4803L105.863 25.0991ZM102.18 27.5876L102.523 28.369L102.526 28.3679L102.18 27.5876ZM101.028 24.3312L101.393 25.1029L101.396 25.1011L101.028 24.3312ZM103.446 22.5821L104.049 23.1855L104.641 22.5932L104.06 21.99L103.446 22.5821ZM98.1985 17.1357L98.813 16.5436L98.405 16.1201L97.864 16.3507L98.1985 17.1357ZM95.2407 23.3926L94.5286 23.8629L94.5348 23.8721L95.2407 23.3926ZM96.6058 24.5445L96.2449 25.3178L96.2557 25.3226L96.6058 24.5445ZM99.5779 13.5095L98.9848 14.1231L99.4286 14.552L99.9749 14.2649L99.5779 13.5095ZM101.455 12.3577L100.953 11.6675L100.947 11.672L101.455 12.3577ZM102.621 11.1347L101.892 10.691L101.885 10.7028L102.621 11.1347ZM102.621 8.14847L101.885 8.58048L101.892 8.59216L102.621 8.14847ZM101.569 7.13883L101.149 7.88171L101.158 7.88708L101.168 7.89221L101.569 7.13883ZM98.6109 7.13883L99.0253 7.88478L99.0316 7.88129L99.0378 7.8777L98.6109 7.13883ZM97.6013 8.13425L98.3401 8.56115L98.3401 8.56115L97.6013 8.13425ZM97.4591 10.7934L96.6641 11.1037L96.6674 11.112L96.6708 11.1203L97.4591 10.7934ZM98.2127 12.0306L98.8847 11.5047L98.2127 12.0306ZM97.9994 27.6017C96.6809 27.6017 95.5346 27.3648 94.5435 26.9112L93.8333 28.4631C95.0795 29.0334 96.4739 29.3084 97.9994 29.3084V27.6017ZM94.5514 26.9149C93.5707 26.4538 92.816 25.816 92.2633 25.0032L90.852 25.9628C91.5886 27.046 92.5878 27.8776 93.8254 28.4594L94.5514 26.9149ZM92.2687 25.0113C91.7381 24.2113 91.4582 23.2522 91.4582 22.0986H89.7515C89.7515 23.5426 90.1069 24.8397 90.8465 25.9547L92.2687 25.0113ZM91.4582 22.0986C91.4582 20.752 91.8641 19.6034 92.6731 18.6146L91.3522 17.5339C90.2841 18.8393 89.7515 20.3735 89.7515 22.0986H91.4582ZM92.6705 18.6178C93.5061 17.6067 94.7957 16.695 96.6031 15.9139L95.926 14.3473C93.9602 15.1969 92.4153 16.2476 91.3549 17.5306L92.6705 18.6178ZM96.9023 14.5637C96.2348 13.8127 95.7147 13.1595 95.334 12.6019L93.9244 13.564C94.3591 14.2008 94.9292 14.9128 95.6268 15.6976L96.9023 14.5637ZM95.3375 12.607C94.9613 12.047 94.7072 11.5426 94.5571 11.0924L92.938 11.6321C93.1482 12.2626 93.4818 12.9053 93.9209 13.5588L95.3375 12.607ZM94.5625 11.1093C94.417 10.6404 94.3449 10.1663 94.3449 9.68426H92.6383C92.6383 10.3399 92.7368 10.9844 92.9326 11.6152L94.5625 11.1093ZM94.3449 9.68426C94.3449 8.66236 94.592 7.83604 95.0499 7.16449L93.6398 6.20307C92.96 7.20004 92.6383 8.37403 92.6383 9.68426H94.3449ZM95.0461 7.16992C95.5332 6.46721 96.1843 5.92406 97.0198 5.53905L96.3056 3.98903C95.2072 4.49515 94.313 5.23183 93.6435 6.19764L95.0461 7.16992ZM97.017 5.54037C97.8702 5.15101 98.833 4.94902 99.9192 4.94902V3.24235C98.6163 3.24235 97.4081 3.48593 96.3085 3.98771L97.017 5.54037ZM99.9192 4.94902C100.868 4.94902 101.667 5.09268 102.334 5.35791L102.965 3.772C102.058 3.41153 101.037 3.24235 99.9192 3.24235V4.94902ZM102.346 5.36238C103.042 5.6275 103.597 5.98623 104.032 6.4286L105.249 5.23253C104.622 4.59416 103.85 4.10915 102.953 3.76753L102.346 5.36238ZM104.042 6.43928C104.503 6.89234 104.844 7.39802 105.073 7.95921L106.653 7.31387C106.333 6.52887 105.858 5.83057 105.238 5.22185L104.042 6.43928ZM105.075 7.96315C105.307 8.5243 105.422 9.10072 105.422 9.69848H107.129C107.129 8.87421 106.969 8.076 106.652 7.30993L105.075 7.96315ZM105.422 9.69848C105.422 10.7123 105.091 11.6015 104.406 12.3985L105.7 13.5113C106.645 12.4123 107.129 11.1306 107.129 9.69848H105.422ZM104.408 12.3953C103.686 13.2267 102.6 14.0388 101.105 14.8138L101.89 16.3291C103.505 15.4924 104.788 14.5603 105.697 13.5145L104.408 12.3953ZM100.874 16.1537L105.652 21.273L106.899 20.1085L102.121 14.9892L100.874 16.1537ZM106.824 21.3442C107.094 21.1174 107.38 20.841 107.68 20.5207L106.435 19.3535C106.167 19.6399 105.931 19.866 105.727 20.0374L106.824 21.3442ZM107.671 20.5308C107.971 20.2211 108.27 19.902 108.57 19.5735L107.309 18.4236C107.021 18.7398 106.733 19.0464 106.445 19.3433L107.671 20.5308ZM108.569 19.5744C108.879 19.2351 109.163 18.913 109.418 18.6084L108.11 17.5117C107.873 17.7948 107.606 18.0984 107.31 18.4228L108.569 19.5744ZM109.416 18.6103C109.672 18.3069 109.876 18.0649 110.028 17.8844L108.723 16.7851C108.572 16.9649 108.368 17.2064 108.112 17.5097L109.416 18.6103ZM108.796 17.9608L111.114 20.108L112.273 18.856L109.956 16.7088L108.796 17.9608ZM111.022 18.9553C110.545 19.5629 110.03 20.195 109.477 20.8518L110.782 21.9517C111.347 21.2813 111.875 20.6336 112.365 20.0088L111.022 18.9553ZM109.481 20.8472C108.931 21.4897 108.44 22.027 108.004 22.4622L109.211 23.669C109.686 23.194 110.209 22.6221 110.778 21.9564L109.481 20.8472ZM107.985 23.6489L112.607 28.5833L113.852 27.4167L109.231 22.4822L107.985 23.6489ZM113.229 27.1467H108.565V28.8533H113.229V27.1467ZM109.19 27.4184L106.488 24.5175L105.239 25.6807L107.941 28.5816L109.19 27.4184ZM105.276 24.4803C104.213 25.4891 103.066 26.2619 101.835 26.8074L102.526 28.3679C103.949 27.7378 105.257 26.8515 106.451 25.7179L105.276 24.4803ZM101.837 26.8062C100.63 27.336 99.3534 27.6017 97.9994 27.6017V29.3084C99.5843 29.3084 101.095 28.9958 102.523 28.369L101.837 26.8062ZM98.4829 25.7817C99.4735 25.7817 100.446 25.5497 101.393 25.1029L100.664 23.5594C99.9235 23.909 99.1988 24.0751 98.4829 24.0751V25.7817ZM101.396 25.1011C102.348 24.6465 103.231 24.0033 104.049 23.1855L102.842 21.9787C102.143 22.6777 101.415 23.2005 100.66 23.5612L101.396 25.1011ZM104.06 21.99L98.813 16.5436L97.584 17.7278L102.831 23.1741L104.06 21.99ZM97.864 16.3507C96.6676 16.8604 95.6923 17.5613 94.9804 18.4735L96.3258 19.5236C96.8273 18.881 97.549 18.34 98.533 17.9207L97.864 16.3507ZM94.9804 18.4735C94.263 19.3927 93.8896 20.4335 93.8896 21.5724H95.5963C95.5963 20.8342 95.8297 20.1591 96.3258 19.5236L94.9804 18.4735ZM93.8896 21.5724C93.8896 22.4198 94.089 23.1972 94.5286 23.8629L95.9528 22.9224C95.7287 22.5831 95.5963 22.1471 95.5963 21.5724H93.8896ZM94.5348 23.8721C94.9655 24.5062 95.5417 24.9895 96.245 25.3177L96.9667 23.7712C96.5324 23.5685 96.1985 23.284 95.9466 22.9132L94.5348 23.8721ZM96.2557 25.3226C96.9446 25.6327 97.6911 25.7817 98.4829 25.7817V24.0751C97.9096 24.0751 97.4047 23.9682 96.956 23.7663L96.2557 25.3226ZM99.9749 14.2649C100.742 13.8617 101.407 13.4552 101.963 13.0434L100.947 11.672C100.479 12.0186 99.8928 12.38 99.1808 12.7542L99.9749 14.2649ZM101.957 13.0478C102.548 12.6178 103.028 12.1277 103.357 11.5667L101.885 10.7028C101.702 11.0139 101.405 11.3391 100.953 11.6676L101.957 13.0478ZM103.35 11.5784C103.703 10.9983 103.873 10.3497 103.873 9.65582H102.166C102.166 10.0617 102.07 10.3989 101.892 10.691L103.35 11.5784ZM103.873 9.65582C103.873 8.94888 103.706 8.28943 103.35 7.70478L101.892 8.59216C102.067 8.87969 102.166 9.22514 102.166 9.65582H103.873ZM103.357 7.71651C103.021 7.14463 102.555 6.6967 101.969 6.38544L101.168 7.89221C101.474 8.05497 101.709 8.28013 101.885 8.58043L103.357 7.71651ZM101.989 6.39595C101.412 6.07014 100.772 5.91577 100.09 5.91577V7.62244C100.507 7.62244 100.853 7.71455 101.149 7.88171L101.989 6.39595ZM100.09 5.91577C99.4012 5.91577 98.7572 6.0688 98.184 6.39996L99.0378 7.8777C99.3179 7.71589 99.6597 7.62244 100.09 7.62244V5.91577ZM98.1965 6.39288C97.6335 6.70566 97.1854 7.14833 96.8624 7.70735L98.3401 8.56115C98.5101 8.26695 98.7351 8.04601 99.0253 7.88478L98.1965 6.39288ZM96.8624 7.70735C96.5338 8.27606 96.3782 8.90937 96.3782 9.58472H98.0849C98.0849 9.17932 98.1757 8.84565 98.3401 8.56115L96.8624 7.70735ZM96.3782 9.58472C96.3782 10.108 96.4738 10.6161 96.6641 11.1037L98.254 10.4832C98.1409 10.1934 98.0849 9.89568 98.0849 9.58472H96.3782ZM96.6708 11.1203C96.8691 11.5987 97.1659 12.0776 97.5407 12.5565L98.8847 11.5047C98.577 11.1114 98.3713 10.7656 98.2473 10.4666L96.6708 11.1203ZM97.5407 12.5565C97.9141 13.0336 98.3986 13.5564 98.9848 14.1231L100.171 12.896C99.6195 12.3629 99.1939 11.8998 98.8847 11.5047L97.5407 12.5565Z" fill="white" mask="url(#path-2-outside-1_2033_232)"/>
<path d="M133.221 28.455C131.59 28.455 130.073 28.1422 128.67 27.5165C127.277 26.8908 126.054 26.0234 125.001 24.9142C123.959 23.805 123.143 22.5157 122.556 21.0463C121.968 19.5674 121.674 17.9794 121.674 16.2825C121.674 14.7182 121.935 13.2062 122.456 11.7462C122.977 10.2863 123.741 8.98747 124.746 7.84984C125.75 6.70274 126.978 5.79264 128.429 5.11955C129.889 4.44645 131.543 4.10991 133.391 4.10991C134.605 4.10991 135.752 4.26159 136.833 4.56496C137.914 4.86832 138.904 5.29019 139.805 5.83056C140.715 6.37093 141.507 7.00611 142.18 7.73608L141.056 9.38564C140.165 8.37126 139.046 7.5607 137.7 6.95397C136.354 6.33775 134.908 6.02965 133.363 6.02965C131.884 6.02965 130.562 6.30457 129.396 6.85442C128.239 7.40427 127.258 8.15795 126.452 9.11545C125.646 10.0635 125.035 11.149 124.618 12.3719C124.2 13.5854 123.992 14.8652 123.992 16.2114C123.992 17.6618 124.224 19.0128 124.689 20.2642C125.163 21.5061 125.822 22.5963 126.665 23.5348C127.509 24.4639 128.495 25.1891 129.623 25.7105C130.751 26.2225 131.965 26.4784 133.263 26.4784C134.316 26.4784 135.349 26.303 136.364 25.9523C137.378 25.6015 138.288 25.0943 139.094 24.4307C139.909 23.7671 140.554 22.9755 141.028 22.0559C141.511 21.1269 141.753 20.084 141.753 18.9275V18.1169H133.107V16.3678H143.971V18.4582C143.971 20.1172 143.659 21.5724 143.033 22.8238C142.407 24.0752 141.573 25.118 140.53 25.9523C139.487 26.7771 138.331 27.4027 137.06 27.8294C135.79 28.2465 134.51 28.455 133.221 28.455ZM149.085 28V3.5411H151.161V28H149.085ZM163.35 28.455C161.985 28.455 160.752 28.1232 159.653 27.4596C158.563 26.7865 157.695 25.867 157.05 24.7009C156.415 23.5348 156.098 22.2029 156.098 20.705C156.098 19.2261 156.411 17.9083 157.036 16.7517C157.671 15.5857 158.534 14.6661 159.624 13.993C160.724 13.3199 161.966 12.9834 163.35 12.9834C164.668 12.9834 165.862 13.2915 166.934 13.9077C168.005 14.5239 168.82 15.3771 169.379 16.4673V13.4384H171.456V28H169.379V24.9284C168.754 26.0281 167.915 26.8908 166.862 27.5165C165.81 28.1422 164.639 28.455 163.35 28.455ZM163.862 26.6491C164.952 26.6491 165.914 26.3978 166.749 25.8954C167.592 25.3835 168.256 24.6819 168.74 23.7908C169.223 22.8902 169.465 21.8663 169.465 20.7192C169.465 19.5626 169.223 18.5388 168.74 17.6476C168.266 16.7565 167.607 16.0597 166.763 15.5572C165.919 15.0453 164.952 14.7893 163.862 14.7893C162.772 14.7893 161.805 15.0453 160.961 15.5572C160.117 16.0597 159.454 16.7565 158.97 17.6476C158.487 18.5388 158.245 19.5626 158.245 20.7192C158.245 21.8663 158.487 22.8902 158.97 23.7908C159.454 24.6819 160.117 25.3835 160.961 25.8954C161.805 26.3978 162.772 26.6491 163.862 26.6491ZM177.435 28V13.4384H179.511V15.4293C180.09 14.6234 180.782 14.0167 181.588 13.6091C182.393 13.1919 183.294 12.9834 184.289 12.9834C185.484 12.9834 186.522 13.2583 187.404 13.8081C188.295 14.358 188.911 15.1069 189.252 16.055C189.812 15.1259 190.523 14.3817 191.385 13.8224C192.258 13.263 193.291 12.9834 194.485 12.9834C195.519 12.9834 196.438 13.1967 197.244 13.6233C198.05 14.0404 198.68 14.6566 199.135 15.4719C199.6 16.2777 199.832 17.2637 199.832 18.4297V28H197.756V19.0128C197.756 17.6855 197.41 16.6332 196.718 15.8559C196.026 15.0785 195.102 14.6898 193.945 14.6898C193.149 14.6898 192.428 14.8652 191.784 15.216C191.139 15.5667 190.627 16.0218 190.248 16.5811C189.869 17.131 189.679 17.6998 189.679 18.2875V28H187.603V18.7995C187.603 17.5386 187.257 16.5384 186.565 15.799C185.882 15.0595 184.977 14.6898 183.849 14.6898C183.052 14.6898 182.322 14.8604 181.659 15.2017C181.005 15.5335 180.483 15.9649 180.094 16.4958C179.706 17.0267 179.511 17.5718 179.511 18.1311V28H177.435Z" fill="#CEA561"/>
</svg>
