<svg xmlns="http://www.w3.org/2000/svg" width="204" height="40" fill="none"><path fill="#fff" d="M13.012 28.455q-2.418 0-4.508-.924a11.3 11.3 0 0 1-3.655-2.574 12.2 12.2 0 0 1-2.446-3.882q-.881-2.219-.881-4.807 0-2.475.824-4.664a11.7 11.7 0 0 1 2.375-3.882 10.9 10.9 0 0 1 3.74-2.645q2.19-.967 4.906-.967 1.536 0 3.086.341a14.3 14.3 0 0 1 3 1.01q1.436.654 2.589 1.607l-2.162 3.569q-1.238-1.152-3-1.778-1.75-.64-3.456-.64-1.679 0-2.972.598a6 6 0 0 0-2.162 1.65q-.881 1.066-1.336 2.502-.455 1.423-.455 3.1 0 1.834.512 3.328.51 1.493 1.422 2.574a6.5 6.5 0 0 0 2.147 1.663 6.16 6.16 0 0 0 2.66.583q1.136 0 2.189-.37a6.3 6.3 0 0 0 1.891-1.066q.825-.682 1.309-1.607a4.3 4.3 0 0 0 .483-2.019v-.356h-6.157V15.23h10.85v3.555q0 2.148-.896 3.925a9.55 9.55 0 0 1-2.418 3.057 11.7 11.7 0 0 1-3.47 1.991q-1.933.697-4.01.697M27.678 28V3.541h4.366V28zm16.61.455q-2.405 0-4.338-.981-1.934-.996-3.072-2.73-1.137-1.75-1.137-4.025t1.123-4.01q1.138-1.749 3.072-2.73 1.948-.996 4.351-.996 2.417 0 4.352.996 1.933.981 3.057 2.73 1.138 1.735 1.138 4.01t-1.138 4.025q-1.124 1.734-3.057 2.73-1.935.981-4.352.981m.013-3.726q1.11 0 2.02-.512a3.8 3.8 0 0 0 1.436-1.407q.526-.91.526-2.09 0-1.182-.526-2.077a3.76 3.76 0 0 0-1.436-1.422 4.05 4.05 0 0 0-2.02-.512q-1.123 0-2.033.512a3.8 3.8 0 0 0-1.422 1.422q-.526.896-.526 2.076t.526 2.09q.526.897 1.422 1.408a4.1 4.1 0 0 0 2.033.512m16.268 3.726q-1.849 0-3.313-.583a6.2 6.2 0 0 1-2.417-1.706l1.834-2.93q.91.967 1.905 1.48.996.51 1.991.511.555 0 .953-.185a1.47 1.47 0 0 0 .64-.526 1.5 1.5 0 0 0 .242-.853q0-.57-.327-.896-.313-.327-.967-.597-.654-.285-1.693-.711a15 15 0 0 1-1.692-.84 4.1 4.1 0 0 1-1.322-1.194q-.498-.725-.498-1.834 0-1.351.754-2.375.753-1.038 2.076-1.621 1.336-.583 3.072-.583 1.08 0 2.26.327 1.195.327 2.546.995l-1.493 2.802q-1.834-1.18-3.285-1.18-.81 0-1.294.355-.483.355-.484.896 0 .512.498.896.512.37 1.237.668.74.285 1.408.526 1.095.399 1.934.882a3.66 3.66 0 0 1 1.337 1.265q.483.768.483 2.062 0 1.58-.768 2.688-.753 1.095-2.19 1.678-1.422.583-3.427.583m14.412 0q-1.849 0-3.314-.583a6.2 6.2 0 0 1-2.417-1.706l1.834-2.93q.91.967 1.906 1.48.995.51 1.99.511.555 0 .953-.185a1.47 1.47 0 0 0 .64-.526 1.5 1.5 0 0 0 .242-.853q0-.57-.327-.896-.312-.327-.967-.597-.654-.285-1.692-.711a15 15 0 0 1-1.692-.84 4.1 4.1 0 0 1-1.323-1.194q-.498-.725-.497-1.834 0-1.351.753-2.375.754-1.038 2.076-1.621 1.337-.583 3.072-.583 1.08 0 2.26.327 1.196.327 2.546.995l-1.493 2.802q-1.835-1.18-3.285-1.18-.81 0-1.294.355-.483.355-.483.896 0 .512.498.896.51.37 1.237.668.74.285 1.408.526 1.095.399 1.933.882a3.66 3.66 0 0 1 1.337 1.265q.484.768.484 2.062 0 1.58-.768 2.688-.755 1.095-2.19 1.678-1.422.583-3.427.583"/><mask id="a" width="26" height="27" x="89.628" y="3" fill="#000" maskUnits="userSpaceOnUse"><path fill="#fff" d="M89.628 3h26v27h-26z"/><path d="M98 28.455q-2.134 0-3.812-.768-1.664-.782-2.63-2.204-.954-1.436-.953-3.384 0-2.304 1.408-4.025 1.422-1.72 4.251-2.943-1.023-1.152-1.635-2.048-.61-.91-.881-1.72a5.6 5.6 0 0 1-.256-1.679q0-1.749.853-3 .867-1.251 2.318-1.92 1.465-.668 3.256-.668 1.551 0 2.73.469 1.195.454 1.991 1.266.811.795 1.223 1.806.413.995.413 2.061 0 1.835-1.223 3.257-1.224 1.407-3.555 2.617l4.778 5.119q.355-.299.782-.754a40 40 0 0 0 1.706-1.877l.612-.725 2.318 2.147a70 70 0 0 1-1.565 1.92 29 29 0 0 1-1.521 1.664L113.229 28h-4.664l-2.702-2.9q-1.692 1.605-3.683 2.488a10.3 10.3 0 0 1-4.18.867m.483-3.527q1.28 0 2.545-.597 1.28-.61 2.418-1.749l-5.248-5.446q-1.635.696-2.545 1.863-.91 1.166-.91 2.573 0 1.067.498 1.82.511.755 1.365 1.152a4.5 4.5 0 0 0 1.877.384m1.095-11.419q1.109-.582 1.877-1.151.782-.57 1.166-1.223.398-.655.398-1.48 0-.852-.398-1.507a2.63 2.63 0 0 0-1.052-1.01 2.95 2.95 0 0 0-1.479-.369q-.84 0-1.48.37a2.6 2.6 0 0 0-1.009.995q-.37.64-.37 1.45 0 .626.228 1.21.241.582.754 1.237.512.654 1.365 1.478"/></mask><path fill="#fff" d="m94.188 27.687-.363.772.008.004zm-2.63-2.204-.712.472.006.008zm.455-7.409-.658-.543-.003.003zm4.251-2.943.34.783 1.082-.468-.784-.882zm-1.635-2.048-.708.476.003.005zm-.881-1.72-.815.252.002.009.003.008zm.597-4.68-.701-.485-.004.005zm2.318-1.919-.355-.776-.002.001zm5.986-.199-.315.793.012.004zm1.991 1.266-.608.598.005.005.005.005zm1.223 1.806-.79.322.002.004zm-.81 5.318.644.56.003-.004zm-3.555 2.617-.393-.758-.999.517.768.823zm4.778 5.119-.624.582.552.592.62-.52zm.782-.754-.613-.594-.01.01zm.881-.938-.629-.576h-.001zm.825-.939-.652-.55-.002.002zm.612-.725.58-.626-.657-.608-.576.684zm2.318 2.147.671.527.485-.619-.577-.534zm-1.565 1.92.649.554.004-.004zm-1.521 1.664-.604-.604-.584.584.565.603zM113.229 28v.853h1.969l-1.346-1.436zm-4.664 0-.624.582.253.271h.371zm-2.702-2.9.625-.583-.588-.63-.624.593zm-3.683 2.488.343.781.003-.001zm-1.152-3.257.365.772.003-.002zm2.418-1.749.603.604.592-.593-.581-.603zm-5.248-5.446.615-.592-.408-.424-.541.23zm-2.957 6.257-.712.47.006.01zm1.365 1.151-.361.774.01.005zm2.972-11.035-.593.614.444.429.546-.287zm1.877-1.151-.502-.69-.006.004zm1.166-1.223-.729-.444-.007.012zm0-2.987-.736.432.007.012zm-1.052-1.01-.42.744.009.005.01.005zm-2.958 0 .414.747.007-.004.006-.003zm-1.01.996.74.427zm-.142 2.66-.795.31.003.008.004.008zm.754 1.237.672-.526zm-.214 15.57c-1.318 0-2.464-.236-3.456-.69l-.71 1.552c1.246.57 2.64.845 4.166.845zm-3.448-.686c-.98-.461-1.735-1.099-2.288-1.912l-1.411.96c.737 1.083 1.736 1.915 2.973 2.496zM92.27 25.01c-.53-.8-.81-1.759-.81-2.912H89.75c0 1.444.356 2.74 1.096 3.856zm-.81-2.912c0-1.347.405-2.496 1.214-3.484l-1.32-1.081c-1.069 1.305-1.602 2.84-1.602 4.565zm1.212-3.481c.835-1.011 2.125-1.923 3.932-2.704l-.677-1.567c-1.966.85-3.51 1.9-4.571 3.184zm4.231-4.054c-.667-.751-1.187-1.405-1.568-1.962l-1.41.962q.654.956 1.703 2.134zm-1.564-1.957c-.377-.56-.63-1.064-.78-1.515l-1.62.54c.21.63.544 1.273.983 1.927zm-.775-1.498a4.8 4.8 0 0 1-.218-1.425h-1.707q0 .984.295 1.931zm-.218-1.425c0-1.022.247-1.848.705-2.52l-1.41-.96c-.68.996-1.002 2.17-1.002 3.48zm.701-2.514c.487-.703 1.138-1.246 1.974-1.631l-.714-1.55c-1.099.506-1.993 1.243-2.662 2.209zm1.971-1.63c.853-.389 1.816-.591 2.902-.591V3.242c-1.303 0-2.51.244-3.61.746zm2.902-.591c.949 0 1.748.144 2.415.409l.631-1.586c-.907-.36-1.928-.53-3.046-.53zm2.427.413c.696.266 1.251.624 1.686 1.067l1.217-1.196c-.627-.639-1.399-1.124-2.296-1.465zm1.696 1.077q.69.679 1.031 1.52l1.58-.645a6.2 6.2 0 0 0-1.415-2.092zm1.033 1.524q.347.84.347 1.735h1.707q0-1.238-.477-2.388zm.347 1.735c0 1.014-.331 1.903-1.016 2.7l1.294 1.113c.945-1.099 1.429-2.38 1.429-3.813zm-1.014 2.697c-.722.832-1.808 1.644-3.303 2.419l.785 1.515c1.615-.837 2.898-1.769 3.807-2.815zm-3.534 3.759 4.778 5.119 1.247-1.165-4.778-5.119zm5.95 5.19q.405-.342.856-.823l-1.245-1.168a8 8 0 0 1-.708.684zm.847-.813q.45-.465.899-.957l-1.261-1.15q-.432.474-.864.92zm.898-.957q.466-.508.849-.966l-1.308-1.096q-.356.424-.8.91zm.847-.964.612-.726-1.305-1.099-.611.725zm-.62-.65 2.318 2.148 1.159-1.252-2.317-2.147zm2.226.995a72 72 0 0 1-1.545 1.897l1.305 1.1a71 71 0 0 0 1.583-1.943zm-1.541 1.892q-.824.964-1.477 1.615l1.207 1.207q.713-.713 1.567-1.713zm-1.496 2.802 4.622 4.934 1.245-1.166-4.621-4.935zm5.244 3.498h-4.664v1.706h4.664zm-4.039.271-2.702-2.9-1.249 1.163 2.702 2.9zm-3.914-2.938c-1.063 1.01-2.21 1.782-3.441 2.327l.691 1.56q2.134-.946 3.925-2.65zm-3.439 2.326a9.4 9.4 0 0 1-3.838.796v1.706c1.585 0 3.096-.312 4.524-.939zm-3.354-1.024c.99 0 1.963-.232 2.91-.68l-.729-1.543c-.74.35-1.465.516-2.181.516zm2.913-.68c.952-.456 1.835-1.099 2.653-1.916l-1.207-1.207c-.699.699-1.427 1.222-2.182 1.582zm2.664-3.112-5.247-5.446-1.229 1.184 5.247 5.446zm-6.196-5.64c-1.196.51-2.172 1.211-2.884 2.124l1.346 1.05c.501-.643 1.223-1.184 2.207-1.603zm-2.884 2.124c-.717.919-1.09 1.96-1.09 3.098h1.706c0-.738.234-1.413.73-2.048zm-1.09 3.098c0 .848.199 1.625.639 2.29l1.424-.94c-.224-.339-.357-.775-.357-1.35zm.645 2.3a4.16 4.16 0 0 0 1.71 1.446l.722-1.547a2.45 2.45 0 0 1-1.02-.858zm1.72 1.45c.69.31 1.436.46 2.228.46v-1.707a3.7 3.7 0 0 1-1.527-.309zm3.72-11.057q1.152-.604 1.988-1.222l-1.016-1.371a14 14 0 0 1-1.766 1.082zm1.982-1.217c.591-.43 1.071-.92 1.4-1.481l-1.472-.864c-.183.31-.48.636-.932.965zm1.393-1.47c.353-.58.523-1.228.523-1.922h-1.707c0 .406-.096.743-.274 1.035zm.523-1.922c0-.707-.167-1.367-.523-1.951l-1.458.887c.175.288.274.633.274 1.064zm-.516-1.94a3.5 3.5 0 0 0-1.388-1.33l-.801 1.506c.306.163.541.388.717.688zm-1.368-1.32a3.8 3.8 0 0 0-1.899-.48v1.706c.417 0 .763.093 1.059.26zm-1.899-.48c-.689 0-1.333.153-1.906.484l.854 1.478c.28-.162.622-.256 1.052-.256zm-1.894.477a3.47 3.47 0 0 0-1.334 1.314l1.478.854c.17-.294.395-.515.685-.676zm-1.334 1.314a3.7 3.7 0 0 0-.484 1.878h1.707c0-.406.09-.74.255-1.024zm-.484 1.878q0 .786.286 1.519l1.59-.62a2.4 2.4 0 0 1-.17-.9zm.293 1.535c.198.479.495.958.87 1.437l1.344-1.052c-.308-.394-.514-.74-.638-1.038zm.87 1.437c.373.477.858 1 1.444 1.566l1.186-1.227a14 14 0 0 1-1.286-1.391z" mask="url(#a)"/><path fill="#CEA561" d="M133.221 28.455q-2.447 0-4.551-.938a11.5 11.5 0 0 1-3.669-2.603 12.2 12.2 0 0 1-2.445-3.868q-.882-2.219-.882-4.764 0-2.346.782-4.536a11.8 11.8 0 0 1 2.29-3.896q1.506-1.72 3.683-2.73 2.19-1.01 4.962-1.01 1.82 0 3.442.455 1.621.454 2.972 1.266 1.365.81 2.375 1.905l-1.124 1.65q-1.337-1.522-3.356-2.432-2.02-.924-4.337-.924-2.218 0-3.967.824a8.65 8.65 0 0 0-2.944 2.261 9.9 9.9 0 0 0-1.834 3.257 11.7 11.7 0 0 0-.626 3.84q0 2.175.697 4.052a10.4 10.4 0 0 0 1.976 3.27 9.1 9.1 0 0 0 2.958 2.177 8.7 8.7 0 0 0 3.64.767 9.4 9.4 0 0 0 3.101-.526 8.8 8.8 0 0 0 2.73-1.521 7.4 7.4 0 0 0 1.934-2.375q.725-1.394.725-3.129v-.81h-8.646v-1.75h10.864v2.091q0 2.489-.938 4.366-.939 1.877-2.503 3.128a11.4 11.4 0 0 1-3.47 1.877q-1.905.627-3.839.626M149.085 28V3.541h2.076V28zm14.265.455q-2.048 0-3.697-.995-1.635-1.01-2.603-2.76-.952-1.748-.952-3.995 0-2.219.938-3.953.953-1.75 2.588-2.759 1.65-1.01 3.726-1.01 1.977 0 3.584.925a6.1 6.1 0 0 1 2.445 2.56v-3.03h2.077V28h-2.077v-3.072a6.94 6.94 0 0 1-2.517 2.589q-1.578.938-3.512.938m.512-1.806q1.635 0 2.887-.754a5.46 5.46 0 0 0 1.991-2.104q.725-1.35.725-3.072 0-1.734-.725-3.071a5.25 5.25 0 0 0-1.977-2.09q-1.266-.77-2.901-.769-1.635 0-2.901.768a5.35 5.35 0 0 0-1.991 2.09q-.725 1.338-.725 3.072 0 1.72.725 3.072a5.46 5.46 0 0 0 1.991 2.104q1.266.754 2.901.754M177.435 28V13.438h2.076v1.991q.868-1.208 2.077-1.82 1.208-.626 2.701-.626 1.792 0 3.115.825 1.337.825 1.848 2.247a6.8 6.8 0 0 1 2.133-2.233q1.31-.839 3.1-.839 1.55 0 2.759.64a4.5 4.5 0 0 1 1.891 1.849q.697 1.209.697 2.958V28h-2.076v-8.987q0-1.992-1.038-3.157t-2.773-1.166q-1.195 0-2.161.526a4.3 4.3 0 0 0-1.536 1.365q-.569.825-.569 1.707V28h-2.076v-9.2q0-1.892-1.038-3.001-1.024-1.11-2.716-1.11-1.195 0-2.19.513-.981.498-1.565 1.294-.582.796-.583 1.635V28z"/></svg>