<svg xmlns="http://www.w3.org/2000/svg" width="24" height="24" fill="none"><path stroke="#fff" stroke-linecap="round" stroke-linejoin="round" stroke-opacity=".5" d="M9.654 6.234a12 12 0 0 1-.44-2.192c-.08-.741-.726-1.292-1.47-1.292H4.29c-.889 0-1.573.768-1.495 1.652.788 8.915 7.889 16.015 16.803 16.803a1.506 1.506 0 0 0 1.652-1.492v-3.08c0-1.124-.55-1.768-1.291-1.846a12 12 0 0 1-2.192-.44 2.45 2.45 0 0 0-2.435.621l-1.479 1.479a15.64 15.64 0 0 1-6.3-6.3l1.48-1.479a2.45 2.45 0 0 0 .62-2.434"/></svg>