<svg width="22" height="22" viewBox="0 0 22 22" fill="none" xmlns="http://www.w3.org/2000/svg">
<path d="M19.0554 18.9975L15.1949 15.1371M15.1949 15.1371C15.8553 14.4767 16.3791 13.6928 16.7364 12.83C17.0938 11.9672 17.2778 11.0425 17.2778 10.1086C17.2778 9.17474 17.0938 8.25002 16.7364 7.38724C16.3791 6.52445 15.8553 5.74051 15.1949 5.08017C14.5346 4.41982 13.7506 3.89601 12.8878 3.53863C12.0251 3.18125 11.1003 2.99731 10.1665 2.99731C9.2326 2.99731 8.30788 3.18125 7.44509 3.53863C6.58231 3.89601 5.79837 4.41982 5.13802 5.08017C3.8044 6.41379 3.05518 8.22258 3.05518 10.1086C3.05518 11.9946 3.8044 13.8034 5.13802 15.1371C6.47165 16.4707 8.28044 17.2199 10.1665 17.2199C12.0525 17.2199 13.8613 16.4707 15.1949 15.1371Z" stroke="#151515" stroke-linecap="round" stroke-linejoin="round"/>
</svg>
