<svg xmlns="http://www.w3.org/2000/svg" width="28" height="22" fill="none"><path fill="#fff" fill-opacity=".8" d="M27.114 2.865c-.982.436-2.024.722-3.091.848A5.44 5.44 0 0 0 26.388.738a10.8 10.8 0 0 1-3.418 1.304A5.385 5.385 0 0 0 13.8 6.95 15.28 15.28 0 0 1 2.708 1.325a5.36 5.36 0 0 0-.729 2.707A5.38 5.38 0 0 0 4.373 8.51a5.36 5.36 0 0 1-2.438-.672v.066a5.38 5.38 0 0 0 4.318 5.278c-.45.125-.925.183-1.418.183-.347 0-.683-.028-1.012-.095a5.39 5.39 0 0 0 5.027 3.738 10.87 10.87 0 0 1-7.967 2.225 15.2 15.2 0 0 0 8.25 2.422c9.9 0 15.31-8.202 15.31-15.312q.001-.35-.013-.696a10.8 10.8 0 0 0 2.683-2.78"/></svg>