<svg xmlns="http://www.w3.org/2000/svg" viewBox="0 0 120 36"><path fill="#6c63ff" d="M13.95-16.35q.54 0 .69.33.15.33.15.54l.69 11.55 6.48-16.26q.18-.45.48-.63t.6-.18h1.41q.42 0 .51.29.09.28-.06.61L17.28-1.56q-.33.75-.71 1.16-.37.4-1.09.4h-1.2q-.69 0-.93-.43-.24-.44-.27-1.13l-.54-10.02L7.56-1.56q-.33.69-.75 1.13Q6.39 0 5.7 0H4.5q-.72 0-.93-.4-.21-.41-.21-1.16L3.6-20.1q0-.33.22-.61.23-.29.59-.29h1.2q.3 0 .54.18.24.18.24.63L6-3.93l5.73-11.55q.09-.21.38-.54.28-.33.82-.33h1.02zM27.9-2.7h10.08q.33 0 .51.24t.12.57l-.24 1.08q-.06.33-.35.57-.28.24-.61.24H25.29q-.33 0-.53-.24-.19-.24-.13-.57l4.14-19.38q.06-.33.34-.57.29-.24.62-.24h11.88q.33 0 .52.24.2.24.14.57l-.24 1.08q-.06.33-.36.57-.3.24-.63.24H31.2l-1.35 6.33h9.18q.33 0 .52.24.2.24.14.57l-.24 1.08q-.06.33-.36.57-.3.24-.63.24h-9.18L27.9-2.7zM52.08-21h14.07q.33 0 .52.24.2.24.14.57l-.24 1.08q-.06.33-.36.57-.3.24-.63.24h-5.61L56.25-.81q-.06.33-.35.57-.28.24-.61.24h-1.23q-.33 0-.53-.24-.19-.24-.13-.57l3.72-17.49h-5.61q-.33 0-.51-.24t-.12-.57l.24-1.08q.06-.33.34-.57.29-.24.62-.24zM78.21-.75l-.72-3.99H67.08l-2.4 3.99q-.15.24-.44.49-.28.26-.88.26h-1.35q-.33 0-.48-.28-.15-.29.03-.59l11.49-19.14q.21-.33.58-.66.38-.33.98-.33h1.92q.6 0 .84.33t.3.66l3.3 18.93q.09.45-.08.76-.16.32-.67.32h-.99q-.6 0-.78-.26-.18-.25-.24-.49zm-3.06-17.4L68.7-7.44h8.31l-1.86-10.71zM87.36-2.7h10.17q.33 0 .51.24t.12.57l-.24 1.08q-.06.33-.34.57-.29.24-.62.24H84.75q-.33 0-.53-.24-.19-.24-.13-.57l4.14-19.38q.06-.33.35-.57.28-.24.61-.24h1.23q.33 0 .52.24.2.24.14.57L87.36-2.7zm32.19-17.1l-12.06 8.85 8.16 9.75q.33.39.1.8-.22.4-.7.4h-1.62q-.42 0-.66-.16-.24-.17-.33-.29l-6.96-8.37-1.71 8.01q-.06.33-.35.57-.28.24-.61.24h-1.23q-.33 0-.53-.24-.19-.24-.13-.57l4.14-19.38q.06-.33.35-.57.28-.24.61-.24h1.23q.33 0 .52.24.2.24.14.57l-1.44 6.72 9.51-7.08q.15-.12.45-.29.3-.16.72-.16h2.28q.51 0 .59.39.07.39-.47.81z"/></svg>