<svg xmlns="http://www.w3.org/2000/svg" viewBox="0 0 489.7 489.7" fill="#fff"><path d="M112.2 97.1A195.2 195.2 0 01366 90.4l-58.1 2.2c-7.5.3-13.3 6.5-13 14 .3 7.3 6.3 13 13.5 13h.5l89.2-3.3c7.3-.3 13-6.2 13-13.5v-1.5L407.8 13a13.5 13.5 0 00-27 1l2 55.3A219.7 219.7 0 00254.2 20 222.1 222.1 0 0027.3 294.2a13.4 13.4 0 0016.3 10 13.5 13.5 0 009.9-16.4 195.1 195.1 0 0158.7-190.7zm350.3 98.4a13.5 13.5 0 00-26.2 6.4A194.9 194.9 0 01122.2 398l58.8-5.3a13.5 13.5 0 10-2.5-26.9l-89 8c-7.3.7-12.8 7.2-12.1 14.7l8 89c.6 7 6.5 12.2 13.4 12.2h1.2c7.4-.8 12.9-7.3 12.2-14.8l-4.8-54A220.5 220.5 0 00247 470a222 222 0 00215.5-274.5z"/></svg>