<svg version="1.1" id="Слой_3" xmlns="http://www.w3.org/2000/svg" x="0" y="0" viewBox="0 0 120.7 66.9" xml:space="preserve"><style>.st0{fill:#b7000e}</style><path class="st0" d="M33.1 63.3v-9.8c3.4 3.3 7.3 5 11.6 5 3.5 0 6.3-1 8.4-2.9 2.1-2 3.1-4.6 3.1-7.9 0-7.3-4.6-11-13.7-11h-4.1v-8.4h3.9c8.1 0 12.1-3.5 12.1-10.4 0-6.4-3.1-9.6-9.4-9.6-3.5 0-6.8 1.5-9.9 4.6V3.7C38.6 1.3 42.8 0 47.7 0c4.7 0 8.4 1.4 11.2 4.3 2.8 2.9 4.2 6.6 4.2 11.1 0 8.5-3.5 14-10.5 16.4v.2a13 13 0 019 4.9c2.2 2.8 3.3 6.3 3.3 10.5a19 19 0 01-5.3 14 18.6 18.6 0 01-14 5.3c-5.3.1-9.4-1.1-12.5-3.4zM71 15.5V3.6c0-1 .3-1.8.9-2.4.6-.6 1.4-.9 2.4-.9 3.4 0 5.7.1 7.1.3l-.2 2.9h-5.1c-.7 0-1 .3-1 1v11H71zM87.1 6.4H89c2.2 0 3.8.3 4.7 1C94.5 8 95 9.2 95 11s-.4 3.1-1.3 3.7c-.9.6-2.3 1-4.3 1a93 93 0 01-6.2-.2H83V.4l5.4-.2 5.5.2-.3 3h-6.5v3zm0 6.4H89c.8 0 1.3-.1 1.5-.4.2-.2.4-.7.4-1.5s-.1-1.3-.4-1.5c-.3-.3-.8-.4-1.5-.4h-1.9v3.8zM108.9.4l-3.5 11.2c-.4 1.4-.9 2.5-1.5 3.1s-1.4 1-2.5 1.1c-1 .1-2.4 0-4.2-.3l.4-2.9 2.7-.1c.4-.1.7-.4.9-.9l.1-.4h-.9a2 2 0 01-1.4-.5l-.8-1.3L95.3.3h4.2l2 7.7c0 .2.1.2.4.2h.4l2.3-7.9h4.3zM110 3.5l-.3-2.9c1.4-.3 3.2-.5 5.2-.5s3.4.3 4.2.8c.8.5 1.2 1.6 1.2 3.1 0 1.1-.2 1.9-.6 2.5-.4.6-1.1.9-2 1v.1c1.1.1 1.9.5 2.4 1.1s.7 1.6.7 2.9c0 1.5-.4 2.5-1.2 3.1s-2.1.8-4 .8a22 22 0 01-6.2-.7l.3-2.8c2 .3 3.6.5 5.1.5.7 0 1.2-.1 1.4-.4s.4-.7.4-1.4-.1-1.2-.4-1.5c-.3-.2-.7-.4-1.4-.4l-3.3.2V6.3l3.1-.1c.6 0 1-.1 1.2-.3.2-.2.3-.6.3-1.2s-.1-1-.3-1.2c-.2-.2-.6-.3-1.3-.3a39 39 0 00-4.5.3zM83 42.9l-.3-3.3h-9.6l-.3 3.3h-3v-6.1h1.6c.9-2.5 1.6-5.6 1.9-9.1.1-1 .5-1.8 1.1-2.4.7-.6 1.5-.9 2.6-.9h7v12.4h2v6.1h-3zm-3.2-6.2v-9.5h-1.4c-.7 0-1.1.4-1.1 1.2a40 40 0 01-.7 5 17 17 0 01-1.2 3.4h4.4zM98.6 36.1l.3 3c-1.3.5-3 .7-5.1.7-2.4 0-4.2-.6-5.1-1.8-1-1.2-1.5-3.2-1.5-6.1s.5-4.9 1.5-6.1c1-1.2 2.7-1.8 5.1-1.8 1.8 0 3.4.2 4.8.6l-.3 3-4.5-.1c-.9 0-1.5.3-1.8.9s-.5 1.7-.5 3.4.2 2.8.5 3.4c.3.6.9.9 1.8.9 2.1.2 3.7.1 4.8 0zM113.5 24.4v15.2h-4.1V27.2h-4.5v12.4h-4.1V24.4h12.7zM83 66.9l-.3-3.3h-9.6l-.3 3.3h-3v-6.1h1.6c.9-2.5 1.6-5.6 1.9-9.1.1-1 .5-1.8 1.1-2.4.7-.6 1.5-.9 2.6-.9h7v12.4h2v6.1h-3zm-3.2-6.2v-9.5h-1.4c-.7 0-1.1.4-1.1 1.2a40 40 0 01-.7 5 17 17 0 01-1.2 3.4h4.4zM87.5 51.5l-.3-2.9c1.4-.3 3.2-.5 5.2-.5s3.4.3 4.2.8c.8.5 1.2 1.6 1.2 3.1 0 1.1-.2 1.9-.6 2.5-.4.6-1.1.9-2 1v.1c1.1.1 1.9.5 2.4 1.1s.7 1.6.7 2.9c0 1.5-.4 2.5-1.2 3.1s-2.1.8-4 .8a22 22 0 01-6.2-.7l.3-2.8c2 .3 3.6.5 5.1.5.7 0 1.2-.1 1.4-.4s.4-.7.4-1.4-.1-1.2-.4-1.5c-.3-.2-.7-.4-1.4-.4l-3.2.2v-2.7l3.1-.1c.6 0 1-.1 1.2-.3.2-.2.3-.6.3-1.2s-.1-1-.3-1.2c-.2-.2-.6-.3-1.3-.3l-4.6.3zM112.8 48.4h3.8c1 0 1.5.5 1.5 1.5l.6 13.7h-3.8l-.5-12h-.4l-1.8 8.5c-.2.9-.7 1.3-1.6 1.3h-2.3c-.9 0-1.5-.4-1.6-1.3l-1.9-8.5h-.4l-.4 12h-3.8l.5-13.7c0-1 .5-1.5 1.5-1.5h3.7c.9 0 1.4.4 1.6 1.3l1.5 6.7.3 2.2h.2l.1-1 .2-1.3 1.4-6.7c.2-.8.7-1.2 1.6-1.2z"/><g><path class="st0" d="M9.5 66.9H7.3l-5.1-8.7-.3-.7.1 1.8v7.6H0V55h2.3l5.3 9.2-.1-1.7V55h1.9v11.9zm4.6-5c-1 0-1.8-.3-2.4-.9s-.9-1.5-.9-2.6c0-1.2.3-2 .9-2.6s1.4-.9 2.5-.9c1 0 1.8.3 2.4.9.6.6.8 1.4.8 2.5s-.3 2-.9 2.6-1.4 1-2.4 1zm3 2.6H11v-1.4h6.1v1.4zm-3-8.3c-.5 0-.9.2-1.2.6-.3.4-.4.9-.4 1.6 0 1.4.5 2.1 1.6 2.1s1.6-.7 1.6-2.1c0-1.5-.5-2.2-1.6-2.2z"/></g><g><path class="st0" d="M20.8 66.9V52.4H0s7-28 7.7-40.7c.2-3.5 1-6.3 2.3-8.5C11.4 1.1 13.1 0 15.3 0h14.3v43.6h7.3v8.9H29v14.4h-8.2zm.1-22.5V10.1H18c-1.5 0-2.3 1.4-2.4 4.2a366 366 0 01-3.9 30.1h9.2z"/></g></svg>