<svg version="1.1" id="Слой_1" xmlns="http://www.w3.org/2000/svg" x="0" y="0" viewBox="0 0 200.5 103.1" xml:space="preserve"><path fill="#b7000e" d="M22 12.3l-1.2 4.2H17L22 .3h4.8l5 16.2h-3.9l-1.2-4.2H22zm4.2-2.7l-1-3.4-.8-3.1-.7 3.1-1 3.4h3.5zM47.7 10.2l-.1-6.6h-.1l-1.8 6.3-2 6.3h-2.9l-1.7-6.3-1.5-6.3-.3 6.7-.3 6.1h-3.4l1-16.2h4.9l1.6 5.4 1.4 5.8h.1l1.5-5.8L45.8.2h4.8l.9 16.2h-3.6l-.2-6.2zM63.9 9.6h-6v3.8h6.6v3H54.3V.3h10v3H58v3.4h6v2.9zM67.1.5C68.2.3 69.8.2 72 .2c2.3 0 3.9.4 4.9 1.3 1 .8 1.7 2.2 1.7 3.7 0 1.6-.5 2.9-1.5 3.8-1.2 1.2-3.1 1.7-5.3 1.7l-1.2-.1v5.8H67V.5zm3.7 7.3l1.2.1c1.9 0 3.1-1 3.1-2.6 0-1.5-1-2.4-2.9-2.4l-1.4.1v4.8zM84.4.3v4.8c0 2.6 0 5.2-.2 7.3h.1c.8-1.9 1.9-4 2.9-5.8L90.7.2h3.7v16.2H91v-4.8c0-2.5 0-4.7.3-6.8h-.1c-.7 1.9-1.8 4.1-2.7 5.8l-3.3 5.8H81V.3h3.4zM101.3.3V7h.3l4.5-6.7h4.4l-5.6 7.2c2.1.5 3 2 3.7 3.9.6 1.7 1.1 3.5 1.9 5.1h-3.9c-.6-1.1-.9-2.4-1.2-3.6-.6-1.8-1.3-3.2-3.3-3.2h-.7v6.8h-3.6V.3h3.5zM116.2 12.3l-1.2 4.2h-3.8L116.1.3h4.8l5 16.2H122l-1.2-4.2h-4.6zm4.1-2.7l-1-3.4-.8-3.1-.7 3.1-1 3.4h3.5zM131.9.3v6.2h6V.3h3.6v16.2h-3.6V9.7h-6v6.8h-3.7V.3h3.7zM156.6 16c-.7.3-2.2.7-4.2.7-5.6 0-8.5-3.5-8.5-8.1 0-5.5 3.9-8.6 8.8-8.6 1.9 0 3.3.4 4 .7l-.7 2.9c-.7-.3-1.7-.6-3-.6-2.9 0-5.2 1.8-5.2 5.4 0 3.2 1.9 5.3 5.2 5.3 1.1 0 2.3-.2 3-.5l.6 2.8zM162.6.3V7h.3l4.5-6.7h4.4l-5.6 7.2c2.1.5 3 2 3.7 3.9.6 1.7 1.1 3.5 1.9 5.1h-3.9c-.6-1.1-.9-2.4-1.2-3.6-.6-1.8-1.3-3.2-3.3-3.2h-.7v6.8H159V.3h3.6zM176.9.3v4.8c0 2.6 0 5.2-.2 7.3h.1c.8-1.9 1.9-4 2.9-5.8l3.5-6.4h3.7v16.2h-3.4v-4.8c0-2.5 0-4.7.3-6.8h-.1c-.7 1.9-1.8 4.1-2.7 5.8l-3.3 5.8h-4.2V.3h3.4zM199.7 9.6h-6v3.8h6.6v3H190V.3h10v3h-6.3v3.4h6v2.9zM21.9 29.1v6.7h.3l4.5-6.7h4.4l-5.6 7.2c2.1.5 3 2 3.7 3.9.6 1.7 1.1 3.5 1.9 5.1h-3.9c-.6-1.1-.9-2.4-1.2-3.6-.6-1.8-1.3-3.2-3.3-3.2H22v6.8h-3.6V29.1h3.5zM35.8 29.1l2.4 5.7 1.1 3.1h.1l.9-3.1 1.8-5.6h3.8l-3 7.8c-1 2.5-2 5-3.2 6.5a5.3 5.3 0 01-4.3 2.1c-.8 0-1.3-.1-1.8-.3l.3-2.9 1.2.1c1.1 0 1.9-.8 2.2-1.5v-.7l-5.4-11.1h3.9zM47.3 29.3c1.1-.2 2.7-.3 4.9-.3 2.3 0 3.9.4 4.9 1.3 1 .8 1.7 2.2 1.7 3.7 0 1.6-.5 2.9-1.5 3.8-1.2 1.2-3.1 1.7-5.3 1.7l-1.2-.1v5.8h-3.6V29.3zm3.6 7.3l1.2.1c1.9 0 3.1-1 3.1-2.6 0-1.5-1-2.4-2.9-2.4l-1.5.1v4.8zM73 44.8c-.7.3-2.2.7-4.2.7-5.6 0-8.5-3.5-8.5-8.1 0-5.5 3.9-8.6 8.8-8.6 1.9 0 3.3.4 4 .7l-.7 2.9a8 8 0 00-3.1-.6c-2.9 0-5.2 1.8-5.2 5.4 0 3.2 1.9 5.3 5.2 5.3 1.1 0 2.3-.2 3-.5l.7 2.8zM79.1 29.1v5.6l1.8-.1c3.3 0 6.4 1.7 6.4 5.3a5 5 0 01-1.3 3.5c-1.6 1.6-4.3 2.1-6.6 2.1l-3.9-.2V29.1h3.6zM79 42.6l1.2.1c1.6 0 3.1-.9 3.1-2.7 0-1.8-1.7-2.6-3.1-2.6l-1.3.1v5.1zm13.4-13.5v16.2h-3.6V29.1h3.6zM31.4 57.9V74h-3.7V60.9H22V74h-3.7V57.9h13.1zM34.5 58.1c1.1-.2 2.7-.3 4.9-.3 2.3 0 3.9.4 4.9 1.3 1 .8 1.7 2.2 1.7 3.7s-.5 2.9-1.5 3.8c-1.2 1.2-3.1 1.7-5.3 1.7l-1.2-.1V74h-3.6V58.1zm3.6 7.3l1.2.1c1.9 0 3.1-1 3.1-2.6 0-1.5-1-2.4-2.9-2.4l-1.5.1v4.8zM50.8 69.9L49.6 74h-3.8l4.9-16.2h4.8l5 16.2h-3.9l-1.2-4.2h-4.6zm4.1-2.7l-1-3.4-.8-3.1-.7 3.1-1 3.4h3.5zM66.4 57.9v6.7h.3l4.5-6.7h4.4L69.9 65c2.1.5 3 2 3.7 3.9.6 1.7 1.1 3.5 1.9 5.1h-3.9c-.6-1.1-.9-2.4-1.2-3.6-.6-1.8-1.3-3.2-3.3-3.2h-.7V74h-3.6V57.9h3.6zM80.8 60.9h-4.3v-3.1h12.4v3.1h-4.4V74h-3.7V60.9zM94.2 57.9v4.8c0 2.6 0 5.2-.2 7.3h.1c.8-1.9 1.9-4 2.9-5.8l3.5-6.4h3.7V74h-3.4v-4.8c0-2.5 0-4.7.3-6.8h-.1c-.7 1.9-1.8 4.1-2.7 5.8L95 74h-4.2V57.9h3.4zM110.7 57.9v4.7c0 1.8 1 2.7 2.7 2.7a5 5 0 002.4-.6v-6.8h3.6V74h-3.6v-6.7h-.1c-1.2.6-2.3.8-3.6.8-2.9 0-5-1.6-5-5v-5.3h3.6zM132.3 67.2h-6V71h6.6v3h-10.3V57.9h10v3h-6.3v3.4h6v2.9zM147.3 73.6c-.7.3-2.2.7-4.2.7-5.6 0-8.5-3.5-8.5-8.1 0-5.5 3.9-8.6 8.8-8.6 1.9 0 3.3.4 4 .7l-.7 2.9a8 8 0 00-3.1-.6c-2.9 0-5.2 1.8-5.2 5.4 0 3.2 1.9 5.3 5.2 5.3 1.1 0 2.3-.2 3-.5l.7 2.8zM153.4 57.9v6.7h.3l4.5-6.7h4.4l-5.6 7.2c2.1.5 3 2 3.7 3.9.6 1.7 1.1 3.5 1.9 5.1h-3.9c-.6-1.1-.9-2.4-1.2-3.6-.6-1.8-1.3-3.2-3.3-3.2h-.7V74h-3.6V57.9h3.5zM178.7 65.8c0 5.3-3.2 8.5-7.9 8.5-4.8 0-7.6-3.6-7.6-8.2 0-4.8 3.1-8.5 7.9-8.5 4.9 0 7.6 3.7 7.6 8.2zM167 66c0 3.2 1.5 5.4 3.9 5.4 2.5 0 3.9-2.4 3.9-5.5 0-2.9-1.4-5.4-3.9-5.4S167 62.9 167 66zM184.4 57.9v4.8c0 2.6 0 5.2-.2 7.3h.1c.8-1.9 1.9-4 2.9-5.8l3.5-6.4h3.7V74H191v-4.8c0-2.5 0-4.7.3-6.8h-.1c-.7 1.9-1.8 4.1-2.7 5.8l-3.3 5.8H181V57.9h3.4zm2.3-3.7c0 .9.3 1.5 1.1 1.5.7 0 1-.5 1.1-1.5h2.4c-.1 2.1-1.5 3-3.6 3s-3.3-.9-3.5-3h2.5zM30.2 102.4c-.7.3-2.2.7-4.2.7-5.6 0-8.5-3.5-8.5-8.1 0-5.5 3.9-8.6 8.8-8.6 1.9 0 3.3.4 4 .7l-.7 2.9a8 8 0 00-3.1-.6c-2.9 0-5.2 1.8-5.2 5.4 0 3.2 1.9 5.3 5.2 5.3 1.1 0 2.3-.2 3-.5l.7 2.8zM36.1 89.7h-4.3v-3.1h12.4v3.1h-4.4v13.1h-3.7V89.7zM60.2 94.6c0 5.3-3.2 8.5-7.9 8.5-4.8 0-7.6-3.6-7.6-8.2 0-4.8 3.1-8.5 7.9-8.5 4.9 0 7.6 3.7 7.6 8.2zm-11.7.2c0 3.2 1.5 5.4 3.9 5.4 2.5 0 3.9-2.4 3.9-5.5 0-2.9-1.4-5.4-3.9-5.4s-3.9 2.4-3.9 5.5zM76.1 96.6L76 90h-.1l-1.8 6.3-2 6.3h-2.9l-1.7-6.3L66 90l-.3 6.7-.3 6.1H62l1-16.2h5l1.6 5.4 1.4 5.8 1.5-5.8 1.7-5.4H79l.9 16.2h-3.6l-.2-6.2zM86.5 98.7l-1.2 4.2h-3.8l4.9-16.2h4.8l5 16.2h-3.9l-1.2-4.2h-4.6zm4.1-2.7l-1-3.4-.8-3.1-.7 3.1-1 3.4h3.5zM100.1 89.7h-4.3v-3.1h12.4v3.1h-4.4v13.1h-3.7V89.7zM124.1 94.6c0 5.3-3.2 8.5-7.9 8.5-4.8 0-7.6-3.6-7.6-8.2 0-4.8 3.1-8.5 7.9-8.5 4.9 0 7.6 3.7 7.6 8.2zm-11.7.2c0 3.2 1.5 5.4 3.9 5.4 2.5 0 3.9-2.4 3.9-5.5 0-2.9-1.4-5.4-3.9-5.4-2.4 0-3.9 2.4-3.9 5.5zM138.5 86.7v16.2h-3.6V89.7h-3.7v3.8c0 4.2-.5 7.3-3 8.8a6 6 0 01-3.2.8l-.5-3c.8-.1 1.4-.4 1.8-.9 1-1 1.2-3.1 1.2-5.5v-7.1h11zM156.5 94.6c0 5.3-3.2 8.5-7.9 8.5-4.8 0-7.6-3.6-7.6-8.2 0-4.8 3.1-8.5 7.9-8.5 4.9 0 7.6 3.7 7.6 8.2zm-11.7.2c0 3.2 1.5 5.4 3.9 5.4 2.5 0 3.9-2.4 3.9-5.5 0-2.9-1.4-5.4-3.9-5.4s-3.9 2.4-3.9 5.5zM168.7 86.7v3h-6.1v13.2h-3.7V86.7h9.8zM174 86.7v4.8c0 2.6 0 5.2-.2 7.3h.1c.8-1.9 1.9-4 2.9-5.8l3.5-6.4h3.7v16.2h-3.4V98c0-2.5 0-4.7.3-6.8h-.1c-.7 1.9-1.8 4.1-2.7 5.8l-3.3 5.8h-4.2V86.7h3.4zM190.5 86.7v4.8c0 2.6 0 5.2-.2 7.3h.1c.8-1.9 1.9-4 2.9-5.8l3.5-6.4h3.7v16.2h-3.4V98c0-2.5 0-4.7.3-6.8h-.1c-.7 1.9-1.8 4.1-2.7 5.8l-3.3 5.8h-4.2V86.7h3.4z"/><path fill="none" stroke="#b7000e" stroke-width="6" stroke-miterlimit="10" d="M8.2.2v102.9"/></svg>