<svg version="1.1" id="svg2" xmlns="http://www.w3.org/2000/svg" x="0" y="0" viewBox="0 0 218.3 300" xml:space="preserve"><style>.st0{fill-rule:evenodd;clip-rule:evenodd;fill:#b7000e}</style><path id="path10" class="st0" d="M56.8 272.7c4.9 0 8.8 4.4 8.8 9.9s-3.9 9.9-8.8 9.9-8.8-4.4-8.8-9.9 3.9-9.9 8.8-9.9zm0-7.6c9.7 0 17.6 7.8 17.6 17.4s-7.9 17.4-17.6 17.4-17.6-7.8-17.6-17.4c0-9.5 7.9-17.4 17.6-17.4zm41 7.6c3 0 5.8 1.3 7.4 3.9l5.8-5.5a17.6 17.6 0 00-13.2-5.9c-9.7 0-17.6 7.8-17.6 17.4a17.5 17.5 0 0031 11.2l-6-5.1a8.7 8.7 0 01-7.4 3.8c-4.9 0-8.8-4.4-8.8-9.9s4-9.9 8.8-9.9zm58.1 12.2h25.2l.1-2.3c0-9.6-7.6-17.4-16.9-17.4-9.3 0-16.9 7.8-16.9 17.4S155 300 164.3 300c5.3 0 11.5-.9 14.6-4.9l-3.9-5.6c-1.9 2.8-7.1 3.6-10.3 3.6-4.3 0-7.9-3.5-8.8-8.2zm.2-5.5c1.1-4.3 4.6-7.4 8.6-7.4 4.1 0 7.5 3.1 8.6 7.4h-17.2zm-39.7-13.5h27.1v7.5h-9.4v25.8h-8.4v-25.8h-9.4l.1-7.5zm78.7 16.2L183.7 266h10.1l6.8 10.3 6.8-10.3h10.1l-11.4 16.1 11.9 17.1h-9.8l-7.7-11.1-7.7 11.1H183l12.1-17.1zm5.5-4.3zM20.9 261.6c3.6 0 6.6 3 6.6 6.6s-3 6.6-6.6 6.6H9.7v-13.2h11.2zM.5 253.7h22.2a14.4 14.4 0 010 28.8h-13v16.6H.5v-45.4z"/><path id="path12" class="st0" d="M28.1 28.1h73.5L73.5 0H0v73.5l28.1 28.1V28.1zm88.7 0h73.5v73.5l28.1-28.1V0h-73.5l-28.1 28.1zm73.4 88.7v73.5h-73.5l28.1 28.1h73.5v-73.5l-28.1-28.1zm-88.6 73.4H28.1v-73.5L0 144.9v73.5h73.5l28.1-28.2z"/></svg>