<svg xmlns="http://www.w3.org/2000/svg" viewBox="0 0 213.7 213.7"><style>.st3{fill-rule:evenodd;clip-rule:evenodd}.st3,.st4{fill:#b81918}</style><path class="st3" d="M200.6 108.6c7.2 0 13.1 5.9 13.1 13.1 0 5.6-3.6 10.4-8.6 12.3v71.2h-76.3v-9H196V134a13 13 0 01-8.6-12.3c.2-7.2 6-13.1 13.2-13.1zm0 7.7c-3 0-5.4 2.4-5.4 5.4 0 3 2.4 5.4 5.4 5.4 3 0 5.4-2.4 5.4-5.4.1-3-2.4-5.4-5.4-5.4z"/><path class="st3" d="M91.6 187.6c7.2 0 13.1 5.9 13.1 13.1 0 7.2-5.9 13.1-13.1 13.1-5.6 0-10.4-3.6-12.3-8.6H8.6v-76.3h9v67.2h61.7c1.9-5 6.7-8.5 12.3-8.5zm0 7.6c-3 0-5.4 2.4-5.4 5.4 0 3 2.4 5.4 5.4 5.4 3 0 5.4-2.4 5.4-5.4 0-2.9-2.4-5.4-5.4-5.4z" id="Слой_2__x28_копия2_x29_"/><path class="st3" d="M8.6 8.6h76.3v9H17.6v63.5a13 13 0 018.6 12.3c0 7.2-5.9 13.1-13.1 13.1-7.2 0-13.1-5.9-13.1-13.1C0 87.8 3.6 83 8.6 81.1V8.6zM13.1 88c-3 0-5.4 2.4-5.4 5.4 0 3 2.4 5.4 5.4 5.4s5.4-2.4 5.4-5.4c0-3-2.4-5.4-5.4-5.4z"/><path class="st3" d="M121.6 0c5.6 0 10.4 3.6 12.3 8.6h71.2v76.3h-9V17.6h-62.2a13 13 0 01-12.3 8.6c-7.2 0-13.1-5.9-13.1-13.1.1-7.2 5.9-13.1 13.1-13.1zm0 7.7c-3 0-5.4 2.4-5.4 5.4 0 3 2.4 5.4 5.4 5.4 3 0 5.4-2.4 5.4-5.4 0-3-2.4-5.4-5.4-5.4z"/><g><path class="st4" d="M131.7 77a5.1 5.1 0 00-5.1 5.1c0 2.8 2.3 5.1 5.1 5.1s5.1-2.3 5.1-5.1-2.3-5.1-5.1-5.1zM162.5 103.9c0-2.8-2.3-5.1-5.1-5.1s-5.1 2.3-5.1 5.1 2.3 5.1 5.1 5.1 5.1-2.3 5.1-5.1zM111.8 58.6c0-2.8-2.3-5.1-5.1-5.1a5.1 5.1 0 00-5.1 5.1c0 2.8 2.3 5.1 5.1 5.1a5 5 0 005.1-5.1zM56.4 98.8c-2.8 0-5.1 2.3-5.1 5.1s2.3 5.1 5.1 5.1 5.1-2.3 5.1-5.1-2.3-5.1-5.1-5.1zM82.1 77a5.1 5.1 0 00-5.1 5.1c0 2.8 2.3 5.1 5.1 5.1s5.1-2.3 5.1-5.1-2.3-5.1-5.1-5.1z"/><path class="st4" d="M181.2 32.6H32.6v148.6H85v-12.7l-32.8-31.8v-19.9a13.6 13.6 0 119.1-.3v15.8l32.3 31.9v16.9h8.1V71.3a13.6 13.6 0 1110.3-.1v110h8.1v-16.9l32.3-31.9v-15.8A13.6 13.6 0 11171 104c0 6.1-4 11.2-9.5 12.9v19.9l-32.8 31.8v12.7h52.5V32.6zM95.6 82.1c0 6-3.8 11-9.2 12.9v15.8L98.2 122v13.1l-20.5-19.6V95a13.6 13.6 0 1117.9-12.9zM135.9 95v20.4L115.4 135v-13.1l11.8-11.2V95a13.7 13.7 0 014.4-26.5 13.6 13.6 0 014.3 26.5z"/></g></svg>