<?xml version="1.0" encoding="utf-8"?>
<!-- Generator: Adobe Illustrator 24.0.1, SVG Export Plug-In . SVG Version: 6.00 Build 0)  -->
<svg version="1.1"
	 id="svg2" xmlns:cc="http://creativecommons.org/ns#" xmlns:dc="http://purl.org/dc/elements/1.1/" xmlns:rdf="http://www.w3.org/1999/02/22-rdf-syntax-ns#" xmlns:svg="http://www.w3.org/2000/svg"
	 xmlns="http://www.w3.org/2000/svg" xmlns:xlink="http://www.w3.org/1999/xlink" x="0px" y="0px" viewBox="0 0 218.3 300"
	 style="enable-background:new 0 0 218.3 300;" xml:space="preserve">
<style type="text/css">
	.st0{fill-rule:evenodd;clip-rule:evenodd;fill:#B7000E;}
</style>
<path id="path10" class="st0" d="M56.8,272.7c4.9,0,8.8,4.4,8.8,9.9s-3.9,9.9-8.8,9.9s-8.8-4.4-8.8-9.9S51.9,272.7,56.8,272.7z
	 M56.8,265.1c9.7,0,17.6,7.8,17.6,17.4s-7.9,17.4-17.6,17.4s-17.6-7.8-17.6-17.4C39.2,273,47.1,265.1,56.8,265.1z M97.8,272.7
	c3,0,5.8,1.3,7.4,3.9l5.8-5.5c-3.2-3.6-7.9-5.9-13.2-5.9c-9.7,0-17.6,7.8-17.6,17.4S88.1,300,97.8,300c5.4,0,10.2-2.4,13.4-6.2
	l-6-5.1c-1.6,2.5-4.5,3.8-7.4,3.8c-4.9,0-8.8-4.4-8.8-9.9C89,277.1,93,272.7,97.8,272.7z M155.9,284.9h25.2c0.1-0.7,0.1-1.5,0.1-2.3
	c0-9.6-7.6-17.4-16.9-17.4c-9.3,0-16.9,7.8-16.9,17.4S155,300,164.3,300c5.3,0,11.5-0.9,14.6-4.9l-3.9-5.6
	c-1.9,2.8-7.1,3.6-10.3,3.6C160.4,293.1,156.8,289.6,155.9,284.9L155.9,284.9z M156.1,279.4c1.1-4.3,4.6-7.4,8.6-7.4
	c4.1,0,7.5,3.1,8.6,7.4H156.1z M116.4,265.9h27.1v7.5h-9.4v25.8h-8.4v-25.8h-9.4L116.4,265.9L116.4,265.9z M195.1,282.1L183.7,266
	h10.1l6.8,10.3l6.8-10.3h10.1l-11.4,16.1l11.9,17.1h-9.8l-7.7-11.1l-7.7,11.1H183L195.1,282.1z M200.6,277.8L200.6,277.8
	L200.6,277.8L200.6,277.8L200.6,277.8z M20.9,261.6c3.6,0,6.6,3,6.6,6.6s-3,6.6-6.6,6.6H9.7v-13.2H20.9z M0.5,253.7h22.2
	c8,0,14.4,6.5,14.4,14.4c0,8-6.5,14.4-14.4,14.4h-13v16.6H0.5V253.7L0.5,253.7z"/>
<path id="path12" class="st0" d="M28.1,28.1h73.5L73.5,0H0v73.5l28.1,28.1V28.1z M116.8,28.1h73.5v73.5l28.1-28.1V0h-73.5
	L116.8,28.1z M190.2,116.8v73.5h-73.5l28.1,28.1h73.5v-73.5L190.2,116.8L190.2,116.8z M101.6,190.2H28.1v-73.5L0,144.9v73.5h73.5
	C73.5,218.3,101.6,190.2,101.6,190.2z"/>
</svg>
