<?xml version="1.0" encoding="utf-8"?>
<!-- Generator: Adobe Illustrator 24.0.1, SVG Export Plug-In . SVG Version: 6.00 Build 0)  -->
<svg version="1.1" id="Слой_1" xmlns="http://www.w3.org/2000/svg" xmlns:xlink="http://www.w3.org/1999/xlink" x="0px" y="0px"
	 viewBox="0 0 200.5 103.1" style="enable-background:new 0 0 200.5 103.1;" xml:space="preserve">
<style type="text/css">
	.st0{fill:#B7000E;}
	.st1{fill:none;stroke:#B7000E;stroke-width:6;stroke-miterlimit:10;}
</style>
<g>
	<path class="st0" d="M22,12.3l-1.2,4.2h-3.8L22,0.3h4.8l5,16.2h-3.9l-1.2-4.2H22z M26.2,9.6l-1-3.4c-0.3-1-0.6-2.2-0.8-3.1h0
		c-0.2,1-0.5,2.2-0.7,3.1l-1,3.4H26.2z"/>
	<path class="st0" d="M47.7,10.2c-0.1-1.9-0.1-4.3-0.1-6.6h-0.1C47,5.7,46.3,8,45.7,9.9l-2,6.3h-2.9l-1.7-6.3
		c-0.5-1.9-1.1-4.2-1.5-6.3h0c-0.1,2.2-0.2,4.7-0.3,6.7L37,16.4h-3.4l1-16.2h4.9l1.6,5.4c0.5,1.9,1,3.9,1.4,5.8h0.1
		c0.5-1.9,1-4,1.5-5.8l1.7-5.4h4.8l0.9,16.2h-3.6L47.7,10.2z"/>
	<path class="st0" d="M63.9,9.6h-6v3.8h6.6v3H54.3V0.3h10v3H58v3.4h6V9.6z"/>
	<path class="st0" d="M67.1,0.5c1.1-0.2,2.7-0.3,4.9-0.3c2.3,0,3.9,0.4,4.9,1.3c1,0.8,1.7,2.2,1.7,3.7c0,1.6-0.5,2.9-1.5,3.8
		c-1.2,1.2-3.1,1.7-5.3,1.7c-0.5,0-0.9,0-1.2-0.1v5.8h-3.6V0.5z M70.8,7.8c0.3,0.1,0.7,0.1,1.2,0.1c1.9,0,3.1-1,3.1-2.6
		c0-1.5-1-2.4-2.9-2.4C71.5,2.9,71,3,70.8,3V7.8z"/>
	<path class="st0" d="M84.4,0.3v4.8c0,2.6,0,5.2-0.2,7.3h0.1c0.8-1.9,1.9-4,2.9-5.8l3.5-6.4h3.7v16.2h-3.4v-4.8c0-2.5,0-4.7,0.3-6.8
		h-0.1c-0.7,1.9-1.8,4.1-2.7,5.8l-3.3,5.8h-4.2V0.3H84.4z"/>
	<path class="st0" d="M101.3,0.3V7h0.3l4.5-6.7h4.4l-5.6,7.2c2.1,0.5,3,2,3.7,3.9c0.6,1.7,1.1,3.5,1.9,5.1h-3.9
		c-0.6-1.1-0.9-2.4-1.2-3.6c-0.6-1.8-1.3-3.2-3.3-3.2h-0.7v6.8h-3.6V0.3H101.3z"/>
	<path class="st0" d="M116.2,12.3l-1.2,4.2h-3.8l4.9-16.2h4.8l5,16.2h-3.9l-1.2-4.2H116.2z M120.3,9.6l-1-3.4
		c-0.3-1-0.6-2.2-0.8-3.1h0c-0.2,1-0.5,2.2-0.7,3.1l-1,3.4H120.3z"/>
	<path class="st0" d="M131.9,0.3v6.2h6V0.3h3.6v16.2h-3.6V9.7h-6v6.8h-3.7V0.3H131.9z"/>
	<path class="st0" d="M156.6,16c-0.7,0.3-2.2,0.7-4.2,0.7c-5.6,0-8.5-3.5-8.5-8.1c0-5.5,3.9-8.6,8.8-8.6c1.9,0,3.3,0.4,4,0.7
		l-0.7,2.9C155.3,3.3,154.3,3,153,3c-2.9,0-5.2,1.8-5.2,5.4c0,3.2,1.9,5.3,5.2,5.3c1.1,0,2.3-0.2,3-0.5L156.6,16z"/>
	<path class="st0" d="M162.6,0.3V7h0.3l4.5-6.7h4.4l-5.6,7.2c2.1,0.5,3,2,3.7,3.9c0.6,1.7,1.1,3.5,1.9,5.1h-3.9
		c-0.6-1.1-0.9-2.4-1.2-3.6c-0.6-1.8-1.3-3.2-3.3-3.2h-0.7v6.8H159V0.3H162.6z"/>
	<path class="st0" d="M176.9,0.3v4.8c0,2.6,0,5.2-0.2,7.3h0.1c0.8-1.9,1.9-4,2.9-5.8l3.5-6.4h3.7v16.2h-3.4v-4.8
		c0-2.5,0-4.7,0.3-6.8h-0.1c-0.7,1.9-1.8,4.1-2.7,5.8l-3.3,5.8h-4.2V0.3H176.9z"/>
	<path class="st0" d="M199.7,9.6h-6v3.8h6.6v3h-10.3V0.3h10v3h-6.3v3.4h6V9.6z"/>
	<path class="st0" d="M21.9,29.1v6.7h0.3l4.5-6.7h4.4l-5.6,7.2c2.1,0.5,3,2,3.7,3.9c0.6,1.7,1.1,3.5,1.9,5.1h-3.9
		c-0.6-1.1-0.9-2.4-1.2-3.6c-0.6-1.8-1.3-3.2-3.3-3.2h-0.7v6.8h-3.6V29.1H21.9z"/>
	<path class="st0" d="M35.8,29.1l2.4,5.7c0.4,1.2,0.8,2.1,1.1,3.1h0.1c0.2-0.7,0.5-1.8,0.9-3.1l1.8-5.6h3.8l-3,7.8
		c-1,2.5-2,5-3.2,6.5c-1.1,1.3-2.4,2.1-4.3,2.1c-0.8,0-1.3-0.1-1.8-0.3l0.3-2.9c0.3,0.1,0.7,0.1,1.2,0.1c1.1,0,1.9-0.8,2.2-1.5
		c0.1-0.3,0.1-0.5,0-0.7l-5.4-11.1H35.8z"/>
	<path class="st0" d="M47.3,29.3c1.1-0.2,2.7-0.3,4.9-0.3c2.3,0,3.9,0.4,4.9,1.3c1,0.8,1.7,2.2,1.7,3.7c0,1.6-0.5,2.9-1.5,3.8
		c-1.2,1.2-3.1,1.7-5.3,1.7c-0.5,0-0.9,0-1.2-0.1v5.8h-3.6V29.3z M50.9,36.6c0.3,0.1,0.7,0.1,1.2,0.1c1.9,0,3.1-1,3.1-2.6
		c0-1.5-1-2.4-2.9-2.4c-0.7,0-1.2,0.1-1.5,0.1V36.6z"/>
	<path class="st0" d="M73,44.8c-0.7,0.3-2.2,0.7-4.2,0.7c-5.6,0-8.5-3.5-8.5-8.1c0-5.5,3.9-8.6,8.8-8.6c1.9,0,3.3,0.4,4,0.7
		l-0.7,2.9c-0.7-0.3-1.8-0.6-3.1-0.6c-2.9,0-5.2,1.8-5.2,5.4c0,3.2,1.9,5.3,5.2,5.3c1.1,0,2.3-0.2,3-0.5L73,44.8z"/>
	<path class="st0" d="M79.1,29.1v5.6c0.5-0.1,1.2-0.1,1.8-0.1c3.3,0,6.4,1.7,6.4,5.3c0,1.5-0.5,2.6-1.3,3.5
		c-1.6,1.6-4.3,2.1-6.6,2.1c-1.8,0-3.1-0.1-3.9-0.2V29.1H79.1z M79,42.6c0.3,0.1,0.7,0.1,1.2,0.1c1.6,0,3.1-0.9,3.1-2.7
		c0-1.8-1.7-2.6-3.1-2.6c-0.5,0-0.9,0-1.3,0.1V42.6z M92.4,29.1v16.2h-3.6V29.1H92.4z"/>
	<path class="st0" d="M31.4,57.9V74h-3.7V60.9h-5.7V74h-3.7V57.9H31.4z"/>
	<path class="st0" d="M34.5,58.1c1.1-0.2,2.7-0.3,4.9-0.3c2.3,0,3.9,0.4,4.9,1.3c1,0.8,1.7,2.2,1.7,3.7s-0.5,2.9-1.5,3.8
		c-1.2,1.2-3.1,1.7-5.3,1.7c-0.5,0-0.9,0-1.2-0.1V74h-3.6V58.1z M38.1,65.4c0.3,0.1,0.7,0.1,1.2,0.1c1.9,0,3.1-1,3.1-2.6
		c0-1.5-1-2.4-2.9-2.4c-0.7,0-1.2,0.1-1.5,0.1V65.4z"/>
	<path class="st0" d="M50.8,69.9L49.6,74h-3.8l4.9-16.2h4.8l5,16.2h-3.9l-1.2-4.2H50.8z M54.9,67.2l-1-3.4c-0.3-1-0.6-2.2-0.8-3.1h0
		c-0.2,1-0.5,2.2-0.7,3.1l-1,3.4H54.9z"/>
	<path class="st0" d="M66.4,57.9v6.7h0.3l4.5-6.7h4.4L69.9,65c2.1,0.5,3,2,3.7,3.9c0.6,1.7,1.1,3.5,1.9,5.1h-3.9
		c-0.6-1.1-0.9-2.4-1.2-3.6c-0.6-1.8-1.3-3.2-3.3-3.2h-0.7V74h-3.6V57.9H66.4z"/>
	<path class="st0" d="M80.8,60.9h-4.3v-3.1h12.4v3.1h-4.4V74h-3.7V60.9z"/>
	<path class="st0" d="M94.2,57.9v4.8c0,2.6,0,5.2-0.2,7.3h0.1c0.8-1.9,1.9-4,2.9-5.8l3.5-6.4h3.7V74h-3.4v-4.8c0-2.5,0-4.7,0.3-6.8
		H101c-0.7,1.9-1.8,4.1-2.7,5.8L95,74h-4.2V57.9H94.2z"/>
	<path class="st0" d="M110.7,57.9v4.7c0,1.8,1,2.7,2.7,2.7c0.8,0,1.7-0.2,2.4-0.6v-6.8h3.6V74h-3.6v-6.7h-0.1
		c-1.2,0.6-2.3,0.8-3.6,0.8c-2.9,0-5-1.6-5-5v-5.3H110.7z"/>
	<path class="st0" d="M132.3,67.2h-6V71h6.6v3h-10.3V57.9h10v3h-6.3v3.4h6V67.2z"/>
	<path class="st0" d="M147.3,73.6c-0.7,0.3-2.2,0.7-4.2,0.7c-5.6,0-8.5-3.5-8.5-8.1c0-5.5,3.9-8.6,8.8-8.6c1.9,0,3.3,0.4,4,0.7
		l-0.7,2.9c-0.7-0.3-1.8-0.6-3.1-0.6c-2.9,0-5.2,1.8-5.2,5.4c0,3.2,1.9,5.3,5.2,5.3c1.1,0,2.3-0.2,3-0.5L147.3,73.6z"/>
	<path class="st0" d="M153.4,57.9v6.7h0.3l4.5-6.7h4.4l-5.6,7.2c2.1,0.5,3,2,3.7,3.9c0.6,1.7,1.1,3.5,1.9,5.1h-3.9
		c-0.6-1.1-0.9-2.4-1.2-3.6c-0.6-1.8-1.3-3.2-3.3-3.2h-0.7V74h-3.6V57.9H153.4z"/>
	<path class="st0" d="M178.7,65.8c0,5.3-3.2,8.5-7.9,8.5c-4.8,0-7.6-3.6-7.6-8.2c0-4.8,3.1-8.5,7.9-8.5
		C176,57.6,178.7,61.3,178.7,65.8z M167,66c0,3.2,1.5,5.4,3.9,5.4c2.5,0,3.9-2.4,3.9-5.5c0-2.9-1.4-5.4-3.9-5.4
		C168.4,60.5,167,62.9,167,66z"/>
	<path class="st0" d="M184.4,57.9v4.8c0,2.6,0,5.2-0.2,7.3h0.1c0.8-1.9,1.9-4,2.9-5.8l3.5-6.4h3.7V74h-3.4v-4.8c0-2.5,0-4.7,0.3-6.8
		h-0.1c-0.7,1.9-1.8,4.1-2.7,5.8l-3.3,5.8h-4.2V57.9H184.4z M186.7,54.2c0,0.9,0.3,1.5,1.1,1.5c0.7,0,1-0.5,1.1-1.5h2.4
		c-0.1,2.1-1.5,3-3.6,3c-2.1,0-3.3-0.9-3.5-3H186.7z"/>
	<path class="st0" d="M30.2,102.4c-0.7,0.3-2.2,0.7-4.2,0.7c-5.6,0-8.5-3.5-8.5-8.1c0-5.5,3.9-8.6,8.8-8.6c1.9,0,3.3,0.4,4,0.7
		L29.6,90c-0.7-0.3-1.8-0.6-3.1-0.6c-2.9,0-5.2,1.8-5.2,5.4c0,3.2,1.9,5.3,5.2,5.3c1.1,0,2.3-0.2,3-0.5L30.2,102.4z"/>
	<path class="st0" d="M36.1,89.7h-4.3v-3.1h12.4v3.1h-4.4v13.1h-3.7V89.7z"/>
	<path class="st0" d="M60.2,94.6c0,5.3-3.2,8.5-7.9,8.5c-4.8,0-7.6-3.6-7.6-8.2c0-4.8,3.1-8.5,7.9-8.5
		C57.5,86.4,60.2,90.1,60.2,94.6z M48.5,94.8c0,3.2,1.5,5.4,3.9,5.4c2.5,0,3.9-2.4,3.9-5.5c0-2.9-1.4-5.4-3.9-5.4
		C49.9,89.3,48.5,91.7,48.5,94.8z"/>
	<path class="st0" d="M76.1,96.6C76.1,94.7,76,92.4,76,90h-0.1c-0.5,2.1-1.2,4.4-1.8,6.3l-2,6.3h-2.9l-1.7-6.3
		c-0.5-1.9-1.1-4.2-1.5-6.3h0c-0.1,2.2-0.2,4.7-0.3,6.7l-0.3,6.1h-3.4l1-16.2H68l1.6,5.4c0.5,1.9,1,3.9,1.4,5.8H71
		c0.5-1.9,1-4,1.5-5.8l1.7-5.4h4.8l0.9,16.2h-3.6L76.1,96.6z"/>
	<path class="st0" d="M86.5,98.7l-1.2,4.2h-3.8l4.9-16.2h4.8l5,16.2h-3.9l-1.2-4.2H86.5z M90.6,96l-1-3.4c-0.3-1-0.6-2.2-0.8-3.1h0
		c-0.2,1-0.5,2.2-0.7,3.1l-1,3.4H90.6z"/>
	<path class="st0" d="M100.1,89.7h-4.3v-3.1h12.4v3.1h-4.4v13.1h-3.7V89.7z"/>
	<path class="st0" d="M124.1,94.6c0,5.3-3.2,8.5-7.9,8.5c-4.8,0-7.6-3.6-7.6-8.2c0-4.8,3.1-8.5,7.9-8.5
		C121.4,86.4,124.1,90.1,124.1,94.6z M112.4,94.8c0,3.2,1.5,5.4,3.9,5.4c2.5,0,3.9-2.4,3.9-5.5c0-2.9-1.4-5.4-3.9-5.4
		C113.9,89.3,112.4,91.7,112.4,94.8z"/>
	<path class="st0" d="M138.5,86.7v16.2h-3.6V89.7h-3.7v3.8c0,4.2-0.5,7.3-3,8.8c-0.8,0.5-1.9,0.8-3.2,0.8l-0.5-3
		c0.8-0.1,1.4-0.4,1.8-0.9c1-1,1.2-3.1,1.2-5.5v-7.1H138.5z"/>
	<path class="st0" d="M156.5,94.6c0,5.3-3.2,8.5-7.9,8.5c-4.8,0-7.6-3.6-7.6-8.2c0-4.8,3.1-8.5,7.9-8.5
		C153.8,86.4,156.5,90.1,156.5,94.6z M144.8,94.8c0,3.2,1.5,5.4,3.9,5.4c2.5,0,3.9-2.4,3.9-5.5c0-2.9-1.4-5.4-3.9-5.4
		C146.2,89.3,144.8,91.7,144.8,94.8z"/>
	<path class="st0" d="M168.7,86.7v3h-6.1v13.2h-3.7V86.7H168.7z"/>
	<path class="st0" d="M174,86.7v4.8c0,2.6,0,5.2-0.2,7.3h0.1c0.8-1.9,1.9-4,2.9-5.8l3.5-6.4h3.7v16.2h-3.4v-4.8c0-2.5,0-4.7,0.3-6.8
		h-0.1c-0.7,1.9-1.8,4.1-2.7,5.8l-3.3,5.8h-4.2V86.7H174z"/>
	<path class="st0" d="M190.5,86.7v4.8c0,2.6,0,5.2-0.2,7.3h0.1c0.8-1.9,1.9-4,2.9-5.8l3.5-6.4h3.7v16.2h-3.4v-4.8
		c0-2.5,0-4.7,0.3-6.8h-0.1c-0.7,1.9-1.8,4.1-2.7,5.8l-3.3,5.8h-4.2V86.7H190.5z"/>
</g>
<line class="st1" x1="8.2" y1="0.2" x2="8.2" y2="103.1"/>
</svg>
