<?xml version="1.0" encoding="utf-8"?>
<!-- Generator: Adobe Illustrator 24.0.1, SVG Export Plug-In . SVG Version: 6.00 Build 0)  -->
<svg version="1.1" xmlns="http://www.w3.org/2000/svg" xmlns:xlink="http://www.w3.org/1999/xlink" x="0px" y="0px"
	 viewBox="0 0 213.7 213.7" style="enable-background:new 0 0 213.7 213.7;" xml:space="preserve">
<style type="text/css">
	.st0{display:none;}
	.st1{display:inline;}
	.st2{fill-rule:evenodd;clip-rule:evenodd;fill:#E63612;}
	.st3{fill-rule:evenodd;clip-rule:evenodd;fill:#B81918;}
	.st4{fill:#B81918;}
</style>
<g id="Слой_2__x28_копия9_x29_" class="st0">
	<g class="st1">
		<path class="st2" d="M8.6,8.6h76.3v9H17.6v63.5c5,1.8,8.6,6.6,8.6,12.3c0,7.2-5.9,13.1-13.1,13.1C5.9,106.5,0,100.6,0,93.4
			C0,87.8,3.6,83,8.6,81.1V8.6L8.6,8.6z M91.6,187.6c7.2,0,13.1,5.9,13.1,13.1c0,7.2-5.9,13.1-13.1,13.1c-5.6,0-10.4-3.6-12.3-8.6
			H8.6v-76.3h9v67.2h61.7C81.2,191.1,86,187.6,91.6,187.6L91.6,187.6z M91.6,195.2c-3,0-5.4,2.4-5.4,5.4c0,3,2.4,5.4,5.4,5.4
			c3,0,5.4-2.4,5.4-5.4C97,197.7,94.6,195.2,91.6,195.2L91.6,195.2z M121.6,0c5.6,0,10.4,3.6,12.3,8.6h71.2v76.3h-9V17.6h-62.2
			c-1.8,5-6.6,8.6-12.3,8.6c-7.2,0-13.1-5.9-13.1-13.1C108.6,5.9,114.4,0,121.6,0L121.6,0z M121.6,7.7c-3,0-5.4,2.4-5.4,5.4
			c0,3,2.4,5.4,5.4,5.4c3,0,5.4-2.4,5.4-5.4C127,10.1,124.6,7.7,121.6,7.7L121.6,7.7z M13.1,88c-3,0-5.4,2.4-5.4,5.4
			c0,3,2.4,5.4,5.4,5.4s5.4-2.4,5.4-5.4C18.5,90.4,16.1,88,13.1,88L13.1,88z M32.6,32.6v148.6H85v-12.7l-32.8-31.8v-19.9
			c-5.5-1.7-9.5-6.9-9.5-12.9c0-7.5,6.1-13.6,13.6-13.6c7.5,0,13.6,6.1,13.6,13.6c0,5.7-3.6,10.6-8.6,12.6v15.8l32.3,31.9v16.9h8.1
			V71.3c-5.1-2-8.6-6.9-8.6-12.6c0-7.5,6.1-13.6,13.6-13.6c7.5,0,13.6,6.1,13.6,13.6c0,5.6-3.4,10.5-8.3,12.5v110h8.1v-16.9
			l32.3-31.9v-15.8c-5-2-8.6-6.9-8.6-12.6c0-7.5,6.1-13.6,13.6-13.6c7.5,0,13.6,6.1,13.6,13.6c0,6.1-4,11.2-9.5,12.9v19.9
			l-32.8,31.8v12.7h52.5V32.6H32.6L32.6,32.6z M200.6,108.6c7.2,0,13.1,5.9,13.1,13.1c0,5.6-3.6,10.4-8.6,12.3v71.2h-76.3v-9h67.2
			V134c-5-1.8-8.6-6.6-8.6-12.3C187.6,114.5,193.4,108.6,200.6,108.6L200.6,108.6z M200.6,116.3c-3,0-5.4,2.4-5.4,5.4
			c0,3,2.4,5.4,5.4,5.4c3,0,5.4-2.4,5.4-5.4C206.1,118.7,203.6,116.3,200.6,116.3L200.6,116.3z M157.4,98.8c2.8,0,5.1,2.3,5.1,5.1
			s-2.3,5.1-5.1,5.1c-2.8,0-5.1-2.3-5.1-5.1S154.6,98.8,157.4,98.8L157.4,98.8z M135.9,95c5.4-1.8,9.3-6.9,9.3-12.9
			c0-7.5-6.1-13.6-13.6-13.6c-7.5,0-13.6,6.1-13.6,13.6c0,6,3.8,11,9.2,12.9v15.8l-11.8,11.2v13.1l20.5-19.6V95L135.9,95z M131.7,77
			c-2.8,0-5.1,2.3-5.1,5.1c0,2.8,2.3,5.1,5.1,5.1s5.1-2.3,5.1-5.1C136.8,79.3,134.5,77,131.7,77L131.7,77z M56.4,98.8
			c-2.8,0-5.1,2.3-5.1,5.1s2.3,5.1,5.1,5.1c2.8,0,5.1-2.3,5.1-5.1S59.2,98.8,56.4,98.8L56.4,98.8z M77.8,95v20.4l20.5,19.6v-13.1
			l-11.8-11.2V95c5.3-1.8,9.2-6.9,9.2-12.9c0-7.5-6.1-13.6-13.6-13.6c-7.5,0-13.6,6.1-13.6,13.6C68.5,88.1,72.4,93.2,77.8,95
			L77.8,95z M82.1,77c-2.8,0-5.1,2.3-5.1,5.1c0,2.8,2.3,5.1,5.1,5.1c2.8,0,5.1-2.3,5.1-5.1C87.2,79.3,84.9,77,82.1,77L82.1,77z
			 M106.7,53.5c-2.8,0-5.1,2.3-5.1,5.1c0,2.8,2.3,5.1,5.1,5.1c2.8,0,5.1-2.3,5.1-5.1C111.8,55.8,109.5,53.5,106.7,53.5z"/>
	</g>
</g>
<g id="Слой_14">
</g>
<g id="Слой_2__x28_копия13_x29_">
</g>
<g id="Слой_2__x28_копия8_x29_">
</g>
<g id="Слой_2__x28_копия3_x29_">
	<g>
		<path class="st3" d="M200.6,108.6c7.2,0,13.1,5.9,13.1,13.1c0,5.6-3.6,10.4-8.6,12.3v71.2h-76.3v-9h67.2V134
			c-5-1.8-8.6-6.6-8.6-12.3C187.6,114.5,193.4,108.6,200.6,108.6L200.6,108.6z M200.6,116.3c-3,0-5.4,2.4-5.4,5.4
			c0,3,2.4,5.4,5.4,5.4c3,0,5.4-2.4,5.4-5.4C206.1,118.7,203.6,116.3,200.6,116.3L200.6,116.3z"/>
	</g>
</g>
<g id="Слой_2__x28_копия2_x29_">
	<g>
		<path class="st3" d="M91.6,187.6c7.2,0,13.1,5.9,13.1,13.1c0,7.2-5.9,13.1-13.1,13.1c-5.6,0-10.4-3.6-12.3-8.6H8.6v-76.3h9v67.2
			h61.7C81.2,191.1,86,187.6,91.6,187.6L91.6,187.6z M91.6,195.2c-3,0-5.4,2.4-5.4,5.4c0,3,2.4,5.4,5.4,5.4c3,0,5.4-2.4,5.4-5.4
			C97,197.7,94.6,195.2,91.6,195.2L91.6,195.2z"/>
	</g>
</g>
<g id="Слой_2__x28_копия_x29_">
	<g>
		<path class="st3" d="M8.6,8.6h76.3v9H17.6v63.5c5,1.8,8.6,6.6,8.6,12.3c0,7.2-5.9,13.1-13.1,13.1C5.9,106.5,0,100.6,0,93.4
			C0,87.8,3.6,83,8.6,81.1V8.6L8.6,8.6z M13.1,88c-3,0-5.4,2.4-5.4,5.4c0,3,2.4,5.4,5.4,5.4s5.4-2.4,5.4-5.4
			C18.5,90.4,16.1,88,13.1,88L13.1,88z"/>
	</g>
</g>
<g id="Слой_2">
	<g>
		<path class="st3" d="M121.6,0c5.6,0,10.4,3.6,12.3,8.6h71.2v76.3h-9V17.6h-62.2c-1.8,5-6.6,8.6-12.3,8.6
			c-7.2,0-13.1-5.9-13.1-13.1C108.6,5.9,114.4,0,121.6,0L121.6,0z M121.6,7.7c-3,0-5.4,2.4-5.4,5.4c0,3,2.4,5.4,5.4,5.4
			c3,0,5.4-2.4,5.4-5.4C127,10.1,124.6,7.7,121.6,7.7L121.6,7.7z"/>
	</g>
</g>
<g id="Слой_2__x28_копия5_x29_">
	<g>
		<path class="st4" d="M131.7,77c-2.8,0-5.1,2.3-5.1,5.1c0,2.8,2.3,5.1,5.1,5.1c2.8,0,5.1-2.3,5.1-5.1C136.8,79.3,134.5,77,131.7,77
			z"/>
		<path class="st4" d="M162.5,103.9c0-2.8-2.3-5.1-5.1-5.1s-5.1,2.3-5.1,5.1s2.3,5.1,5.1,5.1S162.5,106.7,162.5,103.9z"/>
		<path class="st4" d="M111.8,58.6c0-2.8-2.3-5.1-5.1-5.1c-2.8,0-5.1,2.3-5.1,5.1c0,2.8,2.3,5.1,5.1,5.1
			C109.5,63.7,111.8,61.5,111.8,58.6z"/>
		<path class="st4" d="M56.4,98.8c-2.8,0-5.1,2.3-5.1,5.1s2.3,5.1,5.1,5.1c2.8,0,5.1-2.3,5.1-5.1S59.2,98.8,56.4,98.8z"/>
		<path class="st4" d="M82.1,77c-2.8,0-5.1,2.3-5.1,5.1c0,2.8,2.3,5.1,5.1,5.1c2.8,0,5.1-2.3,5.1-5.1C87.2,79.3,84.9,77,82.1,77z"/>
		<path class="st4" d="M181.2,32.6H32.6v148.6H85v-12.7l-32.8-31.8v-19.9c-5.5-1.7-9.5-6.9-9.5-12.9c0-7.5,6.1-13.6,13.6-13.6
			c7.5,0,13.6,6.1,13.6,13.6c0,5.7-3.6,10.6-8.6,12.6v15.8l32.3,31.9v16.9h8.1V71.3c-5.1-2-8.6-6.9-8.6-12.6
			c0-7.5,6.1-13.6,13.6-13.6c7.5,0,13.6,6.1,13.6,13.6c0,5.6-3.4,10.5-8.3,12.5v110h8.1v-16.9l32.3-31.9v-15.8
			c-5-2-8.6-6.9-8.6-12.6c0-7.5,6.1-13.6,13.6-13.6c7.5,0,13.6,6.1,13.6,13.6c0,6.1-4,11.2-9.5,12.9v19.9l-32.8,31.8v12.7h52.5h0
			L181.2,32.6L181.2,32.6z M95.6,82.1c0,6-3.8,11-9.2,12.9v15.8l11.8,11.2v13.1l-20.5-19.6V95c-5.4-1.8-9.3-6.9-9.3-12.9
			c0-7.5,6.1-13.6,13.6-13.6C89.6,68.5,95.6,74.6,95.6,82.1z M135.9,95v20.4l-20.5,19.6v-13.1l11.8-11.2V95
			c-5.3-1.8-9.2-6.9-9.2-12.9c0-7.5,6.1-13.6,13.6-13.6c7.5,0,13.6,6.1,13.6,13.6C145.3,88.1,141.3,93.2,135.9,95z"/>
	</g>
</g>
<g id="Слой_2__x28_копия6_x29_">
</g>
</svg>
