<?xml version="1.0" encoding="utf-8"?>
<!-- Generator: Adobe Illustrator 24.0.1, SVG Export Plug-In . SVG Version: 6.00 Build 0)  -->
<svg version="1.1" id="Слой_3" xmlns="http://www.w3.org/2000/svg" xmlns:xlink="http://www.w3.org/1999/xlink" x="0px" y="0px"
	 viewBox="0 0 120.7 66.9" style="enable-background:new 0 0 120.7 66.9;" xml:space="preserve">
<style type="text/css">
	.st0{fill:#B7000E;}
</style>
<g>
	<path class="st0" d="M33.1,63.3v-9.8c3.4,3.3,7.3,5,11.6,5c3.5,0,6.3-1,8.4-2.9c2.1-2,3.1-4.6,3.1-7.9c0-7.3-4.6-11-13.7-11h-4.1
		v-8.4h3.9c8.1,0,12.1-3.5,12.1-10.4c0-6.4-3.1-9.6-9.4-9.6c-3.5,0-6.8,1.5-9.9,4.6V3.7C38.6,1.3,42.8,0,47.7,0
		c4.7,0,8.4,1.4,11.2,4.3c2.8,2.9,4.2,6.6,4.2,11.1c0,8.5-3.5,14-10.5,16.4V32c3.8,0.5,6.8,2.1,9,4.9c2.2,2.8,3.3,6.3,3.3,10.5
		c0,5.8-1.8,10.5-5.3,14c-3.5,3.6-8.2,5.3-14,5.3C40.3,66.8,36.2,65.6,33.1,63.3z"/>
</g>
<g>
	<path class="st0" d="M71,15.5V3.6c0-1,0.3-1.8,0.9-2.4c0.6-0.6,1.4-0.9,2.4-0.9c3.4,0,5.7,0.1,7.1,0.3l-0.2,2.9h-5.1
		c-0.7,0-1,0.3-1,1v11H71z"/>
	<path class="st0" d="M87.1,6.4H89c2.2,0,3.8,0.3,4.7,1C94.5,8,95,9.2,95,11c0,1.8-0.4,3.1-1.3,3.7c-0.9,0.6-2.3,1-4.3,1
		c-2.6,0-4.7-0.1-6.2-0.2H83V0.4c2-0.1,3.8-0.2,5.4-0.2c1.8,0,3.6,0.1,5.5,0.2l-0.3,3h-6.5V6.4z M87.1,12.8H89
		c0.8,0,1.3-0.1,1.5-0.4c0.2-0.2,0.4-0.7,0.4-1.5c0-0.8-0.1-1.3-0.4-1.5C90.2,9.1,89.7,9,89,9h-1.9V12.8z"/>
	<path class="st0" d="M108.9,0.4l-3.5,11.2c-0.4,1.4-0.9,2.5-1.5,3.1s-1.4,1-2.5,1.1c-1,0.1-2.4,0-4.2-0.3l0.4-2.9
		c1.4,0,2.3,0,2.7-0.1c0.4-0.1,0.7-0.4,0.9-0.9l0.1-0.4h-0.9c-0.6,0-1.1-0.2-1.4-0.5c-0.3-0.3-0.6-0.8-0.8-1.3l-2.9-9.1h4.2l2,7.7
		c0,0.2,0.1,0.2,0.4,0.2h0.4l2.3-7.9H108.9z"/>
	<path class="st0" d="M110,3.5l-0.3-2.9c1.4-0.3,3.2-0.5,5.2-0.5c2,0,3.4,0.3,4.2,0.8c0.8,0.5,1.2,1.6,1.2,3.1
		c0,1.1-0.2,1.9-0.6,2.5c-0.4,0.6-1.1,0.9-2,1v0.1c1.1,0.1,1.9,0.5,2.4,1.1s0.7,1.6,0.7,2.9c0,1.5-0.4,2.5-1.2,3.1s-2.1,0.8-4,0.8
		c-2.5,0-4.5-0.2-6.2-0.7l0.3-2.8c2,0.3,3.6,0.5,5.1,0.5c0.7,0,1.2-0.1,1.4-0.4s0.4-0.7,0.4-1.4c0-0.7-0.1-1.2-0.4-1.5
		c-0.3-0.2-0.7-0.4-1.4-0.4L111.5,9V6.3l3.1-0.1c0.6,0,1-0.1,1.2-0.3c0.2-0.2,0.3-0.6,0.3-1.2c0-0.6-0.1-1-0.3-1.2
		c-0.2-0.2-0.6-0.3-1.3-0.3C113.2,3.2,111.7,3.3,110,3.5z"/>
	<path class="st0" d="M83,42.9l-0.3-3.3h-9.6l-0.3,3.3h-3v-6.1h1.6c0.9-2.5,1.6-5.6,1.9-9.1c0.1-1,0.5-1.8,1.1-2.4
		c0.7-0.6,1.5-0.9,2.6-0.9H84v12.4h2v6.1H83z M79.8,36.7v-9.5h-1.4c-0.7,0-1.1,0.4-1.1,1.2c-0.2,2.1-0.4,3.7-0.7,5
		c-0.3,1.2-0.7,2.4-1.2,3.4H79.8z"/>
	<path class="st0" d="M98.6,36.1l0.3,3c-1.3,0.5-3,0.7-5.1,0.7c-2.4,0-4.2-0.6-5.1-1.8c-1-1.2-1.5-3.2-1.5-6.1s0.5-4.9,1.5-6.1
		c1-1.2,2.7-1.8,5.1-1.8c1.8,0,3.4,0.2,4.8,0.6l-0.3,3c-1.5,0-3-0.1-4.5-0.1c-0.9,0-1.5,0.3-1.8,0.9s-0.5,1.7-0.5,3.4
		s0.2,2.8,0.5,3.4c0.3,0.6,0.9,0.9,1.8,0.9C95.9,36.3,97.5,36.2,98.6,36.1z"/>
	<path class="st0" d="M113.5,24.4v15.2h-4.1V27.2h-4.5v12.4h-4.1V24.4H113.5z"/>
	<path class="st0" d="M83,66.9l-0.3-3.3h-9.6l-0.3,3.3h-3v-6.1h1.6c0.9-2.5,1.6-5.6,1.9-9.1c0.1-1,0.5-1.8,1.1-2.4
		c0.7-0.6,1.5-0.9,2.6-0.9H84v12.4h2v6.1H83z M79.8,60.7v-9.5h-1.4c-0.7,0-1.1,0.4-1.1,1.2c-0.2,2.1-0.4,3.7-0.7,5
		c-0.3,1.2-0.7,2.4-1.2,3.4H79.8z"/>
	<path class="st0" d="M87.5,51.5l-0.3-2.9c1.4-0.3,3.2-0.5,5.2-0.5c2,0,3.4,0.3,4.2,0.8c0.8,0.5,1.2,1.6,1.2,3.1
		c0,1.1-0.2,1.9-0.6,2.5c-0.4,0.6-1.1,0.9-2,1v0.1c1.1,0.1,1.9,0.5,2.4,1.1s0.7,1.6,0.7,2.9c0,1.5-0.4,2.5-1.2,3.1s-2.1,0.8-4,0.8
		c-2.5,0-4.5-0.2-6.2-0.7l0.3-2.8c2,0.3,3.6,0.5,5.1,0.5c0.7,0,1.2-0.1,1.4-0.4s0.4-0.7,0.4-1.4c0-0.7-0.1-1.2-0.4-1.5
		c-0.3-0.2-0.7-0.4-1.4-0.4L89.1,57v-2.7l3.1-0.1c0.6,0,1-0.1,1.2-0.3c0.2-0.2,0.3-0.6,0.3-1.2c0-0.6-0.1-1-0.3-1.2
		c-0.2-0.2-0.6-0.3-1.3-0.3C90.8,51.2,89.2,51.3,87.5,51.5z"/>
	<path class="st0" d="M112.8,48.4h3.8c1,0,1.5,0.5,1.5,1.5l0.6,13.7h-3.8l-0.5-12H114l-1.8,8.5c-0.2,0.9-0.7,1.3-1.6,1.3h-2.3
		c-0.9,0-1.5-0.4-1.6-1.3l-1.9-8.5h-0.4l-0.4,12h-3.8l0.5-13.7c0-1,0.5-1.5,1.5-1.5h3.7c0.9,0,1.4,0.4,1.6,1.3l1.5,6.7
		c0.1,0.5,0.2,1.2,0.3,2.2h0.2c0-0.1,0.1-0.4,0.1-1c0.1-0.5,0.1-1,0.2-1.3l1.4-6.7C111.4,48.8,111.9,48.4,112.8,48.4z"/>
</g>
<g>
	<path class="st0" d="M9.5,66.9H7.3l-5.1-8.7c-0.2-0.3-0.3-0.5-0.3-0.7h0c0,0.3,0.1,0.9,0.1,1.8v7.6H0V55h2.3l5.3,9.2h0
		c0-0.3-0.1-0.8-0.1-1.7V55h1.9V66.9z M14.1,61.9c-1,0-1.8-0.3-2.4-0.9s-0.9-1.5-0.9-2.6c0-1.2,0.3-2,0.9-2.6s1.4-0.9,2.5-0.9
		c1,0,1.8,0.3,2.4,0.9c0.6,0.6,0.8,1.4,0.8,2.5c0,1.1-0.3,2-0.9,2.6S15.1,61.9,14.1,61.9z M17.1,64.5H11v-1.4h6.1V64.5z M14.1,56.2
		c-0.5,0-0.9,0.2-1.2,0.6c-0.3,0.4-0.4,0.9-0.4,1.6c0,1.4,0.5,2.1,1.6,2.1c1.1,0,1.6-0.7,1.6-2.1C15.7,56.9,15.2,56.2,14.1,56.2z"/>
</g>
<g>
	<path class="st0" d="M20.8,66.9V52.4L0,52.4c0,0,7-28,7.7-40.7c0.2-3.5,1-6.3,2.3-8.5C11.4,1.1,13.1,0,15.3,0h14.3v43.6h7.3v8.9H29
		v14.4H20.8z M20.9,44.4V10.1h-2.9c-1.5,0-2.3,1.4-2.4,4.2c-0.4,7.4-3.1,26.1-3.9,30.1H20.9z"/>
</g>
</svg>
