<?xml version="1.0" encoding="utf-8"?>
<!-- Generator: Adobe Illustrator 24.0.1, SVG Export Plug-In . SVG Version: 6.00 Build 0)  -->
<svg version="1.1" xmlns="http://www.w3.org/2000/svg" xmlns:xlink="http://www.w3.org/1999/xlink" x="0px" y="0px"
	 viewBox="0 0 450.3 309.8" style="enable-background:new 0 0 450.3 309.8;" xml:space="preserve">
<style type="text/css">
	.st0{fill:none;stroke:#B62025;stroke-width:10;stroke-miterlimit:10;}
	.st1{fill:none;}
	.st2{fill:#FFFFFF;}
	.st3{font-family:'MagistralC';}
	.st4{font-size:36px;}
	.st5{font-size:49px;}
	.st6{font-size:13px;}
</style>
<g id="Слой_2">
	<polyline class="st0" points="253,263.6 253,268.5 253,304.8 293.4,304.8 443.3,154.9 293.4,5 253,5 253,44.7 	"/>
	<polygon class="st0" points="197.3,304.8 47.5,154.9 197.3,5 156.9,5 7.1,154.9 157,304.8 	"/>
	
		<rect x="115.8" y="52.4" transform="matrix(0.7071 0.7071 -0.7071 0.7071 173.4575 -109.001)" class="st0" width="204.9" height="204.9"/>
</g>
<g id="Company_Logo_4__Pink_white_2line_xA0_Изображение_1_">
	<rect x="120.5" y="114.1" class="st1" width="194.2" height="159"/>
	<text transform="matrix(1 0 0 1 130.8582 139.2698)"><tspan x="0" y="0" class="st2 st3 st4">CQUARED</tspan><tspan x="-2.1" y="51" class="st2 st3 st5">DESIGN</tspan><tspan x="71" y="75" class="st2 st3 st6">group</tspan><tspan x="83.2" y="99" class="st2 st3 st6">~</tspan><tspan x="71.1" y="123" class="st2 st3 st6">2020</tspan></text>
</g>
</svg>
