<svg xmlns="http://www.w3.org/2000/svg" width="20" height="16" fill="none"><path fill="#fff" d="M19.77 1.074a1.04 1.04 0 0 0-.562-.453c-.636-.237-1.524-.13-1.883.348-2.236 2.972-4.298 6.005-6.456 9.003q-.393.547-.793 1.09c-2.539-3.33-4.89-6.728-7.498-10.03-.663-.838-2.75-.46-2.567.49.573 2.96 1.496 3.516 4.542 9.306.277.525 1.784 2.623 2.277 3.063.432.386.862.792 1.353 1.142.78.557 1.97.618 2.87.16.624-.316 1.676-1.785 2.075-2.245 1.529-1.767 2.813-3.857 3.452-4.951 1.273-2.17 2.144-3.962 3.354-6.15.138-.251.049-.54-.165-.773z"/></svg>