<svg xmlns="http://www.w3.org/2000/svg" width="36" height="25" fill="none"><g clip-path="url(#a)"><path fill="#000" d="M4.89 10.563q0 .83-.562 1.367-.453.424-1.39.424h-.266v-3.58h.265q.954-.001 1.391.44.563.503.563 1.35zm27.75-1.058q0 .846-1 .847h-.296V8.708h.312q.985 0 .985.797zM5.938 10.563q0-1.205-.78-1.96-.782-.758-2.016-.758H1.656v5.42h1.485q1.155 0 1.859-.619a2.67 2.67 0 0 0 .938-2.083m.47 2.702h1.015v-5.42H6.406v5.42zm5-1.644q0-.65-.321-1.009-.32-.359-1.18-.684-.453-.161-.617-.309a.48.48 0 0 1-.164-.374q0-.261.21-.432a.84.84 0 0 1 .54-.17q.453 0 .828.44l.531-.717a2.16 2.16 0 0 0-1.53-.602q-.69 0-1.157.447a1.46 1.46 0 0 0-.469 1.1q0 .57.281.902.282.334 1 .594.578.211.704.31.296.195.296.553a.74.74 0 0 1-.477.713.8.8 0 0 1-.304.052q-.75 0-1.11-.716l-.655.65q.687 1.043 1.796 1.043.798 0 1.297-.497.5-.495.5-1.294zm4.343 1.465v-1.253q-.578.602-1.219.602-.765 0-1.258-.53-.492-.529-.492-1.342 0-.78.492-1.326a1.57 1.57 0 0 1 1.211-.546q.672 0 1.266.62V8.056a2.69 2.69 0 0 0-2.316-.12 2.6 2.6 0 0 0-.894.616q-.806.822-.806 2.01t.797 2.01a2.62 2.62 0 0 0 1.953.822q.657 0 1.266-.31zM35 22.916V14.34q-1.016.651-2.258 1.367-1.242.717-3.71 1.905a75 75 0 0 1-5.15 2.238q-2.679 1.05-6.523 2.19t-7.875 1.92H34q.406 0 .703-.31a1.02 1.02 0 0 0 .297-.732zm-13.297-12.32q0-1.221-.828-2.084-.828-.862-2-.862t-2 .862-.828 2.084q0 1.22.828 2.083t2 .863 2-.863.828-2.083m2.375 2.816 2.25-5.567h-1.11l-1.405 3.646-1.391-3.646h-1.11l2.22 5.567zm2.703-.147h2.875v-.912h-1.86V10.89h1.798v-.912h-1.797V8.773h1.86v-.928H26.78zm6.11 0h1.25L32.5 10.986q1.188-.26 1.188-1.53 0-.765-.485-1.188-.484-.423-1.36-.423h-1.515v5.42h1.016V11.1h.14zM36 2.181V22.82q0 .912-.602 1.546a1.94 1.94 0 0 1-1.46.635H2.061q-.859 0-1.46-.635Q0 23.731 0 22.82V2.181Q0 1.27.602.635A1.94 1.94 0 0 1 2.062 0h31.875q.86 0 1.461.635Q36 1.27 36 2.181"/></g><defs><clipPath id="a"><path fill="#fff" d="M0 0h36v25H0z"/></clipPath></defs></svg>