<svg width="1440" height="120" viewBox="0 0 1440 120" fill="none" xmlns="http://www.w3.org/2000/svg">
<path d="M257.459 29.7998V31.5998H244.325V37.8998H254.611V39.6998H244.325V47.6998H240.844V29.7998H257.459Z" fill="black"/>
<path d="M266.479 33.6L261.574 32.9L262.523 31.2L267.27 32.4L266.954 29H269.802L269.486 32.4L274.075 31.2L275.024 32.9L270.119 33.6L273.442 36.4L271.226 37.4L268.22 34.4L265.371 37.4L262.998 36.4L266.479 33.6Z" fill="black"/>
<path d="M278.347 38.9V38.7C278.347 33.4 283.886 29.5 291.798 29.5C297.653 29.5 302.716 31.5 303.349 35.4H299.868C299.077 32.7 296.703 31.3 291.798 31.3C285.943 31.3 281.987 34.2 281.987 38.7V38.9C281.987 43.5 285.626 46.2 291.798 46.2C296.387 46.2 299.71 44.7 300.343 41.8H303.508C302.558 45.9 297.969 48 291.64 48C283.411 47.9 278.347 44.4 278.347 38.9Z" fill="black"/>
<path d="M312.844 29.8002V38.4002L325.187 29.7002H328.985L316.325 38.4002L329.618 47.6002H325.503L312.844 38.8002V47.6002H309.363V29.8002H312.844Z" fill="black"/>
<path d="M215.525 54.8999C220.905 54.8999 225.495 56.3999 225.495 60.0999V60.1999C225.495 63.9999 220.905 65.4999 215.525 65.4999H210.936V72.7999H207.455V54.8999H215.525ZM222.013 60.1999V60.0999C222.013 57.5999 219.64 56.5999 215.842 56.5999H210.936V63.6999H215.842C219.798 63.7999 222.013 62.4999 222.013 60.1999Z" fill="black"/>
<path d="M234.514 54.8999V70.9999H247.49V72.7999H231.033V54.8999H234.514Z" fill="black"/>
<path d="M264.897 54.8999L274.549 72.7999H271.068L268.22 67.5999H256.51L253.82 72.7999H250.497L260.308 54.8999H264.897ZM267.429 65.8999L262.523 56.6999L257.618 65.8999H267.429Z" fill="black"/>
<path d="M277.873 67.3001H281.196C281.67 69.4001 283.095 71.2001 288.791 71.2001C292.431 71.2001 295.279 69.8001 295.279 67.8001C295.279 65.8001 293.855 64.9001 288.316 64.4001C282.303 63.8001 278.822 62.7001 278.822 59.5001C278.822 56.8001 282.62 54.6001 288 54.6001C293.697 54.6001 297.178 56.3001 297.811 59.5001H294.646C294.013 57.2001 291.956 56.3001 288 56.3001C284.044 56.3001 282.145 57.5001 282.145 59.2001C282.145 60.9001 283.253 61.9001 288.949 62.4001C295.279 63.0001 298.602 64.3001 298.602 67.6001C298.602 70.6001 294.488 72.9001 288.791 72.9001C281.037 73.0001 278.347 70.4001 277.873 67.3001Z" fill="black"/>
<path d="M301.451 56.5998V54.7998H321.547V56.5998H313.319V72.7998H309.837V56.5998H301.451Z" fill="black"/>
<path d="M330.409 54.8999V72.7999H326.927V54.8999H330.409Z" fill="black"/>
<path d="M336.897 63.9V63.7C336.897 58.4 342.435 54.5 350.347 54.5C356.202 54.5 361.266 56.5 361.899 60.4H358.418C357.626 57.7 355.253 56.3 350.347 56.3C344.492 56.3 340.536 59.2 340.536 63.7V63.9C340.536 68.5 344.176 71.2 350.347 71.2C354.936 71.2 358.259 69.7 358.892 66.8H362.057C361.108 70.9 356.519 73 350.189 73C341.96 73 336.897 69.5 336.897 63.9Z" fill="black"/>
<path d="M533.433 105.2C525.996 105.2 500.677 104 498.778 103.5C498.62 103.2 498.462 102.9 498.462 102.6C498.462 102.6 497.354 100.2 497.196 99.6997L496.404 97.9997C495.93 96.9997 495.455 95.8997 494.98 94.8997C494.664 94.1997 494.347 93.5997 494.031 92.8997C493.873 92.5997 493.398 91.5997 493.398 91.5997C493.24 91.1997 493.081 90.7997 492.765 90.3997C492.448 89.6997 492.132 89.0997 491.815 88.3997C491.182 87.0997 490.708 85.7997 490.075 84.4997C489.442 83.1997 488.809 81.7997 488.334 80.3997C488.018 79.5997 487.701 78.7997 487.385 77.8997C487.068 77.1997 486.752 76.4997 486.435 75.8997C486.277 75.4997 485.96 75.0997 485.802 74.5997C484.378 71.5997 483.112 68.4997 482.163 65.3997C481.688 63.6997 481.371 62.0997 481.213 60.4997C481.213 59.5997 481.213 58.6997 481.055 57.7997V57.5997C481.055 56.4997 481.055 55.2997 480.897 54.1997C480.738 51.9997 480.738 50.0997 480.58 48.2997C480.58 47.6997 480.422 46.9997 480.422 46.3997C480.422 45.9997 480.264 45.4997 480.264 45.0997C480.264 44.3997 480.105 43.7997 480.105 43.0997L479.947 41.0997C479.789 39.9997 479.789 38.7997 479.631 37.6997C479.473 35.3997 479.473 33.2997 479.314 31.3997C479.314 29.9997 479.314 28.3997 479.314 26.5997C479.314 25.6997 479.473 24.7997 479.473 23.8997C479.473 23.3997 479.631 22.8997 479.631 22.3997C479.631 22.0997 479.631 21.8997 479.631 21.5997C479.631 21.1997 479.631 20.9997 479.631 20.6997C479.631 20.4997 479.631 20.2997 479.631 20.0997C479.631 19.8997 479.631 19.7997 479.631 19.5997C479.789 18.8997 479.789 18.0997 479.947 17.3997C480.105 16.3997 480.264 15.6997 480.738 14.9997C481.213 14.3997 481.688 14.0997 482.321 13.8997C482.796 13.7997 483.27 13.6997 483.745 13.6997C484.378 13.6997 485.011 13.7997 485.486 14.0997C486.593 14.5997 487.226 15.2997 487.543 16.1997L487.701 16.7997C487.859 17.2997 488.018 17.7997 488.176 18.2997C488.334 19.3997 488.492 20.2997 488.492 21.1997C488.492 21.9997 488.651 22.7997 488.809 23.4997C488.809 23.7997 488.967 23.9997 488.967 24.2997C488.967 24.7997 489.125 25.2997 489.125 25.6997C489.284 26.2997 489.283 26.9997 489.442 27.5997C489.6 28.5997 489.758 29.4997 490.075 30.4997L490.391 31.8997C490.549 32.6997 490.708 33.5997 490.866 34.3997C491.182 35.4997 491.341 36.5997 491.815 37.9997C491.815 38.0997 491.815 38.1997 491.657 38.3997C491.024 39.1997 490.549 40.0997 490.391 40.9997C490.233 42.0997 490.233 43.1997 490.391 44.3997V44.9997C490.391 45.6997 490.549 46.3997 490.708 47.0997C490.866 47.8997 491.182 48.7997 491.341 49.5997C491.499 50.3997 491.657 51.0997 491.974 51.7997C492.29 53.3997 492.923 54.9997 493.556 56.4997C493.714 57.0997 494.031 57.5997 494.189 58.1997C494.505 59.2997 494.98 60.1997 495.297 61.0997C495.455 61.5997 495.771 61.9997 496.088 62.3997C496.246 62.4997 496.246 62.6997 496.404 62.7997C496.879 63.5997 497.512 64.4997 498.462 65.2997C499.569 66.1997 500.993 66.7997 502.576 66.9997C502.892 66.9997 503.209 67.0997 503.683 67.0997C504.475 67.0997 505.424 66.9997 506.215 66.6997C507.165 66.3997 507.956 66.0997 508.905 65.7997C509.064 65.6997 509.064 65.6997 509.222 65.6997H509.38C510.171 65.8997 510.963 66.0997 512.07 66.1997C512.387 66.1997 512.545 66.1997 512.862 66.1997C514.444 66.1997 515.71 65.8997 517.134 65.1997C518.716 64.3997 519.824 63.3997 520.299 61.9997C520.457 61.6997 520.457 61.3997 520.615 61.0997C520.774 60.6997 520.932 60.2997 521.09 59.9997C521.09 59.8997 521.09 59.8997 521.09 59.7997C521.248 59.9997 521.565 60.1997 521.723 60.3997C522.198 60.7997 522.514 61.1997 522.989 61.4997C523.622 62.1997 524.255 62.7997 524.571 63.4997C524.888 64.0997 525.521 64.5997 526.154 65.0997C526.312 65.1997 526.47 65.3997 526.629 65.4997C527.103 65.8997 527.578 66.2997 528.211 66.6997L528.369 66.7997C528.369 66.7997 530.426 67.7997 531.218 68.1997C531.376 68.2997 531.534 68.3997 531.851 68.3997H532.009C532.167 68.3997 532.484 68.3997 532.642 68.2997C532.8 68.1997 532.8 68.0997 532.8 67.9997C532.8 67.8997 532.642 67.6997 532.483 67.5997L531.851 67.2997C531.218 66.9997 530.743 66.6997 530.11 66.3997C529.477 66.0997 528.844 65.7997 528.369 65.3997L527.894 64.8997C527.42 64.4997 526.945 64.0997 526.47 63.6997C526.312 63.5997 526.312 63.4997 526.154 63.2997C526.154 63.1997 525.996 63.0997 525.996 63.0997L525.521 62.5997C525.204 62.0997 524.73 61.5997 524.255 61.1997C523.938 60.8997 523.622 60.5997 523.305 60.2997C522.989 60.0997 522.831 59.7997 522.514 59.5997C521.881 58.9997 521.407 58.4997 520.932 57.8997C519.982 56.5997 518.4 55.5997 516.026 55.0997C513.336 54.3997 510.488 53.6997 507.798 52.6997C506.848 52.2997 506.215 51.9997 505.582 51.6997C503.209 50.3997 501.468 49.0997 500.044 47.6997C499.569 47.1997 499.095 46.5997 498.778 45.8997C498.62 45.4997 498.62 45.0997 498.936 44.4997C499.253 43.9997 499.569 43.3997 500.202 42.8997L500.36 42.9997C500.677 43.1997 501.152 43.2997 501.468 43.4997C503.209 44.3997 505.266 45.0997 507.007 45.6997C507.956 45.9997 508.905 46.2997 510.013 46.5997C510.488 46.6997 510.963 46.7997 511.279 46.7997C511.437 46.7997 511.754 46.8997 511.912 46.8997C512.07 46.8997 512.07 46.8997 512.229 46.8997C512.703 46.8997 513.02 46.6997 513.02 46.4997C513.336 45.7997 513.653 45.0997 513.969 44.3997C513.969 44.2997 514.127 44.1997 514.127 44.0997C515.393 44.2997 516.659 44.3997 517.925 44.4997C518.716 44.4997 520.457 44.5997 520.457 44.5997C521.407 44.5997 522.514 44.6997 523.622 44.6997C525.046 44.7997 526.312 45.0997 527.42 45.7997C528.686 46.4997 529.635 47.3997 530.743 48.4997C531.059 48.7997 531.218 49.0997 531.534 49.2997C532.009 49.7997 532.483 50.2997 532.958 50.7997C533.591 51.3997 534.224 52.0997 535.015 52.5997C535.49 52.9997 535.965 53.2997 536.598 53.5997L536.756 53.6997C537.231 53.9997 537.705 54.2997 538.18 54.4997C538.813 54.7997 539.288 55.1997 539.921 55.6997L540.079 55.7997C541.187 56.6997 542.294 57.5997 543.244 58.5997C544.193 59.5997 544.668 60.5997 544.985 61.4997C545.301 62.4997 545.301 63.4997 545.143 64.4997V65.0997C545.143 66.4997 544.826 67.7997 544.352 69.0997V69.2997C544.035 69.9997 543.877 70.7997 543.56 71.5997C543.086 72.5997 542.769 73.4997 542.294 74.4997C541.662 75.7997 541.187 76.9997 540.712 78.1997C540.396 78.8997 540.237 79.5997 539.921 80.2997C539.921 80.2997 539.763 80.8997 539.604 81.1997L539.288 82.2997C538.971 83.1997 538.655 84.0997 538.497 84.8997C538.18 85.7997 538.022 86.7997 537.705 87.6997L537.389 89.0997L537.072 90.3997C536.756 91.2997 536.598 92.0997 536.281 92.9997C536.123 93.7997 535.965 94.4997 535.807 95.2997L535.648 96.3997C535.648 96.5997 535.648 96.6997 535.49 96.8997C535.332 97.4997 535.174 97.9997 535.174 98.5997C535.174 98.7997 535.174 98.9997 535.015 99.1997V99.2997C534.699 100.7 534.541 102.2 534.699 104C534.699 104.1 534.699 104.2 534.699 104.3C534.699 105.1 534.382 105.2 533.433 105.2Z" fill="black"/>
<path d="M536.756 52.2999C536.44 52.0999 536.123 51.7999 535.807 51.5999C535.174 51.0999 534.541 50.3999 533.908 49.6999C532.958 48.5999 531.692 47.4999 530.585 46.4999C529.477 45.4999 528.053 44.7999 526.47 44.4999C525.679 44.2999 524.73 44.1999 523.464 44.0999V43.9999C523.464 43.5999 523.464 43.3999 523.464 43.0999C523.622 41.9999 523.464 40.8999 523.147 39.5999C522.989 38.7999 522.831 38.0999 522.831 37.3999C522.831 35.2999 522.831 32.9999 523.147 30.3999C523.147 29.9999 523.147 29.5999 523.147 29.0999C523.147 28.8999 523.147 28.5999 523.147 28.3999C523.147 27.9999 523.147 27.6999 523.147 27.2999C523.147 27.2999 523.464 19.7999 523.464 19.1999C523.464 18.5999 523.464 17.8999 523.464 17.2999C523.464 15.9999 523.464 14.5999 523.622 13.1999C523.78 11.4999 523.938 10.1999 524.413 9.0999C524.413 8.9999 524.413 8.7999 524.571 8.6999C524.571 8.5999 524.571 8.4999 524.571 8.3999C524.73 7.9999 524.73 7.4999 524.888 7.0999C525.204 5.9999 525.363 4.8999 525.837 3.7999C525.996 3.2999 526.312 2.7999 526.629 2.3999C527.262 1.5999 528.369 1.0999 529.793 0.999902C530.11 0.899902 530.426 0.899902 530.901 0.899902C531.059 0.899902 531.218 0.899902 531.218 0.899902C532.167 0.899902 532.8 1.1999 533.275 1.7999C533.591 2.1999 533.908 2.5999 534.224 3.0999C535.174 4.7999 535.174 6.4999 535.332 8.2999C535.332 8.8999 535.332 9.3999 535.332 9.9999C535.332 11.1999 535.332 12.4999 535.332 13.6999C535.332 14.6999 535.49 15.5999 535.648 16.4999C535.648 16.8999 535.807 17.1999 535.807 17.5999C535.807 17.8999 535.807 18.0999 535.965 18.3999C535.965 18.8999 536.123 19.3999 536.123 19.8999C536.281 22.1999 536.44 25.1999 536.598 28.1999C536.598 28.8999 536.598 29.6999 536.598 30.3999V30.4999C536.598 31.0999 536.598 31.6999 536.598 32.2999C536.598 32.8999 536.598 33.4999 536.44 34.0999C536.44 34.4999 536.281 34.8999 536.281 35.2999C536.281 35.8999 536.281 36.3999 536.281 36.9999C536.281 37.3999 536.281 37.7999 536.281 38.1999C536.281 38.6999 536.281 39.1999 536.123 39.6999C536.123 40.2999 535.965 40.9999 535.965 41.6999V42.3999C535.965 43.8999 535.807 45.3999 535.965 46.9999C535.965 47.1999 535.965 47.4999 535.965 47.6999C535.965 47.8999 535.965 48.0999 535.965 48.2999L536.756 52.2999Z" fill="black"/>
<path d="M504.158 66.3999C503.367 66.3999 502.576 66.2999 501.785 66.0999C501.152 65.9999 500.677 65.6999 500.202 65.2999C499.253 64.5999 498.62 63.6999 498.145 62.8999C497.354 61.5999 496.563 60.2999 496.246 58.8999C495.93 58.0999 495.613 57.1999 495.455 56.4999C495.138 55.5999 494.822 54.6999 494.506 53.7999C494.347 53.0999 494.189 52.4999 494.031 51.7999C493.873 51.3999 493.873 51.0999 493.714 50.6999C493.556 50.2999 493.556 49.8999 493.398 49.4999C493.24 48.6999 492.923 47.8999 492.765 47.0999C492.29 44.8999 492.29 43.0999 492.607 41.4999C492.765 40.6999 492.923 40.0999 493.398 39.4999C493.873 38.8999 494.506 38.3999 495.455 38.0999C495.771 37.9999 496.246 37.9999 496.563 37.8999C497.037 37.8999 497.354 37.8999 497.829 37.8999C499.253 37.8999 500.36 37.9999 501.468 38.3999C502.101 38.5999 502.576 38.7999 502.892 39.0999C503.525 39.5999 504.158 40.0999 504.791 40.6999C505.108 40.9999 505.266 41.2999 505.266 41.5999C504.949 41.4999 504.475 41.4999 504.158 41.4999C503.367 41.4999 502.576 41.5999 501.785 41.8999C500.044 42.4999 498.936 43.3999 498.462 44.6999C498.303 45.0999 498.145 45.4999 498.145 45.8999C498.145 46.4999 498.303 47.0999 498.62 47.6999C499.253 48.8999 500.519 49.8999 501.785 50.7999C503.051 51.7999 504.475 52.6999 506.057 53.4999C506.215 53.4999 506.215 53.5999 506.215 53.6999V53.7999C506.215 54.6999 506.057 55.6999 506.057 56.5999C506.057 57.1999 506.057 57.8999 506.057 58.4999V59.3999L500.677 60.0999C500.202 60.1999 499.727 60.1999 499.253 60.2999C498.62 60.3999 498.303 60.6999 498.462 61.1999C498.778 61.9999 499.253 62.6999 499.727 63.3999C500.36 64.1999 501.152 64.7999 502.418 65.3999C503.367 65.8999 504.475 65.9999 505.424 65.9999H505.741C505.899 65.9999 506.057 65.9999 506.215 65.9999C506.374 65.9999 506.532 65.9999 506.532 65.9999C507.165 65.9999 507.798 65.7999 508.273 65.6999L508.431 65.7999C508.114 65.8999 507.798 65.9999 507.481 66.0999C507.323 66.0999 507.165 66.1999 507.007 66.1999C505.741 66.2999 504.949 66.3999 504.158 66.3999Z" fill="black"/>
<path d="M521.565 44.0998C520.932 44.0998 520.457 44.0998 519.824 43.9998C517.451 43.8998 515.235 43.4998 513.02 43.0998L512.703 42.9998C511.279 42.6998 510.013 42.4998 508.589 42.1998L507.007 41.8998C506.848 41.4998 506.848 41.2998 506.848 40.9998C507.323 39.7998 507.956 38.7998 508.747 37.7998C509.38 37.0998 510.171 36.5998 511.437 36.2998C512.545 35.9998 513.653 35.7998 514.919 35.7998C516.026 35.7998 517.134 35.8998 518.4 36.1998C519.033 36.2998 519.508 36.5998 519.982 36.9998L520.141 37.0998C520.932 37.6998 521.248 38.3998 521.407 39.0998C521.565 39.7998 521.723 40.5998 521.881 41.2998L522.04 41.7998C522.04 41.9998 522.04 42.1998 522.04 42.4998C522.04 42.8998 522.04 43.3998 522.04 43.7998V44.0998H521.565Z" fill="black"/>
<path d="M512.387 65.7001C511.437 65.7001 510.646 65.5001 509.855 65.2001C508.431 64.5001 507.481 63.6001 507.323 62.4001C507.165 61.6001 507.165 60.8001 507.165 60.0001C507.165 59.6001 507.165 59.2001 507.165 58.7001C507.165 57.9001 507.165 57.1001 507.323 56.3001C507.323 55.8001 507.481 55.3001 507.481 54.8001C507.481 54.6001 507.481 54.3001 507.481 54.1001L507.64 54.2001C508.273 54.4001 508.905 54.6001 509.38 54.8001C511.596 55.5001 513.495 56.1001 515.393 56.5001C516.185 56.6001 517.292 56.9001 518.084 57.3001C518.558 57.5001 518.875 57.8001 519.033 58.0001C519.033 58.0001 519.508 58.5001 519.666 58.6001C519.824 58.8001 519.982 59.0001 519.824 59.3001C519.666 60.2001 519.349 61.1001 518.875 61.9001C518.717 62.2001 518.558 62.4001 518.4 62.7001C518.242 62.9001 518.084 63.2001 517.925 63.4001C517.609 64.1001 516.659 64.6001 515.71 65.1001C514.919 65.5001 513.811 65.6001 512.862 65.7001C512.862 65.7001 512.703 65.7001 512.387 65.7001ZM508.589 61.8001C508.589 62.0001 508.589 62.2001 508.589 62.4001V62.5001C508.589 62.9001 508.747 63.2001 508.906 63.6001C509.222 64.2001 510.013 64.6001 510.804 64.8001C511.279 64.9001 511.596 64.9001 511.912 64.9001H512.862C513.336 64.9001 513.811 64.9001 514.444 64.8001C515.393 64.7001 516.185 64.3001 516.818 63.6001C517.451 62.9001 517.767 62.1001 517.925 61.3001C518.084 60.6001 518.084 59.9001 518.242 59.3001C518.4 58.8001 518.084 58.6001 517.292 58.5001C514.76 58.2001 512.229 58.0001 509.697 57.8001C509.538 57.8001 509.538 57.8001 509.38 57.8001C508.589 57.8001 508.589 58.2001 508.431 58.4001C508.273 59.0001 508.273 60.9001 508.273 61.2001L508.589 61.8001Z" fill="black"/>
<path d="M512.229 46.4C511.754 46.3 511.437 46.3 511.279 46.2C510.171 45.9 509.064 45.6 507.956 45.1L507.165 44.8C506.374 44.5 505.582 44.2 504.949 44C504.158 43.7 503.525 43.4 502.734 43L502.259 42.8C502.734 42.6 503.209 42.5 503.684 42.5H503.842C504.475 42.5 504.949 42.6 505.582 42.8C506.374 43 507.165 43.2 507.956 43.4L508.431 43.5C509.697 43.8 510.804 44 512.07 44.3L513.178 44.5L512.229 46.4Z" fill="black"/>
<path d="M504.791 64.6999C503.525 64.6999 502.734 64.3999 502.101 63.7999C501.31 62.9999 500.36 62.0999 499.886 61.0999C500.202 60.9999 500.519 60.9999 500.677 60.9999C502.101 60.7999 503.525 60.6999 504.949 60.4999L505.582 60.3999C505.582 60.5999 505.582 60.7999 505.582 60.8999C505.582 61.3999 505.741 62.0999 505.741 62.6999C505.741 63.1999 506.057 63.6999 506.532 64.2999L506.69 64.5999C506.374 64.6999 506.215 64.6999 505.899 64.6999C505.582 64.6999 505.266 64.6999 504.949 64.6999H504.791Z" fill="black"/>
<path d="M512.862 63.9C512.387 63.9 511.912 63.9 511.437 63.8C510.804 63.7 510.488 63.4 510.488 63C510.488 62.6 510.488 62.2 510.33 61.8V61.4C510.33 61 510.33 60.6 510.33 60.2V59C512.07 59.1 515.552 59.4 516.818 59.6C516.818 59.8 516.818 60 516.659 60.2L516.501 60.8C516.501 61.2 516.343 61.5 516.343 61.8C516.185 62.3 516.026 62.8 515.552 63.2C515.077 63.6 514.602 63.9 513.653 63.9C513.336 63.9 513.02 63.9 512.862 63.9Z" fill="black"/>
<path d="M663.191 29.1001H666.04L667.306 36.1001L667.938 40.2001L670.945 33.4001H673.635L676.642 40.2001L677.275 36.1001L678.382 29.1001H681.231L678.699 41.8001H674.901L672.053 35.6001L669.204 41.8001H665.407L663.191 29.1001Z" fill="black"/>
<path d="M690.567 40.2001H695.473V30.7001H690.567V29.1001H703.226V30.7001H698.321V40.2001H703.226V41.8001H690.567V40.2001Z" fill="black"/>
<path d="M715.411 29.1001H718.418V40.2001H728.703V41.8001H715.569L715.411 29.1001Z" fill="black"/>
<path d="M740.255 29.1001H746.11C752.598 29.1001 754.497 31.8001 754.497 35.4001C754.497 39.1001 752.598 41.9001 746.11 41.9001H740.255V29.1001ZM743.262 40.2001H746.11C748.484 40.2001 749.908 39.5001 750.541 38.6001C751.174 37.7001 751.332 36.5001 751.332 35.4001C751.332 34.9001 751.332 34.3001 751.174 33.8001C751.174 33.2001 750.857 32.7001 750.541 32.3001C749.908 31.4001 748.484 30.7001 746.11 30.7001H743.262V40.2001Z" fill="black"/>
<path d="M671.262 59.8999C666.356 59.8999 663.666 58.6999 663.666 56.3999C663.666 54.8999 664.932 53.7999 667.147 53.3999C665.407 52.8999 664.141 51.9999 664.141 50.4999C664.141 48.1999 667.147 46.8999 671.262 46.8999C674.743 46.8999 678.066 47.6999 678.541 50.5999H675.692C675.534 49.7999 675.218 49.1999 674.426 48.8999C673.635 48.5999 672.686 48.3999 671.42 48.3999C670.154 48.3999 669.204 48.5999 668.413 48.8999C667.622 49.1999 667.147 49.6999 667.147 50.4999C667.147 51.9999 668.888 52.5999 672.053 52.5999H681.706V54.0999H678.699V59.8999H671.262ZM675.534 58.3999V54.1999H671.736C670.312 54.1999 669.046 54.3999 668.097 54.6999C667.147 54.9999 666.673 55.5999 666.673 56.3999C666.673 57.8999 668.73 58.3999 671.578 58.3999H675.534Z" fill="black"/>
<path d="M720.317 54.8001L712.563 47.1001H715.886L718.892 50.1001L721.899 53.3001L724.906 50.1001L727.912 47.1001H731.235L723.481 54.8001V59.9001H720.475V54.8001H720.317Z" fill="black"/>
<path d="M739.78 55.4002V47.2002H742.787V55.4002C742.787 56.5002 743.103 57.3002 743.736 57.8002C744.369 58.2002 745.319 58.5002 746.743 58.5002C748.167 58.5002 749.116 58.3002 749.749 57.8002C750.382 57.3002 750.699 56.5002 750.699 55.4002V47.2002H753.705V55.4002C753.705 57.1002 753.231 58.3002 751.965 59.0002C750.857 59.7002 749.116 60.1002 746.743 60.1002C741.996 60.1002 739.78 58.8002 739.78 55.4002Z" fill="black"/>
<path d="M763.991 47.2002H767.947L770.163 51.4002L771.429 54.2002L772.695 51.4002L774.91 47.2002H778.708V59.9002H776.018V52.4002L776.334 48.9002L772.378 56.3002H770.163L766.207 48.9002L766.523 52.4002V59.9002H763.833V47.2002H763.991Z" fill="black"/>
<path d="M788.835 47.2002H792.791L795.007 51.4002L796.273 54.2002L797.538 51.4002L799.754 47.2002H803.552V59.9002H800.862V52.4002L801.178 48.9002L797.222 56.3002H795.007L791.051 48.9002L791.367 52.4002V59.9002H788.677V47.2002H788.835Z" fill="black"/>
<path d="M819.534 54.8001L811.78 47.1001H815.103L818.11 50.1001L821.117 53.3001L824.123 50.1001L827.13 47.1001H830.453L822.699 54.8001V59.9001H819.692V54.8001H819.534Z" fill="black"/>
<path d="M665.881 65.3003H678.857V66.9003H668.73V70.7003H677.433V72.3003H668.73V76.4003H678.857V78.0003H665.881V65.3003Z" fill="black"/>
<path d="M690.725 65.3003H694.681L701.011 76.2003L700.694 72.5003V65.3003H703.385V78.0003H699.429L693.099 67.1003L693.415 70.8003V78.0003H690.725V65.3003Z" fill="black"/>
<path d="M714.462 73.8999C714.462 73.5999 714.462 73.2999 714.62 73.0999H717.468C717.468 73.2999 717.31 73.5999 717.31 73.8999C717.31 75.5999 718.576 76.6999 721.266 76.6999C724.273 76.6999 725.38 75.4999 725.38 73.1999V65.3999H728.387V73.2999C728.387 76.5999 726.013 78.3999 721.424 78.3999C716.993 78.2999 714.462 76.4999 714.462 73.8999Z" fill="black"/>
<path d="M738.672 71.7C738.672 67.6 741.204 65 746.585 65C749.275 65 751.174 65.6 752.44 66.8C753.706 68 754.339 69.6 754.339 71.6C754.339 75.8 751.807 78.3 746.426 78.3C741.204 78.3 738.672 75.8 738.672 71.7ZM750.699 75C751.332 74 751.49 72.8 751.49 71.7C751.49 69.5 751.015 66.7 746.585 66.7C742.154 66.7 741.837 69.5 741.837 71.7C741.837 73.8 742.312 76.7 746.585 76.7C748.8 76.6 750.066 75.9 750.699 75Z" fill="black"/>
<path d="M770.004 73.0003L762.251 65.3003H765.574L768.58 68.3003L771.587 71.5003L774.593 68.3003L777.6 65.3003H780.923L773.169 73.0003V78.1003H770.163V73.0003H770.004Z" fill="black"/>
<path d="M794.215 75.4999H798.171V77.9999H794.215V75.4999ZM794.69 69.2999V65.3999H797.697V69.3999L796.905 73.6999H795.481L794.69 69.2999Z" fill="black"/>
<path d="M974.294 50.3001C976.193 49.6001 977.776 48.8001 979.516 48.2001C991.543 43.2001 999.455 39.9001 1015.75 40.0001C1031.42 40.1001 1039.49 44.3001 1047.24 48.2001C1048.51 48.9001 1049.78 49.5001 1051.04 50.1001C1059.59 54.2001 1068.45 55.5001 1077.78 53.9001C1065.28 33.3001 1041.39 24.0001 1032.21 23.8001C1024.46 23.6001 1017.65 26.3001 1012.91 26.4001C1008.16 26.6001 1003.25 23.9001 995.657 23.8001C988.062 23.7001 974.136 29.1001 965.275 35.2001C957.363 40.6001 949.767 51.6001 948.026 53.9001C948.026 54.1001 959.578 56.3001 974.294 50.3001ZM968.44 36.8001C973.662 32.8001 992.334 22.7001 1007.84 28.6001C1008.32 28.8001 1008.47 29.2001 1008.16 29.5001C1007.84 29.8001 1007.21 29.9001 1006.73 29.7001C992.492 24.3001 975.086 33.8001 970.022 37.6001C969.864 37.8001 969.547 37.8001 969.231 37.8001C969.072 37.8001 968.756 37.7001 968.598 37.6001C968.123 37.5001 968.123 37.1001 968.44 36.8001Z" fill="black"/>
<path d="M1029.2 60.5002C1028.89 60.6002 1028.57 60.6002 1028.25 60.7002C1028.25 60.7002 1025.41 61.4002 1023.98 61.5002C1021.77 61.9002 1019.71 62.2002 1017.65 62.4002C1015.75 62.6002 1013.85 62.7002 1011.8 62.7002C1008.16 62.7002 1004.2 62.3002 998.98 61.4002C998.189 61.3002 996.448 60.9002 996.448 60.9002C993.916 60.4002 991.226 59.8002 988.22 59.1002C975.086 55.9002 951.033 56.3002 948.026 56.4002C957.046 72.7002 974.927 78.9002 984.422 80.6002C989.169 81.5002 996.29 82.6002 1005.63 83.1002C1002.46 73.8002 990.435 70.5002 990.277 70.4002C989.802 70.3002 989.486 69.9002 989.644 69.5002C989.802 69.2002 990.435 69.0002 991.068 69.1002C991.226 69.1002 995.341 70.3002 999.613 73.1002C1002.3 74.6002 1004.84 76.5002 1006.1 78.7002C1009.11 84.3002 1008.79 86.4002 1008.79 92.4002C1008.79 103.9 1007.68 107.6 1006.58 110.9C1004.99 116 1006.26 119.7 1010.06 119.7C1015.12 119.7 1013.85 114.6 1013.54 112.1C1013.22 109.6 1011.01 107.6 1011.32 99.0002C1011.48 93.8002 1011.32 88.8002 1011.32 85.8002C1011.32 84.5002 1011.8 82.3002 1012.91 80.1002C1012.91 80.1002 1012.91 80.1002 1012.91 80.0002C1013.54 78.5002 1014.65 77.1002 1016.23 76.2002C1016.7 75.9002 1017.02 75.7002 1017.49 75.5002C1018.6 75.0002 1019.87 74.7002 1021.29 74.7002C1022.4 74.7002 1023.51 74.9002 1024.46 75.2002C1025.72 75.5002 1026.99 76.1002 1027.94 76.8002C1029.36 77.8002 1030.31 79.2002 1030.95 80.7002C1031.74 82.2002 1032.21 83.8002 1032.21 84.9002C1032.21 88.2002 1032.21 94.5002 1032.21 94.5002C1032.21 94.5002 1031.89 97.6002 1030.63 100.7C1029.52 103.6 1030 107.2 1033 107.2C1035.06 107.2 1036.33 105.4 1035.38 102C1034.27 98.2002 1034.11 97.5002 1034.11 94.4002C1034.11 91.3002 1034.11 85.8002 1034.11 85.8002C1034.11 85.8002 1033.95 84.4002 1034.43 82.5002C1034.43 82.4002 1034.43 82.3002 1034.43 82.2002C1034.43 81.9002 1034.58 81.6002 1034.58 81.4002C1034.58 81.2002 1034.74 81.0002 1034.74 80.8002C1035.38 79.1002 1036.33 77.2002 1038.07 75.6002C1038.22 75.5002 1038.38 75.3002 1038.54 75.2002C1041.39 72.3002 1044.71 70.3002 1045.03 70.1002C1045.5 69.8002 1046.14 69.9002 1046.61 70.1002C1047.09 70.4002 1046.93 70.8002 1046.61 71.1002C1046.45 71.2002 1038.7 75.8002 1036.96 81.3002C1038.7 81.0002 1040.44 80.8002 1042.34 80.4002C1067.34 76.0002 1076.2 59.7002 1077.78 56.2002C1075.41 56.3002 1061.01 56.9002 1049.14 57.6002C1041.39 58.1002 1034.9 59.4002 1029.2 60.5002Z" fill="black"/>
<path d="M1011.96 59.2002H996.448V59.5002C1003.09 60.8002 1007.68 61.3002 1011.96 61.3002V59.2002Z" fill="black"/>
<path d="M1017.34 61.1002C1020.66 60.8002 1024.3 60.1002 1028.25 59.3002V59.2002H1014.17V61.3002C1015.28 61.2002 1016.23 61.2002 1017.34 61.1002Z" fill="black"/>
<path d="M1021.29 76.3003C1019.87 76.3003 1018.76 76.6003 1017.81 77.3003C1015.75 78.7003 1014.65 81.1003 1014.17 83.3003C1018.92 83.3003 1023.98 83.0003 1029.52 82.4003C1028.89 80.7003 1027.94 79.0003 1026.36 77.9003C1024.93 76.8003 1023.35 76.3003 1021.29 76.3003Z" fill="black"/>
<path d="M1035.53 47.3002C1036.01 47.7002 1036.64 48.0002 1038.07 48.0002C1039.96 48.0002 1041.71 48.0002 1042.97 47.9002C1042.34 47.6002 1041.86 47.3002 1041.23 47.1002C1041.23 47.1002 1041.23 47.1002 1041.07 47.0002C1039.96 46.5002 1039.02 46.0002 1037.91 45.6002C1037.59 45.5002 1037.43 45.4002 1037.12 45.3002C1036.64 45.1002 1036.01 44.9002 1035.53 44.7002V47.3002Z" fill="black"/>
<path d="M993.125 44.5V48.2C994.075 49.2 996.448 50.6 1002.78 50.6C1009.27 50.6 1011.48 49.7 1012.27 48.7V41.5C1004.52 41.6 998.822 42.6 993.125 44.5Z" fill="black"/>
<path d="M1015.6 41.3999C1015.28 41.3999 1014.96 41.3999 1014.65 41.3999V48.9999C1015.6 49.8999 1018.13 50.4999 1023.82 50.4999C1030.15 50.4999 1032.53 49.0999 1033.48 48.0999V43.8999C1028.73 42.3999 1023.03 41.3999 1015.6 41.3999Z" fill="black"/>
<path d="M983.947 47.9001C985.213 48.0001 986.796 48.0001 988.694 48.0001C989.96 48.0001 990.593 47.7001 991.068 47.4001V45.1001C988.853 46.0001 986.479 46.9001 983.947 47.9001Z" fill="black"/>
<path d="M91.4638 68.6998C92.0967 63.2998 92.5715 59.5998 91.4638 53.3998C90.3561 47.1998 87.5077 43.1998 81.9693 43.1998C76.4308 43.1998 74.8484 46.6998 74.3737 51.3998C73.8989 56.1998 73.7407 67.8998 73.266 72.9998C72.7912 78.1998 68.3605 78.8998 60.2901 78.8998C60.1319 76.0998 60.9231 67.7998 59.0242 57.5998C57.1253 47.3998 54.7517 39.8998 54.4352 29.2998C54.1187 18.5998 47.789 15.5998 45.2572 15.5998C42.7253 15.5998 35.1297 14.4998 34.022 24.0998C32.9143 33.7998 30.6989 42.7998 29.5912 58.4998C16.7737 58.8998 16.7737 55.7998 16.4572 50.8998C16.1407 45.9998 16.4572 35.1998 16.4572 35.1998C16.6154 28.2998 12.1846 26.0998 6.80442 25.3998C1.4242 24.7998 0.632996 26.4998 0.632996 30.5998C0.632996 34.6998 1.26596 47.6998 1.89893 56.5998C2.5319 65.4998 6.96267 68.3998 11.8682 69.7998C16.7737 71.1998 30.2242 68.8998 30.2242 68.8998C30.2242 68.8998 31.4901 96.4998 32.1231 104.1C28.9583 104.1 25.9517 104.1 22.7868 104.2C17.2484 104.3 11.7099 104.4 6.01322 104.5C5.22201 104.5 4.27256 104.5 3.48135 104.8C2.5319 105.1 2.84838 106.2 3.95607 106.2C27.3759 106.7 50.7956 107.3 74.2154 106.7C76.1143 106.7 78.1715 106.5 79.7539 105.9C80.3868 105.7 80.0704 104.9 79.4374 104.9C73.8989 104.7 68.2022 104.6 62.6638 104.4C62.3473 102.6 61.7143 98.8997 61.0813 93.6998C75.0066 91.5998 85.6088 88.7998 89.2484 86.1998C93.0462 83.6998 90.8308 73.9998 91.4638 68.6998ZM13.7671 31.0998C15.5077 34.6998 15.033 38.9998 14.8748 48.3998C14.7165 57.3998 17.8813 58.4998 19.3055 58.8998C21.2044 59.4998 22.9451 59.5998 25.3187 59.7998C25.6352 59.7998 25.9517 59.9998 26.1099 60.1998C22.7868 60.1998 19.1473 60.5998 17.2484 58.5998C15.666 56.8998 15.1912 54.7998 14.7165 52.8998C13.9253 49.6998 13.6088 46.5998 13.2923 43.3998C12.9759 40.3998 12.8176 37.3998 12.6594 34.3998C12.6594 32.8998 12.3429 31.2998 11.7099 29.7998C11.2352 28.8998 10.444 27.9998 9.81102 27.1998C11.077 27.3998 12.5011 28.4998 13.7671 31.0998ZM8.54508 27.1998C8.70333 27.1998 8.70333 27.0998 8.86157 27.0998C10.2857 28.8998 11.3934 30.4998 11.8682 32.6998C12.1846 34.4998 12.0264 36.3998 12.1846 38.2998C12.3429 41.7998 12.8176 45.2998 13.2923 48.7998C13.7671 51.7998 13.9253 55.3998 16.1407 58.1998C18.3561 60.9998 21.8374 60.7998 26.2682 60.7998L26.1099 60.8998C25.477 61.1998 24.6857 61.4998 24.0528 61.6998C20.4132 61.4998 17.2484 60.9998 15.3495 58.5998C14.2418 57.2998 13.6088 55.6998 13.2923 54.1998C12.3429 51.1998 11.7099 48.1998 11.7099 45.2998C11.3934 39.6998 12.6594 32.7998 7.91212 27.6998C8.07036 27.4998 8.2286 27.2998 8.54508 27.1998ZM14.4 61.3998C9.17805 58.8998 10.1275 51.3998 9.49453 46.1998C9.01981 40.9998 8.70333 34.0998 8.86157 31.6998C8.86157 31.0998 8.86157 30.5998 8.70333 30.0998C12.3429 36.1998 9.33629 43.5998 10.9187 49.7998C11.5517 52.7998 12.1846 55.8998 14.0835 58.6998C15.8242 60.9998 18.5143 61.6998 21.8374 61.9998C19.622 62.5998 16.9319 62.5998 14.4 61.3998ZM54.9099 53.8998C56.0176 60.3998 55.8594 71.2998 56.6506 77.1998C57.2835 83.0998 59.6572 94.1998 60.2901 99.4998C60.6066 102.5 60.7649 103.8 59.8154 104.4C58.3912 99.7998 57.7583 94.9998 56.9671 90.2998C56.1759 85.3998 55.7011 80.3998 55.0682 75.4998C54.4352 70.7998 53.8022 66.0998 53.4857 61.3998C53.3275 59.6998 53.4857 57.9998 53.4857 56.2998C53.4857 53.8998 52.8528 51.5998 52.6945 49.1998C52.3781 45.0998 51.9033 40.9998 51.4286 36.8998C51.1121 32.8998 51.1121 28.7998 50.7956 24.7998C51.4286 27.4998 51.9033 30.7998 51.9033 33.2998C52.0616 38.7998 53.8022 47.3998 54.9099 53.8998ZM55.5429 101.3C55.0682 98.7998 54.277 96.2998 54.1187 93.6998C53.8022 89.9998 53.644 86.3997 53.3275 82.6998C53.011 79.1998 52.6945 75.6998 52.3781 72.1998C51.5868 62.9998 50.7956 53.6998 50.1627 44.4998C49.6879 36.1998 48.7385 27.8998 48.7385 19.6998C49.055 19.8998 49.2132 20.2998 49.5297 20.6998C50.0044 25.2998 49.8462 29.8998 50.3209 34.4998C50.7956 38.4998 51.4286 42.4998 51.5868 46.4998C51.7451 50.7998 52.6945 54.9998 52.5363 59.1998C52.3781 64.0998 53.4857 69.0998 53.9605 73.9998C54.5934 79.1998 55.0682 84.3998 56.0176 89.5998C56.8088 94.4998 57.4418 99.5998 59.0242 104.5C58.233 104.5 57.2836 104.5 56.4923 104.4C55.7011 103.5 55.7011 102.4 55.5429 101.3ZM47.789 19.3998C47.789 22.4998 48.1055 25.6998 48.2638 28.7998C48.5803 32.7998 48.422 36.7998 48.7385 40.7998C49.2132 45.3998 49.5297 49.8998 49.8462 54.4998C50.6374 63.4998 51.2704 72.4998 52.0616 81.4998C52.3781 85.5998 52.6945 89.6998 52.8528 93.7998C53.011 96.1998 53.644 98.3998 54.1187 100.8C54.4352 101.8 54.1187 103.6 54.7517 104.5C54.4352 104.5 53.9605 104.5 53.4857 104.5C53.011 102.5 52.5363 100.5 52.0616 98.5998C51.4286 95.8998 51.9033 93.2998 51.5868 90.5998C51.1121 87.2998 50.1627 84.0998 50.1627 80.7998C50.1627 76.9998 50.4792 72.9998 49.8462 69.1998C48.5803 61.4998 48.7385 53.8998 48.1055 46.1998C47.3143 38.1998 47.1561 30.1998 46.9978 22.1998C47.1561 20.5998 47.3143 19.6998 47.3143 19.6998C47.4726 19.4998 47.6308 19.3998 47.789 19.3998ZM46.3649 28.7998C46.5231 33.4998 46.6814 38.0998 46.9978 42.7998C47.4726 50.6998 47.4726 58.6998 48.5803 66.5998C49.2132 70.7998 49.3715 74.8998 49.3715 79.0998C49.3715 82.3998 50.0044 85.6998 50.6374 88.9998C51.1121 91.4998 50.7956 94.0998 51.1121 96.5998C51.4286 99.1998 52.2198 101.8 52.8528 104.3C52.5363 104.3 52.2198 104.3 51.9033 104.3C51.1121 103.9 50.9539 103.3 50.7956 102.7C50.6374 101.5 45.8901 65.0998 45.4154 50.3998C45.0989 42.7998 45.7319 34.7998 46.3649 28.7998ZM84.3429 76.0998C83.7099 70.6998 84.6594 63.6998 85.1341 57.5998C85.6088 51.3998 84.6594 49.1998 83.3934 46.9998C83.077 46.4998 82.6022 46.0998 82.444 45.6998C83.8682 46.4998 84.9759 47.6998 85.6088 49.1998C86.2418 50.7998 86.2418 52.4998 86.2418 54.0998L85.7671 86.1998C85.6088 86.1998 85.4506 86.2998 85.4506 86.2998C85.4506 86.2998 84.9759 81.4998 84.3429 76.0998ZM86.7165 85.7998L87.1912 53.9998C87.1912 52.3998 87.1912 50.5998 86.5583 48.9998C85.9253 47.2998 84.5011 45.7998 82.6022 44.8998C82.7605 44.7998 82.7605 44.7998 82.9187 44.7998C83.077 44.6998 83.2352 44.6998 83.5517 44.6998C85.6088 46.0998 87.033 48.0998 87.8242 50.2998C88.6154 52.8998 88.2989 55.5998 88.1407 58.0998V58.6998C87.3495 67.3998 87.3495 76.1998 88.2989 84.8998C87.5077 85.2998 87.033 85.5998 86.7165 85.7998ZM89.7231 63.2998C89.4066 69.2998 89.2484 74.6998 89.7231 80.1998C89.8814 81.7998 89.5649 82.9998 88.9319 83.8998C88.1407 75.5998 88.1407 67.0998 88.7737 58.7998V58.1998C89.0901 55.5998 89.2484 52.7998 88.4572 50.1998C87.8242 48.2998 86.7165 46.5998 85.2923 45.1998C86.5583 45.7998 87.666 46.9998 88.4572 48.8998C89.7231 52.1998 90.0396 57.2998 89.7231 63.2998Z" fill="black"/>
<path d="M1208.33 25.7998H1211.5V40.6998H1223.53V42.2998H1208.33V25.7998Z" fill="black"/>
<path d="M1225.58 34.1V33.9C1225.58 29.2 1230.8 25.5 1238.4 25.5C1246.15 25.5 1251.22 29.2 1251.22 33.9V34.1C1251.22 38.8 1246.15 42.5 1238.56 42.5C1230.8 42.5 1225.58 38.7 1225.58 34.1ZM1247.89 34V33.8C1247.89 30.1 1244.41 27.1 1238.4 27.1C1232.39 27.1 1228.75 29.9 1228.75 33.9V34.1C1228.75 38.1 1233.02 40.8 1238.4 40.8C1244.25 40.8 1247.89 38.1 1247.89 34Z" fill="black"/>
<path d="M1253.27 25.7998H1256.44L1264.19 40.3998L1271.95 25.7998H1274.95L1265.93 42.2998H1262.14L1253.27 25.7998Z" fill="black"/>
<path d="M1279.38 25.7998H1294.58V27.3998H1282.55V32.9998H1292.2V34.5998H1282.55V40.5998H1295.21V42.1998H1279.23V25.7998H1279.38Z" fill="black"/>
<path d="M1188.55 57.6C1188.55 52.1 1195.52 48 1203.59 48C1211.97 48 1217.83 51.6 1217.83 56.2C1217.83 60.4 1214.03 61.9 1211.18 61.9C1208.33 61.9 1207.38 61.1 1207.07 60C1206.12 61.2 1203.9 62.1 1201.85 62.1C1198.36 62.1 1196.15 60.6 1196.15 58.2C1196.15 55.2 1199.31 53 1203.11 53C1205.64 53 1206.91 53.8 1207.38 54.5L1207.7 53.2H1210.71L1209.6 58.8C1209.28 60 1209.92 60.6 1211.18 60.6C1213.24 60.6 1215.14 59.3 1215.14 56.3C1215.14 52.3 1210.87 49.6 1203.59 49.6C1196.47 49.6 1191.4 52.8 1191.4 57.6C1191.4 61.7 1195.36 65.2 1203.27 65.2C1207.07 65.2 1209.44 64.6 1211.5 63.5H1214.35C1212.45 65.4 1208.33 66.8 1203.27 66.8C1193.78 66.7 1188.55 62.4 1188.55 57.6ZM1207.07 57C1207.07 55.3 1205.64 54.5 1203.43 54.5C1201.21 54.5 1199.31 55.8 1199.31 58.2C1199.31 59.8 1200.74 60.7 1202.64 60.7C1204.69 60.7 1207.07 59.4 1207.07 57Z" fill="black"/>
<path d="M1223.37 48.8999H1238.72V50.4999H1226.53V56.3999H1236.03V57.9999H1226.53V65.3999H1223.37V48.8999Z" fill="black"/>
<path d="M1243.46 48.8999H1246.63V65.3999H1243.46V48.8999Z" fill="black"/>
<path d="M1253.43 48.8999H1261.35C1266.41 48.8999 1270.52 50.1999 1270.52 53.4999V53.5999C1270.52 56.2999 1267.67 57.6999 1264.04 58.0999L1272.11 65.3999H1268.62L1260.87 58.1999H1256.91V65.3999H1253.75L1253.43 48.8999ZM1261.5 56.5999C1265.3 56.5999 1267.2 55.5999 1267.2 53.4999V53.3999C1267.2 51.1999 1264.98 50.3999 1261.5 50.3999H1256.6V56.4999H1261.5V56.5999Z" fill="black"/>
<path d="M1274.48 60.4001H1277.49C1277.96 62.4001 1279.07 64.0001 1284.45 64.0001C1287.77 64.0001 1290.46 62.7001 1290.46 60.9001C1290.46 59.1001 1289.04 58.2001 1284.13 57.7001C1278.59 57.2001 1275.43 56.1001 1275.43 53.1001C1275.43 50.6001 1278.91 48.6001 1283.82 48.6001C1289.04 48.6001 1292.36 50.2001 1292.84 53.2001H1289.99C1289.35 51.1001 1287.45 50.3001 1283.82 50.3001C1280.18 50.3001 1278.44 51.4001 1278.44 53.0001C1278.44 54.6001 1279.38 55.4001 1284.76 56.0001C1290.62 56.6001 1293.63 57.7001 1293.63 60.8001C1293.63 63.6001 1289.83 65.7001 1284.61 65.7001C1277.49 65.6001 1274.95 63.2001 1274.48 60.4001Z" fill="black"/>
<path d="M1303.44 50.4999H1295.84V48.8999H1314.2V50.4999H1306.6V65.3999H1303.44V50.4999Z" fill="black"/>
<path d="M1217.2 72H1225.11C1230.01 72 1233.49 73 1233.49 76.3V76.4C1233.49 77.9 1232.55 79.2 1229.54 79.9C1233.34 80.5 1234.76 81.7 1234.76 83.9V84C1234.76 87.1 1231.44 88.6 1226.22 88.6H1217.2V72ZM1224.95 79.2C1228.75 79.2 1230.17 78.3 1230.17 76.3V76.2C1230.17 74.3 1228.43 73.6 1224.79 73.6H1220.04V79.2H1224.95ZM1226.06 87C1229.85 87 1231.6 85.9 1231.6 83.9V83.8C1231.6 81.8 1229.86 80.8 1225.58 80.8H1220.2V87H1226.06Z" fill="black"/>
<path d="M1240.14 72H1243.31V88.5H1240.14V72Z" fill="black"/>
<path d="M1255.33 73.6H1247.74V72H1266.09V73.6H1258.5V88.5H1255.33V73.6Z" fill="black"/>
<path d="M1270.52 72H1285.71V73.6H1273.69V79.2H1283.34V80.8H1273.69V86.8H1286.35V88.4H1270.36V72H1270.52Z" fill="black"/>
</svg>
