<svg xmlns="http://www.w3.org/2000/svg" width="1440" height="120" fill="none"><path fill="#000" d="M257.459 29.8v1.8h-13.134v6.3h10.286v1.8h-10.286v8h-3.481V29.8zM266.479 33.6l-4.905-.7.949-1.7 4.747 1.2-.316-3.4h2.848l-.316 3.4 4.589-1.2.949 1.7-4.905.7 3.323 2.8-2.216 1-3.006-3-2.849 3-2.373-1zM278.347 38.9v-.2c0-5.3 5.539-9.2 13.451-9.2 5.855 0 10.918 2 11.551 5.9h-3.481c-.791-2.7-3.165-4.1-8.07-4.1-5.855 0-9.811 2.9-9.811 7.4v.2c0 4.6 3.639 7.3 9.811 7.3 4.589 0 7.912-1.5 8.545-4.4h3.165c-.95 4.1-5.539 6.2-11.868 6.2-8.229-.1-13.293-3.6-13.293-9.1M312.844 29.8v8.6l12.343-8.7h3.798l-12.66 8.7 13.293 9.2h-4.115l-12.659-8.8v8.8h-3.481V29.8zM215.525 54.9c5.38 0 9.97 1.5 9.97 5.2v.1c0 3.8-4.59 5.3-9.97 5.3h-4.589v7.3h-3.481V54.9zm6.488 5.3v-.1c0-2.5-2.373-3.5-6.171-3.5h-4.906v7.1h4.906c3.956.1 6.171-1.2 6.171-3.5M234.514 54.9V71h12.976v1.8h-16.457V54.9zM264.897 54.9l9.652 17.9h-3.481l-2.848-5.2h-11.71l-2.69 5.2h-3.323l9.811-17.9zm2.532 11-4.906-9.2-4.905 9.2zM277.873 67.3h3.323c.474 2.1 1.899 3.9 7.595 3.9 3.64 0 6.488-1.4 6.488-3.4s-1.424-2.9-6.963-3.4c-6.013-.6-9.494-1.7-9.494-4.9 0-2.7 3.798-4.9 9.178-4.9 5.697 0 9.178 1.7 9.811 4.9h-3.165c-.633-2.3-2.69-3.2-6.646-3.2s-5.855 1.2-5.855 2.9 1.108 2.7 6.804 3.2c6.33.6 9.653 1.9 9.653 5.2 0 3-4.114 5.3-9.811 5.3-7.754.1-10.444-2.5-10.918-5.6M301.451 56.6v-1.8h20.096v1.8h-8.228v16.2h-3.482V56.6zM330.409 54.9v17.9h-3.482V54.9zM336.897 63.9v-.2c0-5.3 5.538-9.2 13.45-9.2 5.855 0 10.919 2 11.552 5.9h-3.481c-.792-2.7-3.165-4.1-8.071-4.1-5.855 0-9.811 2.9-9.811 7.4v.2c0 4.6 3.64 7.3 9.811 7.3 4.589 0 7.912-1.5 8.545-4.4h3.165c-.949 4.1-5.538 6.2-11.868 6.2-8.229 0-13.292-3.5-13.292-9.1M533.433 105.2c-7.437 0-32.756-1.2-34.655-1.7-.158-.3-.316-.6-.316-.9 0 0-1.108-2.4-1.266-2.9l-.792-1.7c-.474-1-.949-2.1-1.424-3.1-.316-.7-.633-1.3-.949-2-.158-.3-.633-1.3-.633-1.3-.158-.4-.317-.8-.633-1.2-.317-.7-.633-1.3-.95-2-.633-1.3-1.107-2.6-1.74-3.9s-1.266-2.7-1.741-4.1c-.316-.8-.633-1.6-.949-2.5-.317-.7-.633-1.4-.95-2-.158-.4-.475-.8-.633-1.3-1.424-3-2.69-6.1-3.639-9.2-.475-1.7-.792-3.3-.95-4.9 0-.9 0-1.8-.158-2.7v-.2c0-1.1 0-2.3-.158-3.4-.159-2.2-.159-4.1-.317-5.9 0-.6-.158-1.3-.158-1.9 0-.4-.158-.9-.158-1.3 0-.7-.159-1.3-.159-2l-.158-2c-.158-1.1-.158-2.3-.316-3.4-.158-2.3-.158-4.4-.317-6.3v-4.8c0-.9.159-1.8.159-2.7 0-.5.158-1 .158-1.5v-2.8000000000000003c.158-.7.158-1.5.316-2.2.158-1 .317-1.7.791-2.4.475-.6.95-.9 1.583-1.1.475-.1.949-.2 1.424-.2.633 0 1.266.1 1.741.4 1.107.5 1.74 1.2 2.057 2.1l.158.6.475 1.5c.158 1.1.316 2 .316 2.9 0 .8.159 1.6.317 2.3 0 .3.158.5.158.8 0 .5.158 1 .158 1.4.159.6.158 1.3.317 1.9.158 1 .316 1.9.633 2.9l.316 1.4c.158.8.317 1.7.475 2.5.316 1.1.475 2.2.949 3.6 0 .1 0 .2-.158.4-.633.8-1.108 1.7-1.266 2.6-.158 1.1-.158 2.2 0 3.4v.6c0 .7.158 1.4.317 2.1.158.8.474 1.7.633 2.5.158.8.316 1.5.633 2.2.316 1.6.949 3.2 1.582 4.7.158.6.475 1.1.633 1.7.316 1.1.791 2 1.108 2.9.158.5.474.9.791 1.3.158.1.158.3.316.4.475.8 1.108 1.7 2.058 2.5 1.107.9 2.531 1.5 4.114 1.7.316 0 .633.1 1.107.1.792 0 1.741-.1 2.532-.4.95-.3 1.741-.6 2.69-.9.159-.1.159-.1.317-.1h.158c.791.2 1.583.4 2.69.5h.792c1.582 0 2.848-.3 4.272-1 1.582-.8 2.69-1.8 3.165-3.2.158-.3.158-.6.316-.9.159-.4.317-.8.475-1.1v-.2c.158.2.475.4.633.6.475.4.791.8 1.266 1.1.633.7 1.266 1.3 1.582 2 .317.6.95 1.1 1.583 1.6.158.1.316.3.475.4.474.4.949.8 1.582 1.2l.158.1s2.057 1 2.849 1.4c.158.1.316.2.633.2h.158c.158 0 .475 0 .633-.1s.158-.2.158-.3-.158-.3-.317-.4l-.632-.3c-.633-.3-1.108-.6-1.741-.9s-1.266-.6-1.741-1l-.475-.5-1.424-1.2c-.158-.1-.158-.2-.316-.4 0-.1-.158-.2-.158-.2l-.475-.5c-.317-.5-.791-1-1.266-1.4l-.95-.9c-.316-.2-.474-.5-.791-.7-.633-.6-1.107-1.1-1.582-1.7-.95-1.3-2.532-2.3-4.906-2.8-2.69-.7-5.538-1.4-8.228-2.4-.95-.4-1.583-.7-2.216-1-2.373-1.3-4.114-2.6-5.538-4-.475-.5-.949-1.1-1.266-1.8-.158-.4-.158-.8.158-1.4.317-.5.633-1.1 1.266-1.6l.158.1c.317.2.792.3 1.108.5 1.741.9 3.798 1.6 5.539 2.2.949.3 1.898.6 3.006.9.475.1.95.2 1.266.2.158 0 .475.1.633.1h.317c.474 0 .791-.2.791-.4l.949-2.1c0-.1.158-.2.158-.3 1.266.2 2.532.3 3.798.4.791 0 2.532.1 2.532.1.95 0 2.057.1 3.165.1 1.424.1 2.69.4 3.798 1.1 1.266.7 2.215 1.6 3.323 2.7.316.3.475.6.791.8l1.424 1.5c.633.6 1.266 1.3 2.057 1.8.475.4.95.7 1.583 1l.158.1c.475.3.949.6 1.424.8.633.3 1.108.7 1.741 1.2l.158.1c1.108.9 2.215 1.8 3.165 2.8.949 1 1.424 2 1.741 2.9.316 1 .316 2 .158 3v.6c0 1.4-.317 2.7-.791 4v.2c-.317.7-.475 1.5-.792 2.3-.474 1-.791 1.9-1.266 2.9-.632 1.3-1.107 2.5-1.582 3.7-.316.7-.475 1.4-.791 2.1 0 0-.158.6-.317.9l-.316 1.1c-.317.9-.633 1.8-.791 2.6-.317.9-.475 1.9-.792 2.8l-.316 1.4-.317 1.3c-.316.9-.474 1.7-.791 2.6-.158.8-.316 1.5-.474 2.3l-.159 1.1c0 .2 0 .3-.158.5-.158.6-.316 1.1-.316 1.7 0 .2 0 .4-.159.6v.1c-.316 1.4-.474 2.9-.316 4.7v.3c0 .8-.317.9-1.266.9"/><path fill="#000" d="M536.756 52.3c-.316-.2-.633-.5-.949-.7-.633-.5-1.266-1.2-1.899-1.9-.95-1.1-2.216-2.2-3.323-3.2-1.108-1-2.532-1.7-4.115-2-.791-.2-1.74-.3-3.006-.4v-1c.158-1.1 0-2.2-.317-3.5-.158-.8-.316-1.5-.316-2.2 0-2.1 0-4.4.316-7v-3.1s.317-7.5.317-8.1v-1.9c0-1.3 0-2.7.158-4.1.158-1.7.316-3 .791-4.1 0-.1 0-.3.158-.4v-.3c.159-.4.159-.9.317-1.3.316-1.1.475-2.2.949-3.3.159-.5.475-1 .792-1.4.633-.8 1.74-1.3 3.164-1.4.317-.1.633-.1 1.108-.1h.317c.949 0 1.582.3 2.057.9.316.4.633.8.949 1.3.95 1.7.95 3.4 1.108 5.2v5.4c0 1 .158 1.9.316 2.8 0 .4.159.7.159 1.1 0 .3 0 .5.158.8 0 .5.158 1 .158 1.5.158 2.3.317 5.3.475 8.3v4.1000000000000005c0 .6 0 1.2-.158 1.8 0 .4-.159.8-.159 1.2v2.9c0 .5 0 1-.158 1.5 0 .6-.158 1.3-.158 2v.7c0 1.5-.158 3 0 4.6v1.2999999999999998zM504.158 66.4q-1.187 0-2.373-.3c-.633-.1-1.108-.4-1.583-.8-.949-.7-1.582-1.6-2.057-2.4-.791-1.3-1.582-2.6-1.899-4-.316-.8-.633-1.7-.791-2.4l-.949-2.7c-.159-.7-.317-1.3-.475-2-.158-.4-.158-.7-.317-1.1-.158-.4-.158-.8-.316-1.2-.158-.8-.475-1.6-.633-2.4-.475-2.2-.475-4-.158-5.6.158-.8.316-1.4.791-2s1.108-1.1 2.057-1.4c.316-.1.791-.1 1.108-.2h1.266c1.424 0 2.531.1 3.639.5.633.2 1.108.4 1.424.7.633.5 1.266 1 1.899 1.6q.475.45.475.9c-.317-.1-.791-.1-1.108-.1-.791 0-1.582.1-2.373.4-1.741.6-2.849 1.5-3.323 2.8-.159.4-.317.8-.317 1.2q0 .9.475 1.8c.633 1.2 1.899 2.2 3.165 3.1q1.899 1.5 4.272 2.7c.158 0 .158.1.158.2v.1c0 .9-.158 1.9-.158 2.8v2.8l-5.38.7c-.475.1-.95.1-1.424.2-.633.1-.95.4-.791.9.316.8.791 1.5 1.265 2.2.633.8 1.425 1.4 2.691 2 .949.5 2.057.6 3.006.6h1.1079999999999999c.633 0 1.266-.2 1.741-.3l.158.1-.95.3c-.158 0-.316.1-.474.1-1.266.1-2.058.2-2.849.2M521.565 44.1c-.633 0-1.108 0-1.741-.1-2.373-.1-4.589-.5-6.804-.9l-.317-.1c-1.424-.3-2.69-.5-4.114-.8l-1.582-.3c-.159-.4-.159-.6-.159-.9.475-1.2 1.108-2.2 1.899-3.2.633-.7 1.424-1.2 2.69-1.5 1.108-.3 2.216-.5 3.482-.5 1.107 0 2.215.1 3.481.4.633.1 1.108.4 1.582.8l.159.1c.791.6 1.107 1.3 1.266 2 .158.7.316 1.5.474 2.2l.159.5v2.3z"/><path fill="#000" d="M512.387 65.7c-.95 0-1.741-.2-2.532-.5-1.424-.7-2.374-1.6-2.532-2.8-.158-.8-.158-1.6-.158-2.4v-1.3c0-.8 0-1.6.158-2.4 0-.5.158-1 .158-1.5v-.7l.159.1c.633.2 1.265.4 1.74.6 2.216.7 4.115 1.3 6.013 1.7.792.1 1.899.4 2.691.8.474.2.791.5.949.7 0 0 .475.5.633.6.158.2.316.4.158.7-.158.9-.475 1.8-.949 2.6-.158.3-.317.5-.475.8-.158.2-.316.5-.475.7-.316.7-1.266 1.2-2.215 1.7-.791.4-1.899.5-2.848.6zm-3.798-3.9v.7c0 .4.158.7.317 1.1.316.6 1.107 1 1.898 1.2.475.1.792.1 1.108.1h.95c.474 0 .949 0 1.582-.1q1.424-.15 2.374-1.2c.633-.7.949-1.5 1.107-2.3.159-.7.159-1.4.317-2 .158-.5-.158-.7-.95-.8-2.532-.3-5.063-.5-7.595-.7h-.317c-.791 0-.791.4-.949.6-.158.6-.158 2.5-.158 2.8zM512.229 46.4c-.475-.1-.792-.1-.95-.2-1.108-.3-2.215-.6-3.323-1.1l-.791-.3c-.791-.3-1.583-.6-2.216-.8-.791-.3-1.424-.6-2.215-1l-.475-.2q.713-.3 1.425-.3h.158c.633 0 1.107.1 1.74.3l2.374.6.475.1c1.266.3 2.373.5 3.639.8l1.108.2zM504.791 64.7c-1.266 0-2.057-.3-2.69-.9-.791-.8-1.741-1.7-2.215-2.7.316-.1.633-.1.791-.1 1.424-.2 2.848-.3 4.272-.5l.633-.1v.5c0 .5.159 1.2.159 1.8 0 .5.316 1 .791 1.6l.158.3c-.316.1-.475.1-.791.1h-1.1079999999999999"/><path fill="#000" d="M512.862 63.9c-.475 0-.95 0-1.425-.1-.633-.1-.949-.4-.949-.8s0-.8-.158-1.2V59c1.74.1 5.222.4 6.488.6 0 .2 0 .4-.159.6l-.158.6c0 .4-.158.7-.158 1-.158.5-.317 1-.791 1.4s-.95.7-1.899.7zM663.191 29.1h2.849l1.266 7 .632 4.1 3.007-6.8h2.69l3.007 6.8.633-4.1 1.107-7h2.849l-2.532 12.7h-3.798l-2.848-6.2-2.849 6.2h-3.797zM690.567 40.2h4.906v-9.5h-4.906v-1.6h12.659v1.6h-4.905v9.5h4.905v1.6h-12.659zM715.411 29.1h3.007v11.1h10.285v1.6h-13.134zM740.255 29.1h5.855c6.488 0 8.387 2.7 8.387 6.3 0 3.7-1.899 6.5-8.387 6.5h-5.855zm3.007 11.1h2.848c2.374 0 3.798-.7 4.431-1.6s.791-2.1.791-3.2c0-.5 0-1.1-.158-1.6 0-.6-.317-1.1-.633-1.5-.633-.9-2.057-1.6-4.431-1.6h-2.848zM671.262 59.9c-4.906 0-7.596-1.2-7.596-3.5 0-1.5 1.266-2.6 3.481-3-1.74-.5-3.006-1.4-3.006-2.9 0-2.3 3.006-3.6 7.121-3.6 3.481 0 6.804.8 7.279 3.7h-2.849c-.158-.8-.474-1.4-1.266-1.7-.791-.3-1.74-.5-3.006-.5s-2.216.2-3.007.5-1.266.8-1.266 1.6c0 1.5 1.741 2.1 4.906 2.1h9.653v1.5h-3.007v5.8zm4.272-1.5v-4.2h-3.798c-1.424 0-2.69.2-3.639.5-.95.3-1.424.9-1.424 1.7 0 1.5 2.057 2 4.905 2zM720.317 54.8l-7.754-7.7h3.323l3.006 3 3.007 3.2 3.007-3.2 3.006-3h3.323l-7.754 7.7v5.1h-3.006v-5.1zM739.78 55.4v-8.2h3.007v8.2q0 1.65.949 2.4c.633.4 1.583.7 3.007.7s2.373-.2 3.006-.7q.95-.75.95-2.4v-8.2h3.006v8.2c0 1.7-.474 2.9-1.74 3.6-1.108.7-2.849 1.1-5.222 1.1-4.747 0-6.963-1.3-6.963-4.7M763.991 47.2h3.956l2.216 4.2 1.266 2.8 1.266-2.8 2.215-4.2h3.798v12.7h-2.69v-7.5l.316-3.5-3.956 7.4h-2.215l-3.956-7.4.316 3.5v7.5h-2.69V47.2zM788.835 47.2h3.956l2.216 4.2 1.266 2.8 1.265-2.8 2.216-4.2h3.798v12.7h-2.69v-7.5l.316-3.5-3.956 7.4h-2.215l-3.956-7.4.316 3.5v7.5h-2.69V47.2zM819.534 54.8l-7.754-7.7h3.323l3.007 3 3.007 3.2 3.006-3.2 3.007-3h3.323l-7.754 7.7v5.1h-3.007v-5.1zM665.881 65.3h12.976v1.6H668.73v3.8h8.703v1.6h-8.703v4.1h10.127V78h-12.976zM690.725 65.3h3.956l6.33 10.9-.317-3.7v-7.2h2.691V78h-3.956l-6.33-10.9.316 3.7V78h-2.69zM714.462 73.9c0-.3 0-.6.158-.8h2.848c0 .2-.158.5-.158.8 0 1.7 1.266 2.8 3.956 2.8 3.007 0 4.114-1.2 4.114-3.5v-7.8h3.007v7.9c0 3.3-2.374 5.1-6.963 5.1-4.431-.1-6.962-1.9-6.962-4.5M738.672 71.7c0-4.1 2.532-6.7 7.913-6.7 2.69 0 4.589.6 5.855 1.8q1.899 1.8 1.899 4.8c0 4.2-2.532 6.7-7.913 6.7-5.222 0-7.754-2.5-7.754-6.6m12.027 3.3c.633-1 .791-2.2.791-3.3 0-2.2-.475-5-4.905-5s-4.748 2.8-4.748 5c0 2.1.475 5 4.748 5 2.215-.1 3.481-.8 4.114-1.7M770.004 73l-7.753-7.7h3.323l3.006 3 3.007 3.2 3.006-3.2 3.007-3h3.323l-7.754 7.7v5.1h-3.006V73zM794.215 75.5h3.956V78h-3.956zm.475-6.2v-3.9h3.007v4l-.792 4.3h-1.424zM974.294 50.3c1.899-.7 3.482-1.5 5.222-2.1 12.027-5 19.939-8.3 36.234-8.2 15.67.1 23.74 4.3 31.49 8.2 1.27.7 2.54 1.3 3.8 1.9 8.55 4.1 17.41 5.4 26.74 3.8-12.5-20.6-36.39-29.9-45.57-30.1-7.75-.2-14.56 2.5-19.3 2.6-4.75.2-9.66-2.5-17.253-2.6-7.595-.1-21.521 5.3-30.382 11.4-7.912 5.4-15.508 16.4-17.249 18.7 0 .2 11.552 2.4 26.268-3.6m-5.854-13.5c5.222-4 23.894-14.1 39.4-8.2.48.2.63.6.32.9-.32.3-.95.4-1.43.2-14.238-5.4-31.644 4.1-36.708 7.9-.158.2-.475.2-.791.2-.159 0-.475-.1-.633-.2-.475-.1-.475-.5-.158-.8M1029.2 60.5c-.31.1-.63.1-.95.2 0 0-2.84.7-4.27.8-2.21.4-4.27.7-6.33.9-1.9.2-3.8.3-5.85.3-3.64 0-7.6-.4-12.82-1.3-.791-.1-2.532-.5-2.532-.5-2.532-.5-5.222-1.1-8.228-1.8-13.134-3.2-37.187-2.8-40.194-2.7 9.02 16.3 26.901 22.5 36.396 24.2 4.747.9 11.868 2 21.208 2.5-3.17-9.3-15.195-12.6-15.353-12.7-.475-.1-.791-.5-.633-.9.158-.3.791-.5 1.424-.4.158 0 4.273 1.2 8.545 4 2.687 1.5 5.227 3.4 6.487 5.6 3.01 5.6 2.69 7.7 2.69 13.7 0 11.5-1.11 15.2-2.21 18.5-1.59 5.1-.32 8.8 3.48 8.8 5.06 0 3.79-5.1 3.48-7.6-.32-2.5-2.53-4.5-2.22-13.1.16-5.2 0-10.2 0-13.2 0-1.3.48-3.5 1.59-5.7V80c.63-1.5 1.74-2.9 3.32-3.8.47-.3.79-.5 1.26-.7 1.11-.5 2.38-.8 3.8-.8 1.11 0 2.22.2 3.17.5 1.26.3 2.53.9 3.48 1.6 1.42 1 2.37 2.4 3.01 3.9.79 1.5 1.26 3.1 1.26 4.2v9.6s-.32 3.1-1.58 6.2c-1.11 2.9-.63 6.5 2.37 6.5 2.06 0 3.33-1.8 2.38-5.2-1.11-3.8-1.27-4.5-1.27-7.6v-8.6s-.16-1.4.32-3.3v-.3c0-.3.15-.6.15-.8s.16-.4.16-.6c.64-1.7 1.59-3.6 3.33-5.2.15-.1.31-.3.47-.4 2.85-2.9 6.17-4.9 6.49-5.1.47-.3 1.11-.2 1.58 0 .48.3.32.7 0 1-.16.1-7.91 4.7-9.65 10.2 1.74-.3 3.48-.5 5.38-.9 25-4.4 33.86-20.7 35.44-24.2-2.37.1-16.77.7-28.64 1.4-7.75.5-14.24 1.8-19.94 2.9"/><path fill="#000" d="M1011.96 59.2h-15.512v.3c6.642 1.3 11.232 1.8 15.512 1.8zM1017.34 61.1c3.32-.3 6.96-1 10.91-1.8v-.1h-14.08v2.1c1.11-.1 2.06-.1 3.17-.2M1021.29 76.3c-1.42 0-2.53.3-3.48 1-2.06 1.4-3.16 3.8-3.64 6 4.75 0 9.81-.3 15.35-.9-.63-1.7-1.58-3.4-3.16-4.5-1.43-1.1-3.01-1.6-5.07-1.6M1035.53 47.3c.48.4 1.11.7 2.54.7 1.89 0 3.64 0 4.9-.1-.63-.3-1.11-.6-1.74-.8l-.16-.1c-1.11-.5-2.05-1-3.16-1.4-.32-.1-.48-.2-.79-.3-.48-.2-1.11-.4-1.59-.6zM993.125 44.5v3.7c.95 1 3.323 2.4 9.655 2.4 6.49 0 8.7-.9 9.49-1.9v-7.2c-7.75.1-13.448 1.1-19.145 3M1015.6 41.4h-.95V49c.95.9 3.48 1.5 9.17 1.5 6.33 0 8.71-1.4 9.66-2.4v-4.2c-4.75-1.5-10.45-2.5-17.88-2.5M983.947 47.9c1.266.1 2.849.1 4.747.1 1.266 0 1.899-.3 2.374-.6v-2.3c-2.215.9-4.589 1.8-7.121 2.8M91.464 68.7c.633-5.4 1.108-9.1 0-15.3s-3.956-10.2-9.495-10.2-7.12 3.5-7.595 8.2c-.475 4.8-.633 16.5-1.108 21.6-.475 5.2-4.906 5.9-12.976 5.9-.158-2.8.633-11.1-1.266-21.3s-4.272-17.7-4.589-28.3c-.316-10.7-6.646-13.7-9.178-13.7s-10.127-1.1-11.235 8.5c-1.108 9.7-3.323 18.7-4.43 34.4-12.818.4-12.818-2.7-13.135-7.6-.316-4.9 0-15.7 0-15.7.158-6.9-4.272-9.1-9.653-9.8-5.38-.6-6.171 1.1-6.171 5.2s.633 17.1 1.266 26 5.064 11.8 9.97 13.2c4.905 1.4 18.355-.9 18.355-.9s1.266 27.6 1.9 35.2c-3.166 0-6.172 0-9.337.1-5.539.1-11.077.2-16.774.3-.791 0-1.74 0-2.532.3-.95.3-.633 1.4.475 1.4 23.42.5 46.84 1.1 70.26.5 1.898 0 3.956-.2 5.538-.8.633-.2.316-1-.317-1-5.538-.2-11.235-.3-16.773-.5-.317-1.8-.95-5.5-1.583-10.7 13.926-2.1 24.528-4.9 28.167-7.5 3.798-2.5 1.583-12.2 2.216-17.5M13.767 31.1c1.74 3.6 1.266 7.9 1.108 17.3-.159 9 3.006 10.1 4.43 10.5 1.9.6 3.64.7 6.014.9.316 0 .633.2.79.4-3.322 0-6.962.4-8.86-1.6-1.583-1.7-2.058-3.8-2.532-5.7-.792-3.2-1.108-6.3-1.425-9.5-.316-3-.474-6-.633-9 0-1.5-.316-3.1-.95-4.6-.474-.9-1.265-1.8-1.898-2.6 1.266.2 2.69 1.3 3.956 3.9m-5.222-3.9c.158 0 .158-.1.317-.1 1.424 1.8 2.531 3.4 3.006 5.6.317 1.8.158 3.7.317 5.6.158 3.5.633 7 1.107 10.5.475 3 .633 6.6 2.849 9.4 2.215 2.8 5.696 2.6 10.127 2.6l-.158.1c-.633.3-1.424.6-2.057.8-3.64-.2-6.805-.7-8.703-3.1-1.108-1.3-1.741-2.9-2.058-4.4-.95-3-1.582-6-1.582-8.9-.317-5.6.95-12.5-3.798-17.6.158-.2.317-.4.633-.5M14.4 61.4c-5.222-2.5-4.273-10-4.905-15.2-.475-5.2-.792-12.1-.633-14.5 0-.6 0-1.1-.159-1.6 3.64 6.1.633 13.5 2.216 19.7.633 3 1.266 6.1 3.165 8.9 1.74 2.3 4.43 3 7.753 3.3-2.215.6-4.905.6-7.437-.6m40.51-7.5c1.108 6.5.95 17.4 1.74 23.3.633 5.9 3.007 17 3.64 22.3.317 3 .475 4.3-.475 4.9-1.424-4.6-2.057-9.4-2.848-14.1-.791-4.9-1.266-9.9-1.899-14.8-.633-4.7-1.266-9.4-1.582-14.1-.158-1.7 0-3.4 0-5.1 0-2.4-.633-4.7-.791-7.1-.317-4.1-.792-8.2-1.266-12.3-.317-4-.317-8.1-.633-12.1.633 2.7 1.107 6 1.107 8.5.159 5.5 1.9 14.1 3.007 20.6m.633 47.4c-.475-2.5-1.266-5-1.424-7.6-.317-3.7-.475-7.3-.791-11l-.95-10.5c-.791-9.2-1.582-18.5-2.215-27.7-.475-8.3-1.424-16.6-1.424-24.8.316.2.474.6.79 1 .475 4.6.317 9.2.792 13.8.475 4 1.108 8 1.266 12 .158 4.3 1.107 8.5.95 12.7-.159 4.9.949 9.9 1.424 14.8.632 5.2 1.107 10.4 2.057 15.6.79 4.9 1.424 10 3.006 14.9-.791 0-1.74 0-2.532-.1-.79-.9-.79-2-.95-3.1m-7.754-81.9c0 3.1.316 6.3.475 9.4.316 4 .158 8 .474 12 .475 4.6.792 9.1 1.108 13.7.791 9 1.424 18 2.216 27 .316 4.1.633 8.2.79 12.3.159 2.4.792 4.6 1.267 7 .316 1 0 2.8.633 3.7h-1.266c-.475-2-.95-4-1.424-5.9-.633-2.7-.159-5.3-.475-8-.475-3.3-1.424-6.5-1.424-9.8 0-3.8.316-7.8-.317-11.6-1.266-7.7-1.107-15.3-1.74-23-.792-8-.95-16-1.108-24 .158-1.6.316-2.5.316-2.5q.238-.3.475-.3m-1.424 9.4c.158 4.7.316 9.3.633 14 .475 7.9.475 15.9 1.582 23.8.633 4.2.791 8.3.791 12.5 0 3.3.633 6.6 1.266 9.9.475 2.5.159 5.1.475 7.6.317 2.6 1.108 5.2 1.74 7.7h-.949c-.79-.4-.95-1-1.107-1.6-.159-1.2-4.906-37.6-5.38-52.3-.317-7.6.316-15.6.949-21.6m37.978 47.3c-.633-5.4.316-12.4.791-18.5.475-6.2-.475-8.4-1.74-10.6-.317-.5-.792-.9-.95-1.3 1.424.8 2.532 2 3.165 3.5.633 1.6.633 3.3.633 4.9l-.475 32.1c-.158 0-.316.1-.316.1s-.475-4.8-1.108-10.2m2.373 9.7.475-31.8c0-1.6 0-3.4-.633-5-.633-1.7-2.057-3.2-3.956-4.1.158-.1.158-.1.317-.1.158-.1.316-.1.633-.1 2.057 1.4 3.481 3.4 4.272 5.6.791 2.6.475 5.3.317 7.8v.6c-.791 8.7-.791 17.5.158 26.2-.791.4-1.266.7-1.583.9m3.007-22.5c-.316 6-.475 11.4 0 16.9.158 1.6-.158 2.8-.791 3.7-.791-8.3-.791-16.8-.158-25.1v-.6c.316-2.6.474-5.4-.317-8-.633-1.9-1.74-3.6-3.165-5 1.266.6 2.374 1.8 3.165 3.7 1.266 3.3 1.583 8.4 1.266 14.4M1208.33 25.8h3.17v14.9h12.03v1.6h-15.2zM1225.58 34.1v-.2c0-4.7 5.22-8.4 12.82-8.4 7.75 0 12.82 3.7 12.82 8.4v.2c0 4.7-5.07 8.4-12.66 8.4-7.76 0-12.98-3.8-12.98-8.4m22.31-.1v-.2c0-3.7-3.48-6.7-9.49-6.7s-9.65 2.8-9.65 6.8v.2c0 4 4.27 6.7 9.65 6.7 5.85 0 9.49-2.7 9.49-6.8M1253.27 25.8h3.17l7.75 14.6 7.76-14.6h3l-9.02 16.5h-3.79zM1279.38 25.8h15.2v1.6h-12.03V33h9.65v1.6h-9.65v6h12.66v1.6h-15.98V25.8zM1188.55 57.6c0-5.5 6.97-9.6 15.04-9.6 8.38 0 14.24 3.6 14.24 8.2 0 4.2-3.8 5.7-6.65 5.7s-3.8-.8-4.11-1.9c-.95 1.2-3.17 2.1-5.22 2.1-3.49 0-5.7-1.5-5.7-3.9 0-3 3.16-5.2 6.96-5.2 2.53 0 3.8.8 4.27 1.5l.32-1.3h3.01l-1.11 5.6c-.32 1.2.32 1.8 1.58 1.8 2.06 0 3.96-1.3 3.96-4.3 0-4-4.27-6.7-11.55-6.7-7.12 0-12.19 3.2-12.19 8 0 4.1 3.96 7.6 11.87 7.6 3.8 0 6.17-.6 8.23-1.7h2.85c-1.9 1.9-6.02 3.3-11.08 3.3-9.49-.1-14.72-4.4-14.72-9.2m18.52-.6c0-1.7-1.43-2.5-3.64-2.5-2.22 0-4.12 1.3-4.12 3.7 0 1.6 1.43 2.5 3.33 2.5 2.05 0 4.43-1.3 4.43-3.7M1223.37 48.9h15.35v1.6h-12.19v5.9h9.5V58h-9.5v7.4h-3.16zM1243.46 48.9h3.17v16.5h-3.17zM1253.43 48.9h7.92c5.06 0 9.17 1.3 9.17 4.6v.1c0 2.7-2.85 4.1-6.48 4.5l8.07 7.3h-3.49l-7.75-7.2h-3.96v7.2h-3.16zm8.07 7.7c3.8 0 5.7-1 5.7-3.1v-.1c0-2.2-2.22-3-5.7-3h-4.9v6.1h4.9zM1274.48 60.4h3.01c.47 2 1.58 3.6 6.96 3.6 3.32 0 6.01-1.3 6.01-3.1s-1.42-2.7-6.33-3.2c-5.54-.5-8.7-1.6-8.7-4.6 0-2.5 3.48-4.5 8.39-4.5 5.22 0 8.54 1.6 9.02 4.6h-2.85c-.64-2.1-2.54-2.9-6.17-2.9-3.64 0-5.38 1.1-5.38 2.7s.94 2.4 6.32 3c5.86.6 8.87 1.7 8.87 4.8 0 2.8-3.8 4.9-9.02 4.9-7.12-.1-9.66-2.5-10.13-5.3M1303.44 50.5h-7.6v-1.6h18.36v1.6h-7.6v14.9h-3.16zM1217.2 72h7.91c4.9 0 8.38 1 8.38 4.3v.1c0 1.5-.94 2.8-3.95 3.5 3.8.6 5.22 1.8 5.22 4v.1c0 3.1-3.32 4.6-8.54 4.6h-9.02zm7.75 7.2c3.8 0 5.22-.9 5.22-2.9v-.1c0-1.9-1.74-2.6-5.38-2.6h-4.75v5.6zm1.11 7.8c3.79 0 5.54-1.1 5.54-3.1v-.1c0-2-1.74-3-6.02-3h-5.38V87zM1240.14 72h3.17v16.5h-3.17zM1255.33 73.6h-7.59V72h18.35v1.6h-7.59v14.9h-3.17zM1270.52 72h15.19v1.6h-12.02v5.6h9.65v1.6h-9.65v6h12.66v1.6h-15.99V72z"/></svg>