<svg xmlns="http://www.w3.org/2000/svg" width="147" height="327" fill="none"><g fill="#000" clip-path="url(#a)"><path d="M17.161 208.465a1.06 1.06 0 0 1-.215-.955.2.2 0 0 0 .022-.065 6.4 6.4 0 0 1 .16-2.371c.302-1.159.892-2.276 1.354-3.37 1.203-2.876 2.384-5.764 3.598-8.63 2.05-4.873 4.231-9.681 6.443-14.479 1.375-2.972 2.707-6.01 4.22-8.929-.987.021-1.964.043-2.953.053-3.855 3.489-8.065 7.331-11.34 10.251-2.857 2.533-5.767 5.152-7.496 8.553-1.17 2.308-1.74 4.863-2.223 7.406a124 124 0 0 0-1.869 15.273H10.9c.526 0 .913.355 1.085.827.258.697.472 1.416.666 2.136.343 1.277.612 2.586.74 3.907.119 1.277.097 2.65-.504 3.81-.784 1.513-2.696 1.877-4.242 2.05-.687.075-1.504.075-2.212-.129.762 2.457 4.059 3.757 6.83 3.219 4.972-.966 4.167-2.168 8.473-11.773.118-.258.226-.548.344-.849a11.4 11.4 0 0 1-2.76-2.103c-1.02-1.095-1.794-2.415-2.159-3.832M9.633 167.122c7.55.355 15.067.462 22.617.215.73-.022 1.46-.022 2.19-.043.076-.01.14-.021.216-.01.021 0 .032-.011.043-.011.193 0 .386 0 .58.011 11.383-.28 22.778-.076 34.15.3 1.02-2.372 2.02-4.755 3.029-7.137 3.254-7.664 6.809-15.23 10.804-22.539 1.59-2.92 3.04-5.893 6.035-7.599 3.018-1.707 6.691-1.879 9.977-.849 3.104.977 5.992 2.963 7.743 5.732 2.04 3.22 1.365 6.515.666 10.046-1.385 7.019-3.286 13.985-5.273 20.886 1.182.376 2.481.451 3.705.558 2.223.204 4.446.333 6.669.429 7.55.355 15.068.462 22.617.215 1.063-.032 2.138-.042 3.201-.064q.126-.147.268-.28c4.339-3.841 6.648-9.004 7.84-14.521V119.2c-.441-4.015-.945-8.018-1.407-12.021-1.299-11.151-1.579-22.142-.376-33.337.429-3.992 1.074-7.942 1.783-11.88V0H44.117C37.877.45 31.65.998 25.41 1.46a3.7 3.7 0 0 1-.601.236c-6.852 1.889-14.348.408-20.899 2.383C1.815 7.878.634 12.236 0 16.647v149.681c.967.204 1.987.268 2.953.365 2.223.204 4.457.322 6.68.429m90.919-80.711c.033.01.301.085.333.085.172.065.355.13.515.204.011 0 .291.15.323.162.15.085.29.182.429.279.774.536 1.44 1.062 1.955 1.749.247.322.419.655.569 1.041.032.075.043.108.054.118q0 .03.032.14l.129.58c.14.633.279 1.287.473 1.899-.011.43-.033.848-.076 1.267a14.3 14.3 0 0 1-1.03 3.8 8.7 8.7 0 0 1 1.739-.205c.258.172.548.3.859.376 1.139.268 2.352 1.073 3.308 1.825.58.45 1.289 1.084 1.782 1.674.398 1.287.237 2.704-.3 3.971-.215.29-.44.568-.688.837-.311.354-.515.537-.966.944a23 23 0 0 1-2.696 2.061c-.193.129-.397.258-.601.387-.096.064-.462.279-.516.322-2.416 1.406-5.015 2.135-7.7 2.865-1.868.505-3.693 1.192-5.616 1.471-1.901.278-3.759 0-5.585.698-.032.01-.064.031-.096.042-.215 0-.419.011-.634 0-.72.537-2.051.118-1.911-1.03a47 47 0 0 1 1.943-8.747c.269-.559.538-1.106.806-1.653 1.02-2.104 1.793-4.282 2.749-6.408 1.096-2.437 2.986-4.38 4.586-6.482.247-.322.354-.655.387-.977.139-.172.278-.322.429-.494a1.9 1.9 0 0 0 .74-.622c.151-.215.323-.408.484-.612a8.6 8.6 0 0 1 1.257-.923 4.8 4.8 0 0 1 2.491-.655c.022.01.033.01.043.01M44.965 35.3c.344-.634.57-1.385.548-2.287-.01-.633.032-1.266.065-1.9.279-1.255.622-2.479 1.116-3.638a11.4 11.4 0 0 1 3.92-4.883c.033-.01.054-.032.086-.054.086-.021.71-.279.774-.3.43-.14.87-.258 1.31-.355.032-.01.784-.128.87-.15a16 16 0 0 1 1.245-.075c2.299-.064 4.35 0 6.369.58.956.279 1.761.665 2.62 1.191.172.107.236.14.28.161.042.043.118.107.257.225.376.312.741.634 1.096.956 1.192 1.051 2.405 2.103 3.683 3.026.602.838 1.17 1.696 1.675 2.576 1.633 2.877 2.76 5.86 3.502 8.92a21 21 0 0 1 3.092-2.92 6.8 6.8 0 0 0 2.213-.515c2.61-1.127 6.153-1.299 9.106-1.235 1.794.043 4.082.258 5.907.677 2.642 1.953 4.393 4.926 5.177 8.189-.011.88-.044 1.75-.119 2.63-.107 1.137-.236 1.813-.526 3.24a57 57 0 0 1-1.052 4.187 66 66 0 0 1-1.214 3.735 69 69 0 0 1-.602 1.631c-.096.258-.482 1.213-.547 1.374-2.674 6.246-6.69 11.452-10.868 16.754-2.91 3.703-5.488 7.684-8.828 11.023-3.297 3.294-7.335 5.43-9.89 9.466-.044.075-.076.15-.119.226-.419.3-.805.633-1.224.922-.612 2.093-3.834 3.21-5.22.762a114.7 114.7 0 0 1-8.902-19.898c-.29-1.47-.559-2.941-.827-4.39-1.053-5.581-2.717-10.97-3.93-16.507-1.386-6.343-.516-12.87-.473-19.298.01-.988-.258-1.803-.666-2.458 0-.537.043-1.062.096-1.588"/><path d="M40.283 201.639c-.88-1.255-1.45-2.726-1.45-4.271 0-1.181.376-2.222.817-3.284l3.383-8.115c2.287-5.494 4.628-10.925 7.195-16.249l-12.92-.161c-.654.011-1.31.032-1.965.043-1.976 3.596-3.608 7.406-5.316 11.12-1.933 4.207-3.823 8.424-5.627 12.686 1.686.45 3.372.912 5.058 1.362.59.162.945.806.784 1.385a44 44 0 0 1-.709 2.297c-.934 2.834-1.954 5.882-3.683 8.34-.902 1.287-1.869 2.049-3.437 2.339a11 11 0 0 1-2.524.194c1.053 1.846 3.115 3.219 5.037 3.831 1.643.515 3.448.644 5.048-.075 1.589-.708 2.824-2.072 3.93-3.37 2.223-2.619 4.253-5.377 6.38-8.072M52.762 169.473a176 176 0 0 0-3.555 7.492c-1.514 3.402-2.867 6.869-4.295 10.303 1.546.472 3.103.945 4.65 1.428.644.193.88.772.784 1.385a22 22 0 0 1-.355 1.835c-.547 2.447-1.331 5.065-2.856 7.094-.784 1.052-1.794 1.996-3.104 2.318a5 5 0 0 1-.977.118 9 9 0 0 0 2.438 1.739c6.014-5.903 11.501-12.278 15.958-19.577 2.717-4.443 4.94-9.079 7.013-13.791-5.24-.183-10.47-.291-15.7-.344"/><path d="M110.754 169.269c-2.868-.161-6.207-.065-8.967-.976l-1.643 5.667c-1.364 4.711-3.007 9.337-4.833 13.888a318 318 0 0 1-2.588 6.247c-1.053 2.5-2.889 4.797-4.382 7.062-6.765 10.282-12.801 21.004-18.697 31.801-.698 1.278-2.642.14-1.944-1.137.161-.301.333-.602.494-.902a809 809 0 0 1 8.516-15.176c4.05-7.041 8.495-13.771 12.866-20.608 1.3-2.028 2.116-4.325 3.018-6.547a184 184 0 0 0 2.438-6.257c1.686-4.615 3.029-9.306 4.328-14.038 1.256-4.573 2.577-9.124 3.791-13.706 1.192-4.508 2.459-9.124 3.018-13.76.794-6.569-7.776-10.851-13.338-9.521-1.698.409-3.427 1.31-4.586 2.641-.924 1.062-1.58 2.469-2.267 3.692-1.879 3.338-3.608 6.751-5.283 10.186-3.576 7.33-6.583 14.843-9.827 22.314-3.221 7.426-7.077 14.575-11.845 21.122-9.107 12.471-21.242 22.142-33.077 31.877-.269.225-.57.289-.849.268-8.71 8.64-13.026 15.488-14.423 25.416C7.84 269.021 7.605 271.693 7.422 327l60.773-9.414c-1.052-50.981.892-38.809 16.571-51.538 5.262-4.272 36.31-24.396 39.789-30.213 4.94-8.265 4.887-9.714 4.65-19.33l-4.027-46.753c-.44 0-.891 0-1.332-.011-4.371-.096-8.73-.225-13.091-.472m-39.66 17.355c.28-.515 1.052-.73 1.546-.408.73.473 1.493.891 2.277 1.267.161.075.312.139.472.214.011.011.033.011.044.022.085.032.182.075.268.107.333.129.666.236 1.01.322.15.043.3.075.461.097h.022c.085 0 .161.01.247.021.064 0 .3-.032.376-.021.064-.011.128-.032.204-.054.6-.203 1.213.237 1.385.784.194.601-.226 1.191-.784 1.384-1.514.515-3.275-.214-4.65-.837a18.4 18.4 0 0 1-2.47-1.352c-.537-.355-.709-.977-.408-1.546m27.418-52.366 1.546.526c.601.204 1.128.558 1.718.956 1.321.88 2.051 2.286 2.116 4.056.032 1.02-.172 2.018-.365 2.973l-.076.376c-.096.483-.257.945-.429 1.428l-.526 1.61c-.291.686-1.761 5.656-2.503 6.955-.257.461-.751 1.309-1.922.922a13 13 0 0 1-.42-.16c-4.005-1.772-7.914-3.543-11.63-5.732-1.138-.665-1.331-1.288-.772-2.511.676-1.482 1.45-3.166 2.18-4.852.901-2.071 2.147-3.832 3.704-5.258 1.622-1.482 3.212-2.104 4.854-1.901.913.108 1.794.366 2.525.612m-29.373 57.797c.237.236.505.451.763.665.032.022.053.044.086.065 0 0 .129.097.16.118.162.118.334.236.495.354.376.258.752.494 1.149.709 1.88 1.051 4.07 1.684 6.293 1.244.602-.118 1.214.162 1.386.784.15.558-.194 1.266-.784 1.384-3.984.784-8.291-.922-11.137-3.734-1.042-1.02.558-2.619 1.59-1.589"/><path d="M90.178 140.452c-.408.869-.826 1.727-1.31 2.715l-.752 1.545a56 56 0 0 0-.773 1.642c1.976 1.256 8.087 4.336 11.04 5.56l1.096-3.338c.386-1.18.762-2.351 1.127-3.531l.333-1.063c.366-1.137.73-2.318.977-3.488.269-1.288-.096-2.329-1.042-3.005-.719-.516-1.503-.902-2.416-1.202-.483-.161-1.01-.29-1.557-.398-1.621-.3-2.91.022-4.049 1.031a10.2 10.2 0 0 0-2.674 3.532M19.6 207.028a8 8 0 0 0 1.6.011c.278-.022.558-.076.837-.129.204-.044.408-.108.623-.151-.011 0 .075-.022.129-.042a3 3 0 0 0 .214-.119c.033-.021.054-.032.086-.054l.011-.01c.172-.15.333-.322.494-.494.193-.214.226-.279.44-.59.183-.268.344-.537.505-.816.688-1.202 1.246-2.479 1.75-3.767a63 63 0 0 0 1.45-4.229c-1.729-.462-3.458-.934-5.176-1.395-.032-.011-.043-.022-.075-.033l-4.06 11.538c.355.14.784.237 1.171.28M6.83 221.517c-.01 0-.032-.011-.032 0 0 0 .032.01.075.021h-.01c-.011-.011-.022-.011-.033-.021M6.894 221.549c-.01 0-.02 0-.032-.011.129.075.086.043.032.011"/><path d="M6.83 221.517c.022 0 .044.01.065.021.15.043.419.118.44.129.065.011.312.032.022.011.064 0 .118.011.182.021.172.011.344.021.516.011.462-.011.73-.054 1.181-.15q.37-.08.741-.194c.15-.042.3-.096.451-.15.032-.011.118-.054.161-.065.043-.021.076-.042.118-.064.022-.021.043-.043.065-.053.043-.043.054-.043.064-.054s0-.022.022-.053c.043-.076.086-.162.14-.247.01-.044.032-.086.042-.14l.097-.354c.01-.043.032-.215.054-.279 0-.075.021-.247.021-.301.011-.257.022-.504.011-.762-.01-.322-.032-.633-.065-.945-.01-.064-.01-.139-.021-.203 0-.011-.01-.075-.01-.108-.011-.042-.044-.289-.054-.354-.215-1.288-.559-2.554-.956-3.8H6.83c-.022 0-.033-.01-.054-.01l-.387 7.932c.108.021.28.064.44.161M6.862 221.538c.01.011.021.011.032.011-.021-.011-.043-.022-.064-.022.01 0 .021 0 .032.011M43.108 189.072l-2.492 9.197a.7.7 0 0 1 .28.108c.182.129.375.247.58.365.064.032.354.182.407.214.269.108.559.183.849.237.064 0 .193.011.247.011.096 0 .43-.055.333-.022.096-.022.182-.033.279-.064.075-.022.15-.054.215-.076.204-.118.397-.225.59-.364.054-.044.161-.14.204-.162.097-.096.194-.182.29-.289.097-.097.183-.204.28-.311.043-.054.064-.076.075-.087s.021-.031.064-.096c.172-.247.333-.494.483-.752.15-.267.301-.536.44-.804.065-.14.14-.28.205-.419.021-.054.096-.225.129-.29.021-.053.086-.204.086-.225.021-.054.042-.118.064-.172.054-.15.108-.29.161-.44.097-.258.183-.526.269-.783.343-1.074.612-2.179.827-3.285-1.633-.504-3.254-.998-4.865-1.491"/></g><defs><clipPath id="a"><path fill="#fff" d="M0 0h147v327H0z"/></clipPath></defs></svg>