<svg xmlns="http://www.w3.org/2000/svg" width="86" height="158" fill="none"><path fill="#000" d="M69.082 158c-9.472 0-41.757-1.864-44.258-2.545-.153-.431-.315-.861-.477-1.299 0 0-1.403-3.683-1.682-4.43l-.98-2.626c-.576-1.555-1.17-3.17-1.781-4.746-.387-.997-.81-1.999-1.224-2.976-.207-.498-.8-1.899-.8-1.899-.243-.586-.486-1.171-.702-1.75-.378-1.017-.747-2.034-1.116-3.05a222 222 0 0 0-2.23-5.938c-.81-2.04-1.53-4.14-2.231-6.167-.423-1.225-.855-2.491-1.305-3.737-.377-1.043-.827-2.08-1.259-3.083a74 74 0 0 1-.81-1.906A109 109 0 0 1 3.64 97.892c-.666-2.62-1.035-5.023-1.125-7.366-.054-1.373-.09-2.753-.126-4.127l-.009-.249c-.045-1.71-.098-3.454-.161-5.164a333 333 0 0 0-.46-8.94c-.062-.943-.18-1.9-.287-2.828-.081-.673-.162-1.306-.225-1.94-.09-1.002-.162-2.019-.234-3.002l-.225-2.982c-.135-1.69-.26-3.407-.342-5.09-.17-3.521-.27-6.625-.323-9.48-.036-2.201-.01-4.591.09-7.311.045-1.347.143-2.713.242-4.04.054-.74.108-1.474.153-2.215.027-.397.036-.794.054-1.192.018-.525.036-.969.063-1.413.018-.303.063-.613.1-.91.026-.228.062-.457.08-.68l.324-3.379c.135-1.454.477-2.605 1.07-3.622.522-.895 1.134-1.387 1.962-1.596a7.5 7.5 0 0 1 1.763-.235c.854 0 1.637.202 2.311.599 1.35.794 2.222 1.878 2.582 3.225l.243.875c.225.774.44 1.542.567 2.303.252 1.595.386 3.009.422 4.322.028 1.192.207 2.376.378 3.514.063.404.126.808.18 1.219.1.72.18 1.434.261 2.154.108.943.225 1.92.369 2.875.216 1.468.477 2.949.729 4.383l.368 2.148c.216 1.239.432 2.518.675 3.77.315 1.622.675 3.346 1.133 5.433a.62.62 0 0 1-.116.552c-.873 1.239-1.413 2.565-1.61 3.959-.235 1.622-.243 3.32-.055 5.184l.09.942c.1 1.037.207 2.115.405 3.172.243 1.279.53 2.571.819 3.824.26 1.164.503 2.262.72 3.352.476 2.404 1.214 4.794 1.924 7.11.27.868.531 1.724.783 2.579.504 1.71.953 3.09 1.43 4.329.27.693.63 1.36.99 2.006.126.222.252.451.369.673.63 1.192 1.439 2.579 2.671 3.831 1.394 1.414 3.194 2.289 5.344 2.585.45.061.908.095 1.358.095 1.106 0 2.213-.182 3.274-.546 1.179-.404 2.321-.875 3.418-1.34.216-.094.306-.1.36-.1s.126.013.207.047c.936.356 2.015.579 3.4.7.333.027.666.04.99.04 1.916 0 3.724-.491 5.532-1.501 2.096-1.172 3.418-2.74 4.066-4.794q.216-.697.459-1.393c.207-.626.387-1.152.548-1.677q.055-.149.081-.31c.261.283.522.56.792.842.54.572 1.08 1.145 1.583 1.717.89 1.017 1.584 2 2.114 3.003.477.895 1.206 1.67 1.916 2.376.225.216.432.445.648.667.603.64 1.214 1.286 2.042 1.818.072.06.126.101.189.127 0 0 2.708 1.556 3.643 2.088.234.128.486.255.791.289.082.014.171.014.27.014.243 0 .585-.041.828-.216.189-.135.279-.31.27-.491-.01-.216-.171-.424-.45-.6l-.783-.491c-.701-.438-1.42-.889-2.15-1.306-.764-.438-1.556-.93-2.14-1.555l-.666-.707c-.62-.667-1.196-1.273-1.736-1.879-.162-.175-.279-.37-.405-.579-.08-.12-.153-.242-.234-.363l-.521-.768c-.504-.754-1.008-1.508-1.566-2.195-.377-.47-.836-.929-1.232-1.333a21 21 0 0 1-.98-1.043c-.738-.855-1.44-1.677-1.962-2.532-1.232-2.026-3.256-3.42-6.206-4.268-3.446-.99-7.098-2.08-10.462-3.602-1.188-.539-2.096-1.017-2.87-1.522-2.96-1.932-5.289-3.904-7.133-6.039a8.9 8.9 0 0 1-1.601-2.706c-.225-.593-.19-1.246.126-2.047.323-.828.863-1.622 1.69-2.47l.226.134c.476.242.926.471 1.358.727 2.258 1.36 4.813 2.437 7.061 3.393 1.16.492 2.465.963 3.86 1.4.557.176 1.133.27 1.7.357.27.048.54.088.8.142.126.027.261.04.387.04.522 0 .953-.242 1.106-.633.441-1.09.855-2.181 1.242-3.198a5 5 0 0 0 .153-.505c1.583.317 3.202.526 4.84.613.998.054 3.21.182 3.21.182 1.305.074 2.636.155 3.959.215 1.898.095 3.499.633 4.911 1.65 1.538 1.11 2.924 2.43 4.237 4.046q.513.638 1.025 1.286a85 85 0 0 0 1.845 2.29c.836.975 1.709 1.904 2.59 2.753.585.565 1.269 1.063 1.925 1.548l.252.189c.585.43 1.206.855 1.907 1.292.729.458 1.412 1.01 2.213 1.798l.144.141c1.385 1.36 2.816 2.767 3.985 4.269 1.151 1.488 1.745 3.077 2.168 4.437.459 1.487.369 3.023.288 4.51l-.054.95a27 27 0 0 1-.972 6.086l-.099.283c-.315 1.124-.647 2.289-1.061 3.413-.53 1.468-1.098 2.956-1.637 4.39-.72 1.905-1.422 3.77-2.078 5.608-.378 1.05-.657 2.128-.927 3.164 0 0-.252.957-.369 1.36l-.459 1.61a118 118 0 0 0-1.097 3.998c-.36 1.421-.692 2.876-1.016 4.282l-.504 2.175-.468 1.946c-.315 1.306-.639 2.612-.908 3.912-.243 1.157-.441 2.336-.639 3.48l-.288 1.697c-.054.276-.099.518-.162.734-.225.842-.423 1.676-.432 2.558 0 .309-.08.646-.153.97l-.054.222c-.458 2.12-.62 4.369-.494 7.062.009.162 0 .316-.01.465-.224.026-.755.06-1.933.06"/><path fill="#000" d="M73.31 77.957a19 19 0 0 1-1.152-1.111c-.72-.768-1.656-1.791-2.456-2.855-1.305-1.724-2.843-3.366-4.192-4.814-1.448-1.548-3.149-2.531-5.2-3.03-1.097-.262-2.293-.43-3.76-.531h-.017v-.121c-.01-.532-.019-.936.008-1.354.117-1.589-.026-3.285-.45-5.345-.242-1.185-.377-2.27-.395-3.306-.054-3.185.08-6.639.405-10.564.054-.632.045-1.285.036-1.912-.01-.377-.01-.74-.01-1.104a54 54 0 0 1 .055-1.703s.36-11.351.377-12.274c.027-.969.046-1.932.064-2.901.035-2.013.08-4.094.197-6.134.144-2.545.441-4.477.954-6.254.063-.216.09-.431.117-.646a3.4 3.4 0 0 1 .072-.478c.153-.674.288-1.354.422-2.027.333-1.663.675-3.38 1.269-5.023.288-.794.648-1.535 1.08-2.201.764-1.172 2.14-1.912 4.092-2.188.441-.047.918-.081 1.422-.081.161 0 .323.007.485.013 1.152.048 2.006.458 2.708 1.293a8.7 8.7 0 0 1 1.196 1.905c1.16 2.559 1.287 5.205 1.323 7.911.009.835.018 1.677.018 2.512.009 1.838.018 3.736.099 5.6.063 1.442.216 2.876.368 4.27.063.538.117 1.077.171 1.615.045.411.09.815.144 1.226.1.787.19 1.521.225 2.242.18 3.453.405 7.991.513 12.529a85 85 0 0 1-.009 3.373v.121c-.01.889-.027 1.804-.018 2.713.009.91-.081 1.838-.171 2.74-.054.586-.117 1.185-.153 1.778-.045.841-.063 1.697-.08 2.518-.019.62-.028 1.245-.055 1.865l-.108 2.302c-.054.976-.108 1.98-.135 2.97l-.036 1.03c-.08 2.255-.162 4.584.036 6.893.036.37.045.748.063 1.118.018.317.027.593.045.869zM31.742 99.319c-.936 0-1.916-.141-3.023-.431-.737-.195-1.403-.586-2.032-1.198-1.17-1.131-1.952-2.417-2.654-3.636a25.7 25.7 0 0 1-2.528-6.093c-.342-1.239-.72-2.498-1.08-3.71-.395-1.32-.8-2.686-1.16-4.032-.27-.997-.476-2.02-.683-3.003-.117-.552-.225-1.09-.342-1.63-.135-.599-.279-1.204-.432-1.804-.288-1.178-.585-2.397-.782-3.588-.55-3.3-.621-6.012-.216-8.524.189-1.191.422-2.174.962-3.103.558-.97 1.44-1.684 2.627-2.121.45-.168 1.034-.222 1.43-.242.558-.034 1.07-.054 1.565-.054 1.754 0 3.248.229 4.57.7.783.276 1.367.6 1.8.996.89.815 1.681 1.556 2.392 2.343.35.39.522.855.665 1.36a7.5 7.5 0 0 0-1.448-.141c-.99 0-1.997.195-3.058.599-2.213.835-3.608 2.222-4.264 4.242-.18.552-.369 1.212-.423 1.878-.08.929.279 1.79.684 2.66.845 1.817 2.438 3.265 3.985 4.665a37 37 0 0 0 5.38 4.046c.116.068.16.121.152.31l-.009.168c-.063 1.4-.126 2.848-.17 4.275-.037.97-.055 1.946-.073 2.916l-.027 1.306-6.9 1.124c-.62.101-1.25.202-1.861.323-.873.175-1.25.66-1.026 1.34a13.8 13.8 0 0 0 1.547 3.272c.765 1.178 1.862 2.195 3.338 3.104 1.205.74 2.581.841 3.778.841l.477-.006q.31-.012.62-.034c.162-.013.324-.027.495-.027.873-.027 1.637-.242 2.294-.478l.189.128c-.396.202-.81.357-1.215.512-.189.074-.378.141-.567.215a8.4 8.4 0 0 1-2.977.532M54.05 65.548c-.737-.04-1.439-.074-2.15-.094-3.004-.088-5.927-.754-8.752-1.394l-.477-.108c-1.754-.397-3.508-.8-5.253-1.205l-2.024-.464c-.216-.525-.252-.936-.117-1.34a17.4 17.4 0 0 1 2.438-4.86c.764-1.071 1.88-1.832 3.4-2.337a13.7 13.7 0 0 1 4.345-.694c1.412 0 2.87.196 4.453.606.81.209 1.385.66 2.042 1.178l.252.203c1.07.834 1.376 1.938 1.619 3.103.234 1.098.404 2.215.575 3.3l.108.693c.045.282.063.599.054.99-.018.66-.045 1.319-.08 2.012l-.019.438z"/><path fill="#000" d="M42.356 98.275c-1.16 0-2.204-.249-3.175-.76-1.88-.99-2.96-2.39-3.302-4.282-.216-1.206-.216-2.438-.216-3.636 0-.64 0-1.28-.036-1.919-.054-1.225.045-2.477.144-3.683.063-.76.126-1.521.153-2.275.01-.344.01-.694.01-1.064l.233.108c.792.35 1.53.673 2.276.983 2.77 1.138 5.154 2.006 7.763 2.565 1.034.222 2.366.559 3.463 1.212.567.336.98.686 1.26 1.063l.728.963c.261.357.351.667.297 1.003a18.3 18.3 0 0 1-1.115 3.932c-.171.411-.378.822-.585 1.219-.198.37-.387.74-.549 1.118-.494 1.13-1.664 1.891-2.851 2.538-1.089.592-2.42.76-3.688.875-.28.034-.55.04-.81.04m-4.965-5.925c-.01.29-.018.566.026.842l.036.222c.081.552.171 1.125.441 1.67.468.943 1.323 1.575 2.483 1.818.513.108.98.209 1.457.209l1.233.006c.584 0 1.277-.013 1.979-.114 1.241-.182 2.24-.801 3.049-1.885a7.3 7.3 0 0 0 1.421-3.495c.135-1.036.288-2.08.423-3.002.117-.754-.18-1.064-1.151-1.219-3.203-.518-6.432-.788-9.742-1.037-.126-.013-.243-.013-.342-.013-.936 0-1.089.545-1.17.841-.224.835-.117 3.777-.161 4.195zM42.122 68.996c-.522-.122-.918-.21-1.295-.31-1.485-.39-2.843-.963-4.327-1.616l-1.062-.458c-.962-.417-1.934-.835-2.87-1.279a100 100 0 0 1-2.85-1.44l-.613-.317c.666-.317 1.215-.465 1.782-.492.09-.006.189-.006.287-.006.738 0 1.494.127 2.312.397 1.026.337 2.096.606 3.122.862l.53.134c1.548.39 3.104.775 4.678 1.165l1.484.37zM32.524 96.727c-1.52-.007-2.671-.444-3.418-1.293-1.098-1.259-2.222-2.605-2.906-4.066.378-.081.729-.155 1.098-.209 1.79-.27 3.589-.525 5.388-.78l.855-.122c-.01.303-.01.539.009.774.054.822.126 1.778.233 2.727.081.76.414 1.515 1.035 2.37l.279.39a5 5 0 0 1-1.07.175c-.36.027-.756.034-1.269.034z"/><path fill="#000" d="M42.761 95.549a8 8 0 0 1-1.808-.196c-.755-.174-1.205-.619-1.304-1.279-.09-.599-.099-1.218-.108-1.824l-.01-.566c-.017-.626-.017-1.252-.017-1.878v-1.778c2.15.122 6.72.64 8.249.93-.045.296-.1.606-.153.908l-.162.862c-.1.546-.189 1.024-.27 1.508-.117.748-.44 1.461-.962 2.121-.522.666-1.278 1.023-2.384 1.131-.36.04-.729.06-1.07.06"/></svg>