<svg xmlns="http://www.w3.org/2000/svg" width="22" height="22" fill="none"><path fill="#000" d="M14.667 11a3.53 3.53 0 0 0-1.075-2.592A3.53 3.53 0 0 0 11 7.333a3.53 3.53 0 0 0-2.592 1.075A3.53 3.53 0 0 0 7.333 11q0 1.518 1.075 2.592A3.53 3.53 0 0 0 11 14.667a3.53 3.53 0 0 0 2.592-1.075A3.53 3.53 0 0 0 14.667 11m1.976 0q0 2.349-1.647 3.996T11 16.643t-3.996-1.647T5.357 11t1.647-3.996T11 5.357t3.996 1.647T16.643 11m1.547-5.872q0 .544-.387.93a1.27 1.27 0 0 1-.93.387q-.545 0-.932-.386a1.27 1.27 0 0 1-.386-.931q0-.545.386-.931.387-.387.931-.387.545 0 .931.387.387.386.387.93M11 1.977l-1.096-.008a78 78 0 0 0-1.51 0q-.517.008-1.383.043a11 11 0 0 0-1.475.144q-.609.107-1.024.265a3.7 3.7 0 0 0-1.26.83q-.545.544-.831 1.26a5.7 5.7 0 0 0-.265 1.025q-.108.608-.144 1.475a53 53 0 0 0-.043 1.382q-.006.516 0 1.511L1.977 11l-.008 1.096a78 78 0 0 0 0 1.51q.008.517.043 1.383.036.867.144 1.475t.265 1.024q.285.717.83 1.26.544.544 1.26.831.417.158 1.025.265t1.475.144q.867.036 1.382.043.516.006 1.511 0L11 20.023l1.096.008a77 77 0 0 0 1.51 0q.517-.008 1.383-.043.867-.036 1.475-.144t1.024-.265q.717-.286 1.26-.83.544-.544.831-1.26.158-.416.265-1.025.108-.608.144-1.475t.043-1.382a77 77 0 0 0 0-1.511L20.023 11l.008-1.096q.006-.995 0-1.51-.008-.517-.043-1.383a11 11 0 0 0-.144-1.475 5.7 5.7 0 0 0-.265-1.024 3.7 3.7 0 0 0-.83-1.26 3.7 3.7 0 0 0-1.26-.831 5.7 5.7 0 0 0-1.025-.265 11 11 0 0 0-1.475-.144 53 53 0 0 0-1.382-.043 78 78 0 0 0-1.511 0zM22 11q0 3.28-.072 4.54-.142 2.98-1.776 4.612-1.633 1.633-4.612 1.776Q14.28 22 11 22t-4.54-.072q-2.98-.142-4.612-1.776Q.215 18.52.072 15.54 0 14.28 0 11t.072-4.54q.143-2.98 1.776-4.612T6.46.072Q7.72 0 11 0t4.54.072q2.98.143 4.612 1.776t1.776 4.612Q22 7.72 22 11"/></svg>