<svg xmlns="http://www.w3.org/2000/svg" width="282" height="282" fill="none"><g clip-path="url(#a)"><path fill="#000" d="M141 282c77.872 0 141-63.128 141-141S218.872 0 141 0 0 63.128 0 141s63.128 141 141 141"/><path fill="#fff" d="m145.86 10.65 2.853.27-1.36 16.707 9.78.815-.135 2.445-12.632-1.087zM162.566 22.195c1.495-5.976 4.754-9.236 9.78-7.878 5.025 1.223 6.383 5.433 4.89 11.41-1.495 5.975-4.755 9.1-9.78 7.877-4.89-1.358-6.248-5.569-4.89-11.41m11.953 2.716c.814-3.124 1.357-7.334-2.716-8.42-4.075-.951-5.57 2.987-6.249 6.247-.814 3.124-1.358 7.335 2.717 8.421 3.939.95 5.433-3.124 6.248-6.248M184.298 17.848l2.716 1.223-.815 10.865-.678 6.384 4.073-4.89 7.2-8.285 2.715 1.087-13.718 15.076-2.852-1.222zM205.079 27.356l10.593 6.655-1.222 2.037-8.149-5.16-3.124 4.889 7.062 4.482-1.222 2.037-7.063-4.482-3.26 5.161 8.15 5.162-1.222 2.037-10.595-6.655zM227.625 59.68c5.025-4.21 7.062-3.667 8.285-2.173q1.222 1.427.407 3.26l1.087-.95 1.494 1.765-8.421 7.063c-1.087.95-1.087 1.765-.407 2.58s1.493.815 2.58 0l7.47-6.247c2.988-2.445 4.347-4.618 1.63-7.742-1.902-2.31-3.667-2.445-5.16-1.223l-1.63-1.901c1.63-1.358 5.025-2.445 8.692 1.901 4.618 5.433.678 8.829-1.902 11.002l-7.47 6.112c-2.717 2.309-4.89.815-5.976-.408-1.494-1.765-1.087-3.26-.407-4.074-1.63.407-2.853.136-3.94-1.087-1.222-1.766-1.222-3.803 3.668-7.878m.543 7.607 6.927-5.84c.272-.68.135-1.495-.272-2.174-.815-.95-1.766-.679-5.433 2.31-3.667 2.987-4.075 3.938-3.26 4.889.408.815 1.223 1.086 2.038.815M260.223 87.525l4.617 11.68-2.309.951-3.668-9.1-5.975 2.309 3.123 8.013-2.173.951-3.123-8.013-7.335 2.988-1.087-2.58zM250.85 110.75l.951 4.618 13.99-3.124-.951-4.618 2.308-.543 2.582 11.816-2.309.544-.951-4.482-13.99 3.123.951 4.483-2.309.543-2.58-11.817zM270.953 127.456l.27 4.889c.273 4.89-1.63 8.014-5.297 8.285-3.123.136-5.161-1.629-5.976-4.21l-7.198 6.383-.272-3.531 6.791-5.704-.136-2.581-7.062.407-.136-2.852zm-9.508 3.395.135 2.173c.273 3.532 1.766 4.89 3.939 4.754s3.532-1.63 3.396-5.161l-.137-2.173zM258.048 145.791l-.27 2.717c-2.173-.135-3.532 1.223-3.803 4.075-.272 2.58.543 4.346 2.58 4.483 1.493.135 2.308-.815 2.988-2.445l1.902-3.94c1.086-2.173 2.716-3.938 5.433-3.667 3.395.272 4.89 3.396 4.482 7.199s-2.445 6.383-6.384 5.976l.272-2.716c2.715.135 3.53-1.767 3.667-3.532.271-2.445-.679-3.938-2.309-4.075-1.223-.135-2.173.68-2.853 2.174l-1.901 3.938c-1.359 2.988-2.852 4.211-5.432 3.94-3.94-.407-5.298-3.667-4.89-7.607.407-4.346 2.716-6.926 6.518-6.52M265.383 172.549l1.63-6.248 2.31.678-4.075 15.213-2.31-.678 1.63-6.25-16.163-4.21.68-2.716zM253.838 207.184l-3.26 5.025c-2.173 3.395-5.433 4.753-8.148 2.853-1.63-1.087-2.174-2.582-1.767-4.483-1.358 1.086-3.531 1.901-5.568.543-2.852-1.765-2.988-5.433-.815-8.828l3.532-5.433zm-15.483-6.792-2.038 2.988c-1.63 2.581-1.087 4.347.408 5.297 1.63 1.087 3.26.543 4.89-2.037l1.9-2.988zm7.063 4.754-1.495 2.309c-1.63 2.445-1.63 4.075 0 5.162 1.495.95 3.125.678 4.754-1.902l1.63-2.445zM229.662 213.024l-3.124 3.531 10.594 9.643 3.125-3.531 1.765 1.63-8.15 8.965-1.765-1.63 3.123-3.397-10.593-9.643-3.125 3.396-1.765-1.63 8.15-8.964zM222.6 240.188l5.025-4.075 1.494 1.902-12.224 9.915-1.494-1.902 5.026-4.075-10.458-13.038 2.173-1.765zM211.191 251.598l-10.867 6.247-1.221-2.037 8.421-4.753-2.853-5.027-7.334 4.212-1.223-2.038 7.335-4.21-2.988-5.297-8.422 4.753-1.221-2.038 10.866-6.247zM174.791 264.093c.678 3.395-.952 5.297-3.125 5.705-1.765.407-3.938-.408-4.89-2.445-.135 2.173-1.765 3.803-3.53 4.21-2.038.408-4.347-.679-5.026-4.075-.815-4.075.679-10.73 5.161-16.705 6.655 3.667 10.595 9.235 11.41 13.31M132.142 271.699l-2.852-.271 1.901-16.571-9.779-1.087.272-2.445 12.495 1.495zM115.572 259.746c-1.63 5.977-5.025 8.965-10.051 7.607-4.889-1.359-6.247-5.57-4.482-11.545 1.63-5.977 5.026-8.965 10.051-7.607 4.89 1.359 6.112 5.705 4.482 11.545m-11.681-3.26c-.814 3.125-1.629 7.335 2.445 8.422 4.075 1.086 5.569-2.852 6.52-5.977.815-3.123 1.63-7.333-2.445-8.421s-5.705 2.988-6.52 5.976M93.84 263.278l-2.716-1.222 1.223-10.866.815-6.384-4.21 4.754-7.471 8.013-2.717-1.222 14.126-14.533 2.852 1.358zM73.331 253.091l-10.322-6.928 1.358-2.036 8.014 5.433 3.26-4.754-6.928-4.618 1.359-2.038 6.927 4.618 3.395-5.16-8.013-5.433 1.358-2.038 10.187 7.063zM51.872 220.086c-5.162 4.074-7.199 3.396-8.286 1.902-.814-1.088-.95-2.038-.271-3.396l-1.087.951-1.358-1.766 8.693-6.79c1.086-.815 1.222-1.767.543-2.582-.68-.815-1.494-.95-2.58 0l-7.743 5.977c-3.124 2.445-4.482 4.482-1.901 7.606 1.901 2.445 3.667 2.58 5.161 1.357l1.494 2.038c-1.765 1.358-5.025 2.309-8.557-2.173-4.346-5.568-.271-8.828 2.174-10.865l7.606-5.977c2.852-2.173 4.89-.679 5.976.679 1.358 1.766.95 3.26.271 4.075 1.63-.272 2.853 0 3.803 1.223 1.087 1.765 1.087 3.667-3.939 7.741m-.272-7.741-7.063 5.568c-.271.679-.271 1.494.272 2.173.815.951 1.765.814 5.433-2.173 3.667-2.988 4.21-3.803 3.395-4.753-.543-.68-1.358-.952-2.037-.815M20.225 191.156l-4.21-11.952 2.309-.815 3.26 9.235 5.975-2.172-2.852-8.15 2.31-.815 2.852 8.15 7.47-2.716.95 2.716zM30.276 168.338l-.815-4.617-14.126 2.58.815 4.618-2.308.407-2.174-11.952 2.31-.408.814 4.618 14.126-2.58-.815-4.618 2.309-.408 2.173 11.953zM10.718 150.953l-.136-5.025c-.136-4.89 1.765-8.014 5.568-8.15 3.124-.136 5.162 1.766 5.84 4.483l7.471-6.113.136 3.532-6.927 5.568.136 2.581 7.063-.136.135 2.853zm9.643-3.124v-2.173c-.136-3.668-1.63-4.89-3.803-4.89s-3.531 1.495-3.531 5.025v2.174zM24.164 133.025l.407-2.716c2.173.135 3.667-1.087 3.94-3.939.27-2.581-.408-4.347-2.31-4.618-1.494-.136-2.309.679-3.124 2.309l-2.037 3.938c-1.087 2.174-2.852 3.939-5.569 3.532-3.395-.408-4.754-3.667-4.346-7.335.543-3.802 2.716-6.247 6.655-5.84l-.407 2.717c-2.717-.272-3.532 1.629-3.803 3.531-.272 2.445.679 3.939 2.173 4.075 1.222.135 2.173-.544 2.988-2.038l2.037-3.939c1.494-2.988 2.988-4.21 5.569-3.803 3.939.544 5.161 3.803 4.618 7.742-.543 4.347-2.988 6.927-6.791 6.384M17.78 105.996l-1.765 6.248-2.31-.679 4.483-15.076 2.309.679-1.902 6.247 16.027 4.754-.815 2.717zM30.412 71.77l3.395-4.89c2.31-3.396 5.569-4.482 8.285-2.716 1.63 1.086 2.038 2.716 1.63 4.482 1.358-1.087 3.532-1.766 5.569-.272 2.716 1.901 2.852 5.569.543 8.964l-3.803 5.433zm8.285 2.309 1.63-2.31c1.63-2.309 1.765-3.938.136-5.16-1.359-.951-3.124-.816-4.754 1.63l-1.63 2.444zm7.063 4.89 2.037-2.989c1.766-2.58 1.222-4.346-.136-5.297-1.494-1.087-3.26-.543-4.89 1.765l-2.037 3.125zM54.86 66.744l3.26-3.395-10.323-9.915-3.26 3.395-1.765-1.63 8.42-8.828 1.766 1.63-3.26 3.395 10.323 9.915 3.26-3.395 1.765 1.63-8.42 8.828zM62.737 39.85l-5.161 3.94-1.494-1.902 12.631-9.508 1.494 1.902-5.16 3.939 10.05 13.31-2.309 1.63zM74.554 28.85l11.001-5.841 1.087 2.173-8.557 4.482 2.717 5.161 7.47-3.938 1.086 2.173-7.47 3.938 2.852 5.433 8.557-4.482 1.087 2.173-10.866 5.569zM111.226 17.44c-.544-3.395 1.222-5.297 3.259-5.568 1.766-.272 3.939.543 4.754 2.58.136-2.173 1.902-3.667 3.667-4.074 2.038-.408 4.347.815 4.89 4.21.679 4.075-1.087 10.73-5.705 16.57-6.383-3.938-10.186-9.643-10.865-13.718"/></g><path fill="#fff" d="M152.728 190.618c-4.338 0-19.124-1.166-20.269-1.591q-.106-.404-.218-.813s-.643-2.303-.77-2.77l-.449-1.642c-.264-.972-.536-1.982-.816-2.968a83 83 0 0 0-.56-1.86c-.095-.312-.367-1.187-.367-1.187-.111-.367-.222-.733-.321-1.095q-.258-.953-.511-1.907c-.326-1.221-.663-2.48-1.022-3.713-.371-1.276-.7-2.589-1.021-3.856-.194-.766-.392-1.558-.598-2.337-.173-.652-.379-1.3-.577-1.928a57 57 0 0 1-.37-1.191 87 87 0 0 1-2.101-8.727c-.305-1.638-.474-3.14-.515-4.605-.025-.859-.042-1.722-.058-2.581l-.004-.156a289.251 289.251 0 0 0-.284-8.819c-.029-.59-.083-1.187-.132-1.768-.037-.421-.074-.817-.103-1.213-.041-.627-.074-1.263-.107-1.877l-.103-1.865c-.062-1.057-.12-2.13-.157-3.183a275 275 0 0 1-.148-5.927 118 118 0 0 1 .041-4.572c.021-.842.066-1.697.111-2.526.025-.463.05-.922.07-1.385.013-.248.017-.497.025-.745.008-.328.016-.606.029-.884.008-.19.029-.383.045-.568.013-.144.029-.287.037-.426l.149-2.113c.061-.909.218-1.629.49-2.265.239-.56.519-.867.898-.998.288-.096.56-.147.807-.147.392 0 .75.126 1.059.375.618.497 1.018 1.174 1.182 2.016l.112.548c.103.484.201.964.259 1.439.115.998.177 1.882.194 2.703.012.745.094 1.486.173 2.197q.045.379.082.762c.046.451.083.897.12 1.348.049.589.103 1.199.169 1.797.098.918.218 1.844.333 2.741l.169 1.343c.099.774.198 1.574.309 2.357.144 1.015.309 2.092.519 3.397a.5.5 0 0 1-.053.346 6.9 6.9 0 0 0-.738 2.475c-.107 1.014-.111 2.075-.024 3.241l.041.59c.045.648.095 1.322.185 1.983.111.799.243 1.608.375 2.391.119.728.231 1.414.33 2.096.218 1.503.556 2.998.881 4.446q.185.813.359 1.612a44 44 0 0 0 .655 2.707c.123.434.288.85.453 1.255.057.138.115.282.169.421.288.745.659 1.612 1.223 2.395.639.884 1.463 1.431 2.447 1.616.206.038.416.059.622.059.507 0 1.014-.113 1.5-.341a21 21 0 0 0 1.565-.837c.099-.059.14-.063.165-.063q.038-.001.095.029c.428.223.923.362 1.557.438q.23.025.453.025c.878 0 1.706-.307 2.534-.939.96-.732 1.565-1.713 1.862-2.997q.099-.436.21-.872c.095-.391.177-.719.251-1.048q.025-.094.037-.193.178.262.363.526c.247.358.494.715.725 1.073.408.636.725 1.251.968 1.878.218.56.552 1.044.877 1.486.103.135.198.278.297.417.276.4.556.804.935 1.136a.4.4 0 0 0 .087.08s1.24.973 1.668 1.305c.107.08.223.16.363.181a.5.5 0 0 0 .123.009.54.54 0 0 0 .379-.135.4.4 0 0 0 .124-.307c-.004-.135-.078-.265-.206-.375l-.359-.307c-.321-.274-.65-.556-.984-.817-.35-.274-.713-.581-.981-.972l-.304-.442c-.285-.417-.548-.796-.796-1.175-.074-.109-.127-.231-.185-.362-.037-.076-.07-.152-.107-.227l-.239-.48c-.231-.472-.461-.943-.717-1.373-.173-.294-.383-.581-.564-.833-.153-.211-.309-.43-.449-.653-.338-.534-.659-1.048-.898-1.583-.565-1.267-1.492-2.138-2.843-2.669-1.578-.618-3.25-1.3-4.791-2.252-.544-.337-.96-.635-1.314-.951-1.355-1.208-2.422-2.442-3.267-3.776a6.3 6.3 0 0 1-.733-1.693c-.103-.37-.087-.779.057-1.279.149-.518.396-1.015.775-1.545l.103.084c.218.151.424.294.622.454 1.034.851 2.204 1.524 3.234 2.122.531.307 1.129.602 1.767.876.256.109.519.168.779.223.123.029.247.055.366.088.058.017.12.026.178.026a.52.52 0 0 0 .506-.396c.202-.682.392-1.364.569-2 .029-.105.049-.206.07-.316.725.198 1.466.329 2.216.384.457.033 1.471.113 1.471.113.597.046 1.207.097 1.812.135.87.059 1.603.396 2.25 1.031.704.695 1.339 1.52 1.94 2.53q.235.4.47.804c.292.51.564.977.844 1.432.383.61.783 1.191 1.187 1.722.268.353.581.665.881.968l.116.118c.267.269.552.534.873.808.334.286.647.631 1.013 1.124l.066.088c.635.851 1.29 1.731 1.825 2.669.528.931.8 1.924.993 2.775.21.93.169 1.89.132 2.82l-.025.594a22.4 22.4 0 0 1-.445 3.805l-.045.177a36 36 0 0 1-.486 2.135c-.243.917-.503 1.848-.75 2.744-.329 1.192-.651 2.358-.951 3.507-.173.657-.301 1.33-.425 1.979 0 0-.115.598-.169.85l-.21 1.006c-.173.821-.35 1.667-.502 2.501-.165.888-.318 1.797-.466 2.677l-.231 1.36-.214 1.217c-.144.816-.292 1.633-.416 2.446-.111.724-.202 1.46-.292 2.176l-.132 1.061c-.025.172-.046.324-.074.459-.103.526-.194 1.048-.198 1.599 0 .194-.037.405-.07.607l-.025.139c-.21 1.326-.284 2.732-.226 4.416q.004.151-.005.29c-.103.017-.346.038-.885.038"/><path fill="#fff" d="M154.664 140.568a11 11 0 0 1-.528-.695c-.329-.48-.758-1.12-1.124-1.785-.598-1.078-1.302-2.105-1.92-3.01-.663-.968-1.442-1.583-2.381-1.894-.503-.164-1.051-.27-1.722-.333h-.009v-.076c-.004-.332-.008-.585.005-.846.053-.993-.013-2.054-.206-3.342a15 15 0 0 1-.182-2.067c-.024-1.992.037-4.151.186-6.605.024-.396.02-.805.016-1.196-.004-.236-.004-.463-.004-.69.004-.354.012-.712.025-1.066 0 0 .165-7.097.173-7.674q.017-.907.029-1.814c.016-1.259.037-2.56.09-3.835.066-1.592.202-2.8.437-3.911.029-.135.041-.27.054-.404.008-.114.016-.207.032-.3.071-.42.132-.846.194-1.267.153-1.04.309-2.113.581-3.14.132-.497.297-.96.494-1.377.35-.732.981-1.195 1.875-1.368.202-.03.42-.05.651-.05q.111.001.222.008c.527.03.919.286 1.24.808.223.37.404.762.548 1.192.531 1.6.589 3.254.606 4.946.004.522.008 1.049.008 1.57.004 1.15.008 2.337.045 3.503.029.901.099 1.798.169 2.669q.043.506.078 1.01.03.384.066.767c.046.492.087.951.103 1.401.083 2.16.186 4.997.235 7.835a74 74 0 0 1-.004 2.109v.076c-.004.555-.012 1.128-.008 1.696a21 21 0 0 1-.079 1.714c-.024.366-.053.741-.07 1.111-.02.526-.028 1.061-.037 1.574-.008.388-.012.779-.024 1.167l-.05 1.439a94 94 0 0 0-.062 1.857l-.016.644c-.037 1.41-.074 2.867.016 4.311.017.231.021.467.029.699.008.197.013.37.021.543zM135.627 153.925c-.428 0-.878-.088-1.384-.269-.338-.122-.643-.366-.931-.75-.536-.707-.894-1.511-1.216-2.273a19.7 19.7 0 0 1-1.157-3.81c-.157-.774-.33-1.562-.494-2.319-.182-.825-.367-1.68-.532-2.522-.124-.623-.218-1.263-.313-1.877-.054-.346-.103-.682-.157-1.019a48 48 0 0 0-.197-1.128 41 41 0 0 1-.359-2.244c-.251-2.063-.284-3.76-.099-5.33.087-.745.194-1.36.441-1.941.256-.606.659-1.052 1.203-1.326.206-.105.474-.139.655-.151.256-.021.49-.034.717-.034.803 0 1.487.143 2.093.438.358.173.626.375.824.623.408.509.77.972 1.095 1.465.161.244.239.535.305.85a2.6 2.6 0 0 0-.663-.088c-.453 0-.914.122-1.401.375-1.013.522-1.652 1.389-1.952 2.652a7 7 0 0 0-.194 1.174c-.037.581.128 1.12.313 1.663.387 1.137 1.117 2.042 1.825 2.918a18.7 18.7 0 0 0 2.464 2.53c.053.042.074.075.07.193l-.004.106c-.029.875-.058 1.78-.079 2.673-.016.606-.024 1.216-.033 1.823l-.012.816-3.16.703c-.284.063-.572.127-.853.202-.399.11-.572.413-.469.838.185.775.42 1.44.709 2.046.35.737.852 1.372 1.528 1.941.552.463 1.182.526 1.73.526l.218-.004q.143-.008.285-.021.11-.015.226-.017c.4-.017.75-.152 1.051-.299l.086.08c-.181.126-.371.223-.556.32-.086.046-.173.088-.259.135a2.96 2.96 0 0 1-1.364.332M145.844 132.809a29 29 0 0 0-.985-.059c-1.376-.054-2.714-.471-4.008-.871l-.218-.067q-1.207-.374-2.406-.754l-.927-.29c-.099-.329-.116-.586-.054-.838a12.8 12.8 0 0 1 1.117-3.04 3.16 3.16 0 0 1 1.557-1.46 4.8 4.8 0 0 1 1.99-.434c.646 0 1.314.122 2.039.379.371.13.634.412.935.737l.115.126c.491.522.631 1.212.742 1.941.107.686.185 1.385.264 2.062l.049.434c.021.177.029.375.025.619-.009.412-.021.825-.037 1.259l-.009.273z"/><path fill="#fff" d="M140.488 153.272a2.42 2.42 0 0 1-1.454-.475c-.861-.619-1.355-1.495-1.512-2.678-.099-.753-.099-1.524-.099-2.273 0-.4 0-.8-.016-1.2-.025-.766.021-1.549.066-2.303.029-.475.058-.951.07-1.422.004-.215.004-.434.004-.666l.107.068c.363.219.7.421 1.042.614 1.269.712 2.361 1.255 3.556 1.604.473.139 1.083.35 1.586.758.259.211.449.429.576.665l.334.602c.119.223.161.417.136.627a15 15 0 0 1-.511 2.459c-.078.257-.173.514-.268.762-.09.231-.177.463-.251.699-.227.707-.762 1.183-1.306 1.587-.498.37-1.108.476-1.689.547a2 2 0 0 1-.371.025m-2.274-3.704c-.004.181-.008.353.013.526l.016.139c.037.345.078.703.202 1.044.214.589.606.985 1.137 1.137.235.067.449.13.667.13l.565.004c.268 0 .585-.008.906-.071.569-.114 1.026-.501 1.397-1.179a5.6 5.6 0 0 0 .651-2.185c.061-.648.131-1.301.193-1.877.054-.472-.082-.666-.527-.762-1.467-.325-2.946-.493-4.462-.649q-.087-.01-.156-.008c-.429 0-.499.341-.536.526-.103.522-.053 2.362-.074 2.623zM140.382 134.965c-.239-.076-.421-.13-.594-.194-.679-.244-1.301-.602-1.981-1.01l-.486-.286c-.441-.261-.886-.522-1.314-.8a42 42 0 0 1-1.306-.901l-.281-.198c.305-.198.557-.29.816-.307q.063-.005.132-.004c.338 0 .684.08 1.059.248.469.211.96.379 1.429.539l.243.084c.709.244 1.422.484 2.142.728l.68.232zM135.986 152.305c-.696-.004-1.224-.278-1.565-.808-.503-.788-1.018-1.63-1.331-2.543.173-.051.333-.097.502-.131q1.231-.25 2.468-.488l.391-.076c-.004.19-.004.337.005.484.024.514.057 1.112.107 1.705.037.476.189.948.473 1.482l.128.244a1.7 1.7 0 0 1-.49.11 6 6 0 0 1-.581.021z"/><path fill="#fff" d="M140.674 151.568c-.297 0-.569-.043-.828-.123-.346-.109-.552-.387-.597-.799-.042-.375-.046-.762-.05-1.141l-.004-.354q-.01-.587-.008-1.174v-1.112c.984.076 3.077.4 3.777.581-.02.185-.045.379-.07.569l-.074.538c-.045.341-.086.64-.123.943a3.4 3.4 0 0 1-.441 1.326c-.239.417-.585.64-1.092.708a3 3 0 0 1-.49.038"/><defs><clipPath id="a"><path fill="#fff" d="M0 0h282v282H0z"/></clipPath></defs></svg>