<svg xmlns="http://www.w3.org/2000/svg" width="282" height="282" fill="none"><g clip-path="url(#a)"><path fill="#000" d="M141 282c77.872 0 141-63.128 141-141S218.872 0 141 0 0 63.128 0 141s63.128 141 141 141"/><path fill="#fff" d="m145.86 10.65 2.853.27-1.36 16.707 9.78.815-.135 2.445-12.632-1.087zM162.566 22.195c1.495-5.976 4.754-9.236 9.78-7.878 5.025 1.223 6.383 5.433 4.89 11.41-1.495 5.975-4.755 9.1-9.78 7.877-4.89-1.358-6.248-5.569-4.89-11.41m11.953 2.716c.814-3.124 1.357-7.334-2.716-8.42-4.075-.951-5.57 2.987-6.249 6.247-.814 3.124-1.358 7.335 2.717 8.421 3.939.95 5.433-3.124 6.248-6.248M184.298 17.848l2.716 1.223-.815 10.865-.678 6.384 4.073-4.89 7.2-8.285 2.715 1.087-13.718 15.076-2.852-1.222zM205.079 27.356l10.593 6.655-1.222 2.037-8.149-5.16-3.124 4.889 7.062 4.482-1.222 2.037-7.063-4.482-3.26 5.161 8.15 5.162-1.222 2.037-10.595-6.655zM227.625 59.68c5.025-4.21 7.062-3.667 8.285-2.173q1.222 1.427.407 3.26l1.087-.95 1.494 1.765-8.421 7.063c-1.087.95-1.087 1.765-.407 2.58s1.493.815 2.58 0l7.47-6.247c2.988-2.445 4.347-4.618 1.63-7.742-1.902-2.31-3.667-2.445-5.16-1.223l-1.63-1.901c1.63-1.358 5.025-2.445 8.692 1.901 4.618 5.433.678 8.829-1.902 11.002l-7.47 6.112c-2.717 2.309-4.89.815-5.976-.408-1.494-1.765-1.087-3.26-.407-4.074-1.63.407-2.853.136-3.94-1.087-1.222-1.766-1.222-3.803 3.668-7.878m.543 7.607 6.927-5.84c.272-.68.135-1.495-.272-2.174-.815-.95-1.766-.679-5.433 2.31-3.667 2.987-4.075 3.938-3.26 4.889.408.815 1.223 1.086 2.038.815M260.223 87.525l4.617 11.68-2.309.951-3.668-9.1-5.975 2.309 3.123 8.013-2.173.951-3.123-8.013-7.335 2.988-1.087-2.58zM250.85 110.75l.951 4.618 13.99-3.124-.951-4.618 2.308-.543 2.582 11.816-2.309.544-.951-4.482-13.99 3.123.951 4.483-2.309.543-2.58-11.817zM270.953 127.456l.27 4.889c.273 4.89-1.63 8.014-5.297 8.285-3.123.136-5.161-1.629-5.976-4.21l-7.198 6.383-.272-3.531 6.791-5.704-.136-2.581-7.062.407-.136-2.852zm-9.508 3.395.135 2.173c.273 3.532 1.766 4.89 3.939 4.754s3.532-1.63 3.396-5.161l-.137-2.173zM258.048 145.791l-.27 2.717c-2.173-.135-3.532 1.223-3.803 4.075-.272 2.58.543 4.346 2.58 4.483 1.493.135 2.308-.815 2.988-2.445l1.902-3.94c1.086-2.173 2.716-3.938 5.433-3.667 3.395.272 4.89 3.396 4.482 7.199s-2.445 6.383-6.384 5.976l.272-2.716c2.715.135 3.53-1.767 3.667-3.532.271-2.445-.679-3.938-2.309-4.075-1.223-.135-2.173.68-2.853 2.174l-1.901 3.938c-1.359 2.988-2.852 4.211-5.432 3.94-3.94-.407-5.298-3.667-4.89-7.607.407-4.346 2.716-6.926 6.518-6.52M265.383 172.549l1.63-6.248 2.31.678-4.075 15.213-2.31-.678 1.63-6.25-16.163-4.21.68-2.716zM253.838 207.184l-3.26 5.025c-2.173 3.395-5.433 4.753-8.148 2.853-1.63-1.087-2.174-2.582-1.767-4.483-1.358 1.086-3.531 1.901-5.568.543-2.852-1.765-2.988-5.433-.815-8.828l3.532-5.433zm-15.483-6.792-2.038 2.988c-1.63 2.581-1.087 4.347.408 5.297 1.63 1.087 3.26.543 4.89-2.037l1.9-2.988zm7.063 4.754-1.495 2.309c-1.63 2.445-1.63 4.075 0 5.162 1.495.95 3.125.678 4.754-1.902l1.63-2.445zM229.662 213.024l-3.124 3.531 10.594 9.643 3.125-3.531 1.765 1.63-8.15 8.965-1.765-1.63 3.123-3.397-10.593-9.643-3.125 3.396-1.765-1.63 8.15-8.964zM222.6 240.188l5.025-4.075 1.494 1.902-12.224 9.915-1.494-1.902 5.026-4.075-10.458-13.038 2.173-1.765zM211.191 251.598l-10.867 6.247-1.221-2.037 8.421-4.753-2.853-5.027-7.334 4.212-1.223-2.038 7.335-4.21-2.988-5.297-8.422 4.753-1.221-2.038 10.866-6.247zM174.791 264.093c.678 3.395-.952 5.297-3.125 5.705-1.765.407-3.938-.408-4.89-2.445-.135 2.173-1.765 3.803-3.53 4.21-2.038.408-4.347-.679-5.026-4.075-.815-4.075.679-10.73 5.161-16.705 6.655 3.667 10.595 9.235 11.41 13.31M132.142 271.699l-2.852-.271 1.901-16.571-9.779-1.087.272-2.445 12.495 1.495zM115.572 259.746c-1.63 5.977-5.025 8.965-10.051 7.607-4.889-1.359-6.247-5.57-4.482-11.545 1.63-5.977 5.026-8.965 10.051-7.607 4.89 1.359 6.112 5.705 4.482 11.545m-11.681-3.26c-.814 3.125-1.629 7.335 2.445 8.422 4.075 1.086 5.569-2.852 6.52-5.977.815-3.123 1.63-7.333-2.445-8.421s-5.705 2.988-6.52 5.976M93.84 263.278l-2.716-1.222 1.223-10.866.815-6.384-4.21 4.754-7.471 8.013-2.717-1.222 14.126-14.533 2.852 1.358zM73.331 253.091l-10.322-6.928 1.358-2.036 8.014 5.433 3.26-4.754-6.928-4.618 1.359-2.038 6.927 4.618 3.395-5.16-8.013-5.433 1.358-2.038 10.187 7.063zM51.872 220.086c-5.162 4.074-7.199 3.396-8.286 1.902-.814-1.088-.95-2.038-.271-3.396l-1.087.951-1.358-1.766 8.693-6.79c1.086-.815 1.222-1.767.543-2.582-.68-.815-1.494-.95-2.58 0l-7.743 5.977c-3.124 2.445-4.482 4.482-1.901 7.606 1.901 2.445 3.667 2.58 5.161 1.357l1.494 2.038c-1.765 1.358-5.025 2.309-8.557-2.173-4.346-5.568-.271-8.828 2.174-10.865l7.606-5.977c2.852-2.173 4.89-.679 5.976.679 1.358 1.766.95 3.26.271 4.075 1.63-.272 2.853 0 3.803 1.223 1.087 1.765 1.087 3.667-3.939 7.741m-.272-7.741-7.063 5.568c-.271.679-.271 1.494.272 2.173.815.951 1.765.814 5.433-2.173 3.667-2.988 4.21-3.803 3.395-4.753-.543-.68-1.358-.952-2.037-.815M20.225 191.156l-4.21-11.952 2.309-.815 3.26 9.235 5.975-2.172-2.852-8.15 2.31-.815 2.852 8.15 7.47-2.716.95 2.716zM30.276 168.338l-.815-4.617-14.126 2.58.815 4.618-2.308.407-2.174-11.952 2.31-.408.814 4.618 14.126-2.58-.815-4.618 2.309-.408 2.173 11.953zM10.718 150.953l-.136-5.025c-.136-4.89 1.765-8.014 5.568-8.15 3.124-.136 5.162 1.766 5.84 4.483l7.471-6.113.136 3.532-6.927 5.568.136 2.581 7.063-.136.135 2.853zm9.643-3.124v-2.173c-.136-3.668-1.63-4.89-3.803-4.89s-3.531 1.495-3.531 5.025v2.174zM24.164 133.025l.407-2.716c2.173.135 3.667-1.087 3.94-3.939.27-2.581-.408-4.347-2.31-4.618-1.494-.136-2.309.679-3.124 2.309l-2.037 3.938c-1.087 2.174-2.852 3.939-5.569 3.532-3.395-.408-4.754-3.667-4.346-7.335.543-3.802 2.716-6.247 6.655-5.84l-.407 2.717c-2.717-.272-3.532 1.629-3.803 3.531-.272 2.445.679 3.939 2.173 4.075 1.222.135 2.173-.544 2.988-2.038l2.037-3.939c1.494-2.988 2.988-4.21 5.569-3.803 3.939.544 5.161 3.803 4.618 7.742-.543 4.347-2.988 6.927-6.791 6.384M17.78 105.996l-1.765 6.248-2.31-.679 4.483-15.076 2.309.679-1.902 6.247 16.027 4.754-.815 2.717zM30.412 71.77l3.395-4.89c2.31-3.396 5.569-4.482 8.285-2.716 1.63 1.086 2.038 2.716 1.63 4.482 1.358-1.087 3.532-1.766 5.569-.272 2.716 1.901 2.852 5.569.543 8.964l-3.803 5.433zm8.285 2.309 1.63-2.31c1.63-2.309 1.765-3.938.136-5.16-1.359-.951-3.124-.816-4.754 1.63l-1.63 2.444zm7.063 4.89 2.037-2.989c1.766-2.58 1.222-4.346-.136-5.297-1.494-1.087-3.26-.543-4.89 1.765l-2.037 3.125zM54.86 66.744l3.26-3.395-10.323-9.915-3.26 3.395-1.765-1.63 8.42-8.828 1.766 1.63-3.26 3.395 10.323 9.915 3.26-3.395 1.765 1.63-8.42 8.828zM62.737 39.85l-5.161 3.94-1.494-1.902 12.631-9.508 1.494 1.902-5.16 3.939 10.05 13.31-2.309 1.63zM74.554 28.85l11.001-5.841 1.087 2.173-8.557 4.482 2.717 5.161 7.47-3.938 1.086 2.173-7.47 3.938 2.852 5.433 8.557-4.482 1.087 2.173-10.866 5.569zM111.226 17.44c-.544-3.395 1.222-5.297 3.259-5.568 1.766-.272 3.939.543 4.754 2.58.136-2.173 1.902-3.667 3.667-4.074 2.038-.408 4.347.815 4.89 4.21.679 4.075-1.087 10.73-5.705 16.57-6.383-3.938-10.186-9.643-10.865-13.718"/></g><defs><clipPath id="a"><path fill="#fff" d="M0 0h282v282H0z"/></clipPath></defs></svg>