<svg xmlns="http://www.w3.org/2000/svg" width="241" height="241" fill="none"><g clip-path="url(#a)"><path fill="#000" d="M120.5 241c66.55 0 120.5-53.95 120.5-120.5S187.05 0 120.5 0 0 53.95 0 120.5 53.95 241 120.5 241"/><path fill="#fff" d="M122.622 22.504c.323-4.151 2.287-6.59 5.718-6.324 2.462.194 4.269 1.648 4.158 4.87l-1.843-.139c-.038-1.942-.702-2.936-2.38-3.065-2.924-.23-3.504 2.568-3.679 4.842-.204 2.614.091 5.062 2.785 5.274 1.199.092 2.037-.304 2.775-.893l.221-2.872-3.034-.23.121-1.583 4.878.377-.545 6.977-1.493-.11.111-1.427c-.462.607-1.688 1.528-3.597 1.38-3.522-.285-4.463-3.653-4.196-7.077M139.203 17.773l1.872.414-2.471 11.072 6.501 1.445-.359 1.592-8.374-1.859zM150.564 29.278l2.978-7.851 1.79.68-2.979 7.852c-.821 2.154-.442 3.175 1.263 3.82 1.706.644 2.665.12 3.486-2.034l2.979-7.852 1.789.682-2.979 7.85c-1.189 3.14-3.044 3.995-5.864 2.928-2.823-1.068-3.653-2.937-2.463-6.075M169.818 30.318l-3.836-2.117.792-1.427 9.379 5.182-.793 1.427-3.873-2.145-5.505 9.932-1.678-.92zM180.874 35.122l6.751 5.099-.987 1.307-5.219-3.94-2.361 3.12 4.537 3.434-.987 1.307-4.537-3.424-2.517 3.323 5.219 3.94-.987 1.306-6.749-5.099zM192.67 44.64l1.807 1.812-5.026 10.723 2.499-2.77 5.247-5.21 1.218 1.224-9.222 9.15-1.807-1.814 5.026-10.723-2.499 2.77-5.248 5.21-1.217-1.224zM205.727 69.545l9.176 1.464-3.744 8.486-9.176-1.464zM223.248 95.97l.802 3.709c.683 3.148-.147 5.541-2.867 6.13s-4.464-1.224-5.146-4.4l-.396-1.84-4.685 1.012-.406-1.868zm-6.012 3.258.405 1.868c.517 2.384 1.688 3.093 3.127 2.789 1.42-.304 2.212-1.445 1.697-3.819l-.406-1.869zM226.181 113.927l.147 2.062-12.643 5.476-.147-2.061 3.005-1.252-.349-5.044-3.155-.819-.137-2.016zm-8.401-.469.285 4.087 1.909-.801 4.297-1.685-4.49-1.067zM226.54 125.957l-.139 1.905-11.333-.791-.47 6.636-1.632-.111.6-8.532zM225.147 140.305l-.535 2.476-4.546.525-2.978.258 2.618 1.436 3.929 2.356-.516 2.411-12.718-2.733.37-1.685 7.441 1.602 3.504.92-6.879-4.068.315-1.436 7.948-.883-3.568-.608-7.442-1.601.359-1.685zM210.282 165.682c3.707 2.016 5.201 4.712 3.522 7.786-1.669 3.056-4.647 3.24-8.298 1.252-3.708-2.016-5.183-4.703-3.505-7.768 1.669-3.056 4.656-3.239 8.281-1.27m-3.882 7.262c1.926 1.048 4.61 2.191 5.975-.313s-1.051-4.133-2.979-5.182c-1.899-1.031-4.582-2.182-5.956.332-1.365 2.502 1.051 4.132 2.96 5.163M198.812 175.935l-1.901 2.55 7.802 5.798 1.9-2.55 1.31.977-4.925 6.608-1.31-.976 1.891-2.531-7.801-5.798-1.891 2.53-1.31-.975 4.935-6.609zM198.46 194.564l-1.346 1.352-8.069-7.988-4.693 4.721-1.163-1.15 6.041-6.075zM173.598 207.772l-1.401 9.158-8.521-3.683 1.402-9.166zM145.925 216.276l-1.825.405c-.415-1.435-1.568-2.034-3.431-1.62-1.706.377-2.683 1.306-2.398 2.586.222.985.979 1.288 2.214 1.445l2.941.359c1.651.202 3.145.883 3.56 2.725.498 2.246-1.189 3.875-3.689 4.427-2.563.571-4.62-.267-5.218-2.872l1.797-.405c.49 1.776 1.845 1.923 3.108 1.648 1.641-.368 2.351-1.298 2.121-2.338-.194-.856-.894-1.261-2.01-1.39l-2.941-.359c-2.204-.267-3.348-.93-3.736-2.66-.581-2.586 1.264-4.17 3.901-4.759 2.877-.643 5.044.268 5.606 2.808M132.028 219.875l.646 8.367-1.909.147-.645-8.367c-.175-2.292-.96-3.065-2.767-2.927-1.816.138-2.462 1.022-2.287 3.314l.655 8.375-1.91.148-.654-8.367c-.258-3.35 1.052-4.906 4.067-5.136 3.006-.239 4.546 1.095 4.804 4.446M118.63 222.544c-.268 4.16-2.195 6.618-5.625 6.397-2.463-.156-4.288-1.583-4.224-4.805l1.845.12c.064 1.942.737 2.927 2.416 3.037 2.923.184 3.467-2.614 3.614-4.887.166-2.614-.166-5.063-2.858-5.228-1.199-.073-2.029.332-2.758.929l-.184 2.873 3.034.193-.102 1.583-4.878-.303.443-6.977 1.494.091-.092 1.427c.451-.617 1.669-1.556 3.578-1.435 3.531.202 4.518 3.562 4.297 6.985M99.126 226.888l-2.029-.424-1.844-13.639 2.028.423.388 3.23 4.961 1.032 1.641-2.808 1.983.415zm2.739-7.933-4.021-.838.258 2.052.461 4.584 2.25-4.022zM87.396 223.943l-3.163-1.15c-3.145-1.142-4.602-3.14-3.717-5.56.72-1.969 2.426-2.771 4.27-2.568l-2.029-6.222 2.25.82 1.752 5.78 1.623.588 1.65-4.537 1.8.653zm.442-6.812-1.383-.506c-2.296-.837-3.523-.23-4.03 1.161-.498 1.361.046 2.631 2.342 3.469l1.384.506zM64.932 206.943l-8.927 2.568-.22-9.269 8.926-2.568zM37.803 190.486l-2.315-3.01c-1.964-2.558-2.24-5.072-.027-6.765s4.555-.8 6.538 1.776l1.152 1.501 3.8-2.918 1.162 1.519zm4.048-5.504-1.162-1.519c-1.484-1.932-2.85-2.079-4.02-1.186-1.153.883-1.384 2.244.11 4.177l1.162 1.52zM28.978 178.199l-1.65-2.927c-1.642-2.909-1.44-5.366.81-6.636 1.826-1.031 3.652-.516 4.916.828l2.526-6.037 1.18 2.088-2.443 5.523.849 1.5 4.223-2.366.94 1.667zm4.786-4.878-.72-1.28c-1.198-2.127-2.526-2.466-3.808-1.74-1.263.709-1.687 2.034-.489 4.161l.72 1.279zM21.987 164.788l-3.061-7.868 1.521-.589 2.37 6.092 3.652-1.417-2.056-5.302 1.521-.588 2.057 5.301 3.891-1.51-2.37-6.093 1.522-.589 3.061 7.87zM26.156 149.133l-.424-1.813c1.439-.423 2.029-1.574 1.596-3.433-.397-1.703-1.328-2.669-2.61-2.375-.987.23-1.291.985-1.43 2.218l-.34 2.937c-.185 1.647-.858 3.147-2.703 3.57-2.25.516-3.891-1.159-4.463-3.644-.59-2.559.23-4.611 2.831-5.238l.415 1.795c-1.78.506-1.909 1.86-1.623 3.112.378 1.637 1.319 2.337 2.352 2.098.857-.193 1.254-.902 1.374-2.016l.34-2.936c.25-2.209.905-3.351 2.638-3.746 2.582-.598 4.187 1.234 4.795 3.856.692 2.863-.203 5.026-2.748 5.615M14.04 135.658l-.71-8.412 1.631-.139.554 6.517 3.91-.332-.48-5.669 1.632-.137.48 5.669 4.159-.351-.554-6.515 1.633-.139.71 8.422zM13.255 120.554l.184-3.35c.185-3.332 1.679-5.302 4.26-5.154 2.094.119 3.357 1.527 3.69 3.341l5.385-3.737-.139 2.393-5.035 3.341-.092 1.721 4.832.267-.11 1.905zm6.667-1.537.083-1.473c.139-2.439-.802-3.433-2.277-3.516-1.448-.082-2.518.801-2.656 3.24l-.083 1.473zM14.298 106.978l.405-2.007 7.35-.893 4.362-.441-3.827-2.035-6.483-3.672.396-1.96 11.85 7.022-.415 2.071zM19.092 87.87l.691-1.951 13.786.028-.691 1.95-3.255-.054-1.697 4.767 2.564 2.007-.683 1.905zm7.515 3.783 1.374-3.856-2.075-.028-4.61-.175 3.688 2.77zM26.516 74.672l-2.038 3.866-1.448-.764 4.99-9.47 1.447.763-2.056 3.912 10.06 5.283-.894 1.694zM40.293 70.19l1.863-2.577-7.885-5.688-1.863 2.577-1.327-.957 4.84-6.673 1.329.957-1.854 2.559 7.885 5.688 1.853-2.56 1.319.958-4.842 6.673zM39.316 52.656l1.429-1.472 6.676 3.203 3.92 1.978-2.122-3.773-3.476-6.58 1.392-1.437 6.179 12.297-1.476 1.528zM51.229 41.04l6.676-5.19 1.005 1.288-5.163 4.013 2.406 3.083 4.491-3.488 1.005 1.289-4.49 3.488 2.563 3.286 5.164-4.013 1.005 1.288-6.676 5.191zM67.45 40.534l1.622-.93c.821 1.252 2.094 1.483 3.763.535 1.521-.866 2.176-2.044 1.521-3.176-.507-.883-1.31-.948-2.536-.727l-2.914.525c-1.632.294-3.264.092-4.205-1.547-1.143-1.997-.009-4.05 2.214-5.32 2.277-1.306 4.49-1.104 5.837 1.197l-1.605.911c-.996-1.555-2.333-1.288-3.458-.653-1.457.837-1.863 1.942-1.337 2.862.433.755 1.227.94 2.333.736l2.914-.524c2.186-.396 3.477-.101 4.352 1.436 1.32 2.3.028 4.353-2.314 5.697-2.554 1.464-4.897 1.233-6.188-1.022M90.974 25.1l4.362-9.435 8.032 6.6-4.353 9.433z"/></g><path fill="#fff" d="m116.324 140.026 2.499-.294v-37.779c0-7.203 1.617-10.364 5.365-15.803v-.147h-12.936v.147c3.896 5.513 5.366 8.526 5.439 15.95l.147 18.081-27.195-34.178h-16.39v.147c3.454 3.97 4.998 6.468 5.365 11.613v26.093c0 7.35-1.543 10.363-5.439 15.802v.147h13.23v-.147c-3.969-5.439-5.586-8.599-5.586-15.802l-.294-28.518zm29.484.882c10.804 0 19.771-8.747 19.771-18.963s-8.967-19.11-19.771-19.11-19.772 8.893-19.772 19.11 8.967 18.963 19.772 18.963m0-1.397c-5.219 0-7.571-7.129-7.571-17.566s2.279-17.714 7.571-17.714c5.218 0 7.57 7.277 7.57 17.714s-2.352 17.566-7.57 17.566"/><defs><clipPath id="a"><path fill="#fff" d="M0 0h241v241H0z"/></clipPath></defs></svg>