<svg xmlns="http://www.w3.org/2000/svg" width="36" height="25" fill="none"><g clip-path="url(#a)"><path fill="#000" d="M11.64 12.663q0 .602-.398 1a1.33 1.33 0 0 1-.976.4q-.453 0-.727-.26-.273-.262-.273-.717 0-.602.39-1.017t.969-.415q.438 0 .727.268.289.27.289.74zm12.266-2.425q0 .683-.343.927-.344.245-1.032.245l-.5.016.266-1.742q.03-.18.203-.179h.281q.345 0 .547.033a.76.76 0 0 1 .39.203q.189.171.188.497m5.485 2.425q0 .585-.399.993a1.3 1.3 0 0 1-.96.406q-.454 0-.735-.26-.282-.26-.281-.716 0-.602.39-1.017t.969-.415q.438 0 .727.268.288.27.289.74zM8.016 9.88q0-.96-.602-1.392-.601-.431-1.57-.431h-2.5q-.298 0-.328.309L2 15.006a.23.23 0 0 0 .047.18.19.19 0 0 0 .156.08h1.188q.313 0 .343-.308l.282-1.79a.32.32 0 0 1 .109-.212.5.5 0 0 1 .234-.106q.141-.024.266-.024t.297.016q.171.015.219.016 1.343 0 2.109-.79.765-.789.766-2.188m4.828 5.078.64-4.248a.23.23 0 0 0-.046-.18.19.19 0 0 0-.157-.08h-1.187q-.22 0-.266.536-.422-.65-1.484-.65-1.125 0-1.914.878a3 3 0 0 0-.79 2.067q0 .96.54 1.53.539.57 1.445.57.438 0 .906-.196c.287-.112.544-.29.75-.52q-.062.195-.062.342 0 .26.203.26H12.5q.297 0 .344-.31zm6.984-4.28a.24.24 0 0 0-.062-.155q-.063-.075-.141-.074h-1.203q-.173 0-.281.163l-1.657 2.539-.687-2.441q-.078-.26-.344-.26h-1.172q-.078 0-.14.073a.24.24 0 0 0-.063.154q0 .033.305.96l.656 2.002q.351 1.074.367 1.14-1.281 1.823-1.281 1.953 0 .21.203.211h1.203q.173 0 .281-.162l3.985-5.99q.03-.033.031-.114zm5.938-.798q0-.96-.602-1.392-.601-.431-1.57-.431h-2.485q-.312 0-.343.309l-1.016 6.64a.23.23 0 0 0 .047.18.19.19 0 0 0 .156.08h1.281q.188 0 .25-.21l.282-1.889a.32.32 0 0 1 .109-.211.5.5 0 0 1 .234-.106q.141-.024.266-.024.124 0 .297.016.171.015.219.016 1.344 0 2.109-.79.766-.789.766-2.188m4.828 5.078.64-4.248a.22.22 0 0 0-.047-.18.19.19 0 0 0-.156-.08h-1.187q-.22 0-.266.536-.405-.65-1.484-.65-1.125 0-1.914.878a3 3 0 0 0-.79 2.067q0 .96.54 1.53.539.57 1.445.57.454 0 .922-.196.468-.195.734-.52 0 .016-.031.146a1 1 0 0 0-.031.196q0 .26.203.26h1.078q.297 0 .344-.31zM34 8.3v-.017q0-.227-.203-.227H32.64q-.173 0-.203.179l-1.016 6.77-.016.033q0 .081.063.155a.2.2 0 0 0 .156.073h1.031q.297 0 .328-.31L34 8.302zM6.125 10.48q-.079.57-.406.75-.329.178-.938.178l-.515.017.265-1.742q.032-.18.203-.179h.297q.625 0 .907.187.281.187.187.79zM36 2.084v20.834q0 .846-.594 1.464-.593.62-1.406.619H2q-.813 0-1.406-.619A2.04 2.04 0 0 1 0 22.918V2.083Q0 1.238.594.618 1.188 0 2 0h32q.813 0 1.406.618.594.62.594 1.465z"/></g><defs><clipPath id="a"><path fill="#fff" d="M0 0h36v25H0z"/></clipPath></defs></svg>