<svg xmlns="http://www.w3.org/2000/svg" width="93" height="111" fill="none"><path fill="#000" d="M18.889 30.55c1.306-.856 2.536-1.68 3.705-2.463 8.662-5.812 14.338-9.631 25.926-9.474 11.264.173 17.017 4.933 22.583 9.535.917.756 1.834 1.518 2.767 2.252 6.082 4.765 12.515 6.271 19.135 4.457C84.042 11.03 66.938.257 60.384.017 54.81-.192 49.942 2.882 46.495 3.078 43.047 3.275 39.6.151 34.144.011S18.73 6.204 12.313 13.237C6.62 19.48 1.152 32.18 0 34.952c.082.028 8.35 2.52 18.889-4.401m-4.106-15.678C18.559 10.23 31.855-1.49 43.025 5.358a.8.8 0 0 1 .264 1.081.764.764 0 0 1-1.06.269C31.986.425 19.526 11.5 15.97 15.874a.76.76 0 0 1-.593.286.8.8 0 0 1-.494-.18.795.795 0 0 1-.1-1.108M58.275 42.394c-.236.073-.462.146-.697.219 0 0-2.076.761-3.075.935-1.547.442-3.052.812-4.5 1.013a30 30 0 0 1-4.173.314c-2.602 0-5.44-.403-9.2-1.484-.587-.084-1.784-.543-1.784-.543a105 105 0 0 1-5.961-2.122C19.432 37.069 2.262 37.483.044 37.55 6.549 56.399 19.3 63.56 26.102 65.582c3.354.997 8.52 2.374 15.227 2.878C39.1 57.71 30.46 53.83 30.356 53.784a.79.79 0 0 1-.406-1.03.767.767 0 0 1 1.01-.415c.06.028 3.052 1.372 6.082 4.586 1.938 1.758 3.798 3.97 4.666 6.507 2.201 6.445 1.916 8.981 1.916 15.92 0 13.304-.83 17.621-1.57 21.401-1.159 5.913-.264 10.23 2.53 10.241 3.623.012 2.679-5.857 2.487-8.791-.192-2.928-1.806-5.18-1.603-15.136.126-6.053 0-11.815 0-15.331 0-1.518.335-4.11 1.147-6.568.006-.028.017-.05.022-.079.006-.011.006-.016.011-.028.51-1.702 1.252-3.31 2.333-4.429.297-.308.615-.554.939-.773.78-.577 1.669-.918 2.695-.918.818 0 1.56.201 2.245.526.939.376 1.784.991 2.514 1.865 1.021 1.21 1.73 2.81 2.202 4.49.592 1.77.883 3.54.883 4.833v11.138s-.247 3.611-1.141 7.206c-.84 3.377-.494 7.554 1.674 7.549 1.52-.006 2.366-2.117 1.68-6.076-.752-4.362-.94-5.213-.94-8.774v-9.945s-.076-1.607.182-3.78c.011-.106.027-.207.038-.314.033-.324.088-.638.143-.957.039-.224.077-.448.126-.672.401-2.005 1.11-4.2 2.372-5.997.126-.18.247-.347.373-.515 2.075-3.382 4.457-5.684 4.644-5.863a.755.755 0 0 1 1.087.04.79.79 0 0 1-.038 1.108c-.072.067-5.649 5.443-6.972 11.759a83 83 0 0 0 3.86-.997c17.889-5.129 24.25-23.977 25.437-28.07-1.708.112-11.984.806-20.585 1.607-5.435.52-10.051 1.993-14.124 3.292"/><path fill="#000" d="M45.935 40.815H34.852v.392c4.797 1.563 8.096 2.106 11.083 2.095zM49.799 43.01c2.398-.33 5.011-1.153 7.783-2.038v-.151H47.477v2.43a37 37 0 0 0 2.322-.24M52.62 60.615c-.977 0-1.811.37-2.541 1.126-1.515 1.568-2.267 4.412-2.64 6.904a73.4 73.4 0 0 0 11.006-1.008c-.396-1.965-1.093-3.925-2.23-5.275-.987-1.176-2.162-1.747-3.595-1.747M62.798 27.068c.301.437.823.806 1.789.806 1.367 0 2.618.034 3.546-.145q-.61-.495-1.235-.974c-.027-.023-.055-.04-.082-.062a43 43 0 0 0-2.306-1.652l-.56-.37a34 34 0 0 0-1.158-.722v3.12zM32.48 23.764v4.279c.67 1.12 2.416 2.766 6.934 2.766 4.704 0 6.29-.991 6.817-2.223v-8.383c-5.615.19-9.7 1.45-13.75 3.561M48.492 20.18c-.247-.005-.477.006-.724.006v8.792c.724 1.013 2.448 1.763 6.554 1.763 4.517 0 6.263-1.646 6.933-2.766V23.11c-3.37-1.708-7.383-2.85-12.763-2.928M25.888 27.763c.91.14 2.08.112 3.36.112.855 0 1.371-.297 1.684-.667v-2.603c-1.619.923-3.271 1.982-5.044 3.158"/></svg>