<svg xmlns="http://www.w3.org/2000/svg" width="36" height="25" fill="none"><g clip-path="url(#a)"><path fill="#000" d="M30.86 14.03h-2.157q.22-.602 1.031-2.913l.047-.147q.063-.164.157-.423.077-.21.14-.423l.188.895zM8.296 12.972 7.39 8.171q-.173-.88-1.172-.88H2.03L2 7.504q4.86 1.286 6.297 5.469zm2.797-5.68-2.53 7.128-.266-1.449q-.407-1.14-1.328-2.108-.922-.968-2.047-1.44l2.11 8.3h2.734l4.078-10.432zm2.172 10.449h2.593l1.625-10.45H14.89zm12-10.189a6.1 6.1 0 0 0-2.328-.44q-1.923 0-3.141.96-1.219.961-1.235 2.491-.015 1.66 2.266 2.832.75.375 1.047.668.297.292.297.634 0 .489-.469.749t-1.078.26q-1.343 0-2.438-.537l-.343-.179-.36 2.344q1.157.553 2.891.553 2.031.017 3.258-.96 1.227-.976 1.258-2.604 0-1.725-2.188-2.832-.765-.407-1.11-.684-.343-.276-.343-.618 0-.358.383-.627.382-.268 1.101-.268 1.094-.017 1.938.39l.234.13zm6.64-.26h-2q-1.015 0-1.36.879l-3.843 9.57h2.719l.547-1.563h3.312q.079.36.313 1.563H34L31.906 7.29zM36 2.083v20.834q0 .846-.594 1.464-.593.62-1.406.619H2q-.813 0-1.406-.619A2.05 2.05 0 0 1 0 22.918V2.083Q0 1.238.594.618 1.188 0 2 0h32q.813 0 1.406.618.594.62.594 1.465"/></g><defs><clipPath id="a"><path fill="#fff" d="M0 0h36v25H0z"/></clipPath></defs></svg>