<svg xmlns="http://www.w3.org/2000/svg" width="282" height="282" fill="none"><g clip-path="url(#a)"><path fill="#000" d="M141 282c77.872 0 141-63.128 141-141S218.872 0 141 0 0 63.128 0 141s63.128 141 141 141"/><path fill="#fff" d="m146.452 33.22 10.041-12.027-8.798-.756.17-2.107 11.826 1.011-.159 1.841-10.041 12.027 9.095.777-.181 2.107-12.123-1.032zM168.148 20.789l10.593 2.639-.51 2.054-8.202-2.043-1.222 4.917 7.13 1.777-.51 2.054-7.131-1.777L167 35.646l8.204 2.044-.511 2.054-10.593-2.64zM187.168 26.302l3.996 1.713c3.963 1.703 5.695 4.385 4.387 7.45-1.061 2.491-3.326 3.406-5.683 3.013l2.167 8.184-2.848-1.213-1.837-7.589-2.052-.872-2.455 5.757-2.263-1zm-1.062 8.77 1.753.755c2.901 1.246 4.527.543 5.27-1.213.733-1.724.127-3.416-2.773-4.65l-1.753-.746zM199.408 41.224c2.902-4.609 6.514-6.312 10.339-3.896 3.803 2.405 3.793 6.269.935 10.803-2.9 4.608-6.493 6.29-10.317 3.874-3.804-2.395-3.794-6.269-.957-10.782m9.053 5.619c1.509-2.395 3.21-5.758.085-7.738-3.123-1.969-5.419 1.012-6.927 3.406-1.488 2.374-3.188 5.737-.075 7.706s5.43-1.011 6.917-3.374M235.705 59.519l3.135 3.789c2.656 3.214 3.134 6.45.361 8.748-2.774 2.3-5.845 1.256-8.522-1.98l-1.551-1.883-4.76 3.96-1.572-1.906zm-4.951 7.322 1.572 1.905c2.009 2.438 3.773 2.555 5.238 1.342 1.445-1.203 1.669-2.98-.34-5.407l-1.572-1.905zM247.744 75.196l1.254 2.129-12.623 7.482 4.377 7.418-1.816 1.075-5.632-9.547zM258.624 96.323l.977 2.5-13.452 11.666-.977-2.501 3.219-2.704L246 99.186l-4.196.212-.958-2.437zm-10.52 2.671 1.934 4.939 2.04-1.725 4.632-3.746-5.939.415zM251.834 112.937l.511 2.363c-1.86.532-2.635 2.011-2.115 4.427.478 2.214 1.668 3.48 3.326 3.119 1.275-.277 1.678-1.246 1.88-2.853l.479-3.799c.265-2.129 1.158-4.066 3.538-4.588 2.911-.638 5.004 1.565 5.706 4.79.722 3.32-.372 5.971-3.741 6.737l-.51-2.331c2.307-.628 2.497-2.373 2.147-4.002-.468-2.128-1.668-3.054-3.007-2.756-1.106.244-1.636 1.149-1.807 2.586l-.489 3.8c-.349 2.852-1.221 4.321-3.463 4.81-3.347.735-5.387-1.66-6.13-5.066-.798-3.725.392-6.513 3.675-7.237M265.339 134.978l-.318-5.651 2.103-.117.776 13.836-2.104.117-.318-5.715-14.642.819-.138-2.469zM253.024 149.081l-.413 4.097 12.496 1.256.414-4.087 2.104.213-1.074 10.611-2.104-.212.405-4.067-12.496-1.255-.405 4.065-2.103-.213 1.063-10.611zM257.082 166.769c5.494 1.458 7.853 4.65 6.695 9.026-.744 2.787-2.794 5.544-7.173 4.533l.617-2.31c2.443.405 3.942-.681 4.505-2.841.967-3.662-2.125-5.099-5.292-5.939-2.985-.798-6.417-1.086-7.394 2.565-.649 2.448.148 3.863 2.486 4.673l-.616 2.33c-4.135-1.256-4.73-4.586-3.932-7.588 1.19-4.512 4.834-5.855 10.104-4.449M240.911 199.581l-1.318 2.024c-1.689-.959-3.283-.47-4.632 1.596-1.232 1.893-1.297 3.629.117 4.565 1.094.714 2.071.319 3.346-.66l3.04-2.319c1.699-1.31 3.697-2.033 5.747-.692 2.487 1.628 2.403 4.661.595 7.439-1.858 2.842-4.505 3.917-7.417 2.054l1.298-2.001c2.061 1.203 3.441.117 4.357-1.287 1.19-1.82.998-3.332-.15-4.088-.946-.617-1.965-.362-3.113.522l-3.039 2.32c-2.274 1.745-3.931 2.161-5.854.905-2.869-1.874-2.604-5.013-.702-7.929 2.094-3.172 4.909-4.279 7.725-2.449M239.02 223.082l-1.656 1.83-5.313-4.821-3.795 4.193 5.313 4.821-1.656 1.832-12.444-11.282 1.658-1.831 5.578 5.066 3.793-4.193-5.578-5.066 1.659-1.831zM220.936 229.798c3.411 4.247 3.845 8.216.318 11.058-3.496 2.82-7.151 1.554-10.498-2.629-3.411-4.246-3.826-8.195-.298-11.027 3.497-2.82 7.14-1.553 10.478 2.598m-8.246 6.758c1.774 2.204 4.399 4.907 7.267 2.597 2.879-2.31.808-5.46-.967-7.673-1.753-2.183-4.377-4.886-7.246-2.576s-.808 5.459.946 7.652M209.364 249.084l-4.261 2.436c-3.613 2.066-6.885 1.98-8.67-1.149s-.223-5.981 3.42-8.068l2.115-1.213-3.059-5.386 2.146-1.224zm-6.344-6.152-2.146 1.224c-2.741 1.563-3.167 3.278-2.221 4.937.925 1.629 2.636 2.161 5.377.597l2.146-1.224zM164.493 248.806c5.918-1.192 9.233 2.3 10.147 6.833s-.786 9.036-6.715 10.239c-5.919 1.192-9.234-2.3-10.147-6.823s.796-9.056 6.715-10.249M136.336 253.053l-10.403 11.718 8.777 1.021-.244 2.097-11.795-1.372.213-1.832 10.402-11.717-9.074-1.055.244-2.096 12.092 1.406zM114.256 264.802l-10.508-2.969.574-2.032 8.128 2.298 1.371-4.874-7.077-2.001.574-2.033 7.077 2.001 1.466-5.193-8.129-2.3.574-2.033 10.509 2.969zM95.439 258.715l-3.942-1.831c-3.91-1.819-5.557-4.555-4.155-7.588 1.137-2.459 3.432-3.299 5.78-2.831l-1.912-8.248 2.805 1.308 1.605 7.642 2.018.937 2.636-5.673 2.241 1.044zm1.328-8.749-1.721-.798c-2.858-1.331-4.505-.681-5.302 1.044-.787 1.701-.234 3.405 2.624 4.736l1.722.798zM83.655 243.411c-3.049 4.523-6.704 6.108-10.455 3.576-3.73-2.523-3.591-6.386-.595-10.835 3.05-4.523 6.683-6.088 10.434-3.556 3.72 2.523 3.592 6.386.616 10.815m-8.882-5.908c-1.584 2.352-3.38 5.663-.33 7.727 3.06 2.066 5.451-.84 7.034-3.192 1.562-2.321 3.369-5.63.308-7.706-3.05-2.054-5.45.852-7.012 3.171M47.943 224.018l-3.018-3.885c-2.56-3.288-2.932-6.545-.095-8.758 2.837-2.214 5.875-1.075 8.457 2.246l1.499 1.926 4.887-3.81 1.52 1.947zm5.174-7.173-1.519-1.948c-1.934-2.49-3.698-2.671-5.196-1.501-1.477 1.15-1.764 2.928.17 5.418l1.52 1.948zM36.382 207.948l-1.19-2.171 12.857-7.078-4.144-7.547 1.849-1.021 5.334 9.717zM26.172 186.533l-.904-2.522 13.813-11.249.904 2.522-3.305 2.607 2.21 6.173 4.208-.084.882 2.469zm10.604-2.34-1.785-4.992-2.093 1.671-4.75 3.597 5.95-.234zM33.472 170.122l-.436-2.374c1.88-.468 2.699-1.926 2.253-4.353-.415-2.224-1.562-3.533-3.23-3.213-1.286.234-1.711 1.191-1.966 2.787l-.606 3.779c-.33 2.118-1.285 4.023-3.676 4.47-2.922.543-4.952-1.713-5.547-4.971-.616-3.341.563-5.948 3.942-6.608l.436 2.34c-2.316.555-2.571 2.3-2.263 3.939.393 2.138 1.572 3.097 2.922 2.852 1.115-.202 1.668-1.096 1.891-2.532l.606-3.779c.446-2.841 1.35-4.278 3.602-4.704 3.368-.629 5.334 1.83 5.971 5.257.68 3.736-.605 6.493-3.9 7.11M20.646 147.676l.15 5.661-2.115.054-.351-13.857 2.114-.053.15 5.715 14.662-.372.064 2.469zM33.386 133.957l.531-4.077-12.442-1.639-.531 4.077-2.094-.277 1.392-10.579 2.094.276-.532 4.045 12.443 1.639.53-4.044 2.094.276-1.392 10.579zM29.88 116.151c-5.44-1.629-7.704-4.885-6.407-9.228.829-2.767 2.964-5.46 7.31-4.31l-.68 2.288c-2.433-.479-3.953.553-4.59 2.703-1.084 3.63 1.965 5.162 5.1 6.099 2.965.883 6.386 1.288 7.47-2.331.722-2.427-.022-3.863-2.338-4.747l.69-2.309c4.091 1.383 4.58 4.736 3.698 7.705-1.35 4.46-5.036 5.684-10.253 4.13M47.04 83.86l1.38-1.98c1.658 1.01 3.263.574 4.676-1.458 1.296-1.863 1.413-3.587.021-4.566-1.073-.745-2.05-.383-3.368.553l-3.113 2.225c-1.743 1.255-3.762 1.915-5.76.51-2.443-1.702-2.252-4.736-.36-7.45 1.944-2.788 4.632-3.778 7.48-1.83l-1.36 1.958c-2.02-1.266-3.443-.224-4.389 1.15-1.243 1.788-1.105 3.299.022 4.087.924.649 1.955.425 3.134-.426l3.113-2.225c2.327-1.681 3.996-2.043 5.876-.723 2.805 1.958 2.444 5.087.457 7.95-2.2 3.129-5.058 4.15-7.81 2.224M49.653 60.434l1.71-1.778 5.165 4.981 3.92-4.076-5.164-4.98 1.711-1.778 12.081 11.665-1.71 1.777-5.42-5.226-3.92 4.077 5.419 5.225-1.711 1.778zM67.93 54.261c-3.284-4.353-3.592-8.333.02-11.058 3.592-2.714 7.194-1.33 10.424 2.948 3.284 4.353 3.57 8.313-.032 11.037-3.591 2.704-7.204 1.33-10.413-2.927m8.457-6.503c-1.7-2.256-4.24-5.044-7.193-2.82-2.943 2.224-.978 5.439.733 7.695 1.679 2.235 4.229 5.023 7.172 2.788 2.944-2.203.967-5.417-.712-7.663M80.096 35.348l4.335-2.31c3.677-1.958 6.95-1.766 8.628 1.416 1.69 3.182.043 5.982-3.666 7.95l-2.157 1.15 2.901 5.481-2.178 1.16zm6.152 6.343 2.178-1.16c2.784-1.479 3.262-3.182 2.37-4.874-.882-1.66-2.572-2.246-5.356-.766l-2.178 1.16zM124.924 37.009c-5.95 1.022-9.159-2.576-9.935-7.131s1.063-9.004 7.013-10.026 9.159 2.576 9.935 7.131-1.063 9.015-7.013 10.026"/></g><g fill="#fff" clip-path="url(#b)"><path d="M115.328 150.616a5.5 5.5 0 0 0-.591-1.337 2.94 2.94 0 0 1-.332-1.565c0-.384.166-.653-.207-.892a3.5 3.5 0 0 0-.716-.259l-3.858-1.203a9.65 9.65 0 0 0 2.79 4.541 27.4 27.4 0 0 0 2.821 3.805 3 3 0 0 1-.27-1.162c-.02-.622.457-1.275.363-1.928"/><path d="M109.458 144.075c1.514.466 3.039.923 4.543 1.41a2.5 2.5 0 0 1 1.369.819c.394.56.166 1.036.197 1.71 0 1.037.933 1.742.944 2.768 0 .622-.394 1.161-.374 1.773.085.563.314 1.095.664 1.544a10.5 10.5 0 0 0 5.384 3.836 26.9 26.9 0 0 0 8.017 1.244 3.3 3.3 0 0 0 2.863-1.254 7.4 7.4 0 0 0 1.12-2.208 10.2 10.2 0 0 1-3.381-3.173c-1.203-1.658-2.313-3.369-3.464-5.058a11 11 0 0 0-1.774-2.426 7.2 7.2 0 0 0-2.562-.975 19 19 0 0 0-2.697-.456c-.757-.072-1.525 0-2.271-.186a2.42 2.42 0 0 1-2.075-2.395c0-1.14.654-2.187.685-3.317 0-.685-.436-.85-.809-1.358-.488-.664-.125-1.348-.114-2.074a23 23 0 0 0-.426-2.747c-.093-.767-.124-1.555-.145-2.332 0-3.11.353-6.459-1.462-9.175-.426-.642.622-1.244 1.037-.601 1.981 2.954 1.556 6.603 1.628 9.973q.01 1.282.208 2.55c.179.767.297 1.547.352 2.332 0 .446-.28 1.13 0 1.483.28.352.436.383.602.642.248.397.368.86.342 1.327 0 1.099-.612 2.074-.674 3.193-.093 1.586 1.826 1.4 2.956 1.493 1.776.126 3.524.514 5.186 1.151 1.701.674 2.521 2.405 3.496 3.835s2.012 3.017 3.112 4.479a8.4 8.4 0 0 0 3.422 3.037.596.596 0 0 1 .28.674c-.663 2.239-1.991 4.582-4.615 4.789a23 23 0 0 1-4.367-.28 23.6 23.6 0 0 1-3.993-.767c-.446-.134-.892-.29-1.328-.456a31.3 31.3 0 0 0 6.223 3.027c7.728 2.789 17.426 1.452 24.386-2.83a33.33 33.33 0 0 0 13.214-15.716h-.135l-.819-.103a1.46 1.46 0 0 1-1.203-.798 4.681 4.681 0 0 1-.861-3.805c.684-2.146 2.998-3.006 4.854-3.929a.6.6 0 0 1 .374-.062 28.4 28.4 0 0 0-.695-9.838 10.66 10.66 0 0 0-2.531-6.427c0-.083-.073-.156-.114-.228a24 24 0 0 0-1.235-1.918 22 22 0 0 0-1.846-2.27 26.6 26.6 0 0 0-17.042-7.952c0 .073.063.104.073.177a.3.3 0 0 0 0 .093 18 18 0 0 0-2.51-.518 9.9 9.9 0 0 0-4.211.321 31.2 31.2 0 0 0-11.296 3.296 26.1 26.1 0 0 0-9.045 5.837 29.8 29.8 0 0 0-8.298 16.462 12 12 0 0 0-.497 3.297q.01.942.145 1.876a10.5 10.5 0 0 0 0 1.97c.111 1.39.419 2.758.913 4.063.072.384.134.778.197 1.151a1 1 0 0 1 .083 0m41.842-13.477c.438.936.785 1.911 1.037 2.913a27 27 0 0 1 .799 3.411 15 15 0 0 1-.094 5.816c-.394 1.648-1.244 3.949-3.06 4.509-1.815.56-3.557-.798-4.626-2.146a15.5 15.5 0 0 0-1.877-2.166 10.7 10.7 0 0 0-2.438-1.379c-1.545-.726-3.723-1.659-4.045-3.535a7.1 7.1 0 0 1 .384-2.851c.196-.78.489-1.532.871-2.239a4.5 4.5 0 0 1 1.629-1.742c.84-.466 1.836-.508 2.707-.912 1.577-.736 3.112-2.011 4.916-1.793a4.4 4.4 0 0 1 1.65.176 3.82 3.82 0 0 1 2.178 1.97zm-28.555-18.939c-.073-.757 1.141-.757 1.213 0 .218 2.26-.83 4.416-.633 6.655.277 1.18.663 2.332 1.152 3.442.268 1.108.428 2.24.477 3.379.035 1.022.16 2.038.373 3.038.104.414.27.943.799.912.405-.057.8-.172 1.172-.342a6.78 6.78 0 0 0 3.651-3.442c.716-1.565.768-3.67 2.624-4.416a3.122 3.122 0 0 1 2.49.28 2.63 2.63 0 0 0 2.51-.166 16 16 0 0 1 2.303-1.213 6.6 6.6 0 0 1 2.914-.166c2.324.249 4.637.508 6.96.747a6.94 6.94 0 0 0 3.112-.197 7.4 7.4 0 0 0 1.97-1.265 11.4 11.4 0 0 1 3.973-2.644.604.604 0 0 1 .635.859.6.6 0 0 1-.313.292c-1.857.539-3.112 2.208-4.626 3.245-2.075 1.379-4.471.943-6.836.694l-3.609-.394a11.7 11.7 0 0 0-3.444-.134c-1.732.373-2.998 2.073-4.896 1.783-.861-.114-1.825-.964-2.697-.643-.871.321-1.296 1.648-1.555 2.54a8.12 8.12 0 0 1-2.925 4.312c-1.1.83-3.517 2.208-4.751 1.037a4.02 4.02 0 0 1-.809-2.446c-.145-1.037-.187-2.167-.29-3.245a11.2 11.2 0 0 0-.872-3.338 7.3 7.3 0 0 1-.736-2.955c0-2.135.861-4.115.664-6.209"/><path d="M163.238 138.705c-.477 1.037.104 2.167.664 3.11l.104.176h.197c.156 0 .322 0 .477.063q.388.027.768.114a31.6 31.6 0 0 0 1.607-6.303c-.653.321-1.307.642-1.939 1.036a4 4 0 0 0-1.878 1.804M147.835 129.697a.7.7 0 0 1-.249 0h-.114c-.425 0-.861.103-1.275.165h-.146c-1.11.363-2.074 1.161-3.174 1.607q-1.287.327-2.51.85a3.8 3.8 0 0 0-1.359 1.742 11.6 11.6 0 0 0-.632 2.073 2.51 2.51 0 0 0 .249 2.416c1.037 1.212 2.79 1.7 4.149 2.425a8.3 8.3 0 0 1 2.002 1.421 24 24 0 0 1 1.514 1.845c.85 1.037 2.541 2.685 3.973 1.534a5.2 5.2 0 0 0 1.348-2.249c.28-.76.468-1.55.56-2.354.154-1.7.042-3.414-.332-5.079a20 20 0 0 0-1.473-4.769 2.76 2.76 0 0 0-1.722-1.596 3.6 3.6 0 0 0-.809-.031"/><path d="M174.907 127.945a52 52 0 0 0-.902-5.433c-.093-.497-.145-1.119-.28-1.658a23 23 0 0 0-.633-1.991 43 43 0 0 0-4.149-8.521 11 11 0 0 0-.498-.715 185 185 0 0 0 3.641-4.24c.736-.871-.456-2.073-1.297-1.275a4399 4399 0 0 0-9.957 9.817 24 24 0 0 1 1.846 2.27 609 609 0 0 0 4.232-4.789 130 130 0 0 1 1.805 3.359q.045.114.114.217c.123.186.296.333.498.425.28.571.56 1.141.819 1.721a28 28 0 0 1 1.494 4.054c.073.248.135.508.187.767l.062.331v.239c.083.891.384 1.783.539 2.674a35.8 35.8 0 0 1-2.655 20.578 39.8 39.8 0 0 1-13.277 16.452 26 26 0 0 1-7.717 3.815 37.72 37.72 0 0 1-29.706-3.753 34 34 0 0 1-1.411-.964c1.037-.892 2.002-1.793 2.998-2.695a13 13 0 0 1-2.469-1.421c-2.5 2.602-5.01 5.184-7.499 7.796a.8.8 0 0 0-.22.274.8.8 0 0 0 0 .685.8.8 0 0 0 .22.275.87.87 0 0 0 .648.294.86.86 0 0 0 .649-.294l4.076-3.556a37.06 37.06 0 0 0 20.558 6.863h3.444a90.5 90.5 0 0 0 1.431 15.425q-6.306.301-12.582.881h-.238a.4.4 0 0 0-.125.094.5.5 0 0 0 0 .632.4.4 0 0 0 .311.187 60.7 60.7 0 0 0 28.058-1.203.526.526 0 0 0 .251-.932.53.53 0 0 0-.386-.105q-6.587-.062-13.152.208a1 1 0 0 0 .072-.373c.062-5.07 0-10.149-.342-15.208a30.4 30.4 0 0 0 11.856-3.743 41.17 41.17 0 0 0 15.122-15.974 39.1 39.1 0 0 0 4.564-21.49"/></g><defs><clipPath id="a"><path fill="#fff" d="M0 0h282v282H0z"/></clipPath><clipPath id="b"><path fill="#fff" d="M41 41h200v207H41z"/></clipPath></defs></svg>